<?xml version="1.0" encoding="UTF-8" standalone="no"?><!DOCTYPE svg PUBLIC "-//W3C//DTD SVG 1.1//EN" "http://www.w3.org/Graphics/SVG/1.1/DTD/svg11.dtd"><svg width="100%" height="100%" viewBox="0 0 567 174" version="1.1" xmlns="http://www.w3.org/2000/svg" xmlns:xlink="http://www.w3.org/1999/xlink" xml:space="preserve" style="fill-rule:evenodd;clip-rule:evenodd;stroke-linejoin:round;stroke-miterlimit:1.41421;"><rect id="Artboard2" x="0" y="0" width="567" height="173.339" style="fill:none;"/><clipPath id="_clip1"><rect x="0" y="0" width="567" height="173.339"/></clipPath><g clip-path="url(#_clip1)"><rect x="0" y="0" width="567" height="176.32" style="fill:#fff;"/><g><rect x="175.698" y="58.485" width="101" height="101" style="fill:#3a3a3a;"/><g><path d="M212.395,75.313l0,11.442l13.803,0l0,16.16l-13.803,0l0,11.452l39.053,0l0,-39.054l-39.053,0Z" style="fill:#fff;fill-rule:nonzero;"/><rect x="200.948" y="89.117" width="22.893" height="11.441" style="fill:#fff;fill-rule:nonzero;"/></g><path d="M238.325,40.21c0.395,-0.827 0.815,-1.641 1.262,-2.441c1.218,-2.176 2.628,-4.244 4.207,-6.174c2.787,-3.406 6.101,-6.376 9.792,-8.774c3.193,-2.075 6.665,-3.717 10.296,-4.866c2.522,-0.798 5.118,-1.357 7.744,-1.67c1.411,-0.168 2.83,-0.262 4.251,-0.292c0.365,-0.006 0.73,-0.009 1.096,-0.007c0.727,0.007 1.454,0.027 2.18,0.069c1.343,0.076 2.682,0.216 4.011,0.42c3.715,0.568 7.351,1.634 10.784,3.162c4.992,2.222 9.539,5.415 13.333,9.347c3.679,3.813 6.638,8.309 8.674,13.201c1.794,4.311 2.862,8.915 3.157,13.575c0.291,4.596 -0.157,9.236 -1.344,13.687c-1.456,5.461 -4.019,10.61 -7.485,15.073c-2.016,2.596 -4.332,4.958 -6.887,7.025c-2.328,1.883 -4.855,3.519 -7.525,4.873c-2.57,1.303 -5.274,2.342 -8.055,3.095c-1.301,0.352 -2.617,0.637 -3.945,0.867l-0.227,0.038l-0.991,-5.917c0.205,-0.035 0.41,-0.07 0.615,-0.107c0.669,-0.123 1.335,-0.262 1.997,-0.421c1.373,-0.331 2.728,-0.743 4.053,-1.232c3.849,-1.42 7.448,-3.498 10.61,-6.111c4.218,-3.486 7.637,-7.914 9.931,-12.882c1.068,-2.314 1.891,-4.741 2.451,-7.228c0.562,-2.496 0.857,-5.052 0.886,-7.61c0.025,-2.23 -0.15,-4.462 -0.529,-6.66c-0.446,-2.587 -1.174,-5.125 -2.167,-7.555c-1.751,-4.282 -4.326,-8.217 -7.537,-11.545c-3.054,-3.165 -6.676,-5.775 -10.649,-7.661c-3.387,-1.608 -7.022,-2.684 -10.739,-3.181c-3.741,-0.5 -7.562,-0.421 -11.279,0.237c-3.801,0.673 -7.488,1.959 -10.885,3.791c-4.203,2.267 -7.949,5.363 -10.973,9.059c-1.392,1.7 -2.631,3.526 -3.695,5.449c-0.202,0.364 -0.397,0.731 -0.585,1.101l5.384,1.603l-12.99,13.863l-3.297,-18.71l5.07,1.509Z" style="fill:#737373;"/><g><path d="M290.198,13.485l-8,12.514l10,26.486l48,-11l-21.787,-25.558l-28.213,-2.442Z" style="fill:#fff;"/><path id="email-3-icon" d="M306.723,30.543l-13.468,-8.638l25.943,0l-12.475,8.638Zm0,3.152l-13.525,-8.898l0,14.268l26,0l0,-14.242l-12.475,8.872Z" style="fill:#737373;fill-rule:nonzero;"/></g><g transform="matrix(1,0,0,1,80.221,46.5159)"><text x="123.31px" y="89.48px" style="font-family:'Arial-BoldMT', 'Arial', sans-serif;font-weight:700;font-size:12px;fill:#fff;">ClientUI</text><text x="122.291px" y="103.48px" style="font-family:'ArialMT', 'Arial', sans-serif;font-size:12px;fill:#bfbfbf;">Endpoint</text></g><text x="326.624px" y="34.971px" style="font-family:'Arial-BoldMT', 'Arial', sans-serif;font-weight:700;font-size:12.12px;">PlaceOrder</text></g></g></svg>