<?xml version="1.0" encoding="UTF-8" standalone="no"?><!DOCTYPE svg PUBLIC "-//W3C//DTD SVG 1.1//EN" "http://www.w3.org/Graphics/SVG/1.1/DTD/svg11.dtd"><svg width="100%" height="100%" viewBox="0 0 404 147" version="1.1" xmlns="http://www.w3.org/2000/svg" xmlns:xlink="http://www.w3.org/1999/xlink" xml:space="preserve" style="fill-rule:evenodd;clip-rule:evenodd;stroke-linejoin:round;stroke-miterlimit:1.41421;"><rect id="Artboard1" x="0" y="0" width="404" height="147" style="fill:none;"/><g><rect x="0.5" y="0" width="403" height="147" style="fill:#fff;"/><rect x="103.5" y="45" width="101" height="101" style="fill:#3a3a3a;"/><g><path d="M137.539,119.409l1.699,0.538c-0.261,0.947 -0.694,1.65 -1.299,2.11c-0.606,0.459 -1.374,0.689 -2.305,0.689c-1.152,0 -2.099,-0.393 -2.841,-1.18c-0.742,-0.787 -1.113,-1.864 -1.113,-3.229c0,-1.444 0.373,-2.565 1.119,-3.364c0.746,-0.799 1.726,-1.198 2.941,-1.198c1.061,0 1.923,0.313 2.586,0.941c0.395,0.37 0.691,0.903 0.888,1.597l-1.734,0.415c-0.103,-0.45 -0.317,-0.805 -0.642,-1.066c-0.326,-0.26 -0.721,-0.39 -1.187,-0.39c-0.643,0 -1.165,0.231 -1.565,0.692c-0.4,0.462 -0.601,1.209 -0.601,2.243c0,1.097 0.198,1.878 0.592,2.344c0.395,0.465 0.908,0.698 1.539,0.698c0.465,0 0.866,-0.148 1.201,-0.444c0.336,-0.296 0.576,-0.761 0.722,-1.396l0,0Z" style="fill:#fff;fill-rule:nonzero;"/><rect x="140.729" y="113.923" width="1.663" height="8.676" style="fill:#fff;"/><path d="M144.096,115.461l0,-1.538l1.663,0l0,1.538l-1.663,0Zm0,7.137l0,-6.285l1.663,0l0,6.285l-1.663,0Z" style="fill:#fff;fill-rule:nonzero;"/><path d="M151.103,120.598l1.657,0.278c-0.213,0.608 -0.549,1.07 -1.009,1.388c-0.459,0.318 -1.034,0.476 -1.725,0.476c-1.093,0 -1.902,-0.357 -2.426,-1.071c-0.415,-0.572 -0.622,-1.294 -0.622,-2.166c0,-1.041 0.273,-1.857 0.817,-2.447c0.544,-0.59 1.233,-0.885 2.065,-0.885c0.935,0 1.673,0.309 2.214,0.927c0.54,0.617 0.799,1.563 0.775,2.837l-4.166,0c0.012,0.493 0.146,0.877 0.402,1.151c0.257,0.274 0.576,0.412 0.959,0.412c0.26,0 0.479,-0.071 0.657,-0.213c0.177,-0.143 0.311,-0.371 0.402,-0.687l0,0Zm0.095,-1.681c-0.012,-0.481 -0.136,-0.847 -0.373,-1.097c-0.237,-0.251 -0.525,-0.376 -0.864,-0.376c-0.363,0 -0.663,0.132 -0.9,0.396c-0.236,0.265 -0.353,0.624 -0.349,1.077l2.486,0Z" style="fill:#fff;fill-rule:nonzero;"/><path d="M159.921,122.598l-1.663,0l0,-3.207c0,-0.679 -0.036,-1.118 -0.107,-1.317c-0.071,-0.199 -0.186,-0.354 -0.346,-0.465c-0.16,-0.11 -0.352,-0.165 -0.577,-0.165c-0.288,0 -0.546,0.079 -0.775,0.236c-0.229,0.158 -0.386,0.367 -0.47,0.628c-0.085,0.26 -0.128,0.741 -0.128,1.444l0,2.846l-1.663,0l0,-6.285l1.545,0l0,0.924c0.548,-0.711 1.239,-1.066 2.071,-1.066c0.367,0 0.702,0.066 1.006,0.199c0.304,0.132 0.534,0.3 0.69,0.506c0.156,0.205 0.264,0.438 0.325,0.698c0.061,0.26 0.092,0.633 0.092,1.118l0,3.906Z" style="fill:#fff;fill-rule:nonzero;"/><path d="M164.49,116.313l0,1.326l-1.137,0l0,2.533c0,0.513 0.011,0.812 0.033,0.896c0.022,0.085 0.071,0.155 0.148,0.211c0.077,0.055 0.17,0.082 0.281,0.082c0.154,0 0.377,-0.053 0.669,-0.159l0.142,1.29c-0.387,0.165 -0.825,0.248 -1.314,0.248c-0.3,0 -0.57,-0.05 -0.811,-0.151c-0.241,-0.1 -0.417,-0.23 -0.529,-0.39c-0.113,-0.16 -0.191,-0.376 -0.234,-0.648c-0.036,-0.194 -0.054,-0.584 -0.054,-1.172l0,-2.74l-0.763,0l0,-1.326l0.763,0l0,-1.248l1.669,-0.971l0,2.219l1.137,0Z" style="fill:#fff;fill-rule:nonzero;"/><path d="M165.644,113.923l1.751,0l0,4.698c0,0.746 0.022,1.229 0.065,1.45c0.075,0.355 0.254,0.64 0.536,0.855c0.282,0.215 0.668,0.323 1.157,0.323c0.497,0 0.872,-0.102 1.124,-0.305c0.253,-0.203 0.405,-0.453 0.456,-0.748c0.051,-0.296 0.077,-0.787 0.077,-1.474l0,-4.799l1.752,0l0,4.556c0,1.042 -0.048,1.778 -0.142,2.208c-0.095,0.43 -0.27,0.793 -0.524,1.089c-0.255,0.296 -0.595,0.531 -1.021,0.707c-0.426,0.175 -0.982,0.263 -1.669,0.263c-0.828,0 -1.457,-0.095 -1.885,-0.287c-0.428,-0.191 -0.766,-0.44 -1.015,-0.745c-0.248,-0.306 -0.412,-0.627 -0.491,-0.962c-0.114,-0.497 -0.171,-1.231 -0.171,-2.202l0,-4.627l0,0Z" style="fill:#fff;fill-rule:nonzero;"/><rect x="174.355" y="113.923" width="1.752" height="8.676" style="fill:#fff;"/><path d="M131.035,136.824l0,-8.676l6.273,0l0,1.024l-5.125,0l0,2.657l4.8,0l0,1.018l-4.8,0l0,2.953l5.327,0l0,1.024l-6.475,0l0,0Z" style="fill:#bfbfbf;fill-rule:nonzero;"/><path d="M138.959,136.824l0,-6.285l0.959,0l0,0.893c0.462,-0.69 1.129,-1.035 2,-1.035c0.379,0 0.727,0.068 1.045,0.204c0.318,0.136 0.555,0.315 0.713,0.535c0.158,0.221 0.268,0.484 0.332,0.788c0.039,0.197 0.059,0.542 0.059,1.035l0,3.865l-1.066,0l0,-3.823c0,-0.434 -0.041,-0.759 -0.124,-0.974c-0.083,-0.215 -0.23,-0.387 -0.441,-0.515c-0.211,-0.128 -0.458,-0.192 -0.742,-0.192c-0.454,0 -0.846,0.144 -1.175,0.432c-0.33,0.288 -0.494,0.834 -0.494,1.639l0,3.433l-1.066,0l0,0Z" style="fill:#bfbfbf;fill-rule:nonzero;"/><path d="M149.778,136.824l0,-0.793c-0.399,0.623 -0.985,0.935 -1.758,0.935c-0.501,0 -0.962,-0.138 -1.382,-0.415c-0.42,-0.276 -0.746,-0.661 -0.976,-1.157c-0.231,-0.495 -0.347,-1.064 -0.347,-1.707c0,-0.627 0.105,-1.196 0.314,-1.707c0.209,-0.511 0.523,-0.903 0.941,-1.175c0.418,-0.272 0.886,-0.408 1.403,-0.408c0.378,0 0.716,0.08 1.012,0.239c0.295,0.16 0.536,0.368 0.722,0.625l0,-3.113l1.059,0l0,8.676l-0.988,0Zm-3.368,-3.137c0,0.805 0.17,1.407 0.509,1.805c0.339,0.399 0.74,0.598 1.201,0.598c0.466,0 0.862,-0.191 1.187,-0.571c0.326,-0.381 0.488,-0.962 0.488,-1.743c0,-0.86 -0.165,-1.491 -0.497,-1.894c-0.331,-0.402 -0.74,-0.603 -1.225,-0.603c-0.473,0 -0.869,0.193 -1.186,0.579c-0.318,0.387 -0.477,0.997 -0.477,1.829l0,0Z" style="fill:#bfbfbf;fill-rule:nonzero;"/><path d="M152.441,139.232l0,-8.693l0.97,0l0,0.816c0.229,-0.319 0.487,-0.559 0.775,-0.719c0.288,-0.159 0.638,-0.239 1.048,-0.239c0.536,0 1.01,0.138 1.42,0.414c0.411,0.276 0.72,0.666 0.929,1.169c0.209,0.503 0.314,1.054 0.314,1.654c0,0.643 -0.115,1.222 -0.346,1.737c-0.231,0.515 -0.566,0.909 -1.006,1.183c-0.44,0.275 -0.903,0.412 -1.388,0.412c-0.355,0 -0.674,-0.075 -0.956,-0.225c-0.282,-0.15 -0.514,-0.34 -0.695,-0.568l0,3.059l-1.065,0l0,0Zm0.964,-5.515c0,0.809 0.164,1.406 0.491,1.793c0.328,0.386 0.724,0.58 1.19,0.58c0.473,0 0.879,-0.2 1.216,-0.601c0.337,-0.4 0.506,-1.021 0.506,-1.861c0,-0.801 -0.165,-1.401 -0.494,-1.799c-0.33,-0.399 -0.723,-0.598 -1.181,-0.598c-0.453,0 -0.855,0.212 -1.204,0.636c-0.349,0.424 -0.524,1.041 -0.524,1.85Z" style="fill:#bfbfbf;fill-rule:nonzero;"/><path d="M158.785,133.681c0,-1.164 0.323,-2.026 0.97,-2.586c0.541,-0.465 1.2,-0.698 1.977,-0.698c0.864,0 1.57,0.283 2.118,0.849c0.549,0.566 0.823,1.348 0.823,2.346c0,0.809 -0.121,1.445 -0.364,1.909c-0.243,0.464 -0.596,0.824 -1.059,1.08c-0.464,0.256 -0.97,0.385 -1.518,0.385c-0.88,0 -1.591,-0.282 -2.134,-0.847c-0.542,-0.564 -0.813,-1.377 -0.813,-2.438l0,0Zm1.095,0c0,0.805 0.175,1.408 0.526,1.808c0.351,0.401 0.793,0.601 1.326,0.601c0.528,0 0.968,-0.201 1.32,-0.604c0.351,-0.402 0.526,-1.016 0.526,-1.84c0,-0.778 -0.176,-1.366 -0.529,-1.767c-0.354,-0.4 -0.792,-0.6 -1.317,-0.6c-0.533,0 -0.975,0.199 -1.326,0.597c-0.351,0.399 -0.526,1 -0.526,1.805Z" style="fill:#bfbfbf;fill-rule:nonzero;"/><path d="M165.928,129.373l0,-1.225l1.065,0l0,1.225l-1.065,0Zm0,7.451l0,-6.285l1.065,0l0,6.285l-1.065,0Z" style="fill:#bfbfbf;fill-rule:nonzero;"/><path d="M168.614,136.824l0,-6.285l0.959,0l0,0.893c0.462,-0.69 1.128,-1.035 2,-1.035c0.379,0 0.727,0.068 1.045,0.204c0.318,0.136 0.555,0.315 0.713,0.535c0.158,0.221 0.268,0.484 0.331,0.788c0.04,0.197 0.06,0.542 0.06,1.035l0,3.865l-1.066,0l0,-3.823c0,-0.434 -0.041,-0.759 -0.124,-0.974c-0.083,-0.215 -0.23,-0.387 -0.441,-0.515c-0.211,-0.128 -0.458,-0.192 -0.742,-0.192c-0.454,0 -0.846,0.144 -1.175,0.432c-0.33,0.288 -0.494,0.834 -0.494,1.639l0,3.433l-1.066,0l0,0Z" style="fill:#bfbfbf;fill-rule:nonzero;"/><path d="M177.681,135.871l0.154,0.941c-0.3,0.063 -0.569,0.094 -0.805,0.094c-0.387,0 -0.687,-0.061 -0.9,-0.183c-0.213,-0.122 -0.363,-0.283 -0.45,-0.482c-0.086,-0.2 -0.13,-0.619 -0.13,-1.258l0,-3.616l-0.781,0l0,-0.828l0.781,0l0,-1.557l1.06,-0.639l0,2.196l1.071,0l0,0.828l-1.071,0l0,3.675c0,0.304 0.018,0.499 0.056,0.586c0.037,0.087 0.098,0.156 0.183,0.207c0.085,0.052 0.206,0.077 0.364,0.077c0.119,0 0.274,-0.014 0.468,-0.041Z" style="fill:#bfbfbf;fill-rule:nonzero;"/></g><g><path d="M140.197,61.829l0,11.441l13.803,0l0,16.16l-13.803,0l0,11.452l39.053,0l0,-39.053l-39.053,0l0,0Z" style="fill:#fff;fill-rule:nonzero;"/><rect x="128.75" y="75.632" width="22.893" height="11.441" style="fill:#fff;"/></g><path d="M166.127,26.725c0.395,-0.827 0.814,-1.641 1.262,-2.441c1.218,-2.176 2.628,-4.244 4.207,-6.174c2.787,-3.405 6.101,-6.376 9.791,-8.774c3.194,-2.074 6.666,-3.717 10.297,-4.866c2.521,-0.797 5.118,-1.357 7.743,-1.67c1.412,-0.168 2.83,-0.262 4.251,-0.292c0.366,-0.006 0.731,-0.008 1.096,-0.007c0.728,0.007 1.454,0.027 2.18,0.069c1.343,0.077 2.682,0.217 4.012,0.42c3.715,0.568 7.351,1.634 10.784,3.162c4.992,2.222 9.539,5.415 13.332,9.347c3.679,3.813 6.639,8.309 8.675,13.201c1.794,4.311 2.861,8.916 3.157,13.575c0.291,4.596 -0.158,9.236 -1.344,13.687c-1.456,5.461 -4.02,10.61 -7.485,15.074c-2.016,2.596 -4.332,4.957 -6.887,7.024c-2.328,1.883 -4.855,3.52 -7.526,4.873c-2.57,1.303 -5.273,2.342 -8.055,3.095c-1.3,0.352 -2.617,0.638 -3.944,0.868l-0.228,0.038l-0.99,-5.918c0.205,-0.034 0.41,-0.07 0.615,-0.106c0.669,-0.124 1.335,-0.263 1.997,-0.422c1.373,-0.331 2.727,-0.742 4.053,-1.231c3.849,-1.421 7.448,-3.499 10.61,-6.112c4.217,-3.485 7.637,-7.914 9.931,-12.882c1.068,-2.314 1.891,-4.741 2.451,-7.228c0.561,-2.496 0.857,-5.052 0.886,-7.61c0.025,-2.23 -0.15,-4.462 -0.529,-6.66c-0.446,-2.587 -1.174,-5.124 -2.167,-7.554c-1.751,-4.283 -4.326,-8.217 -7.538,-11.546c-3.053,-3.165 -6.675,-5.775 -10.648,-7.661c-3.388,-1.608 -7.022,-2.684 -10.739,-3.181c-3.741,-0.5 -7.562,-0.421 -11.279,0.237c-3.801,0.674 -7.488,1.959 -10.886,3.791c-4.202,2.267 -7.949,5.364 -10.972,9.059c-1.392,1.701 -2.631,3.526 -3.696,5.449c-0.201,0.364 -0.396,0.731 -0.584,1.102l5.384,1.602l-12.991,13.863l-3.296,-18.71l5.07,1.509Z" style="fill:#737373;"/><g><path d="M218,0l-8,12.514l10,26.486l48,-11l-21.787,-25.558l-28.213,-2.442Z" style="fill:#fff;"/><path id="email-3-icon" d="M234.525,17.058l-13.468,-8.638l25.943,0l-12.475,8.638Zm0,3.152l-13.525,-8.898l0,14.268l26,0l0,-14.242l-12.475,8.872Z" style="fill:#737373;fill-rule:nonzero;"/></g><g><path d="M260.859,18.148l1.698,0.539c-0.26,0.946 -0.693,1.65 -1.299,2.109c-0.605,0.46 -1.374,0.69 -2.305,0.69c-1.152,0 -2.099,-0.394 -2.84,-1.181c-0.742,-0.787 -1.113,-1.863 -1.113,-3.228c0,-1.444 0.373,-2.566 1.118,-3.364c0.746,-0.799 1.727,-1.199 2.942,-1.199c1.061,0 1.923,0.314 2.586,0.941c0.394,0.371 0.69,0.904 0.888,1.598l-1.734,0.414c-0.103,-0.45 -0.317,-0.805 -0.642,-1.065c-0.326,-0.26 -0.721,-0.391 -1.187,-0.391c-0.643,0 -1.165,0.231 -1.565,0.693c-0.401,0.461 -0.601,1.209 -0.601,2.243c0,1.097 0.197,1.878 0.592,2.343c0.394,0.466 0.907,0.699 1.538,0.699c0.466,0 0.866,-0.148 1.202,-0.444c0.335,-0.296 0.576,-0.762 0.722,-1.397l0,0Z" style="fill-rule:nonzero;"/><rect x="264.049" y="12.662" width="1.663" height="8.676"/><path d="M267.416,14.201l0,-1.539l1.663,0l0,1.539l-1.663,0Zm0,7.137l0,-6.285l1.663,0l0,6.285l-1.663,0Z" style="fill-rule:nonzero;"/><path d="M274.423,19.338l1.657,0.278c-0.213,0.607 -0.55,1.07 -1.009,1.388c-0.46,0.317 -1.035,0.476 -1.725,0.476c-1.093,0 -1.902,-0.357 -2.427,-1.071c-0.414,-0.572 -0.621,-1.294 -0.621,-2.166c0,-1.042 0.272,-1.857 0.817,-2.447c0.544,-0.59 1.233,-0.885 2.065,-0.885c0.935,0 1.673,0.309 2.213,0.926c0.541,0.618 0.799,1.563 0.776,2.838l-4.167,0c0.012,0.493 0.146,0.877 0.403,1.151c0.256,0.274 0.576,0.411 0.958,0.411c0.261,0 0.48,-0.071 0.657,-0.213c0.178,-0.142 0.312,-0.371 0.403,-0.686l0,0Zm0.094,-1.681c-0.011,-0.481 -0.136,-0.847 -0.372,-1.098c-0.237,-0.25 -0.525,-0.376 -0.864,-0.376c-0.363,0 -0.663,0.132 -0.9,0.397c-0.237,0.264 -0.353,0.623 -0.349,1.077l2.485,0Z" style="fill-rule:nonzero;"/><path d="M283.241,21.338l-1.663,0l0,-3.208c0,-0.678 -0.036,-1.117 -0.107,-1.316c-0.071,-0.2 -0.186,-0.355 -0.346,-0.465c-0.16,-0.11 -0.352,-0.166 -0.577,-0.166c-0.288,0 -0.547,0.079 -0.775,0.237c-0.229,0.158 -0.386,0.367 -0.471,0.627c-0.085,0.261 -0.127,0.742 -0.127,1.444l0,2.847l-1.663,0l0,-6.285l1.545,0l0,0.923c0.548,-0.71 1.238,-1.065 2.071,-1.065c0.367,0 0.702,0.066 1.006,0.198c0.304,0.132 0.533,0.301 0.689,0.506c0.156,0.205 0.265,0.438 0.326,0.699c0.061,0.26 0.092,0.633 0.092,1.118l0,3.906Z" style="fill-rule:nonzero;"/><path d="M287.809,15.053l0,1.326l-1.136,0l0,2.533c0,0.512 0.011,0.811 0.033,0.896c0.021,0.085 0.071,0.155 0.147,0.21c0.077,0.055 0.171,0.083 0.282,0.083c0.153,0 0.376,-0.053 0.668,-0.16l0.142,1.29c-0.386,0.166 -0.824,0.249 -1.313,0.249c-0.3,0 -0.571,-0.05 -0.811,-0.151c-0.241,-0.101 -0.417,-0.231 -0.53,-0.391c-0.112,-0.159 -0.19,-0.375 -0.234,-0.648c-0.035,-0.193 -0.053,-0.584 -0.053,-1.171l0,-2.74l-0.763,0l0,-1.326l0.763,0l0,-1.249l1.669,-0.97l0,2.219l1.136,0Z" style="fill-rule:nonzero;"/><path d="M288.963,12.662l1.752,0l0,4.699c0,0.746 0.022,1.229 0.065,1.45c0.075,0.355 0.254,0.64 0.536,0.855c0.282,0.215 0.667,0.323 1.157,0.323c0.497,0 0.871,-0.102 1.124,-0.305c0.252,-0.203 0.404,-0.453 0.456,-0.749c0.051,-0.296 0.077,-0.787 0.077,-1.473l0,-4.8l1.751,0l0,4.557c0,1.042 -0.047,1.777 -0.142,2.207c-0.094,0.43 -0.269,0.793 -0.523,1.089c-0.255,0.296 -0.595,0.532 -1.021,0.707c-0.426,0.176 -0.983,0.264 -1.669,0.264c-0.829,0 -1.457,-0.096 -1.885,-0.287c-0.428,-0.192 -0.766,-0.44 -1.015,-0.746c-0.249,-0.306 -0.412,-0.626 -0.491,-0.962c-0.115,-0.497 -0.172,-1.23 -0.172,-2.201l0,-4.628l0,0Z" style="fill-rule:nonzero;"/><rect x="297.674" y="12.662" width="1.752" height="8.676"/></g></g></svg>