<?xml version="1.0" encoding="UTF-8" standalone="no"?><!DOCTYPE svg PUBLIC "-//W3C//DTD SVG 1.1//EN" "http://www.w3.org/Graphics/SVG/1.1/DTD/svg11.dtd"><svg width="100%" height="100%" viewBox="0 0 366 104" version="1.1" xmlns="http://www.w3.org/2000/svg" xmlns:xlink="http://www.w3.org/1999/xlink" xml:space="preserve" style="fill-rule:evenodd;clip-rule:evenodd;stroke-linejoin:round;stroke-miterlimit:1.5;"><rect id="Artboard3" x="0" y="0" width="365.4" height="103.727" style="fill:none;"/><g id="Endpoint--Receiving---labeled-"><rect x="263.003" y="1.003" width="101" height="101" style="fill:#3a3a3a;"/><g><path d="M298.105,75.779l1.704,-0.166c0.103,0.572 0.311,0.992 0.625,1.261c0.313,0.268 0.736,0.402 1.269,0.402c0.564,0 0.989,-0.119 1.275,-0.358c0.286,-0.239 0.429,-0.518 0.429,-0.837c0,-0.205 -0.06,-0.38 -0.18,-0.524c-0.12,-0.144 -0.331,-0.269 -0.63,-0.376c-0.206,-0.071 -0.673,-0.197 -1.403,-0.379c-0.939,-0.232 -1.598,-0.518 -1.977,-0.858c-0.532,-0.477 -0.798,-1.059 -0.798,-1.746c0,-0.441 0.125,-0.855 0.375,-1.239c0.251,-0.385 0.612,-0.678 1.083,-0.879c0.472,-0.201 1.041,-0.302 1.708,-0.302c1.089,0 1.908,0.239 2.459,0.716c0.55,0.477 0.839,1.115 0.867,1.912l-1.752,0.077c-0.075,-0.446 -0.236,-0.767 -0.482,-0.962c-0.247,-0.195 -0.617,-0.293 -1.11,-0.293c-0.509,0 -0.908,0.104 -1.196,0.314c-0.185,0.134 -0.278,0.313 -0.278,0.538c0,0.205 0.087,0.381 0.261,0.527c0.221,0.185 0.757,0.379 1.609,0.58c0.853,0.201 1.483,0.409 1.891,0.624c0.409,0.215 0.728,0.509 0.959,0.882c0.231,0.373 0.346,0.833 0.346,1.382c0,0.497 -0.138,0.962 -0.414,1.396c-0.276,0.434 -0.667,0.757 -1.172,0.968c-0.505,0.211 -1.134,0.317 -1.888,0.317c-1.097,0 -1.939,-0.254 -2.527,-0.761c-0.588,-0.507 -0.939,-1.246 -1.053,-2.216Z" style="fill:#fff;fill-rule:nonzero;"/><path d="M307.864,74.234l-1.509,-0.272c0.169,-0.608 0.461,-1.057 0.875,-1.349c0.415,-0.292 1.03,-0.438 1.847,-0.438c0.742,0 1.294,0.088 1.657,0.263c0.363,0.176 0.618,0.399 0.766,0.669c0.148,0.27 0.222,0.766 0.222,1.488l-0.018,1.941c0,0.553 0.027,0.96 0.08,1.222c0.054,0.263 0.153,0.544 0.299,0.844l-1.645,0c-0.043,-0.111 -0.097,-0.274 -0.16,-0.491c-0.027,-0.099 -0.047,-0.164 -0.059,-0.196c-0.284,0.276 -0.588,0.484 -0.911,0.622c-0.324,0.138 -0.669,0.207 -1.036,0.207c-0.647,0 -1.157,-0.176 -1.53,-0.527c-0.373,-0.351 -0.559,-0.795 -0.559,-1.331c0,-0.356 0.085,-0.672 0.254,-0.95c0.17,-0.278 0.408,-0.492 0.713,-0.639c0.306,-0.148 0.747,-0.278 1.323,-0.388c0.777,-0.146 1.316,-0.282 1.616,-0.408l0,-0.166c0,-0.32 -0.079,-0.548 -0.237,-0.684c-0.158,-0.136 -0.456,-0.204 -0.894,-0.204c-0.295,0 -0.526,0.058 -0.692,0.175c-0.166,0.116 -0.3,0.32 -0.402,0.612Zm2.225,1.35c-0.213,0.071 -0.551,0.155 -1.012,0.254c-0.462,0.099 -0.764,0.195 -0.906,0.29c-0.217,0.154 -0.325,0.349 -0.325,0.586c0,0.233 0.087,0.434 0.26,0.604c0.174,0.169 0.395,0.254 0.663,0.254c0.3,0 0.586,-0.099 0.858,-0.296c0.201,-0.15 0.334,-0.333 0.397,-0.55c0.043,-0.142 0.065,-0.413 0.065,-0.811l0,-0.331Z" style="fill:#fff;fill-rule:nonzero;"/><rect x="313.361" y="69.926" width="1.663" height="8.676" style="fill:#fff;fill-rule:nonzero;"/><path d="M320.368,76.601l1.657,0.279c-0.213,0.607 -0.549,1.07 -1.009,1.387c-0.459,0.318 -1.034,0.477 -1.725,0.477c-1.093,0 -1.901,-0.357 -2.426,-1.071c-0.414,-0.572 -0.622,-1.294 -0.622,-2.166c0,-1.042 0.273,-1.858 0.817,-2.447c0.545,-0.59 1.233,-0.885 2.066,-0.885c0.935,0 1.672,0.309 2.213,0.926c0.54,0.617 0.799,1.563 0.775,2.838l-4.166,0c0.012,0.493 0.146,0.876 0.402,1.151c0.257,0.274 0.576,0.411 0.959,0.411c0.26,0 0.479,-0.071 0.657,-0.213c0.177,-0.142 0.312,-0.371 0.402,-0.687Zm0.095,-1.68c-0.012,-0.482 -0.136,-0.848 -0.373,-1.098c-0.237,-0.251 -0.525,-0.376 -0.864,-0.376c-0.363,0 -0.663,0.132 -0.899,0.397c-0.237,0.264 -0.354,0.623 -0.35,1.077l2.486,0Z" style="fill:#fff;fill-rule:nonzero;"/><path d="M322.883,76.809l1.669,-0.255c0.071,0.324 0.215,0.569 0.432,0.737c0.217,0.168 0.521,0.251 0.912,0.251c0.43,0 0.753,-0.078 0.97,-0.236c0.146,-0.111 0.219,-0.259 0.219,-0.444c0,-0.126 -0.039,-0.231 -0.118,-0.314c-0.083,-0.079 -0.268,-0.152 -0.556,-0.219c-1.342,-0.296 -2.192,-0.566 -2.551,-0.811c-0.497,-0.339 -0.746,-0.81 -0.746,-1.414c0,-0.544 0.215,-1.002 0.645,-1.373c0.43,-0.371 1.097,-0.556 2.001,-0.556c0.86,0 1.499,0.14 1.917,0.42c0.418,0.28 0.706,0.694 0.864,1.243l-1.568,0.29c-0.067,-0.245 -0.195,-0.432 -0.382,-0.562c-0.187,-0.131 -0.455,-0.196 -0.802,-0.196c-0.438,0 -0.751,0.061 -0.941,0.184c-0.126,0.086 -0.189,0.199 -0.189,0.337c0,0.118 0.055,0.219 0.166,0.302c0.149,0.11 0.667,0.266 1.553,0.467c0.886,0.202 1.504,0.448 1.855,0.74c0.347,0.296 0.521,0.708 0.521,1.237c0,0.576 -0.241,1.071 -0.722,1.485c-0.481,0.415 -1.193,0.622 -2.136,0.622c-0.856,0 -1.534,-0.174 -2.033,-0.521c-0.499,-0.347 -0.826,-0.819 -0.98,-1.414Z" style="fill:#fff;fill-rule:nonzero;"/><path d="M290.539,92.827l0,-8.676l6.273,0l0,1.024l-5.125,0l0,2.657l4.799,0l0,1.018l-4.799,0l0,2.953l5.326,0l0,1.024l-6.474,0Z" style="fill:#bfbfbf;fill-rule:nonzero;"/><path d="M298.463,92.827l0,-6.285l0.959,0l0,0.894c0.461,-0.691 1.128,-1.036 2,-1.036c0.379,0 0.727,0.068 1.044,0.204c0.318,0.136 0.556,0.315 0.714,0.536c0.157,0.221 0.268,0.483 0.331,0.787c0.039,0.197 0.059,0.542 0.059,1.036l0,3.864l-1.065,0l0,-3.823c0,-0.434 -0.042,-0.758 -0.124,-0.973c-0.083,-0.215 -0.23,-0.387 -0.441,-0.515c-0.211,-0.129 -0.459,-0.193 -0.743,-0.193c-0.454,0 -0.845,0.144 -1.175,0.432c-0.329,0.288 -0.494,0.835 -0.494,1.64l0,3.432l-1.065,0Z" style="fill:#bfbfbf;fill-rule:nonzero;"/><path d="M309.281,92.827l0,-0.793c-0.399,0.623 -0.984,0.935 -1.758,0.935c-0.501,0 -0.961,-0.138 -1.382,-0.414c-0.42,-0.276 -0.745,-0.662 -0.976,-1.157c-0.231,-0.495 -0.346,-1.064 -0.346,-1.707c0,-0.628 0.104,-1.197 0.313,-1.708c0.21,-0.511 0.523,-0.902 0.941,-1.174c0.419,-0.273 0.886,-0.409 1.403,-0.409c0.379,0 0.716,0.08 1.012,0.24c0.296,0.16 0.537,0.368 0.722,0.624l0,-3.113l1.059,0l0,8.676l-0.988,0Zm-3.367,-3.136c0,0.804 0.169,1.406 0.509,1.805c0.339,0.398 0.739,0.597 1.201,0.597c0.465,0 0.861,-0.19 1.186,-0.571c0.326,-0.381 0.489,-0.962 0.489,-1.743c0,-0.86 -0.166,-1.491 -0.497,-1.893c-0.332,-0.403 -0.74,-0.604 -1.225,-0.604c-0.474,0 -0.869,0.193 -1.187,0.58c-0.318,0.387 -0.476,0.996 -0.476,1.829Z" style="fill:#bfbfbf;fill-rule:nonzero;"/><path d="M311.944,95.236l0,-8.694l0.971,0l0,0.817c0.228,-0.32 0.487,-0.559 0.775,-0.719c0.288,-0.16 0.637,-0.24 1.047,-0.24c0.537,0 1.01,0.138 1.421,0.414c0.41,0.277 0.72,0.666 0.929,1.169c0.209,0.503 0.313,1.055 0.313,1.654c0,0.643 -0.115,1.222 -0.346,1.737c-0.231,0.515 -0.566,0.91 -1.006,1.184c-0.44,0.274 -0.902,0.411 -1.388,0.411c-0.355,0 -0.673,-0.075 -0.955,-0.225c-0.282,-0.15 -0.514,-0.339 -0.696,-0.568l0,3.06l-1.065,0Zm0.965,-5.516c0,0.809 0.163,1.407 0.491,1.793c0.327,0.387 0.724,0.58 1.189,0.58c0.474,0 0.879,-0.2 1.217,-0.6c0.337,-0.401 0.506,-1.021 0.506,-1.862c0,-0.801 -0.165,-1.4 -0.495,-1.799c-0.329,-0.398 -0.723,-0.597 -1.18,-0.597c-0.454,0 -0.855,0.212 -1.205,0.636c-0.349,0.424 -0.523,1.04 -0.523,1.849Z" style="fill:#bfbfbf;fill-rule:nonzero;"/><path d="M318.288,89.685c0,-1.164 0.324,-2.026 0.971,-2.587c0.54,-0.465 1.199,-0.698 1.976,-0.698c0.864,0 1.57,0.283 2.119,0.849c0.548,0.567 0.822,1.349 0.822,2.347c0,0.809 -0.121,1.445 -0.363,1.908c-0.243,0.464 -0.596,0.824 -1.06,1.08c-0.463,0.257 -0.969,0.385 -1.518,0.385c-0.88,0 -1.591,-0.282 -2.133,-0.846c-0.543,-0.564 -0.814,-1.377 -0.814,-2.438Zm1.095,0c0,0.804 0.175,1.407 0.527,1.808c0.351,0.4 0.793,0.6 1.325,0.6c0.529,0 0.969,-0.201 1.32,-0.603c0.351,-0.403 0.527,-1.016 0.527,-1.841c0,-0.777 -0.177,-1.366 -0.53,-1.766c-0.353,-0.401 -0.792,-0.601 -1.317,-0.601c-0.532,0 -0.974,0.199 -1.325,0.598c-0.352,0.398 -0.527,1 -0.527,1.805Z" style="fill:#bfbfbf;fill-rule:nonzero;"/><path d="M325.431,85.376l0,-1.225l1.065,0l0,1.225l-1.065,0Zm0,7.451l0,-6.285l1.065,0l0,6.285l-1.065,0Z" style="fill:#bfbfbf;fill-rule:nonzero;"/><path d="M328.118,92.827l0,-6.285l0.959,0l0,0.894c0.461,-0.691 1.128,-1.036 2,-1.036c0.379,0 0.727,0.068 1.044,0.204c0.318,0.136 0.556,0.315 0.713,0.536c0.158,0.221 0.269,0.483 0.332,0.787c0.039,0.197 0.059,0.542 0.059,1.036l0,3.864l-1.065,0l0,-3.823c0,-0.434 -0.042,-0.758 -0.124,-0.973c-0.083,-0.215 -0.23,-0.387 -0.441,-0.515c-0.211,-0.129 -0.459,-0.193 -0.743,-0.193c-0.454,0 -0.845,0.144 -1.175,0.432c-0.329,0.288 -0.494,0.835 -0.494,1.64l0,3.432l-1.065,0Z" style="fill:#bfbfbf;fill-rule:nonzero;"/><path d="M337.184,91.874l0.154,0.941c-0.3,0.063 -0.568,0.095 -0.805,0.095c-0.386,0 -0.686,-0.061 -0.899,-0.184c-0.213,-0.122 -0.363,-0.283 -0.45,-0.482c-0.087,-0.199 -0.13,-0.618 -0.13,-1.257l0,-3.616l-0.781,0l0,-0.829l0.781,0l0,-1.556l1.059,-0.639l0,2.195l1.071,0l0,0.829l-1.071,0l0,3.675c0,0.304 0.019,0.499 0.056,0.586c0.038,0.086 0.099,0.155 0.184,0.207c0.085,0.051 0.206,0.077 0.364,0.077c0.118,0 0.274,-0.014 0.467,-0.042Z" style="fill:#bfbfbf;fill-rule:nonzero;"/></g><g><path d="M299.7,17.832l0,11.441l13.803,0l0,16.16l-13.803,0l0,11.452l39.053,0l0,-39.053l-39.053,0Z" style="fill:#fff;fill-rule:nonzero;"/><rect x="288.253" y="31.636" width="22.893" height="11.441" style="fill:#fff;fill-rule:nonzero;"/></g></g><rect x="2.003" y="1.003" width="101" height="101" style="fill:#3a3a3a;"/><g><path d="M36.043,75.412l1.698,0.538c-0.26,0.947 -0.693,1.651 -1.299,2.11c-0.606,0.46 -1.374,0.69 -2.305,0.69c-1.152,0 -2.099,-0.394 -2.841,-1.181c-0.741,-0.787 -1.112,-1.863 -1.112,-3.228c0,-1.444 0.373,-2.566 1.118,-3.365c0.746,-0.799 1.726,-1.198 2.942,-1.198c1.061,0 1.923,0.314 2.586,0.941c0.394,0.371 0.69,0.903 0.887,1.598l-1.734,0.414c-0.102,-0.45 -0.316,-0.805 -0.642,-1.065c-0.325,-0.261 -0.721,-0.391 -1.186,-0.391c-0.643,0 -1.165,0.231 -1.566,0.693c-0.4,0.461 -0.6,1.209 -0.6,2.243c0,1.096 0.197,1.878 0.592,2.343c0.394,0.466 0.907,0.698 1.538,0.698c0.466,0 0.866,-0.148 1.202,-0.443c0.335,-0.296 0.576,-0.762 0.722,-1.397Z" style="fill:#fff;fill-rule:nonzero;"/><rect x="39.232" y="69.926" width="1.663" height="8.676" style="fill:#fff;fill-rule:nonzero;"/><path d="M42.6,71.465l0,-1.539l1.663,0l0,1.539l-1.663,0Zm0,7.137l0,-6.285l1.663,0l0,6.285l-1.663,0Z" style="fill:#fff;fill-rule:nonzero;"/><path d="M49.607,76.601l1.657,0.279c-0.213,0.607 -0.55,1.07 -1.009,1.387c-0.46,0.318 -1.035,0.477 -1.725,0.477c-1.093,0 -1.902,-0.357 -2.427,-1.071c-0.414,-0.572 -0.621,-1.294 -0.621,-2.166c0,-1.042 0.272,-1.858 0.816,-2.447c0.545,-0.59 1.233,-0.885 2.066,-0.885c0.935,0 1.673,0.309 2.213,0.926c0.541,0.617 0.799,1.563 0.775,2.838l-4.166,0c0.012,0.493 0.146,0.876 0.403,1.151c0.256,0.274 0.576,0.411 0.958,0.411c0.261,0 0.48,-0.071 0.657,-0.213c0.178,-0.142 0.312,-0.371 0.403,-0.687Zm0.094,-1.68c-0.012,-0.482 -0.136,-0.848 -0.373,-1.098c-0.236,-0.251 -0.524,-0.376 -0.864,-0.376c-0.363,0 -0.662,0.132 -0.899,0.397c-0.237,0.264 -0.353,0.623 -0.349,1.077l2.485,0Z" style="fill:#fff;fill-rule:nonzero;"/><path d="M58.424,78.602l-1.663,0l0,-3.208c0,-0.678 -0.035,-1.117 -0.106,-1.317c-0.071,-0.199 -0.187,-0.354 -0.346,-0.464c-0.16,-0.111 -0.352,-0.166 -0.577,-0.166c-0.288,0 -0.547,0.079 -0.776,0.237c-0.228,0.158 -0.385,0.367 -0.47,0.627c-0.085,0.261 -0.127,0.742 -0.127,1.444l0,2.847l-1.663,0l0,-6.285l1.544,0l0,0.923c0.549,-0.71 1.239,-1.065 2.072,-1.065c0.367,0 0.702,0.066 1.006,0.198c0.303,0.132 0.533,0.301 0.689,0.506c0.156,0.205 0.264,0.438 0.326,0.698c0.061,0.261 0.091,0.634 0.091,1.119l0,3.906Z" style="fill:#fff;fill-rule:nonzero;"/><path d="M62.993,72.317l0,1.325l-1.136,0l0,2.533c0,0.513 0.011,0.812 0.032,0.897c0.022,0.085 0.071,0.155 0.148,0.21c0.077,0.055 0.171,0.083 0.281,0.083c0.154,0 0.377,-0.053 0.669,-0.16l0.142,1.29c-0.386,0.166 -0.824,0.249 -1.314,0.249c-0.299,0 -0.57,-0.051 -0.81,-0.151c-0.241,-0.101 -0.418,-0.231 -0.53,-0.391c-0.113,-0.16 -0.19,-0.376 -0.234,-0.648c-0.035,-0.193 -0.053,-0.584 -0.053,-1.172l0,-2.74l-0.764,0l0,-1.325l0.764,0l0,-1.249l1.669,-0.97l0,2.219l1.136,0Z" style="fill:#fff;fill-rule:nonzero;"/><path d="M64.147,69.926l1.752,0l0,4.699c0,0.746 0.021,1.229 0.065,1.45c0.075,0.355 0.253,0.64 0.535,0.855c0.283,0.215 0.668,0.322 1.157,0.322c0.497,0 0.872,-0.101 1.125,-0.304c0.252,-0.204 0.404,-0.453 0.455,-0.749c0.052,-0.296 0.077,-0.787 0.077,-1.474l0,-4.799l1.752,0l0,4.557c0,1.041 -0.047,1.777 -0.142,2.207c-0.095,0.43 -0.269,0.793 -0.524,1.089c-0.254,0.296 -0.594,0.532 -1.02,0.707c-0.427,0.176 -0.983,0.264 -1.669,0.264c-0.829,0 -1.457,-0.096 -1.885,-0.287c-0.428,-0.192 -0.767,-0.44 -1.015,-0.746c-0.249,-0.306 -0.412,-0.626 -0.491,-0.962c-0.115,-0.497 -0.172,-1.231 -0.172,-2.201l0,-4.628Z" style="fill:#fff;fill-rule:nonzero;"/><rect x="72.858" y="69.926" width="1.752" height="8.676" style="fill:#fff;fill-rule:nonzero;"/><path d="M29.539,92.827l0,-8.676l6.273,0l0,1.024l-5.125,0l0,2.657l4.799,0l0,1.018l-4.799,0l0,2.953l5.326,0l0,1.024l-6.474,0Z" style="fill:#bfbfbf;fill-rule:nonzero;"/><path d="M37.463,92.827l0,-6.285l0.959,0l0,0.894c0.461,-0.691 1.128,-1.036 2,-1.036c0.379,0 0.727,0.068 1.044,0.204c0.318,0.136 0.556,0.315 0.714,0.536c0.157,0.221 0.268,0.483 0.331,0.787c0.039,0.197 0.059,0.542 0.059,1.036l0,3.864l-1.065,0l0,-3.823c0,-0.434 -0.042,-0.758 -0.124,-0.973c-0.083,-0.215 -0.23,-0.387 -0.441,-0.515c-0.211,-0.129 -0.459,-0.193 -0.743,-0.193c-0.454,0 -0.845,0.144 -1.175,0.432c-0.329,0.288 -0.494,0.835 -0.494,1.64l0,3.432l-1.065,0Z" style="fill:#bfbfbf;fill-rule:nonzero;"/><path d="M48.281,92.827l0,-0.793c-0.399,0.623 -0.984,0.935 -1.758,0.935c-0.501,0 -0.961,-0.138 -1.382,-0.414c-0.42,-0.276 -0.745,-0.662 -0.976,-1.157c-0.231,-0.495 -0.346,-1.064 -0.346,-1.707c0,-0.628 0.104,-1.197 0.313,-1.708c0.21,-0.511 0.523,-0.902 0.941,-1.174c0.419,-0.273 0.886,-0.409 1.403,-0.409c0.379,0 0.716,0.08 1.012,0.24c0.296,0.16 0.537,0.368 0.722,0.624l0,-3.113l1.059,0l0,8.676l-0.988,0Zm-3.367,-3.136c0,0.804 0.169,1.406 0.509,1.805c0.339,0.398 0.739,0.597 1.201,0.597c0.465,0 0.861,-0.19 1.186,-0.571c0.326,-0.381 0.489,-0.962 0.489,-1.743c0,-0.86 -0.166,-1.491 -0.497,-1.893c-0.332,-0.403 -0.74,-0.604 -1.225,-0.604c-0.474,0 -0.869,0.193 -1.187,0.58c-0.318,0.387 -0.476,0.996 -0.476,1.829Z" style="fill:#bfbfbf;fill-rule:nonzero;"/><path d="M50.944,95.236l0,-8.694l0.971,0l0,0.817c0.228,-0.32 0.487,-0.559 0.775,-0.719c0.288,-0.16 0.637,-0.24 1.047,-0.24c0.537,0 1.01,0.138 1.421,0.414c0.41,0.277 0.72,0.666 0.929,1.169c0.209,0.503 0.313,1.055 0.313,1.654c0,0.643 -0.115,1.222 -0.346,1.737c-0.231,0.515 -0.566,0.91 -1.006,1.184c-0.44,0.274 -0.902,0.411 -1.388,0.411c-0.355,0 -0.673,-0.075 -0.955,-0.225c-0.282,-0.15 -0.514,-0.339 -0.696,-0.568l0,3.06l-1.065,0Zm0.965,-5.516c0,0.809 0.163,1.407 0.491,1.793c0.327,0.387 0.724,0.58 1.189,0.58c0.474,0 0.879,-0.2 1.217,-0.6c0.337,-0.401 0.506,-1.021 0.506,-1.862c0,-0.801 -0.165,-1.4 -0.495,-1.799c-0.329,-0.398 -0.723,-0.597 -1.18,-0.597c-0.454,0 -0.855,0.212 -1.205,0.636c-0.349,0.424 -0.523,1.04 -0.523,1.849Z" style="fill:#bfbfbf;fill-rule:nonzero;"/><path d="M57.288,89.685c0,-1.164 0.324,-2.026 0.971,-2.587c0.54,-0.465 1.199,-0.698 1.976,-0.698c0.864,0 1.57,0.283 2.119,0.849c0.548,0.567 0.822,1.349 0.822,2.347c0,0.809 -0.121,1.445 -0.363,1.908c-0.243,0.464 -0.596,0.824 -1.06,1.08c-0.463,0.257 -0.969,0.385 -1.518,0.385c-0.88,0 -1.591,-0.282 -2.133,-0.846c-0.543,-0.564 -0.814,-1.377 -0.814,-2.438Zm1.095,0c0,0.804 0.175,1.407 0.527,1.808c0.351,0.4 0.793,0.6 1.325,0.6c0.529,0 0.969,-0.201 1.32,-0.603c0.351,-0.403 0.527,-1.016 0.527,-1.841c0,-0.777 -0.177,-1.366 -0.53,-1.766c-0.353,-0.401 -0.792,-0.601 -1.317,-0.601c-0.532,0 -0.974,0.199 -1.325,0.598c-0.352,0.398 -0.527,1 -0.527,1.805Z" style="fill:#bfbfbf;fill-rule:nonzero;"/><path d="M64.431,85.376l0,-1.225l1.065,0l0,1.225l-1.065,0Zm0,7.451l0,-6.285l1.065,0l0,6.285l-1.065,0Z" style="fill:#bfbfbf;fill-rule:nonzero;"/><path d="M67.118,92.827l0,-6.285l0.959,0l0,0.894c0.461,-0.691 1.128,-1.036 2,-1.036c0.379,0 0.727,0.068 1.044,0.204c0.318,0.136 0.556,0.315 0.713,0.536c0.158,0.221 0.269,0.483 0.332,0.787c0.039,0.197 0.059,0.542 0.059,1.036l0,3.864l-1.065,0l0,-3.823c0,-0.434 -0.042,-0.758 -0.124,-0.973c-0.083,-0.215 -0.23,-0.387 -0.441,-0.515c-0.211,-0.129 -0.459,-0.193 -0.743,-0.193c-0.454,0 -0.845,0.144 -1.175,0.432c-0.329,0.288 -0.494,0.835 -0.494,1.64l0,3.432l-1.065,0Z" style="fill:#bfbfbf;fill-rule:nonzero;"/><path d="M76.184,91.874l0.154,0.941c-0.3,0.063 -0.568,0.095 -0.805,0.095c-0.386,0 -0.686,-0.061 -0.899,-0.184c-0.213,-0.122 -0.363,-0.283 -0.45,-0.482c-0.087,-0.199 -0.13,-0.618 -0.13,-1.257l0,-3.616l-0.781,0l0,-0.829l0.781,0l0,-1.556l1.059,-0.639l0,2.195l1.071,0l0,0.829l-1.071,0l0,3.675c0,0.304 0.019,0.499 0.056,0.586c0.038,0.086 0.099,0.155 0.184,0.207c0.085,0.051 0.206,0.077 0.364,0.077c0.118,0 0.274,-0.014 0.467,-0.042Z" style="fill:#bfbfbf;fill-rule:nonzero;"/></g><path d="M148.367,21.486c0,1.999 -1.642,3.688 -3.669,3.688c-2.027,0 -3.669,-1.689 -3.669,-3.688c0,-2 1.642,-3.689 3.669,-3.689c2.027,0 3.669,1.689 3.669,3.689" style="fill-rule:nonzero;"/><path d="M149.965,20.24l5.439,0l0,-2.426l3.672,3.672l-3.672,3.672l0,-2.426l-5.439,0c0.096,-0.402 0.147,-0.819 0.147,-1.246c0,-0.427 -0.051,-0.844 -0.147,-1.246Z"/><g><path d="M38.7,17.832l0,11.441l13.803,0l0,16.16l-13.803,0l0,11.452l39.053,0l0,-39.053l-39.053,0Z" style="fill:#fff;fill-rule:nonzero;"/><rect x="27.253" y="31.636" width="22.893" height="11.441" style="fill:#fff;fill-rule:nonzero;"/></g><path d="M114.003,51.503l138,0" style="fill:none;stroke:#737373;stroke-width:6px;"/><rect x="163.003" y="36.003" width="42" height="31" style="fill:#fff;"/><path id="email-3-icon" d="M183.528,51.062l-13.468,-8.639l25.943,0l-12.475,8.639Zm0,3.152l-13.525,-8.898l0,14.267l26,0l0,-14.241l-12.475,8.872Z" style="fill:#737373;fill-rule:nonzero;"/><path d="M260.5,51.503l-16.993,8.497l0,-16.993l16.993,8.496Z" style="fill:#737373;"/><path d="M163.029,25.818l0,-8.676l2.811,0c1.065,0 1.759,0.043 2.083,0.13c0.497,0.13 0.913,0.413 1.248,0.849c0.336,0.436 0.504,1 0.504,1.69c0,0.533 -0.097,0.98 -0.29,1.343c-0.194,0.363 -0.439,0.648 -0.737,0.856c-0.298,0.207 -0.601,0.344 -0.909,0.411c-0.418,0.083 -1.023,0.124 -1.816,0.124l-1.143,0l0,3.273l-1.751,0Zm1.751,-7.208l0,2.462l0.959,0c0.691,0 1.152,-0.046 1.385,-0.137c0.233,-0.09 0.415,-0.232 0.547,-0.426c0.132,-0.193 0.199,-0.418 0.199,-0.674c0,-0.316 -0.093,-0.576 -0.279,-0.781c-0.185,-0.206 -0.42,-0.334 -0.704,-0.385c-0.209,-0.04 -0.629,-0.059 -1.26,-0.059l-0.847,0Z" style="fill-rule:nonzero;"/><rect x="171.101" y="17.142" width="1.663" height="8.676" style="fill-rule:nonzero;"/><path d="M175.711,21.45l-1.509,-0.272c0.169,-0.607 0.461,-1.057 0.876,-1.349c0.414,-0.292 1.029,-0.438 1.846,-0.438c0.742,0 1.294,0.088 1.657,0.263c0.363,0.176 0.618,0.399 0.766,0.669c0.148,0.27 0.222,0.766 0.222,1.488l-0.017,1.941c0,0.553 0.026,0.96 0.08,1.222c0.053,0.263 0.152,0.544 0.298,0.844l-1.645,0c-0.043,-0.111 -0.096,-0.274 -0.16,-0.491c-0.027,-0.099 -0.047,-0.164 -0.059,-0.196c-0.284,0.276 -0.588,0.484 -0.911,0.622c-0.324,0.138 -0.669,0.207 -1.036,0.207c-0.647,0 -1.157,-0.176 -1.53,-0.527c-0.372,-0.351 -0.559,-0.795 -0.559,-1.331c0,-0.356 0.085,-0.672 0.255,-0.95c0.169,-0.278 0.407,-0.491 0.713,-0.639c0.305,-0.148 0.746,-0.278 1.322,-0.388c0.778,-0.146 1.316,-0.282 1.616,-0.408l0,-0.166c0,-0.32 -0.079,-0.547 -0.237,-0.684c-0.158,-0.136 -0.455,-0.204 -0.893,-0.204c-0.296,0 -0.527,0.058 -0.693,0.175c-0.165,0.116 -0.3,0.32 -0.402,0.612Zm2.225,1.35c-0.213,0.071 -0.55,0.155 -1.012,0.254c-0.462,0.099 -0.763,0.195 -0.905,0.29c-0.217,0.154 -0.326,0.349 -0.326,0.586c0,0.233 0.087,0.434 0.26,0.604c0.174,0.169 0.395,0.254 0.663,0.254c0.3,0 0.586,-0.099 0.858,-0.296c0.202,-0.15 0.334,-0.333 0.397,-0.55c0.043,-0.142 0.065,-0.413 0.065,-0.811l0,-0.331Z" style="fill-rule:nonzero;"/><path d="M186.689,21.391l-1.64,0.296c-0.055,-0.327 -0.18,-0.574 -0.375,-0.74c-0.196,-0.165 -0.449,-0.248 -0.761,-0.248c-0.414,0 -0.745,0.143 -0.991,0.429c-0.247,0.286 -0.37,0.764 -0.37,1.435c0,0.746 0.125,1.272 0.376,1.58c0.25,0.308 0.587,0.462 1.009,0.462c0.315,0 0.574,-0.09 0.775,-0.27c0.201,-0.179 0.343,-0.488 0.426,-0.926l1.634,0.278c-0.17,0.75 -0.496,1.316 -0.977,1.699c-0.481,0.382 -1.126,0.574 -1.935,0.574c-0.919,0 -1.652,-0.29 -2.199,-0.87c-0.546,-0.58 -0.819,-1.383 -0.819,-2.409c0,-1.037 0.274,-1.845 0.822,-2.423c0.549,-0.578 1.29,-0.867 2.225,-0.867c0.766,0 1.374,0.165 1.826,0.494c0.452,0.329 0.776,0.831 0.974,1.506Z" style="fill-rule:nonzero;"/><path d="M191.589,23.817l1.657,0.279c-0.213,0.607 -0.55,1.07 -1.009,1.387c-0.46,0.318 -1.035,0.477 -1.725,0.477c-1.093,0 -1.902,-0.357 -2.427,-1.071c-0.414,-0.572 -0.621,-1.294 -0.621,-2.166c0,-1.042 0.272,-1.858 0.817,-2.447c0.544,-0.59 1.233,-0.885 2.065,-0.885c0.935,0 1.673,0.309 2.213,0.926c0.541,0.617 0.799,1.563 0.776,2.838l-4.167,0c0.012,0.493 0.146,0.877 0.403,1.151c0.256,0.274 0.576,0.411 0.958,0.411c0.261,0 0.48,-0.071 0.657,-0.213c0.178,-0.142 0.312,-0.371 0.403,-0.687Zm0.094,-1.68c-0.011,-0.482 -0.136,-0.847 -0.372,-1.098c-0.237,-0.251 -0.525,-0.376 -0.864,-0.376c-0.363,0 -0.663,0.132 -0.9,0.397c-0.237,0.264 -0.353,0.623 -0.349,1.077l2.485,0Z" style="fill-rule:nonzero;"/><path d="M194.347,21.533c0,-0.884 0.132,-1.625 0.396,-2.225c0.197,-0.442 0.467,-0.838 0.808,-1.19c0.341,-0.351 0.715,-0.611 1.121,-0.781c0.541,-0.229 1.164,-0.343 1.87,-0.343c1.279,0 2.301,0.397 3.069,1.19c0.767,0.793 1.151,1.895 1.151,3.308c0,1.4 -0.381,2.496 -1.142,3.287c-0.762,0.791 -1.78,1.187 -3.054,1.187c-1.29,0 -2.316,-0.394 -3.077,-1.181c-0.762,-0.787 -1.142,-1.871 -1.142,-3.252Zm1.805,-0.059c0,0.982 0.226,1.727 0.68,2.234c0.454,0.507 1.03,0.76 1.728,0.76c0.698,0 1.272,-0.251 1.719,-0.754c0.448,-0.503 0.672,-1.258 0.672,-2.264c0,-0.994 -0.218,-1.736 -0.654,-2.225c-0.436,-0.489 -1.015,-0.734 -1.737,-0.734c-0.722,0 -1.304,0.248 -1.746,0.743c-0.442,0.495 -0.662,1.242 -0.662,2.24Z" style="fill-rule:nonzero;"/><path d="M205.709,25.818l-1.663,0l0,-6.285l1.545,0l0,0.894c0.264,-0.423 0.502,-0.701 0.713,-0.835c0.211,-0.134 0.451,-0.201 0.719,-0.201c0.379,0 0.744,0.104 1.095,0.314l-0.515,1.449c-0.28,-0.181 -0.541,-0.272 -0.781,-0.272c-0.233,0 -0.43,0.064 -0.592,0.193c-0.162,0.128 -0.289,0.36 -0.382,0.695c-0.093,0.335 -0.139,1.037 -0.139,2.107l0,1.941Z" style="fill-rule:nonzero;"/><path d="M214.598,25.818l-1.545,0l0,-0.923c-0.256,0.359 -0.559,0.626 -0.908,0.801c-0.349,0.176 -0.701,0.264 -1.057,0.264c-0.722,0 -1.34,-0.291 -1.855,-0.873c-0.515,-0.582 -0.772,-1.394 -0.772,-2.435c0,-1.066 0.25,-1.875 0.751,-2.43c0.502,-0.554 1.135,-0.831 1.9,-0.831c0.702,0 1.31,0.292 1.823,0.876l0,-3.125l1.663,0l0,8.676Zm-4.439,-3.279c0,0.671 0.093,1.156 0.278,1.456c0.269,0.434 0.644,0.651 1.125,0.651c0.383,0 0.708,-0.163 0.976,-0.488c0.269,-0.326 0.403,-0.812 0.403,-1.459c0,-0.722 -0.13,-1.242 -0.391,-1.559c-0.26,-0.318 -0.594,-0.477 -1,-0.477c-0.394,0 -0.725,0.157 -0.991,0.471c-0.266,0.313 -0.4,0.782 -0.4,1.405Z" style="fill-rule:nonzero;"/><path d="M219.877,23.817l1.657,0.279c-0.213,0.607 -0.55,1.07 -1.009,1.387c-0.46,0.318 -1.035,0.477 -1.725,0.477c-1.093,0 -1.902,-0.357 -2.427,-1.071c-0.414,-0.572 -0.621,-1.294 -0.621,-2.166c0,-1.042 0.272,-1.858 0.817,-2.447c0.544,-0.59 1.232,-0.885 2.065,-0.885c0.935,0 1.673,0.309 2.213,0.926c0.541,0.617 0.799,1.563 0.775,2.838l-4.166,0c0.012,0.493 0.146,0.877 0.403,1.151c0.256,0.274 0.576,0.411 0.958,0.411c0.261,0 0.48,-0.071 0.657,-0.213c0.178,-0.142 0.312,-0.371 0.403,-0.687Zm0.094,-1.68c-0.011,-0.482 -0.136,-0.847 -0.372,-1.098c-0.237,-0.251 -0.525,-0.376 -0.865,-0.376c-0.362,0 -0.662,0.132 -0.899,0.397c-0.237,0.264 -0.353,0.623 -0.349,1.077l2.485,0Z" style="fill-rule:nonzero;"/><path d="M224.57,25.818l-1.663,0l0,-6.285l1.544,0l0,0.894c0.265,-0.423 0.502,-0.701 0.713,-0.835c0.211,-0.134 0.451,-0.201 0.719,-0.201c0.379,0 0.744,0.104 1.095,0.314l-0.515,1.449c-0.28,-0.181 -0.54,-0.272 -0.781,-0.272c-0.233,0 -0.43,0.064 -0.592,0.193c-0.161,0.128 -0.289,0.36 -0.381,0.695c-0.093,0.335 -0.139,1.037 -0.139,2.107l0,1.941Z" style="fill-rule:nonzero;"/></svg>