<?xml version="1.0" encoding="UTF-8" standalone="no"?><!DOCTYPE svg PUBLIC "-//W3C//DTD SVG 1.1//EN" "http://www.w3.org/Graphics/SVG/1.1/DTD/svg11.dtd"><svg width="100%" height="100%" viewBox="0 0 366 104" version="1.1" xmlns="http://www.w3.org/2000/svg" xmlns:xlink="http://www.w3.org/1999/xlink" xml:space="preserve" style="fill-rule:evenodd;clip-rule:evenodd;stroke-linejoin:round;stroke-miterlimit:1.5;"><rect id="Artboard3" x="0" y="0" width="365.4" height="103.727" style="fill:none;"/><rect x="263.003" y="1.003" width="101" height="101" style="fill:#3a3a3a;"/><g><path d="M299.7,17.832l0,11.441l13.803,0l0,16.16l-13.803,0l0,11.452l39.053,0l0,-39.053l-39.053,0Z" style="fill:#fff;fill-rule:nonzero;"/><rect x="288.253" y="31.636" width="22.893" height="11.441" style="fill:#fff;fill-rule:nonzero;"/></g><rect x="2.003" y="1.003" width="101" height="101" style="fill:#3a3a3a;"/><path d="M148.367,21.486c0,1.999 -1.642,3.688 -3.669,3.688c-2.027,0 -3.669,-1.689 -3.669,-3.688c0,-2 1.642,-3.689 3.669,-3.689c2.027,0 3.669,1.689 3.669,3.689" style="fill-rule:nonzero;"/><path d="M149.965,20.24l5.439,0l0,-2.426l3.672,3.672l-3.672,3.672l0,-2.426l-5.439,0c0.096,-0.402 0.147,-0.819 0.147,-1.246c0,-0.427 -0.051,-0.844 -0.147,-1.246Z"/><g><path d="M38.7,17.832l0,11.441l13.803,0l0,16.16l-13.803,0l0,11.452l39.053,0l0,-39.053l-39.053,0Z" style="fill:#fff;fill-rule:nonzero;"/><rect x="27.253" y="31.636" width="22.893" height="11.441" style="fill:#fff;fill-rule:nonzero;"/></g><path d="M114.003,51.503l138,0" style="fill:none;stroke:#737373;stroke-width:6px;"/><rect x="163.003" y="36.003" width="42" height="31" style="fill:#fff;"/><path id="email-3-icon" d="M183.528,51.062l-13.468,-8.639l25.943,0l-12.475,8.639Zm0,3.152l-13.525,-8.898l0,14.267l26,0l0,-14.241l-12.475,8.872Z" style="fill:#737373;fill-rule:nonzero;"/><path d="M260.5,51.503l-16.993,8.497l0,-16.993l16.993,8.496Z" style="fill:#737373;"/><text x="162.147px" y="25.818px" style="font-family:'Arial-BoldMT', 'Arial', sans-serif;font-weight:700;font-size:12.12px;">PlaceOrder</text><g transform="matrix(1,0,0,1,-93.4738,-10.9655)"><text x="123.31px" y="89.48px" style="font-family:'Arial-BoldMT', 'Arial', sans-serif;font-weight:700;font-size:12px;fill:#fff;">ClientUI</text><text x="122.291px" y="103.48px" style="font-family:'ArialMT', 'Arial', sans-serif;font-size:12px;fill:#bfbfbf;">Endpoint</text></g><g transform="matrix(1,0,0,1,167.526,-10.9655)"><text x="130.298px" y="89.48px" style="font-family:'Arial-BoldMT', 'Arial', sans-serif;font-weight:700;font-size:12px;fill:#fff;">Sales</text><text x="122.291px" y="103.48px" style="font-family:'ArialMT', 'Arial', sans-serif;font-size:12px;fill:#bfbfbf;">Endpoint</text></g></svg>