<svg id="Layer_1" data-name="Layer 1" xmlns="http://www.w3.org/2000/svg" viewBox="0 0 36 31.38"><defs><style>.cls-1{fill:#007398;}</style></defs><path class="cls-1" d="M3.76,3.68V22.06H19.28l13,9.12V3.68H3.76Zm8,14.07h-4c0-1.12-.09-1.73,1.08-2s2.25-.5,1.73-1.5c-1.6-3-.42-4.63,1.27-4.63a1.94,1.94,0,0,1,2,2.1C14,15.49,11.81,13.45,11.81,17.75Zm11.35,0H12.92c0-1.4-.11-2.18,1.35-2.51s2.85-.63,2.17-1.88c-2-3.72-.58-5.82,1.59-5.82s3.6,2,1.59,5.82c-0.66,1.25.7,1.54,2.17,1.88S23.15,16.35,23.15,17.75Zm5.07,0h-4c0-4.3-2.15-2.26-2.15-6a1.94,1.94,0,0,1,2-2.1c1.69,0,2.87,1.61,1.27,4.63-0.53,1,.56,1.23,1.73,1.5S28.22,16.64,28.22,17.75Z"/><path class="cls-1" d="M32.5,0H3.5A3.51,3.51,0,0,0,0,3.5V22.17a3.51,3.51,0,0,0,3.5,3.5H5.64v5.72l8.17-5.72H22l-3.14-2.2H2.36V2.28H33.71V25.44A3.51,3.51,0,0,0,36,22.17V3.5A3.51,3.51,0,0,0,32.5,0Z"/></svg>