<svg id="Layer_1" data-name="Layer 1" xmlns="http://www.w3.org/2000/svg" viewBox="0 0 38 38"><defs><style>.cls-1{fill:#007398;}</style></defs><path class="cls-1" d="M12.84,19.73q-2.09.73-4.12,1.51a19.45,19.45,0,0,1-4.12,1.1H3.86a4.48,4.48,0,0,1-2.71-.83A2.89,2.89,0,0,1,0,19a2.89,2.89,0,0,1,1.15-2.51,4.49,4.49,0,0,1,2.71-.84H4.6a19.72,19.72,0,0,1,4.12,1.1q2,0.78,4.12,1.51v1.46Zm1.25-4.59c-0.84-.42-1.81-0.85-2.92-1.31A21.74,21.74,0,0,1,8,12.27a11.74,11.74,0,0,1-2.46-1.93,3.49,3.49,0,0,1-1-2.51,3.09,3.09,0,0,1,1-2.24,3.1,3.1,0,0,1,2.24-1,3.57,3.57,0,0,1,2.46,1,9.66,9.66,0,0,1,1.93,2.51c0.56,1,1.07,2.05,1.56,3.13s0.94,2,1.36,2.87Zm1,8.77c-0.42.84-.87,1.81-1.36,2.92A33.08,33.08,0,0,1,12.22,30a10,10,0,0,1-1.93,2.46,3.56,3.56,0,0,1-2.46,1,3.09,3.09,0,0,1-2.24-1,3.09,3.09,0,0,1-1-2.24,3.56,3.56,0,0,1,1-2.46A10,10,0,0,1,8,25.78a33.08,33.08,0,0,1,3.13-1.56c1.11-.49,2.09-0.94,2.92-1.36Zm3.13-11.07q-0.62-2.09-1.46-4.12a17.73,17.73,0,0,1-1.15-4.12V3.86a4.5,4.5,0,0,1,.83-2.71A2.9,2.9,0,0,1,19,0a2.9,2.9,0,0,1,2.51,1.15,4.5,4.5,0,0,1,.83,2.71V4.59a17.73,17.73,0,0,1-1.15,4.12q-0.83,2-1.46,4.12H18.27Zm1.46,12.32c0.48,1.39,1,2.77,1.51,4.12a19.45,19.45,0,0,1,1.1,4.12v0.73a4.49,4.49,0,0,1-.83,2.71A2.9,2.9,0,0,1,19,38a2.89,2.89,0,0,1-2.51-1.15,4.49,4.49,0,0,1-.83-2.71V33.4a19.45,19.45,0,0,1,1.1-4.12q0.78-2,1.51-4.12h1.46Zm3.13-11.07c0.42-.84.85-1.79,1.31-2.87a25.91,25.91,0,0,1,1.56-3.13,11.28,11.28,0,0,1,1.93-2.51,3.5,3.5,0,0,1,2.51-1,3.1,3.1,0,0,1,2.24,1,3.09,3.09,0,0,1,1,2.24,3.49,3.49,0,0,1-1,2.51,11.28,11.28,0,0,1-2.51,1.93,26.23,26.23,0,0,1-3.13,1.56c-1.08.45-2,.89-2.87,1.31Zm1,8.77c0.84,0.42,1.79.87,2.87,1.36s2.12,1,3.13,1.56a9.66,9.66,0,0,1,2.51,1.93,3.56,3.56,0,0,1,1,2.46,3.39,3.39,0,0,1-3.23,3.23,3.49,3.49,0,0,1-2.51-1A11.74,11.74,0,0,1,25.73,30a21.74,21.74,0,0,1-1.56-3.13c-0.45-1.11-.89-2.09-1.31-2.92Zm1.25-4.59q2.09-.73,4.12-1.51a19.72,19.72,0,0,1,4.12-1.1h0.73a4.49,4.49,0,0,1,2.71.84A2.89,2.89,0,0,1,38,19a2.89,2.89,0,0,1-1.15,2.51,4.48,4.48,0,0,1-2.71.83H33.4a19.45,19.45,0,0,1-4.12-1.1q-2-.78-4.12-1.51V18.27Z"/></svg>