<svg id="Layer_1" data-name="Layer 1" xmlns="http://www.w3.org/2000/svg" viewBox="0 0 63.58 72"><defs><style>.cls-1{fill:#007398;}</style></defs><path id="flag-6-icon" class="cls-1" d="M8.06,72H0V0H8.06V72ZM51.82,9.85C41.28,9.85,41,.78,28.82.78A26,26,0,0,0,13.43,6.09V23.2C18.13,18.87,29,16.32,37.6,22V9.51c2.49,1.87,9.15,8.24,20.61,4.74V25.76c-5.49,5-17.72.44-20.61-3.74V34.9c-7.61-3-17.49-1.49-24.16,3V44c3.71-2.57,9.34-5.27,15.43-5.27,11.55,0,13.17,8.63,23.46,8.63a18.05,18.05,0,0,0,11.26-4.26V5.37S58.5,9.85,51.82,9.85Z"/></svg>