<svg id="Layer_1" data-name="Layer 1" xmlns="http://www.w3.org/2000/svg" viewBox="0 0 447.98 107.77"><defs><style>.cls-1{fill:#00729c;}.cls-1,.cls-3{fill-rule:evenodd;}.cls-2{fill:#fff;}.cls-3{fill:#00a3c4;}.cls-4{fill:#1a171b;}</style></defs><title>NSB</title><polygon class="cls-1" points="107.77 0 0 0 0 107.77 107.77 107.77 107.77 0 107.77 0"/><path class="cls-2" d="M21.08,91.21l-6-3,24-47.8a3.37,3.37,0,0,1,5.39-.87L65,60,86.86,16.4l6,3-24,47.8a3.37,3.37,0,0,1-5.39.87L43,47.57Z"/><polygon class="cls-3" points="23.99 11.99 11.99 11.99 11.99 23.99 23.99 23.99 23.99 11.99 23.99 11.99"/><polygon class="cls-3" points="47.97 11.99 35.98 11.99 35.98 23.99 47.97 23.99 47.97 11.99 47.97 11.99"/><polygon class="cls-3" points="71.96 11.99 59.97 11.99 59.97 23.99 71.96 23.99 71.96 11.99 71.96 11.99"/><polygon class="cls-3" points="47.97 35.81 35.98 35.81 35.98 47.8 47.97 47.8 47.97 35.81 47.97 35.81"/><polygon class="cls-3" points="71.96 35.81 59.97 35.81 59.97 47.8 71.96 47.8 71.96 35.81 71.96 35.81"/><polygon class="cls-3" points="95.78 11.99 83.78 11.99 83.78 23.99 95.78 23.99 95.78 11.99 95.78 11.99"/><polygon class="cls-3" points="95.78 35.81 83.78 35.81 83.78 47.8 95.78 47.8 95.78 35.81 95.78 35.81"/><polygon class="cls-3" points="23.99 35.81 11.99 35.81 11.99 47.8 23.99 47.8 23.99 35.81 23.99 35.81"/><polygon class="cls-3" points="23.99 59.8 11.99 59.8 11.99 71.79 23.99 71.79 23.99 59.8 23.99 59.8"/><polygon class="cls-3" points="47.97 59.8 35.98 59.8 35.98 71.79 47.97 71.79 47.97 59.8 47.97 59.8"/><polygon class="cls-3" points="95.78 59.8 83.78 59.8 83.78 71.79 95.78 71.79 95.78 59.8 95.78 59.8"/><polygon class="cls-3" points="23.99 83.62 11.99 83.62 11.99 95.61 23.99 95.61 23.99 83.62 23.99 83.62"/><polygon class="cls-3" points="47.97 83.62 35.98 83.62 35.98 95.61 47.97 95.61 47.97 83.62 47.97 83.62"/><polygon class="cls-3" points="71.96 83.62 59.97 83.62 59.97 95.61 71.96 95.61 71.96 83.62 71.96 83.62"/><polygon class="cls-3" points="71.96 59.8 59.97 59.8 59.97 71.79 71.96 71.79 71.96 59.8 71.96 59.8"/><polygon class="cls-3" points="95.78 83.62 83.78 83.62 83.78 95.61 95.78 95.61 95.78 83.62 95.78 83.62"/><path class="cls-4" d="M142.23,21.62a1.28,1.28,0,0,1,.68.17,0.9,0.9,0,0,1,.51.34,2.36,2.36,0,0,1,.51.68l20.95,26.86c0-.68-0.17-1.35-0.17-1.86v-26h6.59v40H167.4a4,4,0,0,1-1.52-.34,2.26,2.26,0,0,1-1.18-1L143.75,33.78c0,0.68.17,1.18,0.17,1.69V61.66h-6.59v-40h4.9Z"/><path class="cls-4" d="M200.85,28.89a3.7,3.7,0,0,1-.68.84,1.83,1.83,0,0,1-1,.17,1.53,1.53,0,0,1-1.18-.51,7.38,7.38,0,0,0-1.69-1c-0.68-.34-1.35-0.68-2.2-1a8.18,8.18,0,0,0-3-.51,13.12,13.12,0,0,0-2.7.34,4.84,4.84,0,0,0-1.86,1,9.28,9.28,0,0,0-1.18,1.52,4.28,4.28,0,0,0-.34,2,3.66,3.66,0,0,0,.85,2.36,6.74,6.74,0,0,0,2,1.69,12.68,12.68,0,0,0,3,1.18,26.78,26.78,0,0,1,3.38,1.18,20.08,20.08,0,0,1,3.38,1.35,15.78,15.78,0,0,1,3,2,11.09,11.09,0,0,1,2,2.87,10.43,10.43,0,0,1,.85,4.22,15.91,15.91,0,0,1-.85,5.07,13.1,13.1,0,0,1-2.7,4.05,12.82,12.82,0,0,1-4.39,2.7,16.05,16.05,0,0,1-5.91,1,25.29,25.29,0,0,1-3.72-.34,27.9,27.9,0,0,1-3.55-1,19.25,19.25,0,0,1-3.21-1.69,17,17,0,0,1-2.7-2.2l2.2-3.55a2.55,2.55,0,0,1,.68-0.68,2.4,2.4,0,0,1,1-.34,2.73,2.73,0,0,1,1.52.51,17.8,17.8,0,0,0,1.86,1.18,8.82,8.82,0,0,0,2.53,1.18,11.22,11.22,0,0,0,3.55.51,7.09,7.09,0,0,0,4.9-1.52,5.5,5.5,0,0,0,1.69-4.39,4.15,4.15,0,0,0-.85-2.53,6.76,6.76,0,0,0-2-1.69,12.68,12.68,0,0,0-3-1.18c-1.18-.34-2.2-0.68-3.38-1a28.15,28.15,0,0,1-3.38-1.35,12,12,0,0,1-3-2,9.6,9.6,0,0,1-2-3,11.56,11.56,0,0,1-.84-4.56,11.76,11.76,0,0,1,.84-4.22,10.43,10.43,0,0,1,2.53-3.72,16.46,16.46,0,0,1,4.05-2.53,14.88,14.88,0,0,1,5.57-1,16.91,16.91,0,0,1,6.59,1.18,12.71,12.71,0,0,1,5.07,3l-1.69,4.39h0Z"/><path class="cls-4" d="M220.44,32.77a14.9,14.9,0,0,1,4.9.84,8.68,8.68,0,0,1,3.88,2.53,13.84,13.84,0,0,1,2.53,4.05,13.5,13.5,0,0,1,.84,5.41V47a7.32,7.32,0,0,1-.17.84,0.89,0.89,0,0,1-.51.34,7.32,7.32,0,0,1-.85.17H213.52c0.17,2.87,1,5.07,2.36,6.42a7.4,7.4,0,0,0,5.41,2,13.38,13.38,0,0,0,2.87-.34,12.21,12.21,0,0,0,2-.85c0.68-.34,1.18-0.67,1.52-0.84a2,2,0,0,1,1.35-.34,0.82,0.82,0,0,1,.68.17l0.51,0.51,2,2.53a10.28,10.28,0,0,1-2.53,2.2,23.59,23.59,0,0,1-2.87,1.52,17.9,17.9,0,0,1-3.21.84,19.39,19.39,0,0,1-3,.17,14.9,14.9,0,0,1-5.58-1,13.23,13.23,0,0,1-4.39-2.87,19,19,0,0,1-3-4.73,19.28,19.28,0,0,1-1-6.59,14.62,14.62,0,0,1,1-5.4,12.82,12.82,0,0,1,2.7-4.39,15.9,15.9,0,0,1,4.22-3,12.33,12.33,0,0,1,5.91-1.52h0Zm0.17,4.9a6.26,6.26,0,0,0-4.73,1.69,8.26,8.26,0,0,0-2.2,4.73h12.84a13,13,0,0,0-.34-2.53,4,4,0,0,0-1.18-2,7.52,7.52,0,0,0-1.86-1.35,5.64,5.64,0,0,0-2.53-.51h0Z"/><path class="cls-4" d="M238.35,61.66V33.28h4.05a3.38,3.38,0,0,1,1.52.34,1.66,1.66,0,0,1,.51,1.35l0.34,3.38a14.74,14.74,0,0,1,3.55-4.22,7.41,7.41,0,0,1,4.56-1.52,6.25,6.25,0,0,1,3.55,1l-0.84,5.07a0.88,0.88,0,0,1-.34.68,1,1,0,0,1-.68.17,3.29,3.29,0,0,1-1.18-.17,6.33,6.33,0,0,0-1.86-.17,5.76,5.76,0,0,0-3.72,1.18,8.9,8.9,0,0,0-2.53,3.38V61.49h-6.93v0.17h0Z"/><path class="cls-4" d="M275.17,61.66h-6.25L257.61,33.28h5.74a2.44,2.44,0,0,1,1.18.34,1.69,1.69,0,0,1,.67.85l5.41,15.2c0.34,0.85.51,1.69,0.84,2.53a13.45,13.45,0,0,1,.51,2.53l0.51-2.53a14.86,14.86,0,0,1,.85-2.53l5.57-15.2a1.69,1.69,0,0,1,.68-0.85,2.44,2.44,0,0,1,1.18-.34h5.41l-11,28.38h0Z"/><path class="cls-4" d="M298.82,25a5,5,0,0,1-.34,1.69,2.63,2.63,0,0,1-1,1.35,3.68,3.68,0,0,1-1.35.85,4.4,4.4,0,0,1-3.38,0,3.54,3.54,0,0,1-2.2-2.2,4.39,4.39,0,0,1,0-3.38,3.54,3.54,0,0,1,2.2-2.2,4.39,4.39,0,0,1,3.38,0,3.68,3.68,0,0,1,1.35.85,9.36,9.36,0,0,1,1,1.35,2.78,2.78,0,0,1,.34,1.69h0Zm-1,8.28V61.66h-6.93V33.28h6.93Z"/><path class="cls-4" d="M325.51,39.36a1.32,1.32,0,0,1-.68.67,1.27,1.27,0,0,1-.85.17,2.39,2.39,0,0,1-1-.34,7.43,7.43,0,0,0-1.18-.67,5.06,5.06,0,0,0-1.69-.68,8.8,8.8,0,0,0-2.36-.34,6.86,6.86,0,0,0-3.21.68,5.89,5.89,0,0,0-2.2,1.86A9,9,0,0,0,311,43.58a14.39,14.39,0,0,0-.51,3.89,14.77,14.77,0,0,0,.51,4.05,12.71,12.71,0,0,0,1.35,3,7.61,7.61,0,0,0,2.2,1.86,5.55,5.55,0,0,0,2.87.68,11.75,11.75,0,0,0,2.7-.34,15.67,15.67,0,0,0,1.69-.85c0.51-.34.85-0.68,1.18-0.84a2.45,2.45,0,0,1,1.18-.34,1.13,1.13,0,0,1,1.18.67l2,2.53a8,8,0,0,1-2.53,2.2,21.65,21.65,0,0,1-2.7,1.52,13.12,13.12,0,0,1-5.91,1,12.11,12.11,0,0,1-4.9-1,12.33,12.33,0,0,1-6.76-7.43,17.3,17.3,0,0,1-1-6.25,20.49,20.49,0,0,1,.84-5.74,11.32,11.32,0,0,1,2.7-4.56,12,12,0,0,1,4.39-3,16,16,0,0,1,5.91-1.18,13.7,13.7,0,0,1,5.57,1,17.87,17.87,0,0,1,4.39,2.87l-1.86,2h0Z"/><path class="cls-4" d="M343.76,32.77a14.9,14.9,0,0,1,4.9.84,8.68,8.68,0,0,1,3.89,2.53,13.84,13.84,0,0,1,2.53,4.05,13.5,13.5,0,0,1,.84,5.41V47a7.32,7.32,0,0,1-.17.84,0.89,0.89,0,0,1-.51.34,7.32,7.32,0,0,1-.84.17H336.83c0.17,2.87,1,5.07,2.36,6.42a7.4,7.4,0,0,0,5.41,2,13.38,13.38,0,0,0,2.87-.34,12.21,12.21,0,0,0,2-.85c0.68-.34,1.18-0.67,1.52-0.84a2,2,0,0,1,1.35-.34,0.82,0.82,0,0,1,.68.17l0.51,0.51,2,2.53A10.28,10.28,0,0,1,353,59.8a23.59,23.59,0,0,1-2.87,1.52,17.9,17.9,0,0,1-3.21.84,19.39,19.39,0,0,1-3,.17,14.9,14.9,0,0,1-5.58-1A13.23,13.23,0,0,1,334,58.45a19,19,0,0,1-3-4.73,19.28,19.28,0,0,1-1-6.59,14.62,14.62,0,0,1,1-5.4,12.82,12.82,0,0,1,2.7-4.39,15.9,15.9,0,0,1,4.22-3,11.86,11.86,0,0,1,5.91-1.52h0Zm0.17,4.9a6.26,6.26,0,0,0-4.73,1.69,8.26,8.26,0,0,0-2.2,4.73h12.84a13,13,0,0,0-.34-2.53,4,4,0,0,0-1.18-2,7.52,7.52,0,0,0-1.86-1.35,5.64,5.64,0,0,0-2.53-.51h0Z"/><path class="cls-4" d="M362,61.66v-40h13.85a26,26,0,0,1,6.76.68,11.49,11.49,0,0,1,4.56,2.2,7.2,7.2,0,0,1,2.53,3.38,12.71,12.71,0,0,1,.84,4.39,13.13,13.13,0,0,1-.34,2.7,6.62,6.62,0,0,1-1.35,2.36,26.13,26.13,0,0,1-2.2,2,9.43,9.43,0,0,1-3.21,1.52c5.57,1.18,8.28,4.22,8.28,9a11.33,11.33,0,0,1-1,4.73,8.86,8.86,0,0,1-2.87,3.72,14.62,14.62,0,0,1-4.56,2.53,18.09,18.09,0,0,1-6.25.84H362ZM369.43,39h5.91a10.67,10.67,0,0,0,5.74-1.35,4.83,4.83,0,0,0,2-4.39c0-2-.51-3.55-1.69-4.39a9.64,9.64,0,0,0-5.57-1.35h-6.42V39h0Zm0,5.07V55.91H377a11.23,11.23,0,0,0,3.55-.51,5.44,5.44,0,0,0,2.2-1.35A4.38,4.38,0,0,0,384,52.2a8.44,8.44,0,0,0,0-4.73,3.36,3.36,0,0,0-1.35-1.69,6.74,6.74,0,0,0-2.2-1.18,9.9,9.9,0,0,0-3.38-.34h-7.6V44.09h0Z"/><path class="cls-4" d="M404.06,33.28V51.35a6.1,6.1,0,0,0,1.18,4.05,4.25,4.25,0,0,0,3.55,1.35,7.68,7.68,0,0,0,3.38-.85,8.7,8.7,0,0,0,2.87-2.2V33.11H422V61.49h-4.22a1.51,1.51,0,0,1-1.69-1.18l-0.51-2.2a8.85,8.85,0,0,1-1.86,1.69,12.64,12.64,0,0,1-2,1.18,9.78,9.78,0,0,1-2.36.84,13.13,13.13,0,0,1-2.7.34,10.22,10.22,0,0,1-4.05-.84,10,10,0,0,1-3-2.2,10.9,10.9,0,0,1-1.86-3.38,17.11,17.11,0,0,1-.68-4.39V33.28h7.09Z"/><path class="cls-4" d="M446.12,38.85a2.33,2.33,0,0,1-.51.68,1.27,1.27,0,0,1-.85.17,2.4,2.4,0,0,1-1-.34,10,10,0,0,1-1.35-.68,17.4,17.4,0,0,0-1.69-.68,8.55,8.55,0,0,0-2.2-.34,6,6,0,0,0-3.21.84,2.46,2.46,0,0,0-1.18,2.2,1.64,1.64,0,0,0,.68,1.52,3.43,3.43,0,0,0,1.52,1,8.5,8.5,0,0,0,2.2.85,14.77,14.77,0,0,1,2.53.84l2.53,1a6.43,6.43,0,0,1,2.2,1.52,5.83,5.83,0,0,1,1.52,2,8,8,0,0,1,.68,2.87,8.59,8.59,0,0,1-.68,3.72,7.82,7.82,0,0,1-2.2,3,12.17,12.17,0,0,1-3.55,2,14.34,14.34,0,0,1-4.9.67,16.64,16.64,0,0,1-2.87-.34,12.58,12.58,0,0,1-2.7-.68,10.3,10.3,0,0,1-2.37-1.18,17.44,17.44,0,0,1-1.86-1.35l1.52-2.53a2.55,2.55,0,0,1,.68-0.68,2.15,2.15,0,0,1,1-.17,2.44,2.44,0,0,1,1.18.34,15.6,15.6,0,0,1,1.35.85,15.68,15.68,0,0,0,1.69.85,10.22,10.22,0,0,0,2.53.34,6.3,6.3,0,0,0,2-.34,6.82,6.82,0,0,0,1.52-.85,4.48,4.48,0,0,0,.85-1,3.18,3.18,0,0,0,.34-1.35,2.17,2.17,0,0,0-.68-1.69,5.27,5.27,0,0,0-1.52-1.18,8.53,8.53,0,0,0-2.2-.84,14.86,14.86,0,0,1-2.53-.85l-2.53-1a7.47,7.47,0,0,1-3.72-3.72,9,9,0,0,1-.68-3.21,7.71,7.71,0,0,1,2.7-6.08,9.23,9.23,0,0,1,3.38-1.86,12.94,12.94,0,0,1,4.56-.68,14,14,0,0,1,5.41,1,13.84,13.84,0,0,1,4.05,2.53l-1.69,2.7h0Z"/><path class="cls-4" d="M297,78.21a0.62,0.62,0,0,1-.17.51,0.36,0.36,0,0,1-.34.34c-0.17.17-.34,0.17-0.51,0.34a0.84,0.84,0,0,1-1,0,0.9,0.9,0,0,1-.51-0.34,0.64,0.64,0,0,0-.34-0.34c0-.17-0.17-0.34-0.17-0.51a0.62,0.62,0,0,1,.17-0.51c0.17-.17.17-0.34,0.34-0.51s0.34-.17.51-0.34c0.17,0,.34-0.17.51-0.17a0.62,0.62,0,0,1,.51.17c0.17,0.17.34,0.17,0.51,0.34s0.17,0.34.34,0.51a0.62,0.62,0,0,1,.17.51h0Zm-0.68,5.24v15.2h-1.52V83.45h1.52Z"/><path class="cls-4" d="M301.69,98.65V83.45h0.85a0.57,0.57,0,0,1,.51.34l0.17,2.36a8.87,8.87,0,0,1,2.37-2,5.83,5.83,0,0,1,3-.85,8.56,8.56,0,0,1,2.2.34,3.67,3.67,0,0,1,1.52,1.18,9.12,9.12,0,0,1,1,1.86,5.74,5.74,0,0,1,.34,2.36v9.63h-1.52V89a5.36,5.36,0,0,0-1-3.38,3.62,3.62,0,0,0-3-1.18,5.11,5.11,0,0,0-2.7.84,8.88,8.88,0,0,0-2.36,2V98.65h-1.35Z"/><path class="cls-4" d="M326.7,90v8.62h-1.52V77.2h5.57c2.53,0,4.39.51,5.74,1.69a5.78,5.78,0,0,1,1.86,4.73,5.64,5.64,0,0,1-.51,2.53,5.83,5.83,0,0,1-1.52,2A10.74,10.74,0,0,1,334,89.53a9.85,9.85,0,0,1-3.21.51H326.7Zm0-1.35h4.05a10.23,10.23,0,0,0,2.53-.34,18.74,18.74,0,0,0,1.86-1,6,6,0,0,0,1.18-1.69,4.28,4.28,0,0,0,.34-2,5.09,5.09,0,0,0-1.52-3.89,7,7,0,0,0-4.56-1.35h-4.05v10.3h0.17Z"/><path class="cls-4" d="M350.85,98.65a0.45,0.45,0,0,1-.51-0.51l-0.17-1.86a6.34,6.34,0,0,1-1.18,1,3.68,3.68,0,0,1-1.35.85c-0.51.17-.84,0.34-1.52,0.51a5.75,5.75,0,0,1-1.69.17,4.68,4.68,0,0,1-1.52-.17,5.1,5.1,0,0,1-1.35-.68,2,2,0,0,1-.85-1.18,5,5,0,0,1-.34-1.69,3.84,3.84,0,0,1,.51-1.86,4.61,4.61,0,0,1,1.69-1.35,21.3,21.3,0,0,1,3-1c1.18-.17,2.7-0.34,4.39-0.51V88.85a5.59,5.59,0,0,0-.85-3.21,3.67,3.67,0,0,0-2.7-1.18,6.06,6.06,0,0,0-1.86.34,10,10,0,0,0-1.35.67,3.66,3.66,0,0,0-.84.68,0.55,0.55,0,0,1-1,0l-0.34-.51a12.13,12.13,0,0,1,2.53-1.86,8.07,8.07,0,0,1,3-.68,8.56,8.56,0,0,1,2.2.34,3.68,3.68,0,0,1,1.52,1.18,5.28,5.28,0,0,1,.84,1.69,10,10,0,0,1,.34,2.37v9.8h-0.67v0.17h0Zm-6.08-.84a5.75,5.75,0,0,0,1.69-.17,11.7,11.7,0,0,0,1.35-.51,5.14,5.14,0,0,0,1.18-.85l1-1V91.39a21.49,21.49,0,0,0-3.72.34,9.11,9.11,0,0,0-2.53.67,5.87,5.87,0,0,0-1.52,1,2.06,2.06,0,0,0-.51,1.52,3.29,3.29,0,0,0,.17,1.35,1.69,1.69,0,0,0,.67.85l1,0.51a3.3,3.3,0,0,0,1.18.17h0Z"/><path class="cls-4" d="M356.09,98.65V83.45h0.84c0.17,0,.34,0,0.34.17s0.17,0.17.17,0.34l0.17,3.21a7.33,7.33,0,0,1,2-2.87,4.71,4.71,0,0,1,3-1,2.51,2.51,0,0,1,1.18.17c0.34,0.17.67,0.17,1,.34l-0.17,1c0,0.17-.17.17-0.34,0.17H364c-0.17,0-.17-0.17-0.34-0.17a3.83,3.83,0,0,0-.68-0.17h-0.85a4.26,4.26,0,0,0-2.87,1,8.52,8.52,0,0,0-1.86,3v9.8h-1.35v0.17h0Z"/><path class="cls-4" d="M372.3,98.82a3.34,3.34,0,0,1-2.37-.84,4,4,0,0,1-.84-2.7V85h-2.2a0.34,0.34,0,0,1-.34-0.17,0.59,0.59,0,0,1-.17-0.34V84l2.53-.17,0.34-5.4c0-.17,0-0.17.17-0.17a0.59,0.59,0,0,1,.34-0.17h0.68v5.74h4.73v1h-4.73V95.1a1.82,1.82,0,0,0,.17,1,1,1,0,0,0,.51.68,2.33,2.33,0,0,0,.68.51,1.27,1.27,0,0,0,.85.17,2.14,2.14,0,0,0,1-.17,2.48,2.48,0,0,0,.68-0.34c0.17-.17.34-0.17,0.51-0.34a0.34,0.34,0,0,1,.34-0.17,0.17,0.17,0,0,1,.17.17l0.34,0.68a2.45,2.45,0,0,1-1.52,1,2.83,2.83,0,0,1-1.86.51h0Z"/><path class="cls-4" d="M381.43,78.21a0.62,0.62,0,0,1-.17.51,0.36,0.36,0,0,1-.34.34c-0.17.17-.34,0.17-0.51,0.34-0.17,0-.34.17-0.51,0.17a0.62,0.62,0,0,1-.51-0.17c-0.17-.17-0.34-0.17-0.51-0.34a0.64,0.64,0,0,0-.34-0.34c0-.17-0.17-0.34-0.17-0.51a0.62,0.62,0,0,1,.17-0.51c0.17-.17.17-0.34,0.34-0.51s0.34-.17.51-0.34a0.84,0.84,0,0,1,1,0,0.9,0.9,0,0,1,.51.34c0.17,0.17.17,0.34,0.34,0.51a0.62,0.62,0,0,1,.17.51h0Zm-0.51,5.24v15.2H379.4V83.45h1.52Z"/><path class="cls-4" d="M396.12,85.47h0a0.42,0.42,0,0,1-.68,0,2.33,2.33,0,0,0-.68-0.51,8.18,8.18,0,0,0-1.18-.51,5.21,5.21,0,0,0-1.69-.17,5.39,5.39,0,0,0-2.36.51,4.28,4.28,0,0,0-1.69,1.35,4.6,4.6,0,0,0-1,2,13.13,13.13,0,0,0-.34,2.7,14.89,14.89,0,0,0,.34,2.87,5.7,5.7,0,0,0,1,2,6.61,6.61,0,0,0,1.69,1.35,4.67,4.67,0,0,0,2.2.51,6.07,6.07,0,0,0,1.86-.34,8.18,8.18,0,0,0,1.18-.51c0.34-.17.51-0.34,0.85-0.51a2.41,2.41,0,0,1,.51-0.34,0.34,0.34,0,0,1,.34.17l0.34,0.51a4,4,0,0,1-.84.85,2.72,2.72,0,0,1-1.18.68c-0.51.17-.84,0.34-1.52,0.51a5.2,5.2,0,0,1-1.69.17,7,7,0,0,1-2.7-.51,4.6,4.6,0,0,1-2-1.52,10.76,10.76,0,0,1-1.35-2.37,10.41,10.41,0,0,1,0-6.42,7.36,7.36,0,0,1,1.35-2.53A5.15,5.15,0,0,1,389,84a7.89,7.89,0,0,1,2.87-.51,7,7,0,0,1,2.7.51,5.36,5.36,0,0,1,2,1.35l-0.51.17h0Z"/><path class="cls-4" d="M401,83.45v9.63a5.36,5.36,0,0,0,1,3.38,3.61,3.61,0,0,0,3,1.18,5,5,0,0,0,2.7-.68,8.87,8.87,0,0,0,2.36-2V83.62h1.52v15.2h-0.84a0.42,0.42,0,0,1-.51-0.34l-0.17-2.2a8.85,8.85,0,0,1-2.36,2,5.83,5.83,0,0,1-3,.85,8.55,8.55,0,0,1-2.2-.34A3.68,3.68,0,0,1,401,97.64a9.23,9.23,0,0,1-1-1.86,10,10,0,0,1-.34-2.37V83.79H401V83.45h0Z"/><polygon class="cls-4" points="418.42 76.52 418.42 98.65 416.9 98.65 416.9 76.52 418.42 76.52 418.42 76.52"/><path class="cls-4" d="M433.29,98.65a0.45,0.45,0,0,1-.51-0.51l-0.17-1.86a6.31,6.31,0,0,1-1.18,1,3.67,3.67,0,0,1-1.35.85c-0.51.17-.85,0.34-1.52,0.51a5.21,5.21,0,0,1-1.69.17,4.68,4.68,0,0,1-1.52-.17A5.08,5.08,0,0,1,424,98a3,3,0,0,1-.84-1.18,5,5,0,0,1-.34-1.69,3.85,3.85,0,0,1,.51-1.86A4.61,4.61,0,0,1,425,91.89a21.3,21.3,0,0,1,3-1c1.18-.17,2.7-0.34,4.39-0.51V88.85a5.59,5.59,0,0,0-.85-3.21,3.67,3.67,0,0,0-2.7-1.18,6.08,6.08,0,0,0-1.86.34,10.08,10.08,0,0,0-1.35.67,3.69,3.69,0,0,0-.84.68,0.55,0.55,0,0,1-1,0l-0.34-.51A12.13,12.13,0,0,1,426,83.79a8.07,8.07,0,0,1,3-.68,8.55,8.55,0,0,1,2.2.34,3.68,3.68,0,0,1,1.52,1.18,5.28,5.28,0,0,1,.84,1.69,10,10,0,0,1,.34,2.37v9.8h-0.68v0.17h0Zm-6.08-.84a5.75,5.75,0,0,0,1.69-.17,11.7,11.7,0,0,0,1.35-.51,5.11,5.11,0,0,0,1.18-.85l1-1V91.39a21.49,21.49,0,0,0-3.72.34,9.11,9.11,0,0,0-2.53.67,5.87,5.87,0,0,0-1.52,1,2.06,2.06,0,0,0-.51,1.52,3.29,3.29,0,0,0,.17,1.35,1.69,1.69,0,0,0,.67.85l1,0.51a3.3,3.3,0,0,0,1.18.17h0Z"/><path class="cls-4" d="M438.52,98.65V83.45h0.84c0.17,0,.34,0,0.34.17s0.17,0.17.17,0.34L440,87.16a7.35,7.35,0,0,1,2-2.87,4.72,4.72,0,0,1,3-1,2.51,2.51,0,0,1,1.18.17c0.34,0.17.67,0.17,1,.34l-0.17,1c0,0.17-.17.17-0.34,0.17h-0.34c-0.17,0-.17-0.17-0.34-0.17a3.84,3.84,0,0,0-.68-0.17H444.6a4.26,4.26,0,0,0-2.87,1,8.52,8.52,0,0,0-1.86,3v9.8h-1.35v0.17h0Z"/></svg>