<svg id="Layer_1" data-name="Layer 1" xmlns="http://www.w3.org/2000/svg" viewBox="0 0 269 63.78"><defs><style>@import url('http://fonts.googleapis.com/css?family=Lato:700');.cls-1{fill:#00729c;}.cls-2{fill:#fff;}.cls-3{fill:#00a3c4;}.cls-4{font-size:32.8px;font-weight:700;}.cls-4,.cls-5{fill:#1a171b;font-family:Lato;}.cls-5{font-size:18px;}</style></defs><title>NSB-nopath</title><rect class="cls-1" width="63.78" height="63.78"/><path class="cls-2" d="M12.4,54L8.83,52.17,23,23.87a2,2,0,0,1,3.19-.52l12.2,12.2L51.33,9.72,54.9,11.5,40.75,39.81a2,2,0,0,1-3.19.52l-12.2-12.2Z"/><rect class="cls-3" x="7.08" y="7.08" width="7.08" height="7.08"/><rect class="cls-3" x="21.28" y="7.08" width="7.08" height="7.08"/><rect class="cls-3" x="35.43" y="7.08" width="7.08" height="7.08"/><rect class="cls-3" x="21.28" y="21.23" width="7.08" height="7.08"/><rect class="cls-3" x="35.43" y="21.23" width="7.08" height="7.08"/><rect class="cls-3" x="49.58" y="7.08" width="7.08" height="7.08"/><rect class="cls-3" x="49.58" y="21.23" width="7.08" height="7.08"/><rect class="cls-3" x="7.08" y="21.23" width="7.08" height="7.08"/><rect class="cls-3" x="7.08" y="35.38" width="7.08" height="7.08"/><rect class="cls-3" x="21.28" y="35.38" width="7.08" height="7.08"/><rect class="cls-3" x="49.58" y="35.38" width="7.08" height="7.08"/><rect class="cls-3" x="7.08" y="49.53" width="7.08" height="7.08"/><rect class="cls-3" x="21.28" y="49.53" width="7.08" height="7.08"/><rect class="cls-3" x="35.43" y="49.53" width="7.08" height="7.08"/><rect class="cls-3" x="35.43" y="35.38" width="7.08" height="7.08"/><rect class="cls-3" x="49.58" y="49.53" width="7.08" height="7.08"/><text class="cls-4" transform="translate(78.96 36.53)">NServiceBus</text><text class="cls-5" transform="translate(172.81 58.38)">in Particular</text></svg>