<?xml version="1.0" encoding="UTF-8" standalone="no"?>
<!DOCTYPE svg  PUBLIC '-//W3C//DTD SVG 1.1//EN'  'http://www.w3.org/Graphics/SVG/1.1/DTD/svg11.dtd'>
<svg stroke-linejoin="round" xmlns="http://www.w3.org/2000/svg" fill-rule="evenodd" xml:space="preserve" height="100%" width="100%" version="1.1" stroke-miterlimit="1.4142" clip-rule="evenodd" xmlns:xlink="http://www.w3.org/1999/xlink" viewBox="0 0 256 256">
    <g id="Particular_Service_Platform" transform="matrix(4.0125 0 0 4.0125 -1288.4 -995.51)">
        <rect height="63.8" width="63.8" y="248.1" x="321.1" fill="#00729c"/>
        <g fill="#fff" fill-rule="nonzero">
            <path d="m366.7 266.4c-3.4-3.1-7.4-4.6-9.2-5-0.6-0.1-1-0.2-1.3-0.2h-0.6c0.1 0.1 0.6 0.4 1.2 0.7 1.2 0.6 3.9 2 6.1 4.1 1.5 1.5 2.9 3.6 3.3 5.5 0.1 0.5 0.2 0.9 0.1 1.3-0.1 1.9-2.1 3.1-5.2 3.3-1 0-1.4 0.7-1.4 1.7 0.2 2.3 2.2 5.9 5.2 7.2 1.1 0.5 2.2 0.6 3.2 0.5 2.8-0.4 4.9-3 5-6.6 0-0.5 0-1.1-0.1-1.6-0.8-3.9-3.5-8.3-6.3-10.9z"/>
            <path d="m334.6 285.1c0.5-0.1 0.8-1.1 1.2-2.5 0.6-2.1 1.4-6.2 4.3-9.7 2-2.5 5.4-4.8 9.2-5.2h0.2c2.9-0.2 6.4 1.1 9.1 3.5 0.6 0.5 1.3 0.8 1.9 0.8 1.5 0.1 2.7-1 2.5-2.6-0.1-0.4-0.3-0.9-0.6-1.3-2-3-8.4-6-13.8-5.6h-0.2c-6.1 0.5-11.7 4.4-14.1 8.3-1.2 1.9-1.8 3.8-2.1 5.6-0.4 2.8 0 5.1 0.6 6.5 0.7 1.5 1.3 2.3 1.8 2.2z"/>
            <path d="m345.5 291.6c5.7 6.9 14.9 8.5 20.2 6.6 0.1 0 0.2-0.1 0.3-0.1 4.5-1.8 6.9-5.7 7.6-7.8 0.3-0.8 0.4-1.4 0.5-1.8 0-0.5-0.2-0.6-0.6-0.5-0.1 0-0.3 0.1-0.5 0.2-0.6 0.3-1.6 0.9-3.1 1.3-0.8 0.2-1.7 0.3-2.7 0.3-2.7-0.1-6.6-1.7-9.6-5.1-1.7-2-2.6-4.7-2.6-7.4 0-1.1 0.1-2.2 0.4-3.3v-0.3c-0.2-1.6-3.4-3-6.4-2.7-1.3 0.1-2.7 0.6-3.8 1.4-2.1 1.6-3.4 4.4-3.6 7.6-0.3 3.8 1 8.1 3.9 11.6z"/>
        </g>
    </g>
</svg>
