<svg id="Layer_1" data-name="Layer 1" xmlns="http://www.w3.org/2000/svg" viewBox="0 0 19 21.77"><defs><style>.cls-1{fill:#00a3c4;}</style></defs><path id="note-7-icon" class="cls-1" d="M14.74,17.72H4.26V16.13H14.74v1.59h0Zm0-3.25H4.26V12.88H14.73v1.59Zm0-3.24H4.26V9.64H14.73v1.59Zm0.85-7.84a1,1,0,1,1-1.92,0V1a1,1,0,0,1,1.92,0V3.38ZM5.39,1A1,1,0,0,0,3.47,1V3.38a1,1,0,0,0,1.92,0V1Zm11.36,1.4v1a2.12,2.12,0,1,1-4.24,0v-1h-6v1a2.12,2.12,0,0,1-4.24,0v-1H0V21.77H19V2.36H16.74Zm0.14,17.29H2.12V7.47H16.88V19.65h0Z"/></svg>