<svg id="Layer_1" data-name="Layer 1" xmlns="http://www.w3.org/2000/svg" viewBox="0 0 448.83 107.77"><defs><style>.cls-1{fill:#1a171b;}.cls-2{fill:#205b5d;fill-rule:evenodd;}.cls-3,.cls-4{fill:none;stroke:#409393;stroke-miterlimit:1.41;}.cls-3{stroke-width:1.69px;}.cls-4{stroke-width:1.69px;}.cls-5{fill:#fff;}</style></defs><title>SP</title><path class="cls-1" d="M158.79,28.89a3.7,3.7,0,0,1-.68.84,2.06,2.06,0,0,1-2.2-.34,14.76,14.76,0,0,0-1.69-1c-0.68-.34-1.35-0.68-2.2-1a8.18,8.18,0,0,0-3-.51,13.12,13.12,0,0,0-2.7.34,4.84,4.84,0,0,0-1.86,1,9.28,9.28,0,0,0-1.18,1.52,4.28,4.28,0,0,0-.34,2,3.66,3.66,0,0,0,.85,2.36,6.75,6.75,0,0,0,2,1.69,12.68,12.68,0,0,0,3,1.18,26.79,26.79,0,0,1,3.38,1.18,20.13,20.13,0,0,1,3.38,1.35,11.91,11.91,0,0,1,3,2,11.07,11.07,0,0,1,2,2.87,9.85,9.85,0,0,1,.84,4.22,15.91,15.91,0,0,1-.84,5.07,10.69,10.69,0,0,1-2.7,4.05,12.84,12.84,0,0,1-4.39,2.7,16.06,16.06,0,0,1-5.91,1,25.29,25.29,0,0,1-3.72-.34,27.94,27.94,0,0,1-3.55-1,19.25,19.25,0,0,1-3.21-1.69,17.1,17.1,0,0,1-2.7-2.2l2.2-3.55a2.55,2.55,0,0,1,.68-0.68,2.4,2.4,0,0,1,1-.34,2.73,2.73,0,0,1,1.52.51,17.79,17.79,0,0,0,1.86,1.18,8.83,8.83,0,0,0,2.53,1.18,11.22,11.22,0,0,0,3.55.51,7.09,7.09,0,0,0,4.9-1.52,5.5,5.5,0,0,0,1.69-4.39,4.16,4.16,0,0,0-.84-2.53,6.78,6.78,0,0,0-2-1.69,12.7,12.7,0,0,0-3-1.18c-1.18-.34-2.2-0.68-3.38-1a28.14,28.14,0,0,1-3.38-1.35,12,12,0,0,1-3-2,9.6,9.6,0,0,1-2-3,11.58,11.58,0,0,1-.84-4.56,11.78,11.78,0,0,1,.84-4.22,10.43,10.43,0,0,1,2.53-3.72,16.46,16.46,0,0,1,4.05-2.53,14.88,14.88,0,0,1,5.57-1,16.91,16.91,0,0,1,6.59,1.18,12.71,12.71,0,0,1,5.07,3l-1.69,4.39h0Z" transform="translate(0 0)"/><path class="cls-1" d="M178.38,32.77a14.9,14.9,0,0,1,4.9.84,8.68,8.68,0,0,1,3.89,2.53,13.82,13.82,0,0,1,2.53,4.05,13.48,13.48,0,0,1,.84,5.41V47a7.36,7.36,0,0,1-.17.85,0.57,0.57,0,0,1-.51.34,7.32,7.32,0,0,1-.85.17H171.45c0.17,2.87,1,5.07,2.37,6.42a7.4,7.4,0,0,0,5.41,2,13.38,13.38,0,0,0,2.87-.34,12.21,12.21,0,0,0,2-.84c0.68-.34,1.18-0.67,1.52-0.84a2,2,0,0,1,1.35-.34,0.82,0.82,0,0,1,.68.17l0.51,0.51,2,2.53a10.3,10.3,0,0,1-2.53,2.2c-0.84.51-1.86,1-2.87,1.52a17.89,17.89,0,0,1-3.21.84,19.4,19.4,0,0,1-3,.17,14.89,14.89,0,0,1-5.57-1,13.21,13.21,0,0,1-4.39-2.87,19,19,0,0,1-3-4.73,19.28,19.28,0,0,1-1-6.59,14.62,14.62,0,0,1,1-5.4,12.82,12.82,0,0,1,2.7-4.39,15.91,15.91,0,0,1,4.22-3,12.33,12.33,0,0,1,5.91-1.52h0Zm0.17,4.9a6.26,6.26,0,0,0-4.73,1.69,8.26,8.26,0,0,0-2.2,4.73h12.84a13,13,0,0,0-.34-2.53,4,4,0,0,0-1.18-2,4.79,4.79,0,0,0-1.86-1.35,5.64,5.64,0,0,0-2.53-.51h0Z" transform="translate(0 0)"/><path class="cls-1" d="M196.29,61.66V33.28h4.05a3.37,3.37,0,0,1,1.52.34,1.66,1.66,0,0,1,.51,1.35l0.34,3.38a14.74,14.74,0,0,1,3.55-4.22,7.42,7.42,0,0,1,4.56-1.52,6.25,6.25,0,0,1,3.55,1l-0.84,5.07a0.88,0.88,0,0,1-.34.68,1,1,0,0,1-.68.17,3.29,3.29,0,0,1-1.18-.17,6.33,6.33,0,0,0-1.86-.17,5.76,5.76,0,0,0-3.72,1.18,8.89,8.89,0,0,0-2.53,3.38V61.49h-6.93v0.17h0Z" transform="translate(0 0)"/><path class="cls-1" d="M233.11,61.66h-6.25L215.54,33.28h5.74a2.44,2.44,0,0,1,1.18.34,1.69,1.69,0,0,1,.67.85l5.41,15.2c0.34,0.85.51,1.69,0.85,2.53a13.53,13.53,0,0,1,.51,2.53l0.51-2.53a14.86,14.86,0,0,1,.85-2.53l5.57-15.2a1.69,1.69,0,0,1,.68-0.85,2.44,2.44,0,0,1,1.18-.34h5.41l-11,28.38h0Z" transform="translate(0 0)"/><path class="cls-1" d="M256.76,25a5,5,0,0,1-.34,1.69,2.63,2.63,0,0,1-1,1.35,3.67,3.67,0,0,1-1.35.84,4.4,4.4,0,0,1-3.38,0,3.54,3.54,0,0,1-2.2-2.2,4.39,4.39,0,0,1,0-3.38,3.54,3.54,0,0,1,2.2-2.2,4.39,4.39,0,0,1,3.38,0,3.67,3.67,0,0,1,1.35.85,9.36,9.36,0,0,1,1,1.35,2.78,2.78,0,0,1,.34,1.69h0Zm-1,8.28V61.66h-6.92V33.28h6.92Z" transform="translate(0 0)"/><path class="cls-1" d="M283.45,39.36a1.32,1.32,0,0,1-.68.68,1.27,1.27,0,0,1-.85.17,2.4,2.4,0,0,1-1-.34,7.43,7.43,0,0,0-1.18-.67,5.06,5.06,0,0,0-1.69-.68,8.8,8.8,0,0,0-2.37-.34,6.85,6.85,0,0,0-3.21.68,5.87,5.87,0,0,0-2.2,1.86,9,9,0,0,0-1.35,2.87,14.39,14.39,0,0,0-.51,3.89,14.77,14.77,0,0,0,.51,4.05,12.67,12.67,0,0,0,1.35,3,7.58,7.58,0,0,0,2.2,1.86,5.55,5.55,0,0,0,2.87.68,11.75,11.75,0,0,0,2.7-.34,15.69,15.69,0,0,0,1.69-.84c0.51-.34.84-0.68,1.18-0.85a2.45,2.45,0,0,1,1.18-.34,1.13,1.13,0,0,1,1.18.68l2,2.53a8,8,0,0,1-2.53,2.2,21.65,21.65,0,0,1-2.7,1.52,13.12,13.12,0,0,1-5.91,1,12.11,12.11,0,0,1-4.9-1,12.33,12.33,0,0,1-6.76-7.43,17.32,17.32,0,0,1-1-6.25,20.52,20.52,0,0,1,.84-5.74,11.33,11.33,0,0,1,2.7-4.56,12,12,0,0,1,4.39-3,16,16,0,0,1,5.91-1.18,13.7,13.7,0,0,1,5.58,1,17.87,17.87,0,0,1,4.39,2.87l-1.86,2h0Z" transform="translate(0 0)"/><path class="cls-1" d="M301.69,32.77a14.9,14.9,0,0,1,4.9.84,8.68,8.68,0,0,1,3.88,2.53A13.81,13.81,0,0,1,313,40.2a13.48,13.48,0,0,1,.84,5.41V47a7.36,7.36,0,0,1-.17.85,0.9,0.9,0,0,1-.51.34,7.32,7.32,0,0,1-.85.17H294.77c0.17,2.87,1,5.07,2.36,6.42a7.4,7.4,0,0,0,5.41,2,13.38,13.38,0,0,0,2.87-.34,12.21,12.21,0,0,0,2-.84c0.68-.34,1.18-0.67,1.52-0.84a2,2,0,0,1,1.35-.34,0.82,0.82,0,0,1,.68.17l0.51,0.51,2,2.53A10.3,10.3,0,0,1,311,59.8a23.59,23.59,0,0,1-2.87,1.52,17.89,17.89,0,0,1-3.21.84,19.39,19.39,0,0,1-3,.17,14.89,14.89,0,0,1-5.57-1,13.21,13.21,0,0,1-4.39-2.87,19,19,0,0,1-3-4.73,19.28,19.28,0,0,1-1-6.59,14.62,14.62,0,0,1,1-5.4,12.82,12.82,0,0,1,2.7-4.39,15.91,15.91,0,0,1,4.22-3,11.86,11.86,0,0,1,5.91-1.52h0Zm0.17,4.9a6.26,6.26,0,0,0-4.73,1.69,8.26,8.26,0,0,0-2.2,4.73h12.84a13,13,0,0,0-.34-2.53,4,4,0,0,0-1.18-2,7.5,7.5,0,0,0-1.86-1.35,5.64,5.64,0,0,0-2.53-.51h0Z" transform="translate(0 0)"/><path class="cls-1" d="M327.71,47.64v14h-7.43v-40h13a20.69,20.69,0,0,1,6.93,1,13.67,13.67,0,0,1,4.9,2.7A11.17,11.17,0,0,1,348,29.39a12.66,12.66,0,0,1,.84,5.24,14.64,14.64,0,0,1-1,5.4A11.51,11.51,0,0,1,340,47a21,21,0,0,1-6.76,1h-5.57V47.64h0Zm0-5.91h5.57a11.23,11.23,0,0,0,3.55-.51,6.38,6.38,0,0,0,2.53-1.52,5.74,5.74,0,0,0,1.52-2.37,8.18,8.18,0,0,0,.51-3,7.89,7.89,0,0,0-.51-2.87,5.16,5.16,0,0,0-1.52-2.2,9,9,0,0,0-2.53-1.35,11.23,11.23,0,0,0-3.55-.51h-5.57V41.72h0Z" transform="translate(0 0)"/><path class="cls-1" d="M360.48,33.28V51.35a6.1,6.1,0,0,0,1.18,4.05,4.26,4.26,0,0,0,3.55,1.35,7.69,7.69,0,0,0,3.38-.84,8.71,8.71,0,0,0,2.87-2.2V33.11h6.93V61.49h-4.22a1.51,1.51,0,0,1-1.69-1.18L372,58.11a8.83,8.83,0,0,1-1.86,1.69,12.56,12.56,0,0,1-2,1.18,9.75,9.75,0,0,1-2.37.84,13.12,13.12,0,0,1-2.7.34,10.21,10.21,0,0,1-4.05-.84,10,10,0,0,1-3-2.2,10.88,10.88,0,0,1-1.86-3.38,17.11,17.11,0,0,1-.68-4.39V33.28h7.1Z" transform="translate(0 0)"/><polygon class="cls-1" points="392.91 20.61 392.91 61.83 385.99 61.83 385.99 20.61 392.91 20.61 392.91 20.61"/><path class="cls-1" d="M417.57,38.85a2.33,2.33,0,0,1-.51.68,1.27,1.27,0,0,1-.85.17,2.39,2.39,0,0,1-1-.34,10,10,0,0,1-1.35-.68,17.52,17.52,0,0,0-1.69-.68,8.56,8.56,0,0,0-2.2-.34,6,6,0,0,0-3.21.85,2.46,2.46,0,0,0-1.18,2.2,1.64,1.64,0,0,0,.68,1.52,3.43,3.43,0,0,0,1.52,1,8.48,8.48,0,0,0,2.2.85,14.77,14.77,0,0,1,2.53.84l2.53,1a6.43,6.43,0,0,1,2.2,1.52,5.83,5.83,0,0,1,1.52,2,8,8,0,0,1,.68,2.87,8.59,8.59,0,0,1-.68,3.72,7.82,7.82,0,0,1-2.2,3,12.18,12.18,0,0,1-3.55,2,14.34,14.34,0,0,1-4.9.68,16.64,16.64,0,0,1-2.87-.34,12.61,12.61,0,0,1-2.7-.67,10.31,10.31,0,0,1-2.36-1.18,17.56,17.56,0,0,1-1.86-1.35l1.52-2.53a2.55,2.55,0,0,1,.67-0.68,2.16,2.16,0,0,1,1-.17,2.43,2.43,0,0,1,1.18.34,15.57,15.57,0,0,1,1.35.84,15.68,15.68,0,0,0,1.69.85,10.23,10.23,0,0,0,2.53.34,6.31,6.31,0,0,0,2-.34,6.85,6.85,0,0,0,1.52-.85,4.48,4.48,0,0,0,.85-1,3.18,3.18,0,0,0,.34-1.35,2.17,2.17,0,0,0-.68-1.69,5.27,5.27,0,0,0-1.52-1.18,8.53,8.53,0,0,0-2.2-.84,14.83,14.83,0,0,1-2.53-.85l-2.53-1a7.47,7.47,0,0,1-3.72-3.72,9,9,0,0,1-.68-3.21,7.71,7.71,0,0,1,2.7-6.08,9.23,9.23,0,0,1,3.38-1.86,12.94,12.94,0,0,1,4.56-.68,14,14,0,0,1,5.41,1,13.84,13.84,0,0,1,4.05,2.53l-1.69,2.7h0Z" transform="translate(0 0)"/><path class="cls-1" d="M436.66,32.77a14.89,14.89,0,0,1,4.9.84,8.67,8.67,0,0,1,3.89,2.53A13.81,13.81,0,0,1,448,40.2a13.48,13.48,0,0,1,.85,5.41V47a7.32,7.32,0,0,1-.17.85,0.9,0.9,0,0,1-.51.34,7.29,7.29,0,0,1-.84.17H429.74c0.17,2.87,1,5.07,2.36,6.42a7.39,7.39,0,0,0,5.41,2,13.39,13.39,0,0,0,2.87-.34,12.24,12.24,0,0,0,2-.84c0.68-.34,1.18-0.67,1.52-0.84a2,2,0,0,1,1.35-.34,0.81,0.81,0,0,1,.67.17l0.51,0.51,2,2.53A10.26,10.26,0,0,1,446,59.8a23.58,23.58,0,0,1-2.87,1.52,17.9,17.9,0,0,1-3.21.84,19.38,19.38,0,0,1-3,.17,14.9,14.9,0,0,1-5.57-1,13.23,13.23,0,0,1-4.39-2.87,19,19,0,0,1-3-4.73,19.28,19.28,0,0,1-1-6.59,14.62,14.62,0,0,1,1-5.4,12.82,12.82,0,0,1,2.7-4.39,15.93,15.93,0,0,1,4.22-3,12.34,12.34,0,0,1,5.91-1.52h0Zm0.17,4.9a6.26,6.26,0,0,0-4.73,1.69,8.26,8.26,0,0,0-2.2,4.73h12.84a13,13,0,0,0-.34-2.53,4.05,4.05,0,0,0-1.18-2,7.5,7.5,0,0,0-1.86-1.35,5.63,5.63,0,0,0-2.53-.51h0Z" transform="translate(0 0)"/><path class="cls-1" d="M298,78.21a0.62,0.62,0,0,1-.17.51,0.36,0.36,0,0,1-.34.34c-0.17.17-.34,0.17-0.51,0.34-0.17,0-.34.17-0.51,0.17a0.62,0.62,0,0,1-.51-0.17,0.9,0.9,0,0,1-.51-0.34,0.64,0.64,0,0,0-.34-0.34c0-.17-0.17-0.34-0.17-0.51a0.62,0.62,0,0,1,.17-0.51c0.17-.17.17-0.34,0.34-0.51s0.34-.17.51-0.34c0.17,0,.34-0.17.51-0.17a0.62,0.62,0,0,1,.51.17,0.9,0.9,0,0,1,.51.34c0.17,0.17.17,0.34,0.34,0.51a0.62,0.62,0,0,1,.17.51h0Zm-0.51,5.24v15.2H296V83.45h1.52Z" transform="translate(0 0)"/><path class="cls-1" d="M302.71,98.65V83.45h0.84a0.57,0.57,0,0,1,.51.34l0.17,2.36a8.89,8.89,0,0,1,2.37-2,5.83,5.83,0,0,1,3-.85,8.55,8.55,0,0,1,2.2.34,3.68,3.68,0,0,1,1.52,1.18,9.13,9.13,0,0,1,1,1.86A5.75,5.75,0,0,1,314.7,89v9.63h-1.52V89a5.36,5.36,0,0,0-1-3.38,3.61,3.61,0,0,0-3-1.18,5.11,5.11,0,0,0-2.7.84,6.33,6.33,0,0,0-2.2,2V98.65h-1.52Z" transform="translate(0 0)"/><path class="cls-1" d="M327.88,90v8.61h-1.52V77.2h5.57c2.53,0,4.39.51,5.74,1.69a5.78,5.78,0,0,1,1.86,4.73,5.64,5.64,0,0,1-.51,2.53,5.83,5.83,0,0,1-1.52,2,10.79,10.79,0,0,1-2.37,1.35,9.86,9.86,0,0,1-3.21.51h-4.05Zm0-1.35h4.05a10.22,10.22,0,0,0,2.53-.34,18.62,18.62,0,0,0,1.86-1,6.07,6.07,0,0,0,1.18-1.69,4.29,4.29,0,0,0,.34-2,5.09,5.09,0,0,0-1.52-3.89,7,7,0,0,0-4.56-1.35h-4.05v10.3h0.17Z" transform="translate(0 0)"/><path class="cls-1" d="M352,98.65a0.45,0.45,0,0,1-.51-0.51l-0.17-1.86a6.31,6.31,0,0,1-1.18,1,3.68,3.68,0,0,1-1.35.84c-0.51.17-.84,0.34-1.52,0.51a5.21,5.21,0,0,1-1.69.17,4.68,4.68,0,0,1-1.52-.17,5.09,5.09,0,0,1-1.35-.67,3,3,0,0,1-.84-1.18,5,5,0,0,1-.34-1.69,3.85,3.85,0,0,1,.51-1.86,4.6,4.6,0,0,1,1.69-1.35q1.27-.51,3-1a28.69,28.69,0,0,1,4.39-.51V88.85a5.6,5.6,0,0,0-.84-3.21,3.68,3.68,0,0,0-2.7-1.18,6.06,6.06,0,0,0-1.86.34,10,10,0,0,0-1.35.67,3.68,3.68,0,0,0-.84.68,0.55,0.55,0,0,1-1,0l-0.34-.51a12.16,12.16,0,0,1,2.53-1.86,8.07,8.07,0,0,1,3-.68,8.56,8.56,0,0,1,2.2.34,3.68,3.68,0,0,1,1.52,1.18,5.28,5.28,0,0,1,.84,1.69,10,10,0,0,1,.34,2.36v9.8H352v0.17h0ZM346,97.81a5.75,5.75,0,0,0,1.69-.17,11.62,11.62,0,0,0,1.35-.51,5.14,5.14,0,0,0,1.18-.85l1-1V91.39a21.49,21.49,0,0,0-3.72.34,9.11,9.11,0,0,0-2.53.68,5.89,5.89,0,0,0-1.52,1,2.06,2.06,0,0,0-.51,1.52,3.29,3.29,0,0,0,.17,1.35,1.69,1.69,0,0,0,.68.85l1,0.51a2.88,2.88,0,0,0,1.18.17h0Z" transform="translate(0 0)"/><path class="cls-1" d="M357.1,98.65V83.45h0.85c0.17,0,.34,0,0.34.17s0.17,0.17.17,0.34l0.17,3.21a7.34,7.34,0,0,1,2-2.87,4.71,4.71,0,0,1,3-1,2.51,2.51,0,0,1,1.18.17c0.34,0.17.68,0.17,1,.34l-0.17,1c0,0.17-.17.17-0.34,0.17H365c-0.17,0-.17-0.17-0.34-0.17a3.83,3.83,0,0,0-.68-0.17h-0.84a4.27,4.27,0,0,0-2.87,1,8.54,8.54,0,0,0-1.86,3v9.8H357.1v0.17h0Z" transform="translate(0 0)"/><path class="cls-1" d="M373.32,98.82A3.34,3.34,0,0,1,371,98a4,4,0,0,1-.85-2.7V85h-2.2a0.34,0.34,0,0,1-.34-0.17,0.59,0.59,0,0,1-.17-0.34V84l2.53-.17,0.34-5.4c0-.17,0-0.17.17-0.17a0.59,0.59,0,0,1,.34-0.17h0.68v5.74h4.73v1h-4.73V95.1a1.82,1.82,0,0,0,.17,1,1,1,0,0,0,.51.68,2.31,2.31,0,0,0,.67.51,1.27,1.27,0,0,0,.85.17,2.14,2.14,0,0,0,1-.17,2.48,2.48,0,0,0,.68-0.34c0.17-.17.34-0.17,0.51-0.34a0.34,0.34,0,0,1,.34-0.17,0.17,0.17,0,0,1,.17.17l0.34,0.68a2.45,2.45,0,0,1-1.52,1,2.42,2.42,0,0,1-1.86.51h0Z" transform="translate(0 0)"/><path class="cls-1" d="M382.61,78.21a0.62,0.62,0,0,1-.17.51,0.36,0.36,0,0,1-.34.34c-0.17.17-.34,0.17-0.51,0.34-0.17,0-.34.17-0.51,0.17a0.62,0.62,0,0,1-.51-0.17c-0.17-.17-0.34-0.17-0.51-0.34a0.64,0.64,0,0,0-.34-0.34c0-.17-0.17-0.34-0.17-0.51a0.62,0.62,0,0,1,.17-0.51c0.17-.17.17-0.34,0.34-0.51s0.34-.17.51-0.34a0.84,0.84,0,0,1,1,0,0.9,0.9,0,0,1,.51.34c0.17,0.17.17,0.34,0.34,0.51a0.62,0.62,0,0,1,.17.51h0Zm-0.68,5.24v15.2h-1.52V83.45h1.52Z" transform="translate(0 0)"/><path class="cls-1" d="M397.3,85.47h0a0.42,0.42,0,0,1-.68,0A2.34,2.34,0,0,0,396,85a8.24,8.24,0,0,0-1.18-.51,5.2,5.2,0,0,0-1.69-.17,5.39,5.39,0,0,0-2.36.51A4.28,4.28,0,0,0,389,86.15a4.6,4.6,0,0,0-1,2,13.13,13.13,0,0,0-.34,2.7,14.88,14.88,0,0,0,.34,2.87,5.7,5.7,0,0,0,1,2,6.61,6.61,0,0,0,1.69,1.35,4.67,4.67,0,0,0,2.2.51,6.07,6.07,0,0,0,1.86-.34,8.24,8.24,0,0,0,1.18-.51c0.34-.17.51-0.34,0.84-0.51a2.41,2.41,0,0,1,.51-0.34,0.34,0.34,0,0,1,.34.17L398,96.62a4,4,0,0,1-.85.84,2.73,2.73,0,0,1-1.18.68c-0.51.17-.85,0.34-1.52,0.51a5.2,5.2,0,0,1-1.69.17,7,7,0,0,1-2.7-.51,4.61,4.61,0,0,1-2-1.52,10.76,10.76,0,0,1-1.35-2.36,10.41,10.41,0,0,1,0-6.42A7.36,7.36,0,0,1,388,85.47a5.16,5.16,0,0,1,2.2-1.52,7.89,7.89,0,0,1,2.87-.51,7,7,0,0,1,2.7.51,5.36,5.36,0,0,1,2,1.35l-0.51.17h0Z" transform="translate(0 0)"/><path class="cls-1" d="M402.2,83.45v9.63a5.36,5.36,0,0,0,1,3.38,3.61,3.61,0,0,0,3,1.18A5,5,0,0,0,409,97a8.87,8.87,0,0,0,2.36-2V83.62h1.52v15.2h-1a0.42,0.42,0,0,1-.51-0.34l-0.17-2.2a8.86,8.86,0,0,1-2.36,2,5.84,5.84,0,0,1-3,.84,8.55,8.55,0,0,1-2.2-.34A3.68,3.68,0,0,1,402,97.64a9.18,9.18,0,0,1-1-1.86,10,10,0,0,1-.34-2.36V83.79h1.52V83.45h0Z" transform="translate(0 0)"/><polygon class="cls-1" points="419.43 76.52 419.43 98.65 417.91 98.65 417.91 76.52 419.43 76.52 419.43 76.52"/><path class="cls-1" d="M434.47,98.65a0.45,0.45,0,0,1-.51-0.51l-0.17-1.86a6.34,6.34,0,0,1-1.18,1,3.68,3.68,0,0,1-1.35.84c-0.51.17-.84,0.34-1.52,0.51a5.21,5.21,0,0,1-1.69.17,4.68,4.68,0,0,1-1.52-.17,5.1,5.1,0,0,1-1.35-.67,3,3,0,0,1-.84-1.18A5,5,0,0,1,424,95.1a3.84,3.84,0,0,1,.51-1.86,4.6,4.6,0,0,1,1.69-1.35,21.24,21.24,0,0,1,3-1c1.18-.17,2.7-0.34,4.39-0.51V88.85a5.59,5.59,0,0,0-.85-3.21,3.67,3.67,0,0,0-2.7-1.18,6.06,6.06,0,0,0-1.86.34,10,10,0,0,0-1.35.67,3.68,3.68,0,0,0-.84.68,0.55,0.55,0,0,1-1,0l-0.34-.51a12.13,12.13,0,0,1,2.53-1.86,8.07,8.07,0,0,1,3-.68,8.56,8.56,0,0,1,2.2.34A3.68,3.68,0,0,1,434,84.63a5.28,5.28,0,0,1,.85,1.69,10,10,0,0,1,.34,2.36v9.8h-0.67v0.17h0Zm-6.08-.84a5.75,5.75,0,0,0,1.69-.17,11.62,11.62,0,0,0,1.35-.51,5.14,5.14,0,0,0,1.18-.85l1-1V91.39a21.49,21.49,0,0,0-3.72.34,9.11,9.11,0,0,0-2.53.68,5.89,5.89,0,0,0-1.52,1,2.06,2.06,0,0,0-.51,1.52,3.29,3.29,0,0,0,.17,1.35,1.69,1.69,0,0,0,.68.85l1,0.51a2.88,2.88,0,0,0,1.18.17h0Z" transform="translate(0 0)"/><path class="cls-1" d="M439.53,98.65V83.45h0.84c0.17,0,.34,0,0.34.17s0.17,0.17.17,0.34l0.17,3.21a7.33,7.33,0,0,1,2-2.87,4.71,4.71,0,0,1,3-1,2.51,2.51,0,0,1,1.18.17c0.34,0.17.67,0.17,1,.34l-0.17,1c0,0.17-.17.17-0.34,0.17h-0.34c-0.17,0-.17-0.17-0.34-0.17a3.83,3.83,0,0,0-.68-0.17h-0.84a4.26,4.26,0,0,0-2.87,1,8.54,8.54,0,0,0-1.86,3v9.8h-1.35v0.17h0Z" transform="translate(0 0)"/><polygon class="cls-2" points="107.77 0 0 0 0 107.77 107.77 107.77 107.77 0 107.77 0"/><path class="cls-3" d="M11.82,0V107.77M23.82,0V107.77M48,0V107.77M59.8,0V107.77M71.79,0V107.77M83.62,0V107.77M95.61,0V107.77" transform="translate(0 0)"/><path class="cls-4" d="M107.77,12H0M107.77,24H0M107.77,48.14H0M107.77,60H0M107.77,71.79H0m107.77,12H0m107.77,12H0M0,36H107.77" transform="translate(0 0)"/><line class="cls-3" x1="35.81" x2="35.81" y2="107.77"/><path class="cls-5" d="M61.66,88.24H61.53a2.94,2.94,0,0,1-2.79-2.57l-6-48.56L49.19,59.41a2.94,2.94,0,0,1-2.9,2.48H40.42L36,71.81a3,3,0,0,1-2.75,1.73,2.94,2.94,0,0,1-2.66-1.87L23,52.4l-1.68,4.39a2.94,2.94,0,0,1-2.74,1.89H6.42V52.81H16.56l3.67-9.6A2.94,2.94,0,0,1,23,41.32h0a2.94,2.94,0,0,1,2.74,1.87L33.46,63l2.37-5.27A2.94,2.94,0,0,1,38.51,56h5.26l6.37-40.43a2.94,2.94,0,0,1,5.82.09L62.4,67.46l3-14.17a2.94,2.94,0,0,1,5.55-.62L72,55h4l2.87-12.9a2.94,2.94,0,0,1,5.59-.47l4.49,11H103v5.88H87a2.94,2.94,0,0,1-2.72-1.83l-1.69-4.14-1.34,6a2.94,2.94,0,0,1-2.87,2.3H70.1l-0.32,0-5.25,25A2.94,2.94,0,0,1,61.66,88.24Z" transform="translate(0 0)"/></svg>