<svg id="Layer_1" data-name="Layer 1" xmlns="http://www.w3.org/2000/svg" viewBox="0 0 266.96 63.75"><defs><style>.cls-1{font-size:32.8px;font-weight:700;}.cls-1,.cls-2{fill:#1a171b;font-family:Lato;}.cls-2{font-size:18px;}.cls-3{fill:#205b5d;}.cls-4{fill:none;stroke:#409393;stroke-miterlimit:10;}.cls-5{fill:#fff;}</style></defs><title>SP</title><text class="cls-1" transform="translate(78.94 36.5)">ServicePulse</text><text class="cls-2" transform="translate(173.54 58.36)">in Particular</text><rect class="cls-3" width="63.75" height="63.75"/><line class="cls-4" x1="7.07" x2="7.07" y2="63.75"/><line class="cls-4" x1="14.15" x2="14.15" y2="63.75"/><line class="cls-4" x1="28.4" x2="28.4" y2="63.75"/><line class="cls-4" x1="35.41" x2="35.41" y2="63.75"/><line class="cls-4" x1="42.49" x2="42.49" y2="63.75"/><line class="cls-4" x1="49.56" x2="49.56" y2="63.75"/><line class="cls-4" x1="56.63" x2="56.63" y2="63.75"/><line class="cls-4" x1="63.75" y1="7.1" y2="7.1"/><line class="cls-4" x1="63.75" y1="14.17" y2="14.17"/><line class="cls-4" x1="63.75" y1="28.42" y2="28.42"/><line class="cls-4" x1="63.75" y1="35.44" y2="35.44"/><line class="cls-4" x1="63.75" y1="42.51" y2="42.51"/><line class="cls-4" x1="63.75" y1="49.58" y2="49.58"/><line class="cls-4" x1="63.75" y1="56.66" y2="56.66"/><line class="cls-4" y1="21.3" x2="63.75" y2="21.3"/><line class="cls-4" x1="21.27" x2="21.27" y2="63.75"/><path class="cls-5" d="M36.49,52.24H36.42a1.74,1.74,0,0,1-1.65-1.53L31.25,21.94,29.13,35.18a1.74,1.74,0,0,1-1.72,1.46H24l-2.7,5.88a1.74,1.74,0,0,1-3.2-.09L13.62,31.06l-0.94,2.51a1.74,1.74,0,0,1-1.63,1.13H3.82V31.22h6L12,25.59a1.74,1.74,0,0,1,3.25,0l4.63,11.8,1.46-3.18a1.74,1.74,0,0,1,1.58-1h3.06l3.83-24a1.72,1.72,0,0,1,1.75-1.46A1.74,1.74,0,0,1,33.2,9.27l3.74,30.61,1.75-8.33A1.74,1.74,0,0,1,42,31.12l0.68,1.36H45l1.7-7.61A1.74,1.74,0,0,1,50,24.6l2.65,6.55h8.39v3.48H51.51a1.74,1.74,0,0,1-1.61-1.09l-1-2.47L48.11,34.6A1.74,1.74,0,0,1,46.41,36H41.56l-0.23,0L38.19,50.86A1.74,1.74,0,0,1,36.49,52.24Z"/></svg>