<svg id="Layer_1" data-name="Layer 1" xmlns="http://www.w3.org/2000/svg" viewBox="0 0 484.97 107.77"><defs><style>.cls-1{fill:#585d80;}.cls-1,.cls-2,.cls-4{fill-rule:evenodd;}.cls-2,.cls-4{fill:#878caa;}.cls-3{fill:#9c335d;stroke-linecap:round;stroke-width:8.42px;}.cls-3,.cls-4{stroke:#fff;stroke-linejoin:round;}.cls-4{stroke-width:5.89px;}.cls-5{fill:#1a171b;}</style></defs><title>SI</title><polygon class="cls-1" points="107.77 0 0 0 0 107.77 107.77 107.77 107.77 0 107.77 0"/><polygon class="cls-2" points="23.99 11.99 11.99 11.99 11.99 23.99 23.99 23.99 23.99 11.99 23.99 11.99"/><polygon class="cls-2" points="47.97 11.99 35.98 11.99 35.98 23.99 47.97 23.99 47.97 11.99 47.97 11.99"/><polygon class="cls-2" points="71.96 11.99 59.97 11.99 59.97 23.99 71.96 23.99 71.96 11.99 71.96 11.99"/><polygon class="cls-2" points="95.78 11.99 83.78 11.99 83.78 23.99 95.78 23.99 95.78 11.99 95.78 11.99"/><polygon class="cls-2" points="23.99 35.81 11.99 35.81 11.99 47.8 23.99 47.8 23.99 35.81 23.99 35.81"/><polygon class="cls-2" points="45.27 35.81 35.98 35.81 35.98 47.8 45.27 47.8 45.27 35.81 45.27 35.81"/><polygon class="cls-2" points="95.78 35.81 85.98 35.81 85.98 47.8 95.78 47.8 95.78 35.81 95.78 35.81"/><polygon class="cls-2" points="23.99 59.8 11.99 59.8 11.99 71.79 23.99 71.79 23.99 59.8 23.99 59.8"/><polygon class="cls-2" points="47.97 59.8 35.98 59.8 35.98 71.79 47.97 71.79 47.97 59.8 47.97 59.8"/><polygon class="cls-2" points="71.96 64.02 59.97 64.02 59.97 71.79 71.96 71.79 71.96 64.02 71.96 64.02"/><polygon class="cls-2" points="95.78 59.8 83.78 59.8 83.78 71.79 95.78 71.79 95.78 59.8 95.78 59.8"/><polygon class="cls-2" points="23.99 83.62 11.99 83.62 11.99 95.61 23.99 95.61 23.99 83.62 23.99 83.62"/><polygon class="cls-2" points="47.97 83.62 35.98 83.62 35.98 95.61 47.97 95.61 47.97 83.62 47.97 83.62"/><polygon class="cls-2" points="71.96 83.62 59.97 83.62 59.97 95.61 71.96 95.61 71.96 83.62 71.96 83.62"/><polygon class="cls-2" points="95.78 83.62 83.78 83.62 83.78 95.61 95.78 95.61 95.78 83.62 95.78 83.62"/><line class="cls-3" x1="65.88" y1="41.72" x2="21.28" y2="86.32"/><path class="cls-4" d="M65.88,21.62A20.27,20.27,0,1,1,45.61,41.89,20.28,20.28,0,0,1,65.88,21.62h0Z"/><polygon class="cls-1" points="71.96 35.81 59.97 35.81 59.97 47.8 71.96 47.8 71.96 35.81 71.96 35.81"/><path class="cls-5" d="M159,28.89a3.67,3.67,0,0,1-.68.84,2.06,2.06,0,0,1-2.2-.34,14.93,14.93,0,0,0-1.69-1c-0.68-.34-1.35-0.68-2.2-1a8.19,8.19,0,0,0-3-.51,13.13,13.13,0,0,0-2.7.34,4.85,4.85,0,0,0-1.86,1,9.22,9.22,0,0,0-1.18,1.52,4.28,4.28,0,0,0-.34,2,3.67,3.67,0,0,0,.84,2.36,6.75,6.75,0,0,0,2,1.69A12.7,12.7,0,0,0,149,37a26.78,26.78,0,0,1,3.38,1.18,20.13,20.13,0,0,1,3.38,1.35,15.84,15.84,0,0,1,3,2,11.11,11.11,0,0,1,2,2.87,9.86,9.86,0,0,1,.84,4.22,15.94,15.94,0,0,1-.84,5.07,10.7,10.7,0,0,1-2.7,4.05,12.84,12.84,0,0,1-4.39,2.7,16.05,16.05,0,0,1-5.91,1,25.31,25.31,0,0,1-3.72-.34,28,28,0,0,1-3.55-1,19.25,19.25,0,0,1-3.21-1.69,17,17,0,0,1-2.7-2.2l2.2-3.55A2.55,2.55,0,0,1,137.5,52a2.4,2.4,0,0,1,1-.34,2.72,2.72,0,0,1,1.52.51,17.9,17.9,0,0,0,1.86,1.18,8.84,8.84,0,0,0,2.53,1.18,11.23,11.23,0,0,0,3.55.51,7.09,7.09,0,0,0,4.9-1.52,5.49,5.49,0,0,0,1.69-4.39,4.15,4.15,0,0,0-.84-2.53,6.78,6.78,0,0,0-2-1.69,12.68,12.68,0,0,0-3-1.18c-1.18-.34-2.2-0.68-3.38-1a28.17,28.17,0,0,1-3.38-1.35,12,12,0,0,1-3-2,9.57,9.57,0,0,1-2-3,11.56,11.56,0,0,1-.84-4.56,11.76,11.76,0,0,1,.84-4.22,10.42,10.42,0,0,1,2.53-3.72,16.45,16.45,0,0,1,4.06-2.53,14.87,14.87,0,0,1,5.57-1,16.91,16.91,0,0,1,6.59,1.18,12.72,12.72,0,0,1,5.07,3L159,28.89h0Z"/><path class="cls-5" d="M178.55,32.77a14.89,14.89,0,0,1,4.9.84,8.67,8.67,0,0,1,3.89,2.53,13.81,13.81,0,0,1,2.53,4.05,14,14,0,0,1,.85,5.41V47a7.32,7.32,0,0,1-.17.84,0.9,0.9,0,0,1-.51.34,7.32,7.32,0,0,1-.85.17H171.63c0.17,2.87,1,5.07,2.36,6.42a7.4,7.4,0,0,0,5.41,2,13.4,13.4,0,0,0,2.87-.34,12.28,12.28,0,0,0,2-.85c0.67-.34,1.18-0.67,1.52-0.84a2,2,0,0,1,1.35-.34,0.82,0.82,0,0,1,.68.17l0.51,0.51,2,2.53a10.28,10.28,0,0,1-2.53,2.2c-0.85.51-1.86,1-2.87,1.52a17.89,17.89,0,0,1-3.21.84,19.4,19.4,0,0,1-3,.17,14.89,14.89,0,0,1-5.57-1,13.22,13.22,0,0,1-4.39-2.87,19,19,0,0,1-3-4.73,19.3,19.3,0,0,1-1-6.59,14.64,14.64,0,0,1,1-5.4,12.84,12.84,0,0,1,2.7-4.39,15.93,15.93,0,0,1,4.22-3,12.33,12.33,0,0,1,5.91-1.52h0Zm0.17,4.9A6.26,6.26,0,0,0,174,39.36a8.26,8.26,0,0,0-2.2,4.73h12.84a13,13,0,0,0-.34-2.53,4,4,0,0,0-1.18-2,4.79,4.79,0,0,0-1.86-1.35,5.64,5.64,0,0,0-2.53-.51h0Z"/><path class="cls-5" d="M196.46,61.66V33.28h4.05a3.38,3.38,0,0,1,1.52.34,1.67,1.67,0,0,1,.51,1.35l0.34,3.38a14.75,14.75,0,0,1,3.55-4.22A7.42,7.42,0,0,1,211,32.6a6.25,6.25,0,0,1,3.55,1l-0.85,5.07a0.88,0.88,0,0,1-.34.68,1,1,0,0,1-.68.17,3.3,3.3,0,0,1-1.18-.17,6.33,6.33,0,0,0-1.86-.17,5.76,5.76,0,0,0-3.72,1.18,8.89,8.89,0,0,0-2.53,3.38V61.49h-6.93v0.17h0Z"/><path class="cls-5" d="M233.28,61.66H227L215.71,33.28h5.74a2.44,2.44,0,0,1,1.18.34,1.69,1.69,0,0,1,.68.85l5.4,15.2c0.34,0.85.51,1.69,0.85,2.53a13.45,13.45,0,0,1,.51,2.53l0.51-2.53a14.86,14.86,0,0,1,.85-2.53L237,34.46a1.69,1.69,0,0,1,.68-0.85,2.44,2.44,0,0,1,1.18-.34h5.41l-11,28.38h0Z"/><path class="cls-5" d="M256.93,25a5,5,0,0,1-.34,1.69,2.63,2.63,0,0,1-1,1.35,3.68,3.68,0,0,1-1.35.85,4.4,4.4,0,0,1-3.38,0,3.55,3.55,0,0,1-2.2-2.2,4.39,4.39,0,0,1,0-3.38,3.55,3.55,0,0,1,2.2-2.2,4.39,4.39,0,0,1,3.38,0,3.68,3.68,0,0,1,1.35.85,9.35,9.35,0,0,1,1,1.35,2.78,2.78,0,0,1,.34,1.69h0Zm-1,8.28V61.66H249V33.28h6.93Z"/><path class="cls-5" d="M283.62,39.36a1.32,1.32,0,0,1-.68.67,1.26,1.26,0,0,1-.84.17,2.4,2.4,0,0,1-1-.34,7.46,7.46,0,0,0-1.18-.67,5.06,5.06,0,0,0-1.69-.68,8.8,8.8,0,0,0-2.36-.34,6.85,6.85,0,0,0-3.21.68,5.88,5.88,0,0,0-2.2,1.86,8.94,8.94,0,0,0-1.35,2.87,14.39,14.39,0,0,0-.51,3.89,14.77,14.77,0,0,0,.51,4.05,12.63,12.63,0,0,0,1.35,3,7.59,7.59,0,0,0,2.2,1.86,5.55,5.55,0,0,0,2.87.68,11.74,11.74,0,0,0,2.7-.34,15.7,15.7,0,0,0,1.69-.85c0.51-.34.84-0.68,1.18-0.84a2.45,2.45,0,0,1,1.18-.34,1.13,1.13,0,0,1,1.18.67l2,2.53a8,8,0,0,1-2.53,2.2,21.58,21.58,0,0,1-2.7,1.52,13.11,13.11,0,0,1-5.91,1,12.12,12.12,0,0,1-4.9-1,12.33,12.33,0,0,1-6.76-7.43,17.32,17.32,0,0,1-1-6.25,20.48,20.48,0,0,1,.85-5.74,11.31,11.31,0,0,1,2.7-4.56,12,12,0,0,1,4.39-3,16,16,0,0,1,5.91-1.18,13.69,13.69,0,0,1,5.57,1,17.85,17.85,0,0,1,4.39,2.87l-1.86,2h0Z"/><path class="cls-5" d="M301.86,32.77a14.89,14.89,0,0,1,4.9.84,8.67,8.67,0,0,1,3.88,2.53,13.81,13.81,0,0,1,2.53,4.05,13.48,13.48,0,0,1,.85,5.41V47a7.32,7.32,0,0,1-.17.84,0.9,0.9,0,0,1-.51.34,7.32,7.32,0,0,1-.85.17H294.94c0.17,2.87,1,5.07,2.36,6.42a7.4,7.4,0,0,0,5.41,2,13.4,13.4,0,0,0,2.87-.34,12.28,12.28,0,0,0,2-.85c0.67-.34,1.18-0.67,1.52-0.84a2,2,0,0,1,1.35-.34,0.82,0.82,0,0,1,.68.17l0.51,0.51,2,2.53a10.28,10.28,0,0,1-2.53,2.2,23.52,23.52,0,0,1-2.87,1.52,17.89,17.89,0,0,1-3.21.84,19.4,19.4,0,0,1-3,.17,14.89,14.89,0,0,1-5.57-1,13.22,13.22,0,0,1-4.39-2.87,19,19,0,0,1-3-4.73,19.3,19.3,0,0,1-1-6.59,14.64,14.64,0,0,1,1-5.4,12.84,12.84,0,0,1,2.7-4.39,15.93,15.93,0,0,1,4.22-3,11.86,11.86,0,0,1,5.91-1.52h0Zm0.17,4.9a6.26,6.26,0,0,0-4.73,1.69,8.26,8.26,0,0,0-2.2,4.73h12.84a13,13,0,0,0-.34-2.53,4,4,0,0,0-1.18-2,7.5,7.5,0,0,0-1.86-1.35,5.64,5.64,0,0,0-2.53-.51h0Z"/><polygon class="cls-5" points="328.55 61.66 321.12 61.66 321.12 21.62 328.55 21.62 328.55 61.66 328.55 61.66"/><path class="cls-5" d="M337.17,61.66V33.28h4.22a1.51,1.51,0,0,1,1.69,1.18l0.51,2.2A18.6,18.6,0,0,1,345.44,35a12.64,12.64,0,0,1,2-1.18,9.78,9.78,0,0,1,2.36-.84,13.12,13.12,0,0,1,2.7-.34,10.22,10.22,0,0,1,4.05.84,7.83,7.83,0,0,1,3,2.2A10.9,10.9,0,0,1,361.49,39a12,12,0,0,1,.68,4.39V61.49h-6.93V43.41a6.1,6.1,0,0,0-1.18-4.05A4.25,4.25,0,0,0,350.51,38a7.69,7.69,0,0,0-3.38.85,8.7,8.7,0,0,0-2.87,2.2V61.66h-7.1Z"/><path class="cls-5" d="M385.48,38.85a2.33,2.33,0,0,1-.51.68,1.27,1.27,0,0,1-.85.17,2.4,2.4,0,0,1-1-.34,10,10,0,0,1-1.35-.68,17.39,17.39,0,0,0-1.69-.68,8.55,8.55,0,0,0-2.2-.34,6,6,0,0,0-3.21.84,2.46,2.46,0,0,0-1.18,2.2,1.64,1.64,0,0,0,.68,1.52,3.44,3.44,0,0,0,1.52,1,8.5,8.5,0,0,0,2.2.85,14.77,14.77,0,0,1,2.53.84l2.53,1a6.43,6.43,0,0,1,2.2,1.52,5.82,5.82,0,0,1,1.52,2,8,8,0,0,1,.68,2.87,8.59,8.59,0,0,1-.68,3.72,7.82,7.82,0,0,1-2.2,3,12.17,12.17,0,0,1-3.55,2,14.34,14.34,0,0,1-4.9.67,16.65,16.65,0,0,1-2.87-.34,12.58,12.58,0,0,1-2.7-.68,10.3,10.3,0,0,1-2.36-1.18,17.44,17.44,0,0,1-1.86-1.35l1.52-2.53a2.55,2.55,0,0,1,.68-0.68,2.15,2.15,0,0,1,1-.17,2.44,2.44,0,0,1,1.18.34,15.75,15.75,0,0,1,1.35.85,15.68,15.68,0,0,0,1.69.85,10.22,10.22,0,0,0,2.53.34,6.3,6.3,0,0,0,2-.34,6.82,6.82,0,0,0,1.52-.85,4.48,4.48,0,0,0,.85-1,3.18,3.18,0,0,0,.34-1.35,2.17,2.17,0,0,0-.68-1.69,5.26,5.26,0,0,0-1.52-1.18,8.53,8.53,0,0,0-2.2-.84,14.86,14.86,0,0,1-2.53-.85l-2.53-1a7.47,7.47,0,0,1-3.72-3.72,9,9,0,0,1-.68-3.21,7.71,7.71,0,0,1,2.7-6.08,9.24,9.24,0,0,1,3.38-1.86,12.94,12.94,0,0,1,4.56-.68,14,14,0,0,1,5.41,1,13.84,13.84,0,0,1,4.05,2.53l-1.69,2.7h0Z"/><path class="cls-5" d="M401.19,25a5,5,0,0,1-.34,1.69,2.63,2.63,0,0,1-1,1.35,3.68,3.68,0,0,1-1.35.85,4.4,4.4,0,0,1-3.38,0,3.55,3.55,0,0,1-2.2-2.2,4.39,4.39,0,0,1,0-3.38,3.55,3.55,0,0,1,2.2-2.2,4.39,4.39,0,0,1,3.38,0,3.68,3.68,0,0,1,1.35.85,9.36,9.36,0,0,1,1,1.35,5,5,0,0,1,.34,1.69h0Zm-1,8.28V61.66h-6.93V33.28h6.93Z"/><path class="cls-5" d="M417.74,32.77a20.78,20.78,0,0,1,3.38.34,14.37,14.37,0,0,1,2.87,1h8.11v2.53a1.81,1.81,0,0,1-.34,1,4,4,0,0,1-1.18.51l-2.53.51,0.51,1.52a5.75,5.75,0,0,1,.17,1.69,10,10,0,0,1-.85,3.89,7.72,7.72,0,0,1-2.37,2.87A11.79,11.79,0,0,1,422,50.51a12.62,12.62,0,0,1-4.39.67,20.69,20.69,0,0,1-3.21-.34A2.37,2.37,0,0,0,413,52.7a1.72,1.72,0,0,0,.85,1.35,3.6,3.6,0,0,0,2,.51,15.44,15.44,0,0,0,2.87.17,23.79,23.79,0,0,1,3.38.17l3.38,0.51a14.37,14.37,0,0,1,2.87,1,5.83,5.83,0,0,1,2,2,6.65,6.65,0,0,1,.85,3.38,9.89,9.89,0,0,1-.85,3.72,11.89,11.89,0,0,1-2.7,3.21,13.34,13.34,0,0,1-4.39,2.2,20.47,20.47,0,0,1-5.74.85,18,18,0,0,1-5.58-.68,16.75,16.75,0,0,1-3.88-1.69,7.88,7.88,0,0,1-2.36-2.36,5.7,5.7,0,0,1-.84-2.87,4.87,4.87,0,0,1,1.18-3.38,8.39,8.39,0,0,1,3.38-2.2,3.7,3.7,0,0,1-1.69-1.52,4.08,4.08,0,0,1-.67-2.53,3.72,3.72,0,0,1,.17-1.35,5.06,5.06,0,0,1,.68-1.35,4,4,0,0,1,1.18-1.18,15,15,0,0,1,1.69-1,9.9,9.9,0,0,1-3.38-3,8.36,8.36,0,0,1-1.18-4.56,10,10,0,0,1,.85-3.88,7.71,7.71,0,0,1,2.36-2.87A11.79,11.79,0,0,1,413,33.45a14,14,0,0,1,4.73-.68h0Zm7.43,30.07a1.92,1.92,0,0,0-.51-1.35,3.69,3.69,0,0,0-1.35-.84,17.51,17.51,0,0,0-2-.51,11.14,11.14,0,0,0-2.36-.17h-2.7a13.11,13.11,0,0,1-2.7-.34,5.61,5.61,0,0,0-1.86,1.52,2.69,2.69,0,0,0-.68,2,3.18,3.18,0,0,0,.34,1.35,2.66,2.66,0,0,0,1.18,1.18,5.63,5.63,0,0,0,2.2.68,15.55,15.55,0,0,0,3.21.34,19,19,0,0,0,3.38-.34,7.74,7.74,0,0,0,2.36-.84A4.8,4.8,0,0,0,425,64.36c0-.34.17-0.84,0.17-1.52h0Zm-7.43-16a8.56,8.56,0,0,0,2.2-.34,2.46,2.46,0,0,0,1.52-1,11.92,11.92,0,0,0,1-1.52,6.08,6.08,0,0,0,.34-1.86,4.6,4.6,0,0,0-1.18-3.38,6.43,6.43,0,0,0-7.43,0A4.36,4.36,0,0,0,413,42.06a6.07,6.07,0,0,0,.34,1.86,4,4,0,0,0,1,1.52,7.88,7.88,0,0,0,1.52,1,3.94,3.94,0,0,0,1.86.34h0Z"/><path class="cls-5" d="M436.49,61.66V20.44h6.93V36.32a18.12,18.12,0,0,1,3.72-2.53,10.86,10.86,0,0,1,8.78-.17,7.83,7.83,0,0,1,3,2.2,10.9,10.9,0,0,1,1.86,3.38,12,12,0,0,1,.68,4.39V61.66h-6.93V43.58a6.1,6.1,0,0,0-1.18-4.05,4.25,4.25,0,0,0-3.55-1.35,7.68,7.68,0,0,0-3.38.84,8.69,8.69,0,0,0-2.87,2.2V61.83h-7.1V61.66h0Z"/><path class="cls-5" d="M477.37,62.16a7.68,7.68,0,0,1-5.74-2,8,8,0,0,1-2-5.74V38.51h-2.87a2.39,2.39,0,0,1-1-.34,1.09,1.09,0,0,1-.34-1v-2.7l4.56-.68L471.46,26a0.93,0.93,0,0,1,.51-0.85,2.4,2.4,0,0,1,1-.34h3.55v9H484v4.9h-7.43V54.05a2.7,2.7,0,0,0,.67,2,2.17,2.17,0,0,0,1.69.68,1.55,1.55,0,0,0,1-.17c0.17-.17.51-0.17,0.68-0.34s0.34-.17.51-0.34a0.84,0.84,0,0,1,1,0,0.9,0.9,0,0,1,.34.51l2,3.38a9.51,9.51,0,0,1-3.38,1.86,12.36,12.36,0,0,1-3.72.51h0Z"/><path class="cls-5" d="M334.63,78.21a0.62,0.62,0,0,1-.17.51,0.36,0.36,0,0,1-.34.34c-0.17.17-.34,0.17-0.51,0.34a0.84,0.84,0,0,1-1,0,0.9,0.9,0,0,1-.51-0.34,0.64,0.64,0,0,0-.34-0.34c0-.17-0.17-0.34-0.17-0.51a0.62,0.62,0,0,1,.17-0.51,0.89,0.89,0,0,1,.34-0.51c0.17-.17.34-0.17,0.51-0.34,0.17,0,.34-0.17.51-0.17a0.62,0.62,0,0,1,.51.17c0.17,0.17.34,0.17,0.51,0.34s0.17,0.34.34,0.51a0.62,0.62,0,0,1,.17.51h0Zm-0.51,5.24v15.2h-1.52V83.45h1.52Z"/><path class="cls-5" d="M339.36,98.65V83.45h0.84a0.57,0.57,0,0,1,.51.34l0.17,2.36a8.9,8.9,0,0,1,2.37-2,5.83,5.83,0,0,1,3-.85,8.56,8.56,0,0,1,2.2.34A3.68,3.68,0,0,1,350,84.8a9.13,9.13,0,0,1,1,1.86,10,10,0,0,1,.34,2.36v9.63h-1.52V89a5.37,5.37,0,0,0-1-3.38,3.62,3.62,0,0,0-3-1.18,5.11,5.11,0,0,0-2.7.84,6.33,6.33,0,0,0-2.2,2V98.65h-1.52Z"/><path class="cls-5" d="M364.53,90v8.62H363V77.2h5.58c2.53,0,4.39.51,5.74,1.69a5.78,5.78,0,0,1,1.86,4.73,5.64,5.64,0,0,1-.51,2.53,5.82,5.82,0,0,1-1.52,2,10.77,10.77,0,0,1-2.36,1.35,9.16,9.16,0,0,1-3.21.51h-4.05Zm0-1.35h4.05a10.21,10.21,0,0,0,2.53-.34,18.49,18.49,0,0,0,1.86-1,6.07,6.07,0,0,0,1.18-1.69,4.28,4.28,0,0,0,.34-2A5.09,5.09,0,0,0,373,79.73c-1-1-2.53-1.35-4.56-1.35h-4.05v10.3h0.17Z"/><path class="cls-5" d="M388.69,98.65a0.45,0.45,0,0,1-.51-0.51L388,96.29a6.31,6.31,0,0,1-1.18,1,3.68,3.68,0,0,1-1.35.85c-0.51.17-.84,0.34-1.52,0.51a5.2,5.2,0,0,1-1.69.17,4.67,4.67,0,0,1-1.52-.17A5.07,5.07,0,0,1,379.4,98a3,3,0,0,1-.85-1.18,5,5,0,0,1-.34-1.69,3.85,3.85,0,0,1,.51-1.86,4.6,4.6,0,0,1,1.69-1.35,21.26,21.26,0,0,1,3-1c1.18-.17,2.7-0.34,4.39-0.51V88.85a5.59,5.59,0,0,0-.84-3.21,3.68,3.68,0,0,0-2.7-1.18,6.07,6.07,0,0,0-1.86.34,10,10,0,0,0-1.35.67,3.69,3.69,0,0,0-.85.68,0.55,0.55,0,0,1-1,0l-0.34-.51a12.11,12.11,0,0,1,2.53-1.86,8.06,8.06,0,0,1,3-.68,8.55,8.55,0,0,1,2.2.34,3.67,3.67,0,0,1,1.52,1.18,5.28,5.28,0,0,1,.85,1.69,10,10,0,0,1,.34,2.37v9.8h-0.68v0.17h0Zm-6.08-.84a5.74,5.74,0,0,0,1.69-.17,11.65,11.65,0,0,0,1.35-.51,5.15,5.15,0,0,0,1.18-.85l1-1V91.39a21.51,21.51,0,0,0-3.72.34,9.1,9.1,0,0,0-2.53.67,5.9,5.9,0,0,0-1.52,1,2.06,2.06,0,0,0-.51,1.52,3.29,3.29,0,0,0,.17,1.35,1.69,1.69,0,0,0,.68.85l1,0.51a2.5,2.5,0,0,0,1.18.17h0Z"/><path class="cls-5" d="M393.76,98.65V83.45h0.84c0.17,0,.34,0,0.34.17s0.17,0.17.17,0.34l0.17,3.21a7.35,7.35,0,0,1,2-2.87,4.72,4.72,0,0,1,3-1,2.5,2.5,0,0,1,1.18.17c0.34,0.17.68,0.17,1,.34l-0.17,1c0,0.17-.17.17-0.34,0.17H401.7c-0.17,0-.17-0.17-0.34-0.17a3.82,3.82,0,0,0-.67-0.17h-0.85a4.27,4.27,0,0,0-2.87,1,8.55,8.55,0,0,0-1.86,3v9.8h-1.35v0.17h0Z"/><path class="cls-5" d="M410,98.82a3.35,3.35,0,0,1-2.37-.84,4,4,0,0,1-.84-2.7V85h-2.2a0.34,0.34,0,0,1-.34-0.17,0.59,0.59,0,0,1-.17-0.34V84l2.53-.17,0.34-5.4c0-.17,0-0.17.17-0.17a0.59,0.59,0,0,1,.34-0.17h0.68v5.74h4.73v1h-4.73V95.1a1.82,1.82,0,0,0,.17,1,3,3,0,0,0,1.18,1.18,1.52,1.52,0,0,0,.84.17,2.14,2.14,0,0,0,1-.17A2.45,2.45,0,0,0,412,97c0.17-.17.34-0.17,0.51-0.34a0.34,0.34,0,0,1,.34-0.17,0.17,0.17,0,0,1,.17.17l0.34,0.68a2.46,2.46,0,0,1-1.52,1,2.42,2.42,0,0,1-1.86.51h0Z"/><path class="cls-5" d="M419.26,78.21a0.62,0.62,0,0,1-.17.51,0.36,0.36,0,0,1-.34.34c-0.17.17-.34,0.17-0.51,0.34a0.84,0.84,0,0,1-1,0c-0.17-.17-0.34-0.17-0.51-0.34a0.64,0.64,0,0,0-.34-0.34c0-.17-0.17-0.34-0.17-0.51a0.62,0.62,0,0,1,.17-0.51,0.9,0.9,0,0,1,.34-0.51c0.17-.17.34-0.17,0.51-0.34a0.84,0.84,0,0,1,1,0c0.17,0.17.34,0.17,0.51,0.34s0.17,0.34.34,0.51a0.62,0.62,0,0,1,.17.51h0Zm-0.68,5.24v15.2h-1.52V83.45h1.52Z"/><path class="cls-5" d="M434,85.47h0a0.52,0.52,0,0,1-.34.17,0.34,0.34,0,0,1-.34-0.17,2.33,2.33,0,0,0-.68-0.51,8.24,8.24,0,0,0-1.18-.51,5.2,5.2,0,0,0-1.69-.17,5.4,5.4,0,0,0-2.37.51,4.29,4.29,0,0,0-1.69,1.35,4.6,4.6,0,0,0-1,2,13.12,13.12,0,0,0-.34,2.7,14.88,14.88,0,0,0,.34,2.87,5.7,5.7,0,0,0,1,2,4.61,4.61,0,0,0,1.69,1.35,4.68,4.68,0,0,0,2.2.51,6.06,6.06,0,0,0,1.86-.34,8.24,8.24,0,0,0,1.18-.51c0.34-.17.51-0.34,0.85-0.51a2.39,2.39,0,0,1,.51-0.34,0.34,0.34,0,0,1,.34.17l0.34,0.51a4,4,0,0,1-.85.85,2.71,2.71,0,0,1-1.18.68c-0.51.17-.85,0.34-1.52,0.51a5.21,5.21,0,0,1-1.69.17,7,7,0,0,1-2.7-.51,4.6,4.6,0,0,1-2-1.52,10.77,10.77,0,0,1-1.35-2.37,10.41,10.41,0,0,1,0-6.42,7.36,7.36,0,0,1,1.35-2.53,5.14,5.14,0,0,1,2.2-1.52,7.88,7.88,0,0,1,2.87-.51,7,7,0,0,1,2.7.51,5.36,5.36,0,0,1,2,1.35l-0.51.17h0Z"/><path class="cls-5" d="M438.86,83.45v9.63a5.36,5.36,0,0,0,1,3.38,3.61,3.61,0,0,0,3,1.18,5,5,0,0,0,2.7-.68,8.89,8.89,0,0,0,2.36-2V83.62h1.52v15.2h-0.84a0.42,0.42,0,0,1-.51-0.34L448,96.29a8.87,8.87,0,0,1-2.36,2,5.83,5.83,0,0,1-3,.85,8.56,8.56,0,0,1-2.2-.34,3.68,3.68,0,0,1-1.52-1.18,9.14,9.14,0,0,1-1-1.86,5.75,5.75,0,0,1-.34-2.37V83.79h1.35V83.45h0Z"/><polygon class="cls-5" points="456.09 76.52 456.09 98.65 454.57 98.65 454.57 76.52 456.09 76.52 456.09 76.52"/><path class="cls-5" d="M471.12,98.65a0.45,0.45,0,0,1-.51-0.51l-0.17-1.86a6.28,6.28,0,0,1-1.18,1,3.68,3.68,0,0,1-1.35.85c-0.51.17-.85,0.34-1.52,0.51a5.74,5.74,0,0,1-1.69.17,4.67,4.67,0,0,1-1.52-.17,5.09,5.09,0,0,1-1.35-.68,2,2,0,0,1-.84-1.18,5,5,0,0,1-.34-1.69,3.85,3.85,0,0,1,.51-1.86,4.6,4.6,0,0,1,1.69-1.35,21.26,21.26,0,0,1,3-1c1.18-.17,2.7-0.34,4.39-0.51V88.85a5.59,5.59,0,0,0-.85-3.21,3.68,3.68,0,0,0-2.7-1.18,6.07,6.07,0,0,0-1.86.34,10,10,0,0,0-1.35.67,3.69,3.69,0,0,0-.85.68,0.55,0.55,0,0,1-1,0l-0.34-.51a12.13,12.13,0,0,1,2.53-1.86,8.07,8.07,0,0,1,3-.68,8.55,8.55,0,0,1,2.2.34,3.67,3.67,0,0,1,1.52,1.18,5.28,5.28,0,0,1,.84,1.69,10,10,0,0,1,.34,2.37v9.8h-0.68v0.17h0ZM465,97.81a5.74,5.74,0,0,0,1.69-.17,11.65,11.65,0,0,0,1.35-.51,5.15,5.15,0,0,0,1.18-.85l1-1V91.39a21.51,21.51,0,0,0-3.72.34,9.12,9.12,0,0,0-2.53.67,5.91,5.91,0,0,0-1.52,1,2.06,2.06,0,0,0-.51,1.52c0,0.51.17,1,.17,1.35a1.69,1.69,0,0,0,.68.85,5.65,5.65,0,0,0,1,.51,2.51,2.51,0,0,0,1.18.17h0Z"/><path class="cls-5" d="M476.19,98.65V83.45H477c0.17,0,.34,0,0.34.17s0.17,0.17.17,0.34l0.17,3.21a7.35,7.35,0,0,1,2-2.87,4.72,4.72,0,0,1,3-1,2.5,2.5,0,0,1,1.18.17c0.34,0.17.68,0.17,1,.34l-0.17,1c0,0.17-.17.17-0.34,0.17h-0.34c-0.17,0-.17-0.17-0.34-0.17a3.84,3.84,0,0,0-.67-0.17h-0.85a4.27,4.27,0,0,0-2.87,1,8.55,8.55,0,0,0-1.86,3v9.8h-1.35v0.17h0Z"/></svg>