<?xml version="1.0" encoding="UTF-8" standalone="no"?>
<!DOCTYPE svg  PUBLIC '-//W3C//DTD SVG 1.1//EN'  'http://www.w3.org/Graphics/SVG/1.1/DTD/svg11.dtd'>
<svg xmlns="http://www.w3.org/2000/svg" fill-rule="evenodd" xml:space="preserve" height="100%" width="100%" version="1.1" stroke-miterlimit="1.4142" clip-rule="evenodd" xmlns:xlink="http://www.w3.org/1999/xlink" viewBox="0 0 451 112">
    <g transform="translate(-52 -80)">
        <g id="SP-bw" transform="matrix(1.6892 0 0 1.6892 -178.25 -93.734)">
            <path fill="#1a171b" d="m231.2 121.2c-0.1 0.2-0.3 0.4-0.4 0.5-0.2 0.1-0.3 0.1-0.6 0.1-0.2 0-0.5-0.1-0.7-0.3-0.3-0.2-0.6-0.4-1-0.6s-0.8-0.4-1.3-0.6-1.1-0.3-1.8-0.3c-0.6 0-1.1 0.1-1.6 0.2s-0.8 0.4-1.1 0.6c-0.3 0.3-0.5 0.6-0.7 0.9-0.2 0.4-0.2 0.8-0.2 1.2 0 0.6 0.2 1 0.5 1.4s0.7 0.7 1.2 1 1.1 0.5 1.8 0.7 1.3 0.4 2 0.7c0.7 0.2 1.4 0.5 2 0.8 0.7 0.3 1.2 0.7 1.8 1.2 0.5 0.5 0.9 1.1 1.2 1.7s0.5 1.5 0.5 2.5c0 1.1-0.2 2.1-0.5 3s-0.9 1.7-1.6 2.4-1.6 1.2-2.6 1.6-2.2 0.6-3.5 0.6c-0.8 0-1.5-0.1-2.2-0.2s-1.4-0.4-2.1-0.6c-0.7-0.3-1.3-0.6-1.9-1s-1.1-0.8-1.6-1.3l1.3-2.1c0.1-0.2 0.3-0.3 0.4-0.4 0.2-0.1 0.4-0.2 0.6-0.2 0.3 0 0.6 0.1 0.9 0.3s0.7 0.5 1.1 0.7c0.4 0.3 0.9 0.5 1.5 0.7s1.3 0.3 2.1 0.3c1.3 0 2.2-0.3 2.9-0.9s1-1.5 1-2.6c0-0.6-0.2-1.1-0.5-1.5s-0.7-0.7-1.2-1-1.1-0.5-1.8-0.7-1.3-0.4-2-0.6-1.3-0.5-2-0.8-1.2-0.7-1.8-1.2c-0.5-0.5-0.9-1.1-1.2-1.8s-0.5-1.6-0.5-2.7c0-0.9 0.2-1.7 0.5-2.5s0.8-1.5 1.5-2.2c0.7-0.6 1.5-1.1 2.4-1.5 1-0.4 2.1-0.6 3.3-0.6 1.4 0 2.7 0.2 3.9 0.7 1.2 0.4 2.2 1 3 1.8l-1 2.6z" fill-rule="nonzero"/>
            <path fill="#1a171b" d="m242.8 123.5c1.1 0 2 0.2 2.9 0.5s1.7 0.8 2.3 1.5 1.1 1.4 1.5 2.4c0.4 0.9 0.5 2 0.5 3.2v0.8c0 0.2-0.1 0.4-0.1 0.5s-0.2 0.2-0.3 0.2-0.3 0.1-0.5 0.1h-10.4c0.1 1.7 0.6 3 1.4 3.8s1.9 1.2 3.2 1.2c0.7 0 1.2-0.1 1.7-0.2 0.5-0.2 0.9-0.3 1.2-0.5 0.4-0.2 0.7-0.4 0.9-0.5 0.3-0.2 0.5-0.2 0.8-0.2 0.2 0 0.3 0 0.4 0.1l0.3 0.3 1.2 1.5c-0.4 0.5-1 1-1.5 1.3s-1.1 0.6-1.7 0.9c-0.6 0.2-1.2 0.4-1.9 0.5s-1.2 0.1-1.8 0.1c-1.2 0-2.3-0.2-3.3-0.6s-1.9-1-2.6-1.7c-0.7-0.8-1.3-1.7-1.8-2.8-0.4-1.1-0.6-2.4-0.6-3.9 0-1.1 0.2-2.2 0.6-3.2s0.9-1.9 1.6-2.6 1.5-1.3 2.5-1.8c1.1-0.6 2.3-0.9 3.5-0.9zm0.1 2.9c-1.2 0-2.1 0.3-2.8 1s-1.1 1.6-1.3 2.8h7.6c0-0.5-0.1-1-0.2-1.5s-0.4-0.9-0.7-1.2c-0.3-0.4-0.7-0.6-1.1-0.8s-0.9-0.3-1.5-0.3z" fill-rule="nonzero"/>
            <path fill="#1a171b" d="m253.4 140.6v-16.8h2.4c0.4 0 0.7 0.1 0.9 0.2 0.2 0.2 0.3 0.4 0.3 0.8l0.2 2c0.6-1 1.3-1.9 2.1-2.5s1.7-0.9 2.7-0.9c0.8 0 1.5 0.2 2.1 0.6l-0.5 3c0 0.2-0.1 0.3-0.2 0.4s-0.3 0.1-0.4 0.1c-0.2 0-0.4 0-0.7-0.1s-0.7-0.1-1.1-0.1c-0.8 0-1.6 0.2-2.2 0.7s-1.1 1.1-1.5 2v10.5h-4.1v0.1z" fill-rule="nonzero"/>
            <path fill="#1a171b" d="m275.2 140.6h-3.7l-6.7-16.8h3.4c0.3 0 0.5 0.1 0.7 0.2s0.3 0.3 0.4 0.5l3.2 9c0.2 0.5 0.3 1 0.5 1.5s0.2 1 0.3 1.5l0.3-1.5c0.1-0.5 0.3-1 0.5-1.5l3.3-9c0.1-0.2 0.2-0.4 0.4-0.5s0.4-0.2 0.7-0.2h3.2l-6.5 16.8z" fill-rule="nonzero"/>
            <path fill="#1a171b" d="m289.2 118.9c0 0.4-0.1 0.7-0.2 1s-0.3 0.6-0.6 0.8c-0.2 0.2-0.5 0.4-0.8 0.5s-0.7 0.2-1 0.2-0.7-0.1-1-0.2-0.6-0.3-0.8-0.5-0.4-0.5-0.5-0.8-0.2-0.6-0.2-1 0.1-0.7 0.2-1 0.3-0.6 0.5-0.8 0.5-0.4 0.8-0.5 0.6-0.2 1-0.2 0.7 0.1 1 0.2 0.6 0.3 0.8 0.5 0.4 0.5 0.6 0.8 0.2 0.6 0.2 1zm-0.6 4.9v16.8h-4.1v-16.8h4.1z" fill-rule="nonzero"/>
            <path fill="#1a171b" d="m305 127.4c-0.1 0.2-0.2 0.3-0.4 0.4-0.1 0.1-0.3 0.1-0.5 0.1s-0.4-0.1-0.6-0.2-0.4-0.3-0.7-0.4c-0.3-0.2-0.6-0.3-1-0.4s-0.8-0.2-1.4-0.2c-0.7 0-1.3 0.1-1.9 0.4-0.5 0.3-1 0.6-1.3 1.1-0.4 0.5-0.6 1.1-0.8 1.7-0.2 0.7-0.3 1.5-0.3 2.3 0 0.9 0.1 1.7 0.3 2.4s0.5 1.3 0.8 1.8c0.4 0.5 0.8 0.8 1.3 1.1s1.1 0.4 1.7 0.4 1.2-0.1 1.6-0.2c0.4-0.2 0.7-0.3 1-0.5s0.5-0.4 0.7-0.5 0.4-0.2 0.7-0.2 0.6 0.1 0.7 0.4l1.2 1.5c-0.4 0.5-0.9 1-1.5 1.3-0.5 0.4-1.1 0.6-1.6 0.9-0.6 0.2-1.1 0.4-1.7 0.5s-1.2 0.1-1.8 0.1c-1 0-2-0.2-2.9-0.6s-1.7-1-2.4-1.7-1.2-1.7-1.6-2.7-0.6-2.3-0.6-3.7c0-1.2 0.2-2.4 0.5-3.4s0.9-2 1.6-2.7 1.5-1.4 2.6-1.8c1-0.4 2.2-0.7 3.5-0.7s2.4 0.2 3.3 0.6 1.8 1 2.6 1.7l-1.1 1.2z" fill-rule="nonzero"/>
            <path fill="#1a171b" d="m315.8 123.5c1.1 0 2 0.2 2.9 0.5s1.7 0.8 2.3 1.5 1.1 1.4 1.5 2.4c0.4 0.9 0.5 2 0.5 3.2v0.8c0 0.2-0.1 0.4-0.1 0.5-0.1 0.1-0.2 0.2-0.3 0.2s-0.3 0.1-0.5 0.1h-10.4c0.1 1.7 0.6 3 1.4 3.8s1.9 1.2 3.2 1.2c0.7 0 1.2-0.1 1.7-0.2 0.5-0.2 0.9-0.3 1.2-0.5 0.4-0.2 0.7-0.4 0.9-0.5 0.3-0.2 0.5-0.2 0.8-0.2 0.2 0 0.3 0 0.4 0.1l0.3 0.3 1.2 1.5c-0.4 0.5-1 1-1.5 1.3-0.6 0.4-1.1 0.6-1.7 0.9-0.6 0.2-1.2 0.4-1.9 0.5s-1.2 0.1-1.8 0.1c-1.2 0-2.3-0.2-3.3-0.6s-1.9-1-2.6-1.7c-0.7-0.8-1.3-1.7-1.8-2.8-0.4-1.1-0.6-2.4-0.6-3.9 0-1.1 0.2-2.2 0.6-3.2s0.9-1.9 1.6-2.6 1.5-1.3 2.5-1.8c1.1-0.6 2.2-0.9 3.5-0.9zm0.1 2.9c-1.2 0-2.1 0.3-2.8 1s-1.1 1.6-1.3 2.8h7.6c0-0.5-0.1-1-0.2-1.5s-0.4-0.9-0.7-1.2-0.7-0.6-1.1-0.8-0.9-0.3-1.5-0.3z" fill-rule="nonzero"/>
            <path fill="#1a171b" d="m331.2 132.3v8.3h-4.4v-23.7h7.7c1.6 0 3 0.2 4.1 0.6 1.2 0.4 2.1 0.9 2.9 1.6s1.3 1.5 1.7 2.4 0.5 1.9 0.5 3.1c0 1.1-0.2 2.2-0.6 3.2s-1 1.8-1.7 2.5-1.7 1.2-2.9 1.6-2.5 0.6-4 0.6h-3.3v-0.2zm0-3.5h3.3c0.8 0 1.5-0.1 2.1-0.3s1.1-0.5 1.5-0.9 0.7-0.8 0.9-1.4c0.2-0.5 0.3-1.1 0.3-1.8 0-0.6-0.1-1.2-0.3-1.7s-0.5-1-0.9-1.3-0.9-0.6-1.5-0.8-1.3-0.3-2.1-0.3h-3.3v8.5z" fill-rule="nonzero"/>
            <path fill="#1a171b" d="m350.6 123.8v10.7c0 1 0.2 1.8 0.7 2.4s1.2 0.8 2.1 0.8c0.7 0 1.4-0.2 2-0.5s1.2-0.7 1.7-1.3v-12.2h4.1v16.8h-2.5c-0.5 0-0.9-0.2-1-0.7l-0.3-1.3c-0.3 0.4-0.7 0.7-1.1 1s-0.8 0.5-1.2 0.7-0.9 0.4-1.4 0.5-1 0.2-1.6 0.2c-0.9 0-1.7-0.2-2.4-0.5s-1.3-0.8-1.8-1.3c-0.5-0.6-0.8-1.2-1.1-2-0.2-0.8-0.4-1.6-0.4-2.6v-10.7h4.2z" fill-rule="nonzero"/>
            <rect fill-rule="nonzero" height="24.4" width="4.1" y="116.3" x="365.7" fill="#1a171b"/>
            <path fill="#1a171b" d="m384.4 127.1c-0.1 0.2-0.2 0.3-0.3 0.4s-0.3 0.1-0.5 0.1-0.4-0.1-0.6-0.2-0.5-0.2-0.8-0.4c-0.3-0.1-0.6-0.3-1-0.4s-0.8-0.2-1.3-0.2c-0.8 0-1.4 0.2-1.9 0.5s-0.7 0.8-0.7 1.3c0 0.4 0.1 0.7 0.4 0.9 0.2 0.2 0.5 0.5 0.9 0.6 0.4 0.2 0.8 0.4 1.3 0.5s1 0.3 1.5 0.5l1.5 0.6c0.5 0.2 0.9 0.5 1.3 0.9 0.4 0.3 0.7 0.8 0.9 1.2 0.2 0.5 0.4 1.1 0.4 1.7 0 0.8-0.1 1.6-0.4 2.2-0.3 0.7-0.7 1.3-1.3 1.8s-1.3 0.9-2.1 1.2-1.8 0.4-2.9 0.4c-0.6 0-1.1-0.1-1.7-0.2s-1.1-0.2-1.6-0.4-1-0.4-1.4-0.7-0.8-0.5-1.1-0.8l0.9-1.5c0.1-0.2 0.3-0.3 0.4-0.4 0.2-0.1 0.4-0.1 0.6-0.1 0.3 0 0.5 0.1 0.7 0.2s0.5 0.3 0.8 0.5 0.6 0.3 1 0.5c0.4 0.1 0.9 0.2 1.5 0.2 0.5 0 0.9-0.1 1.2-0.2s0.6-0.3 0.9-0.5c0.2-0.2 0.4-0.4 0.5-0.6s0.2-0.5 0.2-0.8c0-0.4-0.1-0.7-0.4-1s-0.5-0.5-0.9-0.7-0.8-0.4-1.3-0.5-1-0.3-1.5-0.5l-1.5-0.6c-0.5-0.2-0.9-0.5-1.3-0.9s-0.7-0.8-0.9-1.3-0.4-1.2-0.4-1.9 0.1-1.3 0.4-2c0.3-0.6 0.7-1.2 1.2-1.6 0.5-0.5 1.2-0.8 2-1.1s1.7-0.4 2.7-0.4c1.2 0 2.2 0.2 3.2 0.6s1.7 0.9 2.4 1.5l-1 1.6z" fill-rule="nonzero"/>
            <path fill="#1a171b" d="m395.7 123.5c1.1 0 2 0.2 2.9 0.5s1.7 0.8 2.3 1.5 1.1 1.4 1.5 2.4c0.4 0.9 0.5 2 0.5 3.2v0.8c0 0.2-0.1 0.4-0.1 0.5-0.1 0.1-0.2 0.2-0.3 0.2s-0.3 0.1-0.5 0.1h-10.4c0.1 1.7 0.6 3 1.4 3.8s1.9 1.2 3.2 1.2c0.7 0 1.2-0.1 1.7-0.2 0.5-0.2 0.9-0.3 1.2-0.5 0.4-0.2 0.7-0.4 0.9-0.5 0.3-0.2 0.5-0.2 0.8-0.2 0.2 0 0.3 0 0.4 0.1l0.3 0.3 1.2 1.5c-0.4 0.5-1 1-1.5 1.3-0.6 0.4-1.1 0.6-1.7 0.9-0.6 0.2-1.2 0.4-1.9 0.5s-1.2 0.1-1.8 0.1c-1.2 0-2.3-0.2-3.3-0.6s-1.9-1-2.6-1.7c-0.7-0.8-1.3-1.7-1.8-2.8-0.4-1.1-0.6-2.4-0.6-3.9 0-1.1 0.2-2.2 0.6-3.2s0.9-1.9 1.6-2.6 1.5-1.3 2.5-1.8c1.1-0.6 2.3-0.9 3.5-0.9zm0.1 2.9c-1.2 0-2.1 0.3-2.8 1s-1.1 1.6-1.3 2.8h7.6c0-0.5-0.1-1-0.2-1.5s-0.4-0.9-0.7-1.2-0.7-0.6-1.1-0.8-0.9-0.3-1.5-0.3z" fill-rule="nonzero"/>
            <path fill="#1a171b" d="m313.6 150.4c0 0.1 0 0.2-0.1 0.3 0 0.1-0.1 0.2-0.2 0.2-0.1 0.1-0.2 0.1-0.3 0.2-0.1 0-0.2 0.1-0.3 0.1s-0.2 0-0.3-0.1c-0.1 0-0.2-0.1-0.3-0.2s-0.1-0.2-0.2-0.2c0-0.1-0.1-0.2-0.1-0.3s0-0.2 0.1-0.3 0.1-0.2 0.2-0.3 0.2-0.1 0.3-0.2c0.1 0 0.2-0.1 0.3-0.1s0.2 0 0.3 0.1c0.1 0 0.2 0.1 0.3 0.2s0.1 0.2 0.2 0.3 0.1 0.2 0.1 0.3zm-0.3 3.1v9h-0.9v-9h0.9z" fill-rule="nonzero"/>
            <path fill="#1a171b" d="m316.4 162.5v-9h0.5c0.2 0 0.2 0.1 0.3 0.2l0.1 1.4c0.4-0.5 0.9-0.9 1.4-1.2s1.1-0.5 1.8-0.5c0.5 0 0.9 0.1 1.3 0.2 0.4 0.2 0.7 0.4 0.9 0.7s0.4 0.6 0.6 1.1 0.2 0.9 0.2 1.4v5.7h-0.9v-5.7c0-0.8-0.2-1.5-0.6-2s-1-0.7-1.8-0.7c-0.6 0-1.1 0.2-1.6 0.5s-1 0.7-1.3 1.2v6.7h-0.9z" fill-rule="nonzero"/>
            <path fill="#1a171b" d="m331.3 157.4v5.1h-0.9v-12.7h3.3c1.5 0 2.6 0.3 3.4 1s1.1 1.6 1.1 2.8c0 0.6-0.1 1.1-0.3 1.5s-0.5 0.9-0.9 1.2-0.9 0.6-1.4 0.8c-0.6 0.2-1.2 0.3-1.9 0.3h-2.4zm0-0.8h2.4c0.6 0 1.1-0.1 1.5-0.2 0.4-0.2 0.8-0.4 1.1-0.6 0.3-0.3 0.5-0.6 0.7-1s0.2-0.8 0.2-1.2c0-1-0.3-1.7-0.9-2.3-0.6-0.5-1.5-0.8-2.7-0.8h-2.4v6.1h0.1z" fill-rule="nonzero"/>
            <path fill="#1a171b" d="m345.6 162.5c-0.2 0-0.3-0.1-0.3-0.3l-0.1-1.1c-0.2 0.2-0.5 0.5-0.7 0.6-0.2 0.2-0.5 0.4-0.8 0.5s-0.5 0.2-0.9 0.3c-0.3 0.1-0.6 0.1-1 0.1-0.3 0-0.6 0-0.9-0.1s-0.5-0.2-0.8-0.4c-0.2-0.2-0.4-0.4-0.5-0.7s-0.2-0.6-0.2-1 0.1-0.7 0.3-1.1c0.2-0.3 0.6-0.6 1-0.8 0.5-0.2 1.1-0.4 1.8-0.6s1.6-0.2 2.6-0.3v-0.9c0-0.8-0.2-1.5-0.5-1.9-0.4-0.4-0.9-0.7-1.6-0.7-0.4 0-0.8 0.1-1.1 0.2s-0.6 0.3-0.8 0.4-0.4 0.3-0.5 0.4-0.2 0.2-0.3 0.2-0.2-0.1-0.3-0.2l-0.2-0.3c0.5-0.5 1-0.8 1.5-1.1 0.5-0.2 1.1-0.4 1.8-0.4 0.5 0 0.9 0.1 1.3 0.2 0.4 0.2 0.7 0.4 0.9 0.7s0.4 0.6 0.5 1 0.2 0.9 0.2 1.4v5.8h-0.4v0.1zm-3.6-0.5c0.3 0 0.7 0 1-0.1s0.6-0.2 0.8-0.3 0.5-0.3 0.7-0.5l0.6-0.6v-2.3c-0.9 0-1.6 0.1-2.2 0.2s-1.1 0.2-1.5 0.4-0.7 0.4-0.9 0.6-0.3 0.5-0.3 0.9c0 0.3 0 0.6 0.1 0.8s0.2 0.4 0.4 0.5l0.6 0.3c0.2 0.1 0.5 0.1 0.7 0.1z" fill-rule="nonzero"/>
            <path fill="#1a171b" d="m348.6 162.5v-9h0.5c0.1 0 0.2 0 0.2 0.1s0.1 0.1 0.1 0.2l0.1 1.9c0.3-0.7 0.7-1.3 1.2-1.7s1.1-0.6 1.8-0.6c0.3 0 0.5 0 0.7 0.1s0.4 0.1 0.6 0.2l-0.1 0.6c0 0.1-0.1 0.1-0.2 0.1h-0.2c-0.1 0-0.1-0.1-0.2-0.1s-0.2-0.1-0.4-0.1h-0.5c-0.7 0-1.2 0.2-1.7 0.6-0.4 0.4-0.8 1-1.1 1.8v5.8h-0.8v0.1z" fill-rule="nonzero"/>
            <path fill="#1a171b" d="m358.2 162.6c-0.6 0-1.1-0.2-1.4-0.5s-0.5-0.9-0.5-1.6v-6.1h-1.3c-0.1 0-0.1 0-0.2-0.1 0 0-0.1-0.1-0.1-0.2v-0.3l1.5-0.1 0.2-3.2c0-0.1 0-0.1 0.1-0.1 0 0 0.1-0.1 0.2-0.1h0.4v3.4h2.8v0.6h-2.8v6.1c0 0.2 0 0.5 0.1 0.6 0.1 0.2 0.1 0.3 0.3 0.4 0.1 0.1 0.2 0.2 0.4 0.3 0.1 0.1 0.3 0.1 0.5 0.1s0.4 0 0.6-0.1 0.3-0.1 0.4-0.2 0.2-0.1 0.3-0.2 0.1-0.1 0.2-0.1c0 0 0.1 0 0.1 0.1l0.2 0.4c-0.2 0.3-0.5 0.5-0.9 0.6-0.3 0.3-0.7 0.3-1.1 0.3z" fill-rule="nonzero"/>
            <path fill="#1a171b" d="m363.7 150.4c0 0.1 0 0.2-0.1 0.3 0 0.1-0.1 0.2-0.2 0.2-0.1 0.1-0.2 0.1-0.3 0.2-0.1 0-0.2 0.1-0.3 0.1s-0.2 0-0.3-0.1-0.2-0.1-0.3-0.2-0.1-0.2-0.2-0.2c0-0.1-0.1-0.2-0.1-0.3s0-0.2 0.1-0.3 0.1-0.2 0.2-0.3 0.2-0.1 0.3-0.2 0.2-0.1 0.3-0.1 0.2 0 0.3 0.1c0.1 0 0.2 0.1 0.3 0.2s0.1 0.2 0.2 0.3 0.1 0.2 0.1 0.3zm-0.4 3.1v9h-0.9v-9h0.9z" fill-rule="nonzero"/>
            <path fill="#1a171b" d="m372.4 154.7c-0.1 0.1-0.1 0.1 0 0-0.1 0.1-0.1 0.1-0.2 0.1s-0.1 0-0.2-0.1-0.2-0.2-0.4-0.3-0.4-0.2-0.7-0.3-0.6-0.1-1-0.1c-0.5 0-1 0.1-1.4 0.3s-0.7 0.4-1 0.8c-0.3 0.3-0.5 0.8-0.6 1.2-0.1 0.5-0.2 1-0.2 1.6s0.1 1.2 0.2 1.7 0.4 0.9 0.6 1.2c0.3 0.3 0.6 0.6 1 0.8s0.8 0.3 1.3 0.3c0.4 0 0.8-0.1 1.1-0.2s0.5-0.2 0.7-0.3 0.3-0.2 0.5-0.3 0.2-0.2 0.3-0.2 0.1 0 0.2 0.1l0.2 0.3c-0.1 0.2-0.3 0.3-0.5 0.5s-0.4 0.3-0.7 0.4-0.5 0.2-0.9 0.3c-0.3 0.1-0.6 0.1-1 0.1-0.6 0-1.1-0.1-1.6-0.3s-0.9-0.5-1.2-0.9-0.6-0.9-0.8-1.4c-0.2-0.6-0.3-1.2-0.3-1.9s0.1-1.3 0.3-1.9 0.4-1 0.8-1.5c0.3-0.4 0.8-0.7 1.3-0.9s1.1-0.3 1.7-0.3 1.1 0.1 1.6 0.3 0.8 0.4 1.2 0.8l-0.3 0.1z" fill-rule="nonzero"/>
            <path fill="#1a171b" d="m375.3 153.5v5.7c0 0.8 0.2 1.5 0.6 2s1 0.7 1.8 0.7c0.6 0 1.1-0.1 1.6-0.4s1-0.7 1.4-1.2v-6.7h0.9v9h-0.6c-0.2 0-0.3-0.1-0.3-0.2l-0.1-1.3c-0.4 0.5-0.9 0.9-1.4 1.2s-1.1 0.5-1.8 0.5c-0.5 0-0.9-0.1-1.3-0.2-0.4-0.2-0.7-0.4-0.9-0.7s-0.4-0.6-0.6-1.1c-0.1-0.4-0.2-0.9-0.2-1.4v-5.7h0.9v-0.2z" fill-rule="nonzero"/>
            <rect fill-rule="nonzero" height="13.1" width=".9" y="149.4" x="384.6" fill="#1a171b"/>
            <path fill="#1a171b" d="m394.4 162.5c-0.2 0-0.3-0.1-0.3-0.3l-0.1-1.1c-0.2 0.2-0.5 0.5-0.7 0.6-0.2 0.2-0.5 0.4-0.8 0.5s-0.5 0.2-0.9 0.3c-0.3 0.1-0.6 0.1-1 0.1-0.3 0-0.6 0-0.9-0.1s-0.5-0.2-0.8-0.4c-0.2-0.2-0.4-0.4-0.5-0.7s-0.2-0.6-0.2-1 0.1-0.7 0.3-1.1c0.2-0.3 0.6-0.6 1-0.8 0.5-0.2 1-0.4 1.8-0.6 0.7-0.1 1.6-0.2 2.6-0.3v-0.9c0-0.8-0.2-1.5-0.5-1.9-0.4-0.4-0.9-0.7-1.6-0.7-0.4 0-0.8 0.1-1.1 0.2s-0.6 0.3-0.8 0.4-0.4 0.3-0.5 0.4-0.2 0.2-0.3 0.2-0.2-0.1-0.3-0.2l-0.2-0.3c0.5-0.5 1-0.8 1.5-1.1 0.5-0.2 1.1-0.4 1.8-0.4 0.5 0 0.9 0.1 1.3 0.2 0.4 0.2 0.7 0.4 0.9 0.7s0.4 0.6 0.5 1 0.2 0.9 0.2 1.4v5.8h-0.4v0.1zm-3.6-0.5c0.3 0 0.7 0 1-0.1s0.6-0.2 0.8-0.3 0.5-0.3 0.7-0.5l0.6-0.6v-2.3c-0.9 0-1.6 0.1-2.2 0.2s-1.1 0.2-1.5 0.4-0.7 0.4-0.9 0.6-0.3 0.5-0.3 0.9c0 0.3 0 0.6 0.1 0.8s0.2 0.4 0.4 0.5l0.6 0.3c0.2 0.1 0.5 0.1 0.7 0.1z" fill-rule="nonzero"/>
            <path fill="#1a171b" d="m397.4 162.5v-9h0.5c0.1 0 0.2 0 0.2 0.1s0.1 0.1 0.1 0.2l0.1 1.9c0.3-0.7 0.7-1.3 1.2-1.7s1.1-0.6 1.8-0.6c0.3 0 0.5 0 0.7 0.1s0.4 0.1 0.6 0.2l-0.1 0.6c0 0.1-0.1 0.1-0.2 0.1h-0.2c-0.1 0-0.1-0.1-0.2-0.1s-0.2-0.1-0.4-0.1h-0.5c-0.7 0-1.2 0.2-1.7 0.6-0.4 0.4-0.8 1-1.1 1.8v5.8h-0.8v0.1z" fill-rule="nonzero"/>
                <rect height="63.8" width="63.8" y="104.1" x="137.2" fill="#205b5d"/>
                    <path stroke-width="1px" d="m144.2 104.1v63.8" stroke="#409393" fill="none"/>
                    <path stroke-width="1px" d="m151.3 104.1v63.8" stroke="#409393" fill="none"/>
                    <path stroke-width="1px" d="m165.6 104.1v63.8" stroke="#409393" fill="none"/>
                    <path stroke-width="1px" d="m172.6 104.1v63.8" stroke="#409393" fill="none"/>
                    <path stroke-width="1px" d="m179.7 104.1v63.8" stroke="#409393" fill="none"/>
                    <path stroke-width="1px" d="m186.7 104.1v63.8" stroke="#409393" fill="none"/>
                    <path stroke-width="1px" d="m193.8 104.1v63.8" stroke="#409393" fill="none"/>
                    <g transform="matrix(1.0016 0 0 1 -.21538 0)">
                        <path stroke-width="1px" d="m200.9 111.2h-63.7" stroke="#409393" fill="none"/>
                    </g>
                    <g transform="matrix(1.0016 0 0 1 -.21538 0)">
                        <path stroke-width="1px" d="m200.9 118.3h-63.7" stroke="#409393" fill="none"/>
                    </g>
                    <g transform="matrix(1.0016 0 0 1 -.21538 0)">
                        <path stroke-width="1px" d="m200.9 132.6h-63.7" stroke="#409393" fill="none"/>
                    </g>
                    <g transform="matrix(1.0016 0 0 1 -.21538 0)">
                        <path stroke-width="1px" d="m200.9 139.6h-63.7" stroke="#409393" fill="none"/>
                    </g>
                    <g transform="matrix(1.0016 0 0 1 -.21538 0)">
                        <path stroke-width="1px" d="m200.9 146.6h-63.7" stroke="#409393" fill="none"/>
                    </g>
                    <g transform="matrix(1.0016 0 0 1 -.21538 0)">
                        <path stroke-width="1px" d="m200.9 153.7h-63.7" stroke="#409393" fill="none"/>
                    </g>
                    <g transform="matrix(1.0016 0 0 1 -.21538 0)">
                        <path stroke-width="1px" d="m200.9 160.8h-63.7" stroke="#409393" fill="none"/>
                    </g>
                <g transform="matrix(1.0016 0 0 1 -.21538 0)">
                    <path stroke-width="1px" d="m137.2 125.4h63.7" stroke="#409393" fill="none"/>
                </g>
                <path stroke-width="1px" d="m158.4 104.1v63.8" stroke="#409393" fill="none"/>
            <path stroke-linejoin="round" d="m141 137.1h7.2l2.6-6.8 6.1 15.6 3.1-6.9h4.6l4-25.4 5.1 41 3.9-18.6 1.1 2.4h4.9l2-9 3.1 7.6h9.5" stroke="#fff" stroke-width="3.48px" fill="none"/>
        </g>
    </g>
</svg>
