<svg id="Layer_1" data-name="Layer 1" xmlns="http://www.w3.org/2000/svg" viewBox="0 0 287.57 63.78"><defs><style>.cls-1{fill:#585d80;}.cls-2{fill:#878caa;}.cls-3{fill:#9c335d;}.cls-4{fill:#fff;}.cls-5{font-size:32.8px;font-weight:700;}.cls-5,.cls-6{fill:#1a171b;font-family:Lato;}.cls-6{font-size:18px;}</style></defs><title>SI</title><rect class="cls-1" width="63.78" height="63.78"/><rect class="cls-2" x="7.08" y="7.08" width="7.08" height="7.08"/><rect class="cls-2" x="21.28" y="7.08" width="7.08" height="7.08"/><rect class="cls-2" x="35.43" y="7.08" width="7.08" height="7.08"/><rect class="cls-2" x="49.58" y="7.08" width="7.08" height="7.08"/><rect class="cls-2" x="7.08" y="21.23" width="7.08" height="7.08"/><rect class="cls-2" x="21.28" y="21.23" width="5.45" height="7.08"/><rect class="cls-2" x="50.83" y="21.23" width="5.83" height="7.08"/><rect class="cls-2" x="7.08" y="35.38" width="7.08" height="7.08"/><rect class="cls-2" x="21.28" y="35.38" width="7.08" height="7.08"/><rect class="cls-2" x="35.43" y="37.87" width="7.08" height="4.58"/><rect class="cls-2" x="49.58" y="35.38" width="7.08" height="7.08"/><rect class="cls-2" x="7.08" y="49.53" width="7.08" height="7.08"/><rect class="cls-2" x="21.28" y="49.53" width="7.08" height="7.08"/><rect class="cls-2" x="35.43" y="49.53" width="7.08" height="7.08"/><rect class="cls-2" x="49.58" y="49.53" width="7.08" height="7.08"/><line class="cls-3" x1="38.97" y1="24.65" x2="12.53" y2="51.09"/><path class="cls-4" d="M12.53,53.58a2.49,2.49,0,0,1-1.76-4.25L37.2,22.89a2.49,2.49,0,0,1,3.52,3.52L14.29,52.85A2.48,2.48,0,0,1,12.53,53.58Z"/><circle class="cls-2" cx="38.97" cy="24.77" r="11.99"/><path class="cls-4" d="M39,38.5A13.74,13.74,0,1,1,52.7,24.77,13.75,13.75,0,0,1,39,38.5Zm0-24A10.25,10.25,0,1,0,49.22,24.77,10.26,10.26,0,0,0,39,14.51Z"/><rect class="cls-1" x="35.43" y="21.23" width="7.07" height="7.08"/><text class="cls-5" transform="translate(78.97 36.53)">ServiceInsight</text><text class="cls-6" transform="translate(195.15 58.38)">in Particular</text></svg>