<svg id="Layer_1" data-name="Layer 1" xmlns="http://www.w3.org/2000/svg" viewBox="0 0 502.71 107.77"><defs><style>.cls-1{fill:#1a171b;}.cls-2{fill:#92117e;}.cls-2,.cls-3{fill-rule:evenodd;}.cls-3{fill:#a84198;}.cls-4{fill:#fff;}</style></defs><title>SC</title><path class="cls-1" d="M158.79,29.05a3.69,3.69,0,0,1-.68.85,1.82,1.82,0,0,1-1,.17,1.53,1.53,0,0,1-1.18-.51,7.36,7.36,0,0,0-1.69-1c-0.67-.34-1.35-0.68-2.2-1a8.18,8.18,0,0,0-3-.51,13.12,13.12,0,0,0-2.7.34,4.84,4.84,0,0,0-1.86,1,9.28,9.28,0,0,0-1.18,1.52,4.28,4.28,0,0,0-.34,2,3.66,3.66,0,0,0,.85,2.37,6.75,6.75,0,0,0,2,1.69,12.68,12.68,0,0,0,3,1.18,26.78,26.78,0,0,1,3.38,1.18,20.13,20.13,0,0,1,3.38,1.35,11.91,11.91,0,0,1,3,2,8.13,8.13,0,0,1,2,2.87,10.43,10.43,0,0,1,.84,4.22,12.34,12.34,0,0,1-1,5.07,13.1,13.1,0,0,1-2.7,4.05,12.84,12.84,0,0,1-4.39,2.7,16.06,16.06,0,0,1-5.91,1,25.44,25.44,0,0,1-3.72-.34,27.94,27.94,0,0,1-3.55-1A11.68,11.68,0,0,1,137,58.62a17.15,17.15,0,0,1-2.7-2.2l2.2-3.55a2.56,2.56,0,0,1,.68-0.68,2.4,2.4,0,0,1,1-.34,2.73,2.73,0,0,1,1.52.51,17.8,17.8,0,0,0,1.86,1.18,8.83,8.83,0,0,0,2.53,1.18,11.25,11.25,0,0,0,3.55.51,7.09,7.09,0,0,0,4.9-1.52,5.5,5.5,0,0,0,1.69-4.39,4.16,4.16,0,0,0-.84-2.53,6.78,6.78,0,0,0-2-1.69,12.66,12.66,0,0,0-3-1.18c-1.18-.34-2.2-0.68-3.38-1a28.32,28.32,0,0,1-3.38-1.35,12,12,0,0,1-3-2,9.61,9.61,0,0,1-2-3,11.58,11.58,0,0,1-.84-4.56,11.78,11.78,0,0,1,.84-4.22A10.43,10.43,0,0,1,139,24a16.46,16.46,0,0,1,4.05-2.53,14.88,14.88,0,0,1,5.57-1,16.91,16.91,0,0,1,6.59,1.18,12.71,12.71,0,0,1,5.07,3l-1.52,4.39h0Z"/><path class="cls-1" d="M178.38,32.94a14.9,14.9,0,0,1,4.9.84,8.68,8.68,0,0,1,3.88,2.53,13.81,13.81,0,0,1,2.53,4.05,13.48,13.48,0,0,1,.84,5.41v1.35a7.36,7.36,0,0,1-.17.85,0.9,0.9,0,0,1-.51.34,7.36,7.36,0,0,1-.85.17H171.46c0.17,2.87,1,5.07,2.36,6.42a7.4,7.4,0,0,0,5.41,2,13.38,13.38,0,0,0,2.87-.34,12.21,12.21,0,0,0,2-.84c0.68-.34,1.18-0.68,1.52-0.84a2,2,0,0,1,1.35-.34,0.82,0.82,0,0,1,.68.17l0.51,0.51,2,2.53a10.32,10.32,0,0,1-2.53,2.2,23.45,23.45,0,0,1-2.87,1.52,17.8,17.8,0,0,1-3.21.84,19.4,19.4,0,0,1-3,.17,14.87,14.87,0,0,1-5.57-1,13.19,13.19,0,0,1-4.39-2.87,19,19,0,0,1-3-4.73,19.28,19.28,0,0,1-1-6.59,14.62,14.62,0,0,1,1-5.4,12.82,12.82,0,0,1,2.7-4.39,15.91,15.91,0,0,1,4.22-3,12.32,12.32,0,0,1,5.91-1.52h0Zm0.17,4.9a6.26,6.26,0,0,0-4.73,1.69,8.26,8.26,0,0,0-2.2,4.73h12.84a13,13,0,0,0-.34-2.53,4,4,0,0,0-1.18-2,7.52,7.52,0,0,0-1.86-1.35,5.64,5.64,0,0,0-2.53-.51h0Z"/><path class="cls-1" d="M196.29,61.83V33.45h4.05a3.37,3.37,0,0,1,1.52.34,1.66,1.66,0,0,1,.51,1.35l0.34,3.38a14.74,14.74,0,0,1,3.55-4.22,7.42,7.42,0,0,1,4.56-1.52,6.25,6.25,0,0,1,3.55,1l-0.84,5.07a0.88,0.88,0,0,1-.34.68,1,1,0,0,1-.68.17,3.29,3.29,0,0,1-1.18-.17,6.33,6.33,0,0,0-1.86-.17,5.76,5.76,0,0,0-3.72,1.18,8.89,8.89,0,0,0-2.53,3.38V61.66h-6.93v0.17h0Z"/><path class="cls-1" d="M233.11,61.83h-6.25L215.54,33.45h5.74a2.44,2.44,0,0,1,1.18.34,1.69,1.69,0,0,1,.67.85l5.41,15.2c0.34,0.84.51,1.69,0.84,2.53l0.51,2.53,0.51-2.53a14.83,14.83,0,0,1,.85-2.53l5.57-15.2a1.69,1.69,0,0,1,.68-0.85,2.44,2.44,0,0,1,1.18-.34h5.41l-11,28.38h0Z"/><path class="cls-1" d="M256.76,25.17a5,5,0,0,1-.34,1.69,2.63,2.63,0,0,1-1,1.35,3.65,3.65,0,0,1-1.35.84,4.39,4.39,0,0,1-3.38,0,3.66,3.66,0,0,1-1.35-.84,9.37,9.37,0,0,1-1-1.35,4.39,4.39,0,0,1,0-3.38,2.62,2.62,0,0,1,1-1.35,3.68,3.68,0,0,1,1.35-.85,4.39,4.39,0,0,1,3.38,0,3.67,3.67,0,0,1,1.35.85,9.36,9.36,0,0,1,1,1.35,2.78,2.78,0,0,1,.34,1.69h0Zm-1,8.28V61.83h-6.93V33.45h6.93Z"/><path class="cls-1" d="M283.45,39.53a1.32,1.32,0,0,1-.68.67,1.27,1.27,0,0,1-.85.17,2.39,2.39,0,0,1-1-.34,7.35,7.35,0,0,0-1.18-.67,5.05,5.05,0,0,0-1.69-.68,8.8,8.8,0,0,0-2.36-.34,6.85,6.85,0,0,0-3.21.68,5.87,5.87,0,0,0-2.2,1.86,9,9,0,0,0-1.35,2.87,14.39,14.39,0,0,0-.51,3.89,14.77,14.77,0,0,0,.51,4.05,12.69,12.69,0,0,0,1.35,3,7.58,7.58,0,0,0,2.2,1.86,5.55,5.55,0,0,0,2.87.67,11.76,11.76,0,0,0,2.7-.34,15.68,15.68,0,0,0,1.69-.85c0.51-.34.85-0.68,1.18-0.85a1.43,1.43,0,0,1,1.18-.34,1.13,1.13,0,0,1,1.18.67l2,2.53a8,8,0,0,1-2.53,2.2,21.66,21.66,0,0,1-2.7,1.52,13.12,13.12,0,0,1-5.91,1,12.11,12.11,0,0,1-4.9-1,12.33,12.33,0,0,1-6.76-7.43,18,18,0,0,1-1-6.25,20.49,20.49,0,0,1,.84-5.74,11.33,11.33,0,0,1,2.7-4.56,10.29,10.29,0,0,1,4.39-3,16,16,0,0,1,5.91-1.18,13.7,13.7,0,0,1,5.57,1,17.87,17.87,0,0,1,4.39,2.87l-1.86,2h0Z"/><path class="cls-1" d="M301.69,32.94a14.9,14.9,0,0,1,4.9.84,8.68,8.68,0,0,1,3.89,2.53A13.81,13.81,0,0,1,313,40.37a14,14,0,0,1,.84,5.41v1.35a7.32,7.32,0,0,1-.17.85,0.89,0.89,0,0,1-.51.34,7.36,7.36,0,0,1-.84.17H294.77c0.17,2.87,1,5.07,2.36,6.42a7.4,7.4,0,0,0,5.41,2,13.38,13.38,0,0,0,2.87-.34,12.21,12.21,0,0,0,2-.84c0.68-.34,1.18-0.68,1.52-0.84a2,2,0,0,1,1.35-.34,0.82,0.82,0,0,1,.68.17l0.51,0.51,2,2.53A10.32,10.32,0,0,1,311,60c-0.85.51-1.86,1-2.87,1.52a17.8,17.8,0,0,1-3.21.84,19.4,19.4,0,0,1-3,.17,14.87,14.87,0,0,1-5.57-1,13.19,13.19,0,0,1-4.39-2.87,19,19,0,0,1-3-4.73,19.28,19.28,0,0,1-1-6.59,14.62,14.62,0,0,1,1-5.4,12.82,12.82,0,0,1,2.7-4.39,15.92,15.92,0,0,1,4.22-3,11.85,11.85,0,0,1,5.91-1.52h0Zm0.17,4.9a6.26,6.26,0,0,0-4.73,1.69,8.26,8.26,0,0,0-2.2,4.73h12.84a13,13,0,0,0-.34-2.53,4,4,0,0,0-1.18-2,7.52,7.52,0,0,0-1.86-1.35,5.64,5.64,0,0,0-2.53-.51h0Z"/><path class="cls-1" d="M347.47,52.37a1.46,1.46,0,0,1,1,.51l2.87,3.21a14.87,14.87,0,0,1-6.08,4.56,21.73,21.73,0,0,1-8.62,1.69,19.58,19.58,0,0,1-7.94-1.52,17.15,17.15,0,0,1-6.08-4.22,19.24,19.24,0,0,1-3.88-6.42,25.78,25.78,0,0,1-1.35-8.28,21.89,21.89,0,0,1,1.52-8.28,17.05,17.05,0,0,1,4.22-6.42A20.19,20.19,0,0,1,329.57,23a21.89,21.89,0,0,1,8.28-1.52,21.34,21.34,0,0,1,7.77,1.35,22.37,22.37,0,0,1,5.74,3.72l-2.53,3.55-0.51.51a1.55,1.55,0,0,1-1,.17,2.24,2.24,0,0,1-1.35-.51,14.86,14.86,0,0,0-1.69-1,19.79,19.79,0,0,0-2.53-1,13.18,13.18,0,0,0-4.05-.51,13.76,13.76,0,0,0-5.24,1,11.15,11.15,0,0,0-4.05,2.87,12.84,12.84,0,0,0-2.7,4.39,16.06,16.06,0,0,0-1,5.91,17.66,17.66,0,0,0,1,6.08,15.78,15.78,0,0,0,2.53,4.39,9,9,0,0,0,3.88,2.7,11.33,11.33,0,0,0,4.73,1,13.65,13.65,0,0,0,2.7-.17c0.84-.17,1.52-0.34,2.2-0.51a10.35,10.35,0,0,0,2-.84,13,13,0,0,0,1.86-1.35,0.9,0.9,0,0,1,.51-0.34,7.48,7.48,0,0,1,1.35-.51h0Z"/><path class="cls-1" d="M368.93,32.94a15.16,15.16,0,0,1,5.74,1,13.2,13.2,0,0,1,4.39,2.87,14,14,0,0,1,2.87,4.56,18.76,18.76,0,0,1,0,12.16,12.4,12.4,0,0,1-2.87,4.56A11,11,0,0,1,374.67,61a15.79,15.79,0,0,1-5.74,1,15.16,15.16,0,0,1-5.74-1,13.2,13.2,0,0,1-4.39-2.87,16,16,0,0,1-2.87-4.56,18.74,18.74,0,0,1,0-12.16,12.4,12.4,0,0,1,2.87-4.56A13.2,13.2,0,0,1,363.18,34a15.16,15.16,0,0,1,5.74-1h0Zm0,24.16a6.21,6.21,0,0,0,5.24-2.36c1.18-1.52,1.69-3.89,1.69-6.93s-0.51-5.41-1.69-6.93c-1.18-1.69-2.87-2.37-5.24-2.37a6.55,6.55,0,0,0-5.41,2.37c-1.18,1.69-1.69,3.89-1.69,6.93s0.51,5.4,1.69,6.93a6.33,6.33,0,0,0,5.41,2.36h0Z"/><path class="cls-1" d="M388.18,61.83V33.45h4.22a1.51,1.51,0,0,1,1.69,1.18l0.51,2.2a18.48,18.48,0,0,1,1.86-1.69,12.65,12.65,0,0,1,2-1.18,9.78,9.78,0,0,1,2.36-.84,13.12,13.12,0,0,1,2.7-.34,10.22,10.22,0,0,1,4.05.84,7.83,7.83,0,0,1,3,2.2,10.9,10.9,0,0,1,1.86,3.38,12,12,0,0,1,.68,4.39V61.66h-6.93V43.58a6.1,6.1,0,0,0-1.18-4.05,4.25,4.25,0,0,0-3.55-1.35,7.69,7.69,0,0,0-3.38.84,8.7,8.7,0,0,0-2.87,2.2V61.83h-7.1Z"/><path class="cls-1" d="M429.06,62.33a7.68,7.68,0,0,1-5.74-2,7.94,7.94,0,0,1-2-5.74V38.68h-2.87a2.39,2.39,0,0,1-1-.34,1.09,1.09,0,0,1-.34-1v-2.7l4.56-.68,1.52-7.77a0.93,0.93,0,0,1,.51-0.84,2.4,2.4,0,0,1,1-.34h3.55v9h7.43v4.9h-7.43V54.22a2.69,2.69,0,0,0,.67,2,2.17,2.17,0,0,0,1.69.68,1.55,1.55,0,0,0,1-.17c0.17-.17.51-0.17,0.68-0.34s0.34-.17.51-0.34a0.84,0.84,0,0,1,1,0,0.9,0.9,0,0,1,.34.51l2,3.38a9.52,9.52,0,0,1-3.38,1.86,13.16,13.16,0,0,1-3.72.51h0Z"/><path class="cls-1" d="M441.22,61.83V33.45h4.05a3.37,3.37,0,0,1,1.52.34,1.66,1.66,0,0,1,.51,1.35l0.34,3.38a14.74,14.74,0,0,1,3.55-4.22,7.41,7.41,0,0,1,4.56-1.52,6.25,6.25,0,0,1,3.55,1l-0.84,5.07a0.88,0.88,0,0,1-.34.68,1,1,0,0,1-.68.17,3.29,3.29,0,0,1-1.18-.17,6.34,6.34,0,0,0-1.86-.17,5.76,5.76,0,0,0-3.72,1.18,8.9,8.9,0,0,0-2.53,3.38V61.66h-6.92v0.17h0Z"/><path class="cls-1" d="M476,32.94a15.17,15.17,0,0,1,5.74,1,13.22,13.22,0,0,1,4.39,2.87A14,14,0,0,1,489,41.39a18.74,18.74,0,0,1,0,12.16,12.39,12.39,0,0,1-2.87,4.56A11.06,11.06,0,0,1,481.77,61,15.79,15.79,0,0,1,476,62a15.16,15.16,0,0,1-5.74-1,13.22,13.22,0,0,1-4.39-2.87A16,16,0,0,1,463,53.55a18.76,18.76,0,0,1,0-12.16,12.41,12.41,0,0,1,2.87-4.56A13.22,13.22,0,0,1,470.28,34a15.16,15.16,0,0,1,5.74-1h0Zm0,24.16a6.21,6.21,0,0,0,5.24-2.36c1.18-1.52,1.69-3.89,1.69-6.93s-0.51-5.41-1.69-6.93c-1.18-1.69-2.87-2.37-5.24-2.37a6.55,6.55,0,0,0-5.4,2.37c-1.18,1.69-1.69,3.89-1.69,6.93s0.51,5.4,1.69,6.93A6.33,6.33,0,0,0,476,57.1h0Z"/><polygon class="cls-1" points="502.54 20.78 502.54 61.99 495.62 61.99 495.62 20.78 502.54 20.78 502.54 20.78"/><path class="cls-1" d="M352.37,78.38a0.62,0.62,0,0,1-.17.51,0.36,0.36,0,0,1-.34.34c-0.17.17-.34,0.17-0.51,0.34a0.84,0.84,0,0,1-1,0c-0.17-.17-0.34-0.17-0.51-0.34a0.64,0.64,0,0,0-.34-0.34c0-.17-0.17-0.34-0.17-0.51a0.62,0.62,0,0,1,.17-0.51c0.17-.17.17-0.34,0.34-0.51s0.34-.17.51-0.34a0.84,0.84,0,0,1,1,0c0.17,0.17.34,0.17,0.51,0.34s0.17,0.34.34,0.51a0.62,0.62,0,0,1,.17.51h0Zm-0.68,5.24v15.2h-1.52V83.62h1.52Z"/><path class="cls-1" d="M357.1,98.82V83.62h0.85a0.57,0.57,0,0,1,.51.34l0.17,2.36a8.87,8.87,0,0,1,2.36-2,5.83,5.83,0,0,1,3-.84,8.55,8.55,0,0,1,2.2.34A3.68,3.68,0,0,1,367.74,85a9.18,9.18,0,0,1,1,1.86,5.75,5.75,0,0,1,.34,2.36v9.63h-1.52V89.19a5.36,5.36,0,0,0-1-3.38,3.62,3.62,0,0,0-3-1.18,5.11,5.11,0,0,0-2.7.84,8.89,8.89,0,0,0-2.36,2V98.82H357.1Z"/><path class="cls-1" d="M382.1,90.2v8.62h-1.52V77.37h5.57c2.53,0,4.39.51,5.74,1.69a5.78,5.78,0,0,1,1.86,4.73,5.64,5.64,0,0,1-.51,2.53,5.83,5.83,0,0,1-1.52,2,10.72,10.72,0,0,1-2.36,1.35,9.84,9.84,0,0,1-3.21.51H382.1Zm0-1.35h4.05a10.22,10.22,0,0,0,2.53-.34,18.41,18.41,0,0,0,1.86-1,4.66,4.66,0,0,0,1.52-3.72,5.09,5.09,0,0,0-1.52-3.88A7,7,0,0,0,386,78.55h-4.05v10.3h0.17Z"/><path class="cls-1" d="M406.43,98.82a0.45,0.45,0,0,1-.51-0.51l-0.17-1.86a6.32,6.32,0,0,1-1.18,1,3.65,3.65,0,0,1-1.35.84,16,16,0,0,1-1.52.51A5.21,5.21,0,0,1,400,99a4.68,4.68,0,0,1-1.52-.17,5.09,5.09,0,0,1-1.35-.67,3,3,0,0,1-.85-1.18,5,5,0,0,1-.34-1.69,3.85,3.85,0,0,1,.51-1.86,4.61,4.61,0,0,1,1.69-1.35q1.27-.51,3-1a28.67,28.67,0,0,1,4.39-.51V89a5.59,5.59,0,0,0-.85-3.21,3.67,3.67,0,0,0-2.7-1.18,6.06,6.06,0,0,0-1.86.34,10,10,0,0,0-1.35.68,3.66,3.66,0,0,0-.84.68,0.55,0.55,0,0,1-1,0l-0.34-.51A12.13,12.13,0,0,1,399.16,84a8.07,8.07,0,0,1,3-.68,8.56,8.56,0,0,1,2.2.34,3.68,3.68,0,0,1,1.52,1.18,5.25,5.25,0,0,1,.84,1.69,10,10,0,0,1,.34,2.36v9.8h-0.67v0.17h0ZM400.34,98a5.75,5.75,0,0,0,1.69-.17,11.68,11.68,0,0,0,1.35-.51,5.11,5.11,0,0,0,1.18-.84l1-1V91.56a21.61,21.61,0,0,0-3.72.34,9.14,9.14,0,0,0-2.53.68,5.87,5.87,0,0,0-1.52,1,2.06,2.06,0,0,0-.51,1.52,3.29,3.29,0,0,0,.17,1.35,1.69,1.69,0,0,0,.68.84l1,0.51a2.5,2.5,0,0,0,1.18.17h0Z"/><path class="cls-1" d="M411.49,98.82V83.62h0.85c0.17,0,.34,0,0.34.17s0.17,0.17.17,0.34L413,87.33a7.33,7.33,0,0,1,2-2.87,4.71,4.71,0,0,1,3-1,2.51,2.51,0,0,1,1.18.17c0.34,0.17.67,0.17,1,.34l-0.17,1c0,0.17-.17.17-0.34,0.17h-0.34c-0.17,0-.17-0.17-0.34-0.17a3.83,3.83,0,0,0-.68-0.17h-0.84a4.26,4.26,0,0,0-2.87,1,8.51,8.51,0,0,0-1.86,3v9.8h-1.35v0.17h0Z"/><path class="cls-1" d="M427.71,99a3.34,3.34,0,0,1-2.36-.84,4,4,0,0,1-.85-2.7V85.14h-2.2A0.34,0.34,0,0,1,422,85a0.59,0.59,0,0,1-.17-0.34V84.12l2.53-.17,0.34-5.41c0-.17,0-0.17.17-0.17a0.59,0.59,0,0,1,.34-0.17h0.68V84h4.73v1h-4.73v10.3a1.83,1.83,0,0,0,.17,1,1,1,0,0,0,.51.68,2.33,2.33,0,0,0,.68.51,1.27,1.27,0,0,0,.85.17,2.14,2.14,0,0,0,1-.17,2.48,2.48,0,0,0,.68-0.34c0.17-.17.34-0.17,0.51-0.34a0.34,0.34,0,0,1,.34-0.17,0.17,0.17,0,0,1,.17.17l0.34,0.68a2.46,2.46,0,0,1-1.52,1,2.61,2.61,0,0,1-1.86.51h0Z"/><path class="cls-1" d="M436.83,78.38a0.62,0.62,0,0,1-.17.51,0.36,0.36,0,0,1-.34.34c-0.17.17-.34,0.17-0.51,0.34-0.17,0-.34.17-0.51,0.17a0.62,0.62,0,0,1-.51-0.17c-0.17-.17-0.34-0.17-0.51-0.34a0.64,0.64,0,0,0-.34-0.34c0-.17-0.17-0.34-0.17-0.51a0.62,0.62,0,0,1,.17-0.51c0.17-.17.17-0.34,0.34-0.51s0.34-.17.51-0.34a0.84,0.84,0,0,1,1,0,0.9,0.9,0,0,1,.51.34c0.17,0.17.17,0.34,0.34,0.51a0.62,0.62,0,0,1,.17.51h0Zm-0.51,5.24v15.2h-1.52V83.62h1.52Z"/><path class="cls-1" d="M451.53,85.64h0a0.42,0.42,0,0,1-.68,0,2.31,2.31,0,0,0-.68-0.51,8.17,8.17,0,0,0-1.18-.51,5.21,5.21,0,0,0-1.69-.17,5.39,5.39,0,0,0-2.36.51,4.27,4.27,0,0,0-1.69,1.35,4.6,4.6,0,0,0-1,2,13.12,13.12,0,0,0-.34,2.7,14.86,14.86,0,0,0,.34,2.87,5.69,5.69,0,0,0,1,2,6.61,6.61,0,0,0,1.69,1.35,4.67,4.67,0,0,0,2.2.51,6.07,6.07,0,0,0,1.86-.34,8.17,8.17,0,0,0,1.18-.51c0.34-.17.51-0.34,0.85-0.51a2.43,2.43,0,0,1,.51-0.34,0.34,0.34,0,0,1,.34.17l0.34,0.51a4,4,0,0,1-.84.85,2.71,2.71,0,0,1-1.18.67,15.82,15.82,0,0,1-1.52.51A5.2,5.2,0,0,1,447,99a7,7,0,0,1-2.7-.51,4.61,4.61,0,0,1-2-1.52,10.77,10.77,0,0,1-1.35-2.36,10.41,10.41,0,0,1,0-6.42,7.36,7.36,0,0,1,1.35-2.53,5.15,5.15,0,0,1,2.2-1.52,7.89,7.89,0,0,1,2.87-.51,7,7,0,0,1,2.7.51,5.36,5.36,0,0,1,2,1.35l-0.51.17h0Z"/><path class="cls-1" d="M456.6,83.62v9.63a5.36,5.36,0,0,0,1,3.38,3.61,3.61,0,0,0,3,1.18,5,5,0,0,0,2.7-.68,8.87,8.87,0,0,0,2.37-2V83.79h1.52V99h-0.84a0.42,0.42,0,0,1-.51-0.34l-0.17-2.2a8.85,8.85,0,0,1-2.37,2,5.83,5.83,0,0,1-3,.85,8.55,8.55,0,0,1-2.2-.34,3.69,3.69,0,0,1-1.52-1.18,9.23,9.23,0,0,1-1-1.86,10,10,0,0,1-.34-2.36V84h1.35V83.62h0Z"/><polygon class="cls-1" points="473.82 76.69 473.82 98.82 472.31 98.82 472.31 76.69 473.82 76.69 473.82 76.69"/><path class="cls-1" d="M488.86,98.82a0.45,0.45,0,0,1-.51-0.51l-0.17-1.86a6.31,6.31,0,0,1-1.18,1,3.65,3.65,0,0,1-1.35.84,16,16,0,0,1-1.52.51,5.21,5.21,0,0,1-1.69.17,4.68,4.68,0,0,1-1.52-.17,5.08,5.08,0,0,1-1.35-.67,3,3,0,0,1-.84-1.18,5,5,0,0,1-.34-1.69,3.85,3.85,0,0,1,.51-1.86,4.61,4.61,0,0,1,1.69-1.35,21.3,21.3,0,0,1,3-1c1.18-.17,2.7-0.34,4.39-0.51V89a5.59,5.59,0,0,0-.84-3.21,3.67,3.67,0,0,0-2.7-1.18,6.08,6.08,0,0,0-1.86.34,10.08,10.08,0,0,0-1.35.68,3.69,3.69,0,0,0-.85.68,0.55,0.55,0,0,1-1,0l-0.34-.51A12.13,12.13,0,0,1,481.6,84a8.06,8.06,0,0,1,3-.68,8.55,8.55,0,0,1,2.2.34,3.68,3.68,0,0,1,1.52,1.18,5.27,5.27,0,0,1,.84,1.69,10,10,0,0,1,.34,2.36v9.8h-0.67v0.17h0ZM482.78,98a5.75,5.75,0,0,0,1.69-.17,11.68,11.68,0,0,0,1.35-.51,5.11,5.11,0,0,0,1.18-.84l1-1V91.56a21.61,21.61,0,0,0-3.72.34,9.13,9.13,0,0,0-2.53.68,5.9,5.9,0,0,0-1.52,1,2.07,2.07,0,0,0-.51,1.52,3.29,3.29,0,0,0,.17,1.35,1.69,1.69,0,0,0,.67.84l1,0.51a2.5,2.5,0,0,0,1.18.17h0Z"/><path class="cls-1" d="M493.93,98.82V83.62h0.84c0.17,0,.34,0,0.34.17s0.17,0.17.17,0.34l0.17,3.21a7.34,7.34,0,0,1,2-2.87,4.71,4.71,0,0,1,3-1,2.51,2.51,0,0,1,1.18.17c0.34,0.17.67,0.17,1,.34l-0.17,1c0,0.17-.17.17-0.34,0.17h-0.34c-0.17,0-.17-0.17-0.34-0.17a3.83,3.83,0,0,0-.68-0.17H500a4.26,4.26,0,0,0-2.87,1,8.51,8.51,0,0,0-1.86,3v9.8h-1.35v0.17h0Z"/><polygon class="cls-2" points="107.77 0 0 0 0 107.77 107.77 107.77 107.77 0 107.77 0"/><polygon class="cls-3" points="23.99 11.99 11.99 11.99 11.99 23.99 23.99 23.99 23.99 11.99 23.99 11.99"/><polygon class="cls-3" points="47.97 11.99 35.98 11.99 35.98 23.99 47.97 23.99 47.97 11.99 47.97 11.99"/><polygon class="cls-3" points="71.79 11.99 59.8 11.99 59.8 23.99 71.79 23.99 71.79 11.99 71.79 11.99"/><polygon class="cls-3" points="47.97 35.98 35.98 35.98 35.98 47.97 47.97 47.97 47.97 35.98 47.97 35.98"/><polygon class="cls-3" points="71.79 35.98 59.8 35.98 59.8 47.97 71.79 47.97 71.79 35.98 71.79 35.98"/><polygon class="cls-3" points="95.78 11.99 83.78 11.99 83.78 23.99 95.78 23.99 95.78 11.99 95.78 11.99"/><polygon class="cls-3" points="95.78 35.98 83.78 35.98 83.78 47.97 95.78 47.97 95.78 35.98 95.78 35.98"/><polygon class="cls-3" points="23.99 35.98 11.99 35.98 11.99 47.97 23.99 47.97 23.99 35.98 23.99 35.98"/><polygon class="cls-3" points="23.99 59.8 11.99 59.8 11.99 71.79 23.99 71.79 23.99 59.8 23.99 59.8"/><polygon class="cls-3" points="47.97 59.8 35.98 59.8 35.98 71.79 47.97 71.79 47.97 59.8 47.97 59.8"/><polygon class="cls-3" points="95.78 59.8 83.78 59.8 83.78 71.79 95.78 71.79 95.78 59.8 95.78 59.8"/><polygon class="cls-3" points="23.99 83.78 11.99 83.78 11.99 95.78 23.99 95.78 23.99 83.78 23.99 83.78"/><polygon class="cls-3" points="47.97 83.78 35.98 83.78 35.98 95.78 47.97 95.78 47.97 83.78 47.97 83.78"/><polygon class="cls-3" points="71.79 83.78 59.8 83.78 59.8 95.78 71.79 95.78 71.79 83.78 71.79 83.78"/><polygon class="cls-3" points="71.79 59.8 59.8 59.8 59.8 71.79 71.79 71.79 71.79 59.8 71.79 59.8"/><polygon class="cls-3" points="95.78 83.78 83.78 83.78 83.78 95.78 95.78 95.78 95.78 83.78 95.78 83.78"/><path class="cls-4" d="M68.58,52.37V45.1L64.7,43.75a5.22,5.22,0,0,1-3.21-3,5.39,5.39,0,0,1,.17-4.56l1.69-3.72-5.07-5.07-3.72,1.69a6.06,6.06,0,0,1-4.56.17A5.65,5.65,0,0,1,47,26l-1.35-3.89H38.35L37,26a5.21,5.21,0,0,1-3,3.21,5.39,5.39,0,0,1-4.56-.17l-3.72-1.69-5.07,5.07,1.69,3.72a6.06,6.06,0,0,1,.17,4.56,5.65,5.65,0,0,1-3.21,3L15.37,45.1v7.26l3.89,1.35a5.22,5.22,0,0,1,3.21,3,5.39,5.39,0,0,1-.17,4.56L20.61,65l5.07,5.07,3.72-1.69A6.07,6.07,0,0,1,34,68.24a5.65,5.65,0,0,1,3,3.21l1.35,3.89h7.26L47,71.45a5.75,5.75,0,0,1,3.21-3.38,5.4,5.4,0,0,1,4.56.17l3.72,1.86L63.51,65l-1.69-3.72a6.06,6.06,0,0,1-.17-4.56,5.65,5.65,0,0,1,3.21-3l3.72-1.35h0ZM41.89,58.62a9.8,9.8,0,1,1,9.8-9.8,9.8,9.8,0,0,1-9.8,9.8h0ZM92.74,73.48V69.6l-2-.68A2.79,2.79,0,0,1,89,67.23a2.89,2.89,0,0,1,0-2.36l1-2-2.7-2.7-2,1a2.89,2.89,0,0,1-2.36,0,3.3,3.3,0,0,1-1.69-1.69l-0.68-2H76.69l-0.68,2a2.79,2.79,0,0,1-1.69,1.69,2.89,2.89,0,0,1-2.36,0l-2-1-2.7,2.7,1,2a2.88,2.88,0,0,1,0,2.36,3.3,3.3,0,0,1-1.69,1.69l-2,.68v3.89l2,0.68a2.79,2.79,0,0,1,1.69,1.69,2.88,2.88,0,0,1,0,2.36l-1,2,2.7,2.7,2-1a2.88,2.88,0,0,1,2.36,0A3.29,3.29,0,0,1,76,83.62l0.68,2h3.88l0.68-2a2.43,2.43,0,0,1,1.69-1.69,2.88,2.88,0,0,1,2.36,0l2,1,2.7-2.7-1-2a2.89,2.89,0,0,1,0-2.36,3.29,3.29,0,0,1,1.69-1.69l2-.68h0ZM78.55,76.86a5.24,5.24,0,1,1,5.24-5.24,5.26,5.26,0,0,1-5.24,5.24h0Z"/></svg>