<svg id="Layer_1" data-name="Layer 1" xmlns="http://www.w3.org/2000/svg" viewBox="0 0 302 63.78"><defs><style>@import url('http://fonts.googleapis.com/css?family=Lato:700');	.cls-1{font-size:32.8px;font-weight:700;}.cls-1,.cls-2{fill:#1a171b;font-family:Lato;}.cls-2{font-size:18px;}.cls-3{fill:#92117e;}.cls-4{fill:#a84198;}.cls-5{fill:#fff;}</style></defs><title>SC</title><text class="cls-1" transform="translate(78.89 36.61)">ServiceControl</text><text class="cls-2" transform="translate(205.65 58.47)">in Particular</text><rect class="cls-3" width="63.78" height="63.78"/><rect class="cls-4" x="7.08" y="7.08" width="7.08" height="7.08"/><rect class="cls-4" x="21.28" y="7.08" width="7.08" height="7.08"/><rect class="cls-4" x="35.43" y="7.08" width="7.08" height="7.08"/><rect class="cls-4" x="21.28" y="21.23" width="7.08" height="7.08"/><rect class="cls-4" x="35.43" y="21.23" width="7.08" height="7.08"/><rect class="cls-4" x="49.58" y="7.08" width="7.08" height="7.08"/><rect class="cls-4" x="49.58" y="21.23" width="7.08" height="7.08"/><rect class="cls-4" x="7.08" y="21.23" width="7.08" height="7.08"/><rect class="cls-4" x="7.08" y="35.38" width="7.08" height="7.08"/><rect class="cls-4" x="21.28" y="35.38" width="7.08" height="7.08"/><rect class="cls-4" x="49.58" y="35.38" width="7.08" height="7.08"/><rect class="cls-4" x="7.08" y="49.53" width="7.08" height="7.08"/><rect class="cls-4" x="21.28" y="49.53" width="7.08" height="7.08"/><rect class="cls-4" x="35.43" y="49.53" width="7.08" height="7.08"/><rect class="cls-4" x="35.43" y="35.38" width="7.08" height="7.08"/><rect class="cls-4" x="49.58" y="49.53" width="7.08" height="7.08"/><path id="gear-9-icon" class="cls-5" d="M40.57,31V26.7l-2.3-.82A3.3,3.3,0,0,1,36.32,24h0a3.3,3.3,0,0,1,.07-2.68l1-2.21-3-3-2.21,1a3.3,3.3,0,0,1-2.68.07h0a3.3,3.3,0,0,1-1.84-1.94L26.87,13H22.61l-0.82,2.3a3.3,3.3,0,0,1-1.84,1.94h0a3.3,3.3,0,0,1-2.68-.07l-2.21-1-3,3,1,2.21A3.3,3.3,0,0,1,13.16,24h0a3.3,3.3,0,0,1-1.94,1.84l-2.3.82V31l2.3,0.82a3.3,3.3,0,0,1,1.94,1.84h0a3.3,3.3,0,0,1-.07,2.68l-1,2.21,3,3,2.21-1a3.3,3.3,0,0,1,2.68-.07h0a3.3,3.3,0,0,1,1.84,1.94l0.82,2.3h4.26l0.81-2.29a3.33,3.33,0,0,1,1.86-2h0a3.27,3.27,0,0,1,2.66.07l2.22,1.06,3-3-1-2.21a3.3,3.3,0,0,1-.07-2.68h0a3.3,3.3,0,0,1,1.94-1.85ZM24.74,34.63a5.8,5.8,0,1,1,5.8-5.8A5.8,5.8,0,0,1,24.74,34.63Zm30.12,8.86V41.23l-1.22-.44a1.75,1.75,0,0,1-1-1h0a1.75,1.75,0,0,1,0-1.43l0.56-1.17-1.6-1.6-1.17.56a1.76,1.76,0,0,1-1.43,0h0a1.75,1.75,0,0,1-1-1l-0.44-1.22H45.32l-0.44,1.22a1.76,1.76,0,0,1-1,1h0a1.75,1.75,0,0,1-1.43,0l-1.17-.56-1.6,1.6,0.56,1.17a1.76,1.76,0,0,1,0,1.43h0a1.75,1.75,0,0,1-1,1L38,41.23v2.27l1.22,0.44a1.75,1.75,0,0,1,1,1h0a1.75,1.75,0,0,1,0,1.43L39.7,47.51l1.6,1.6,1.17-.56a1.76,1.76,0,0,1,1.43,0h0a1.75,1.75,0,0,1,1,1l0.44,1.22h2.27L48,49.56a1.77,1.77,0,0,1,1-1h0a1.74,1.74,0,0,1,1.41,0l1.18,0.56,1.6-1.6-0.56-1.17a1.75,1.75,0,0,1,0-1.42h0a1.76,1.76,0,0,1,1-1Zm-8.41,2a3.09,3.09,0,1,1,3.09-3.09A3.09,3.09,0,0,1,46.45,45.45Z"/></svg>