<?xml version="1.0" encoding="UTF-8" standalone="no"?>
<!DOCTYPE svg  PUBLIC '-//W3C//DTD SVG 1.1//EN'  'http://www.w3.org/Graphics/SVG/1.1/DTD/svg11.dtd'>
<svg stroke-linejoin="round" xmlns="http://www.w3.org/2000/svg" fill-rule="evenodd" xml:space="preserve" stroke-linecap="round" height="100%" width="100%" version="1.1" stroke-miterlimit="1.4142" clip-rule="evenodd" xmlns:xlink="http://www.w3.org/1999/xlink" viewBox="0 0 486 108">
    <g transform="translate(-35 -82)">
        <g id="SI-bw" transform="matrix(1.6892 0 0 1.6892 -196.16 -93.734)">
            <rect height="63.8" width="63.8" y="104.1" x="137.1" fill="#585d80"/>
            <g fill="#878caa">
                <rect height="7.1" width="7.1" y="111.2" x="144.2"/>
                <rect height="7.1" width="7.1" y="111.2" x="158.4"/>
                <rect height="7.1" width="7.1" y="111.2" x="172.6"/>
                <rect height="7.1" width="7.1" y="111.2" x="186.7"/>
                <rect height="7.1" width="7.1" y="125.3" x="144.2"/>
                <rect height="7.1" width="5.5" y="125.3" x="158.4"/>
                <rect height="7.1" width="5.8" y="125.3" x="188"/>
                <rect height="7.1" width="7.1" y="139.5" x="144.2"/>
                <rect height="7.1" width="7.1" y="139.5" x="158.4"/>
                <rect height="4.6" width="7.1" y="142" x="172.6"/>
                <rect height="7.1" width="7.1" y="139.5" x="186.7"/>
                <rect height="7.1" width="7.1" y="153.6" x="144.2"/>
                <rect height="7.1" width="7.1" y="153.6" x="158.4"/>
                <rect height="7.1" width="7.1" y="153.6" x="172.6"/>
                <rect height="7.1" width="7.1" y="153.6" x="186.7"/>
            </g>
            <g stroke="#fff">
                <path d="m176.1 128.8l-26.4 26.4" fill-rule="nonzero" stroke-width="4.98px" fill="#9c335d"/>
                <circle r="12" stroke-linecap="butt" cy="128.9" cx="176.1" stroke-width="3.48px" fill="#878caa"/>
            </g>
            <rect height="7.1" width="7.1" y="125.3" x="172.6" fill="#585d80"/>
            <path fill="#1a171b" d="m231.2 121.2c-0.1 0.2-0.3 0.4-0.4 0.5-0.2 0.1-0.3 0.1-0.6 0.1-0.2 0-0.5-0.1-0.7-0.3-0.3-0.2-0.6-0.4-1-0.6s-0.8-0.4-1.3-0.6-1.1-0.3-1.8-0.3c-0.6 0-1.1 0.1-1.6 0.2s-0.8 0.4-1.1 0.6c-0.3 0.3-0.5 0.6-0.7 0.9-0.2 0.4-0.2 0.8-0.2 1.2 0 0.6 0.2 1 0.5 1.4s0.7 0.7 1.2 1 1.1 0.5 1.8 0.7 1.3 0.4 2 0.7c0.7 0.2 1.4 0.5 2 0.8s1.2 0.7 1.8 1.2c0.5 0.5 0.9 1.1 1.2 1.7s0.5 1.5 0.5 2.5c0 1.1-0.2 2.1-0.5 3s-0.9 1.7-1.6 2.4-1.6 1.2-2.6 1.6-2.2 0.6-3.5 0.6c-0.8 0-1.5-0.1-2.2-0.2s-1.4-0.4-2.1-0.6c-0.7-0.3-1.3-0.6-1.9-1s-1.1-0.8-1.6-1.3l1.3-2.1c0.1-0.2 0.3-0.3 0.4-0.4 0.2-0.1 0.4-0.2 0.6-0.2 0.3 0 0.6 0.1 0.9 0.3s0.7 0.5 1.1 0.7c0.4 0.3 0.9 0.5 1.5 0.7s1.3 0.3 2.1 0.3c1.3 0 2.2-0.3 2.9-0.9s1-1.5 1-2.6c0-0.6-0.2-1.1-0.5-1.5s-0.7-0.7-1.2-1-1.1-0.5-1.8-0.7-1.3-0.4-2-0.6-1.3-0.5-2-0.8-1.2-0.7-1.8-1.2c-0.5-0.5-0.9-1.1-1.2-1.8s-0.5-1.6-0.5-2.7c0-0.9 0.2-1.7 0.5-2.5s0.8-1.5 1.5-2.2c0.7-0.6 1.5-1.1 2.4-1.5 1-0.4 2.1-0.6 3.3-0.6 1.4 0 2.7 0.2 3.9 0.7 1.2 0.4 2.2 1 3 1.8l-1 2.6z" fill-rule="nonzero"/>
            <path fill="#1a171b" d="m242.8 123.5c1.1 0 2 0.2 2.9 0.5s1.7 0.8 2.3 1.5 1.1 1.4 1.5 2.4 0.5 2 0.5 3.2v0.8c0 0.2-0.1 0.4-0.1 0.5-0.1 0.1-0.2 0.2-0.3 0.2s-0.3 0.1-0.5 0.1h-10.4c0.1 1.7 0.6 3 1.4 3.8s1.9 1.2 3.2 1.2c0.7 0 1.2-0.1 1.7-0.2 0.5-0.2 0.9-0.3 1.2-0.5 0.4-0.2 0.7-0.4 0.9-0.5 0.3-0.2 0.5-0.2 0.8-0.2 0.2 0 0.3 0 0.4 0.1l0.3 0.3 1.2 1.5c-0.4 0.5-1 1-1.5 1.3s-1.1 0.6-1.7 0.9c-0.6 0.2-1.2 0.4-1.9 0.5s-1.2 0.1-1.8 0.1c-1.2 0-2.3-0.2-3.3-0.6s-1.9-1-2.6-1.7c-0.7-0.8-1.3-1.7-1.8-2.8-0.4-1.1-0.6-2.4-0.6-3.9 0-1.1 0.2-2.2 0.6-3.2s0.9-1.9 1.6-2.6 1.5-1.3 2.5-1.8c1.1-0.6 2.3-0.9 3.5-0.9zm0.1 2.9c-1.2 0-2.1 0.3-2.8 1s-1.1 1.6-1.3 2.8h7.6c0-0.5-0.1-1-0.2-1.5s-0.4-0.9-0.7-1.2c-0.3-0.4-0.7-0.6-1.1-0.8s-0.9-0.3-1.5-0.3z" fill-rule="nonzero"/>
            <path fill="#1a171b" d="m253.4 140.6v-16.8h2.4c0.4 0 0.7 0.1 0.9 0.2 0.2 0.2 0.3 0.4 0.3 0.8l0.2 2c0.6-1 1.3-1.9 2.1-2.5s1.7-0.9 2.7-0.9c0.8 0 1.5 0.2 2.1 0.6l-0.5 3c0 0.2-0.1 0.3-0.2 0.4s-0.3 0.1-0.4 0.1c-0.2 0-0.4 0-0.7-0.1s-0.7-0.1-1.1-0.1c-0.8 0-1.6 0.2-2.2 0.7s-1.1 1.1-1.5 2v10.5h-4.1v0.1z" fill-rule="nonzero"/>
            <path fill="#1a171b" d="m275.2 140.6h-3.7l-6.7-16.8h3.4c0.3 0 0.5 0.1 0.7 0.2s0.3 0.3 0.4 0.5l3.2 9c0.2 0.5 0.3 1 0.5 1.5s0.2 1 0.3 1.5l0.3-1.5c0.1-0.5 0.3-1 0.5-1.5l3.3-9c0.1-0.2 0.2-0.4 0.4-0.5s0.4-0.2 0.7-0.2h3.2l-6.5 16.8z" fill-rule="nonzero"/>
            <path fill="#1a171b" d="m289.2 118.9c0 0.4-0.1 0.7-0.2 1s-0.3 0.6-0.6 0.8c-0.2 0.2-0.5 0.4-0.8 0.5s-0.7 0.2-1 0.2-0.7-0.1-1-0.2-0.6-0.3-0.8-0.5-0.4-0.5-0.5-0.8-0.2-0.6-0.2-1 0.1-0.7 0.2-1 0.3-0.6 0.5-0.8 0.5-0.4 0.8-0.5 0.6-0.2 1-0.2 0.7 0.1 1 0.2 0.6 0.3 0.8 0.5 0.4 0.5 0.6 0.8 0.2 0.6 0.2 1zm-0.6 4.9v16.8h-4.1v-16.8h4.1z" fill-rule="nonzero"/>
            <path fill="#1a171b" d="m305 127.4c-0.1 0.2-0.2 0.3-0.4 0.4-0.1 0.1-0.3 0.1-0.5 0.1s-0.4-0.1-0.6-0.2-0.4-0.3-0.7-0.4c-0.3-0.2-0.6-0.3-1-0.4s-0.8-0.2-1.4-0.2c-0.7 0-1.3 0.1-1.9 0.4-0.5 0.3-1 0.6-1.3 1.1-0.4 0.5-0.6 1.1-0.8 1.7-0.2 0.7-0.3 1.5-0.3 2.3 0 0.9 0.1 1.7 0.3 2.4s0.5 1.3 0.8 1.8c0.4 0.5 0.8 0.8 1.3 1.1s1.1 0.4 1.7 0.4 1.2-0.1 1.6-0.2c0.4-0.2 0.7-0.3 1-0.5s0.5-0.4 0.7-0.5 0.4-0.2 0.7-0.2 0.6 0.1 0.7 0.4l1.2 1.5c-0.4 0.5-0.9 1-1.5 1.3-0.5 0.4-1.1 0.6-1.6 0.9-0.6 0.2-1.1 0.4-1.7 0.5s-1.2 0.1-1.8 0.1c-1 0-2-0.2-2.9-0.6s-1.7-1-2.4-1.7-1.2-1.7-1.6-2.7-0.6-2.3-0.6-3.7c0-1.2 0.2-2.4 0.5-3.4s0.9-2 1.6-2.7 1.5-1.4 2.6-1.8c1-0.4 2.2-0.7 3.5-0.7s2.4 0.2 3.3 0.6 1.8 1 2.6 1.7l-1.1 1.2z" fill-rule="nonzero"/>
            <path fill="#1a171b" d="m315.8 123.5c1.1 0 2 0.2 2.9 0.5s1.7 0.8 2.3 1.5 1.1 1.4 1.5 2.4c0.4 0.9 0.5 2 0.5 3.2v0.8c0 0.2-0.1 0.4-0.1 0.5-0.1 0.1-0.2 0.2-0.3 0.2s-0.3 0.1-0.5 0.1h-10.4c0.1 1.7 0.6 3 1.4 3.8s1.9 1.2 3.2 1.2c0.7 0 1.2-0.1 1.7-0.2 0.5-0.2 0.9-0.3 1.2-0.5 0.4-0.2 0.7-0.4 0.9-0.5 0.3-0.2 0.5-0.2 0.8-0.2 0.2 0 0.3 0 0.4 0.1l0.3 0.3 1.2 1.5c-0.4 0.5-1 1-1.5 1.3-0.6 0.4-1.1 0.6-1.7 0.9-0.6 0.2-1.2 0.4-1.9 0.5s-1.2 0.1-1.8 0.1c-1.2 0-2.3-0.2-3.3-0.6s-1.9-1-2.6-1.7c-0.7-0.8-1.3-1.7-1.8-2.8-0.4-1.1-0.6-2.4-0.6-3.9 0-1.1 0.2-2.2 0.6-3.2s0.9-1.9 1.6-2.6 1.5-1.3 2.5-1.8c1.1-0.6 2.2-0.9 3.5-0.9zm0.1 2.9c-1.2 0-2.1 0.3-2.8 1s-1.1 1.6-1.3 2.8h7.6c0-0.5-0.1-1-0.2-1.5s-0.4-0.9-0.7-1.2-0.7-0.6-1.1-0.8-0.9-0.3-1.5-0.3z" fill-rule="nonzero"/>
            <rect fill-rule="nonzero" height="23.7" width="4.4" y="116.9" x="327.2" fill="#1a171b"/>
            <path fill="#1a171b" d="m336.7 140.6v-16.8h2.5c0.5 0 0.9 0.2 1 0.7l0.3 1.3c0.3-0.3 0.7-0.7 1.1-1s0.8-0.5 1.2-0.7 0.9-0.4 1.4-0.5 1-0.2 1.6-0.2c0.9 0 1.7 0.2 2.4 0.5s1.3 0.7 1.8 1.3 0.8 1.2 1.1 2 0.4 1.6 0.4 2.6v10.7h-4.1v-10.7c0-1-0.2-1.8-0.7-2.4s-1.2-0.8-2.1-0.8c-0.7 0-1.4 0.2-2 0.5s-1.2 0.7-1.7 1.3v12.2h-4.2z" fill-rule="nonzero"/>
            <path fill="#1a171b" d="m365.3 127.1c-0.1 0.2-0.2 0.3-0.3 0.4s-0.3 0.1-0.5 0.1-0.4-0.1-0.6-0.2-0.5-0.2-0.8-0.4c-0.3-0.1-0.6-0.3-1-0.4s-0.8-0.2-1.3-0.2c-0.8 0-1.4 0.2-1.9 0.5s-0.7 0.8-0.7 1.3c0 0.4 0.1 0.7 0.4 0.9 0.2 0.2 0.5 0.5 0.9 0.6 0.4 0.2 0.8 0.4 1.3 0.5s1 0.3 1.5 0.5l1.5 0.6c0.5 0.2 0.9 0.5 1.3 0.9 0.4 0.3 0.7 0.8 0.9 1.2 0.2 0.5 0.4 1.1 0.4 1.7 0 0.8-0.1 1.6-0.4 2.2-0.3 0.7-0.7 1.3-1.3 1.8s-1.3 0.9-2.1 1.2-1.8 0.4-2.9 0.4c-0.6 0-1.1-0.1-1.7-0.2s-1.1-0.2-1.6-0.4-1-0.4-1.4-0.7-0.8-0.5-1.1-0.8l0.9-1.5c0.1-0.2 0.3-0.3 0.4-0.4 0.2-0.1 0.4-0.1 0.6-0.1 0.3 0 0.5 0.1 0.7 0.2s0.5 0.3 0.8 0.5 0.6 0.3 1 0.5c0.4 0.1 0.9 0.2 1.5 0.2 0.5 0 0.9-0.1 1.2-0.2s0.6-0.3 0.9-0.5c0.2-0.2 0.4-0.4 0.5-0.6s0.2-0.5 0.2-0.8c0-0.4-0.1-0.7-0.4-1s-0.5-0.5-0.9-0.7-0.8-0.4-1.3-0.5-1-0.3-1.5-0.5l-1.5-0.6c-0.5-0.2-0.9-0.5-1.3-0.9s-0.7-0.8-0.9-1.3-0.4-1.2-0.4-1.9 0.1-1.3 0.4-2c0.3-0.6 0.7-1.2 1.2-1.6 0.5-0.5 1.2-0.8 2-1.1s1.7-0.4 2.7-0.4c1.2 0 2.2 0.2 3.2 0.6s1.7 0.9 2.4 1.5l-1 1.6z" fill-rule="nonzero"/>
            <path fill="#1a171b" d="m374.6 118.9c0 0.4-0.1 0.7-0.2 1s-0.3 0.6-0.6 0.8c-0.2 0.2-0.5 0.4-0.8 0.5s-0.7 0.2-1 0.2-0.7-0.1-1-0.2-0.6-0.3-0.8-0.5-0.4-0.5-0.5-0.8-0.2-0.6-0.2-1 0.1-0.7 0.2-1 0.3-0.6 0.5-0.8 0.5-0.4 0.8-0.5 0.6-0.2 1-0.2 0.7 0.1 1 0.2 0.6 0.3 0.8 0.5 0.4 0.5 0.6 0.8c0.1 0.3 0.2 0.6 0.2 1zm-0.6 4.9v16.8h-4.1v-16.8h4.1z" fill-rule="nonzero"/>
            <path fill="#1a171b" d="m384.4 123.5c0.7 0 1.4 0.1 2 0.2s1.2 0.4 1.7 0.6h4.8v1.5c0 0.3-0.1 0.4-0.2 0.6-0.1 0.1-0.4 0.2-0.7 0.3l-1.5 0.3 0.3 0.9c0.1 0.3 0.1 0.7 0.1 1 0 0.8-0.2 1.6-0.5 2.3s-0.8 1.2-1.4 1.7-1.3 0.8-2.1 1.1-1.7 0.4-2.6 0.4c-0.6 0-1.3-0.1-1.9-0.2-0.5 0.3-0.8 0.7-0.8 1.1 0 0.3 0.2 0.6 0.5 0.8s0.7 0.3 1.2 0.3c0.5 0.1 1.1 0.1 1.7 0.1s1.3 0 2 0.1 1.3 0.2 2 0.3c0.6 0.1 1.2 0.4 1.7 0.6 0.5 0.3 0.9 0.7 1.2 1.2s0.5 1.2 0.5 2c0 0.7-0.2 1.5-0.5 2.2-0.4 0.7-0.9 1.3-1.6 1.9-0.7 0.5-1.5 1-2.6 1.3-1 0.3-2.2 0.5-3.4 0.5-1.3 0-2.4-0.1-3.3-0.4s-1.7-0.6-2.3-1-1.1-0.9-1.4-1.4-0.5-1.1-0.5-1.7c0-0.8 0.2-1.4 0.7-2 0.5-0.5 1.1-1 2-1.3-0.4-0.2-0.8-0.5-1-0.9-0.3-0.4-0.4-0.9-0.4-1.5 0-0.3 0-0.5 0.1-0.8s0.2-0.5 0.4-0.8 0.4-0.5 0.7-0.7 0.6-0.4 1-0.6c-0.9-0.5-1.5-1.1-2-1.8-0.5-0.8-0.7-1.7-0.7-2.7 0-0.8 0.2-1.6 0.5-2.3s0.8-1.2 1.4-1.7 1.3-0.8 2.1-1.1 1.8-0.4 2.8-0.4zm4.4 17.8c0-0.3-0.1-0.6-0.3-0.8s-0.5-0.4-0.8-0.5-0.7-0.2-1.2-0.3-0.9-0.1-1.4-0.1h-1.6c-0.6 0-1.1-0.1-1.6-0.2-0.5 0.3-0.8 0.5-1.1 0.9-0.3 0.3-0.4 0.7-0.4 1.2 0 0.3 0.1 0.6 0.2 0.8 0.1 0.3 0.4 0.5 0.7 0.7s0.7 0.3 1.3 0.4c0.5 0.1 1.1 0.2 1.9 0.2s1.4-0.1 2-0.2 1-0.3 1.4-0.5 0.6-0.5 0.8-0.7c0-0.2 0.1-0.5 0.1-0.9zm-4.4-9.5c0.5 0 0.9-0.1 1.3-0.2s0.7-0.3 0.9-0.6 0.4-0.5 0.6-0.9c0.1-0.3 0.2-0.7 0.2-1.1 0-0.8-0.2-1.5-0.7-2s-1.2-0.7-2.2-0.7-1.7 0.2-2.2 0.7-0.7 1.1-0.7 2c0 0.4 0.1 0.8 0.2 1.1s0.3 0.6 0.6 0.9 0.6 0.4 0.9 0.6c0.1 0.1 0.6 0.2 1.1 0.2z" fill-rule="nonzero"/>
            <path fill="#1a171b" d="m395.5 140.6v-24.4h4.1v9.4c0.7-0.6 1.4-1.1 2.2-1.5s1.7-0.6 2.8-0.6c0.9 0 1.7 0.2 2.4 0.5s1.3 0.7 1.8 1.3 0.8 1.2 1.1 2 0.4 1.6 0.4 2.6v10.7h-4.1v-10.7c0-1-0.2-1.8-0.7-2.4s-1.2-0.8-2.1-0.8c-0.7 0-1.4 0.2-2 0.5s-1.2 0.7-1.7 1.3v12.2h-4.2v-0.1z" fill-rule="nonzero"/>
            <path fill="#1a171b" d="m419.7 140.9c-1.5 0-2.6-0.4-3.4-1.2s-1.2-2-1.2-3.4v-9.4h-1.7c-0.2 0-0.4-0.1-0.6-0.2s-0.2-0.4-0.2-0.6v-1.6l2.7-0.4 0.9-4.6c0-0.2 0.1-0.4 0.3-0.5s0.4-0.2 0.6-0.2h2.1v5.3h4.4v2.9h-4.4v9.1c0 0.5 0.1 0.9 0.4 1.2s0.6 0.4 1 0.4c0.3 0 0.5 0 0.6-0.1s0.3-0.1 0.4-0.2 0.2-0.1 0.3-0.2 0.2-0.1 0.3-0.1 0.2 0 0.3 0.1 0.2 0.2 0.2 0.3l1.2 2c-0.6 0.5-1.3 0.9-2 1.1-0.6 0.2-1.4 0.3-2.2 0.3z" fill-rule="nonzero"/>
            <path fill="#1a171b" d="m335.2 150.4c0 0.1 0 0.2-0.1 0.3 0 0.1-0.1 0.2-0.2 0.2-0.1 0.1-0.2 0.1-0.3 0.2s-0.2 0.1-0.3 0.1-0.2 0-0.3-0.1c-0.1 0-0.2-0.1-0.3-0.2s-0.1-0.2-0.2-0.2c0-0.1-0.1-0.2-0.1-0.3s0-0.2 0.1-0.3c0-0.1 0.1-0.2 0.2-0.3s0.2-0.1 0.3-0.2c0.1 0 0.2-0.1 0.3-0.1s0.2 0 0.3 0.1 0.2 0.1 0.3 0.2 0.1 0.2 0.2 0.3 0.1 0.2 0.1 0.3zm-0.3 3.1v9h-0.9v-9h0.9z" fill-rule="nonzero"/>
            <path fill="#1a171b" d="m338 162.5v-9h0.5c0.2 0 0.2 0.1 0.3 0.2l0.1 1.4c0.4-0.5 0.9-0.9 1.4-1.2s1.1-0.5 1.8-0.5c0.5 0 0.9 0.1 1.3 0.2 0.4 0.2 0.7 0.4 0.9 0.7s0.4 0.6 0.6 1.1c0.1 0.4 0.2 0.9 0.2 1.4v5.7h-0.9v-5.7c0-0.8-0.2-1.5-0.6-2s-1-0.7-1.8-0.7c-0.6 0-1.1 0.2-1.6 0.5s-1 0.7-1.3 1.2v6.7h-0.9z" fill-rule="nonzero"/>
            <path fill="#1a171b" d="m352.9 157.4v5.1h-0.9v-12.7h3.3c1.5 0 2.6 0.3 3.4 1s1.1 1.6 1.1 2.8c0 0.6-0.1 1.1-0.3 1.5s-0.5 0.9-0.9 1.2-0.9 0.6-1.4 0.8-1.2 0.3-1.9 0.3h-2.4zm0-0.8h2.4c0.6 0 1.1-0.1 1.5-0.2 0.4-0.2 0.8-0.4 1.1-0.6 0.3-0.3 0.5-0.6 0.7-1s0.2-0.8 0.2-1.2c0-1-0.3-1.7-0.9-2.3s-1.5-0.8-2.7-0.8h-2.4v6.1h0.1z" fill-rule="nonzero"/>
            <path fill="#1a171b" d="m367.2 162.5c-0.2 0-0.3-0.1-0.3-0.3l-0.1-1.1c-0.2 0.2-0.5 0.5-0.7 0.6-0.2 0.2-0.5 0.4-0.8 0.5s-0.5 0.2-0.9 0.3c-0.3 0.1-0.6 0.1-1 0.1-0.3 0-0.6 0-0.9-0.1s-0.5-0.2-0.8-0.4c-0.2-0.2-0.4-0.4-0.5-0.7s-0.2-0.6-0.2-1 0.1-0.7 0.3-1.1c0.2-0.3 0.6-0.6 1-0.8 0.5-0.2 1-0.4 1.8-0.6 0.7-0.1 1.6-0.2 2.6-0.3v-0.9c0-0.8-0.2-1.5-0.5-1.9-0.4-0.4-0.9-0.7-1.6-0.7-0.4 0-0.8 0.1-1.1 0.2s-0.6 0.3-0.8 0.4-0.4 0.3-0.5 0.4-0.2 0.2-0.3 0.2-0.2-0.1-0.3-0.2l-0.2-0.3c0.5-0.5 1-0.8 1.5-1.1 0.5-0.2 1.1-0.4 1.8-0.4 0.5 0 0.9 0.1 1.3 0.2 0.4 0.2 0.7 0.4 0.9 0.7s0.4 0.6 0.5 1 0.2 0.9 0.2 1.4v5.8h-0.4v0.1zm-3.6-0.5c0.3 0 0.7 0 1-0.1s0.6-0.2 0.8-0.3 0.5-0.3 0.7-0.5l0.6-0.6v-2.3c-0.9 0-1.6 0.1-2.2 0.2s-1.1 0.2-1.5 0.4-0.7 0.4-0.9 0.6-0.3 0.5-0.3 0.9c0 0.3 0 0.6 0.1 0.8s0.2 0.4 0.4 0.5l0.6 0.3c0.2 0.1 0.4 0.1 0.7 0.1z" fill-rule="nonzero"/>
            <path fill="#1a171b" d="m370.2 162.5v-9h0.5c0.1 0 0.2 0 0.2 0.1s0.1 0.1 0.1 0.2l0.1 1.9c0.3-0.7 0.7-1.3 1.2-1.7s1.1-0.6 1.8-0.6c0.3 0 0.5 0 0.7 0.1s0.4 0.1 0.6 0.2l-0.1 0.6c0 0.1-0.1 0.1-0.2 0.1h-0.2c-0.1 0-0.1-0.1-0.2-0.1s-0.2-0.1-0.4-0.1h-0.5c-0.7 0-1.2 0.2-1.7 0.6-0.4 0.4-0.8 1-1.1 1.8v5.8h-0.8v0.1z" fill-rule="nonzero"/>
            <path fill="#1a171b" d="m379.8 162.6c-0.6 0-1.1-0.2-1.4-0.5s-0.5-0.9-0.5-1.6v-6.1h-1.3c-0.1 0-0.1 0-0.2-0.1 0 0-0.1-0.1-0.1-0.2v-0.3l1.5-0.1 0.2-3.2c0-0.1 0-0.1 0.1-0.1 0 0 0.1-0.1 0.2-0.1h0.4v3.4h2.8v0.6h-2.8v6.1c0 0.2 0 0.5 0.1 0.6 0.1 0.2 0.2 0.3 0.3 0.4s0.2 0.2 0.4 0.3 0.3 0.1 0.5 0.1 0.4 0 0.6-0.1 0.3-0.1 0.4-0.2 0.2-0.1 0.3-0.2 0.1-0.1 0.2-0.1c0 0 0.1 0 0.1 0.1l0.2 0.4c-0.2 0.3-0.5 0.5-0.9 0.6-0.3 0.3-0.7 0.3-1.1 0.3z" fill-rule="nonzero"/>
            <path fill="#1a171b" d="m385.3 150.4c0 0.1 0 0.2-0.1 0.3 0 0.1-0.1 0.2-0.2 0.2-0.1 0.1-0.2 0.1-0.3 0.2s-0.2 0.1-0.3 0.1-0.2 0-0.3-0.1-0.2-0.1-0.3-0.2-0.1-0.2-0.2-0.2c0-0.1-0.1-0.2-0.1-0.3s0-0.2 0.1-0.3c0-0.1 0.1-0.2 0.2-0.3s0.2-0.1 0.3-0.2 0.2-0.1 0.3-0.1 0.2 0 0.3 0.1 0.2 0.1 0.3 0.2 0.1 0.2 0.2 0.3 0.1 0.2 0.1 0.3zm-0.4 3.1v9h-0.9v-9h0.9z" fill-rule="nonzero"/>
            <path fill="#1a171b" d="m394 154.7c-0.1 0.1-0.1 0.1 0 0-0.1 0.1-0.2 0.1-0.2 0.1-0.1 0-0.1 0-0.2-0.1s-0.2-0.2-0.4-0.3-0.4-0.2-0.7-0.3-0.6-0.1-1-0.1c-0.5 0-1 0.1-1.4 0.3s-0.7 0.4-1 0.8c-0.3 0.3-0.5 0.8-0.6 1.2-0.1 0.5-0.2 1-0.2 1.6s0.1 1.2 0.2 1.7 0.4 0.9 0.6 1.2 0.6 0.6 1 0.8 0.8 0.3 1.3 0.3c0.4 0 0.8-0.1 1.1-0.2s0.5-0.2 0.7-0.3 0.3-0.2 0.5-0.3 0.2-0.2 0.3-0.2 0.1 0 0.2 0.1l0.2 0.3c-0.1 0.2-0.3 0.3-0.5 0.5s-0.4 0.3-0.7 0.4-0.5 0.2-0.9 0.3c-0.3 0.1-0.6 0.1-1 0.1-0.6 0-1.1-0.1-1.6-0.3s-0.9-0.5-1.2-0.9-0.6-0.9-0.8-1.4c-0.2-0.6-0.3-1.2-0.3-1.9s0.1-1.3 0.3-1.9 0.4-1 0.8-1.5c0.3-0.4 0.8-0.7 1.3-0.9s1.1-0.3 1.7-0.3 1.1 0.1 1.6 0.3 0.8 0.4 1.2 0.8l-0.3 0.1z" fill-rule="nonzero"/>
            <path fill="#1a171b" d="m396.9 153.5v5.7c0 0.8 0.2 1.5 0.6 2s1 0.7 1.8 0.7c0.6 0 1.1-0.1 1.6-0.4s1-0.7 1.4-1.2v-6.7h0.9v9h-0.5c-0.2 0-0.3-0.1-0.3-0.2l-0.1-1.3c-0.4 0.5-0.9 0.9-1.4 1.2s-1.1 0.5-1.8 0.5c-0.5 0-0.9-0.1-1.3-0.2-0.4-0.2-0.7-0.4-0.9-0.7s-0.4-0.6-0.6-1.1-0.2-0.9-0.2-1.4v-5.7h0.8v-0.2z" fill-rule="nonzero"/>
            <rect fill-rule="nonzero" height="13.1" width=".9" y="149.4" x="406.2" fill="#1a171b"/>
            <path fill="#1a171b" d="m416 162.5c-0.2 0-0.3-0.1-0.3-0.3l-0.1-1.1c-0.2 0.2-0.5 0.5-0.7 0.6-0.2 0.2-0.5 0.4-0.8 0.5s-0.5 0.2-0.9 0.3-0.6 0.1-1 0.1c-0.3 0-0.6 0-0.9-0.1s-0.5-0.2-0.8-0.4-0.4-0.4-0.5-0.7-0.2-0.6-0.2-1 0.1-0.7 0.3-1.1c0.2-0.3 0.6-0.6 1-0.8 0.5-0.2 1-0.4 1.8-0.6 0.7-0.1 1.6-0.2 2.6-0.3v-0.9c0-0.8-0.2-1.5-0.5-1.9-0.4-0.4-0.9-0.7-1.6-0.7-0.4 0-0.8 0.1-1.1 0.2s-0.6 0.3-0.8 0.4-0.4 0.3-0.5 0.4-0.2 0.2-0.3 0.2-0.2-0.1-0.3-0.2l-0.2-0.3c0.5-0.5 1-0.8 1.5-1.1 0.5-0.2 1.1-0.4 1.8-0.4 0.5 0 0.9 0.1 1.3 0.2 0.4 0.2 0.7 0.4 0.9 0.7s0.4 0.6 0.5 1 0.2 0.9 0.2 1.4v5.8h-0.4v0.1zm-3.6-0.5c0.3 0 0.7 0 1-0.1s0.6-0.2 0.8-0.3 0.5-0.3 0.7-0.5l0.6-0.6v-2.3c-0.9 0-1.6 0.1-2.2 0.2s-1.1 0.2-1.5 0.4-0.7 0.4-0.9 0.6-0.3 0.5-0.3 0.9c0 0.3 0.1 0.6 0.1 0.8 0.1 0.2 0.2 0.4 0.4 0.5s0.3 0.2 0.6 0.3c0.2 0.1 0.4 0.1 0.7 0.1z" fill-rule="nonzero"/>
            <path fill="#1a171b" d="m419 162.5v-9h0.5c0.1 0 0.2 0 0.2 0.1s0.1 0.1 0.1 0.2l0.1 1.9c0.3-0.7 0.7-1.3 1.2-1.7s1.1-0.6 1.8-0.6c0.3 0 0.5 0 0.7 0.1s0.4 0.1 0.6 0.2l-0.1 0.6c0 0.1-0.1 0.1-0.2 0.1h-0.2c-0.1 0-0.1-0.1-0.2-0.1s-0.2-0.1-0.4-0.1h-0.5c-0.7 0-1.2 0.2-1.7 0.6-0.4 0.4-0.8 1-1.1 1.8v5.8h-0.8v0.1z" fill-rule="nonzero"/>
        </g>
    </g>
</svg>
