<svg id="Layer_1" data-name="Layer 1" xmlns="http://www.w3.org/2000/svg" viewBox="0 0 36 36"><defs><style>.cls-1{fill:#00729c;}</style></defs><path id="stackoverflow-square-icon" class="cls-1" d="M0,0V36H36V0H0ZM15.13,11.93l8.72,5.14-1.1,1.86L14,13.79Zm-2.33,5,9.78,2.63L22,21.64,12.23,19Zm-1,4.52L21.9,22.37l-0.2,2.15-10.08-.93Zm9.84,3.7V27.3H11.54V25.15H21.66Zm3.44,5.59H8.37V20.19H10.1V29H23.38V20.19H25.1V30.73ZM24.2,16.78l-5.7-8.36L20.28,7.2,26,15.56Zm2.17-1.35-1.73-10,2.13-.37,1.73,10Z"/></svg>