<svg id="Layer_1" data-name="Layer 1" xmlns="http://www.w3.org/2000/svg" viewBox="0 0 36 36"><defs><style>.cls-1{fill:#007398;}</style></defs><path id="video-5-icon" class="cls-1" d="M16.9,10.21L35.75,6.47V6.41L34.48,0,2.72,6.34A3.38,3.38,0,0,0,0,9.65V30.83A5.13,5.13,0,0,0,5.13,36H30.87A5.13,5.13,0,0,0,36,30.83V10.21H16.9ZM32.5,30.83a1.63,1.63,0,0,1-1.63,1.63H5.13A1.63,1.63,0,0,1,3.5,30.83V18.5h29V30.83ZM25.3,12L22.25,15H17.67L20.72,12H25.3Zm4.87-9.28,3.59,2.41L29.27,6l-3.6-2.41ZM21.32,4.43l3.6,2.41-4.49.89-3.6-2.41ZM12.46,6.19l3.6,2.41-4.49.89L8,7.08ZM11.69,12h4.58L13.22,15H8.64Zm15,3.05L29.74,12h4.58L31.27,15H26.68ZM16,30v-9.5l7.75,4.75Z"/></svg>