<?xml version="1.0" encoding="UTF-8" standalone="no"?><!DOCTYPE svg PUBLIC "-//W3C//DTD SVG 1.1//EN" "http://www.w3.org/Graphics/SVG/1.1/DTD/svg11.dtd"><svg width="100%" height="100%" viewBox="0 0 88 21" version="1.1" xmlns="http://www.w3.org/2000/svg" xmlns:xlink="http://www.w3.org/1999/xlink" xml:space="preserve" xmlns:serif="http://www.serif.com/" style="fill-rule:evenodd;clip-rule:evenodd;stroke-linejoin:round;stroke-miterlimit:1.41421;"><g id="OrderBilled"><g><path d="M7.813,10.513c0,1.999 -1.642,3.689 -3.669,3.689c-2.027,0 -3.669,-1.69 -3.669,-3.689c0,-1.999 1.642,-3.688 3.669,-3.688c2.027,0 3.669,1.689 3.669,3.688" style="fill-rule:nonzero;"/><path d="M9.411,9.268l5.439,0l0,-2.426l3.672,3.672l-3.672,3.672l0,-2.426l-5.439,0c0.096,-0.402 0.147,-0.82 0.147,-1.247c0,-0.426 -0.051,-0.844 -0.147,-1.245Z"/><path d="M7.026,5.919l-0.048,-0.048l3.471,-3.472l-1.721,-1.721l5.204,0l0,5.204l-1.721,-1.721l-3.471,3.472l-0.046,-0.046c-0.429,-0.668 -1,-1.239 -1.668,-1.668Z"/><path d="M8.692,13.442l0.048,-0.048l3.471,3.472l1.721,-1.721l0,5.204l-5.204,0l1.721,-1.721l-3.471,-3.472l0.049,-0.049c0.668,-0.429 1.237,-0.999 1.665,-1.665Z"/></g><g><path d="M22.544,10.567c0,-0.884 0.132,-1.626 0.397,-2.225c0.197,-0.442 0.466,-0.839 0.807,-1.19c0.342,-0.351 0.716,-0.611 1.122,-0.781c0.54,-0.229 1.164,-0.343 1.87,-0.343c1.278,0 2.301,0.396 3.068,1.189c0.768,0.793 1.152,1.896 1.152,3.309c0,1.4 -0.381,2.496 -1.143,3.287c-0.761,0.791 -1.779,1.187 -3.053,1.187c-1.29,0 -2.316,-0.394 -3.078,-1.181c-0.761,-0.787 -1.142,-1.871 -1.142,-3.252Zm1.805,-0.059c0,0.982 0.227,1.727 0.681,2.234c0.453,0.507 1.029,0.76 1.728,0.76c0.698,0 1.271,-0.251 1.719,-0.754c0.448,-0.503 0.672,-1.258 0.672,-2.264c0,-0.994 -0.218,-1.736 -0.654,-2.225c-0.436,-0.489 -1.015,-0.734 -1.737,-0.734c-0.722,0 -1.304,0.248 -1.746,0.743c-0.442,0.495 -0.663,1.242 -0.663,2.24Z" style="fill-rule:nonzero;"/><path d="M33.907,14.852l-1.663,0l0,-6.285l1.544,0l0,0.893c0.265,-0.422 0.502,-0.7 0.713,-0.834c0.211,-0.134 0.451,-0.201 0.719,-0.201c0.379,0 0.744,0.104 1.095,0.313l-0.515,1.45c-0.28,-0.181 -0.54,-0.272 -0.781,-0.272c-0.233,0 -0.43,0.064 -0.592,0.192c-0.161,0.129 -0.289,0.36 -0.381,0.696c-0.093,0.335 -0.139,1.037 -0.139,2.106l0,1.942Z" style="fill-rule:nonzero;"/><path d="M42.795,14.852l-1.544,0l0,-0.924c-0.257,0.359 -0.559,0.627 -0.909,0.802c-0.349,0.176 -0.701,0.264 -1.056,0.264c-0.722,0 -1.34,-0.291 -1.855,-0.873c-0.515,-0.582 -0.772,-1.394 -0.772,-2.436c0,-1.065 0.25,-1.875 0.751,-2.429c0.501,-0.554 1.134,-0.831 1.9,-0.831c0.702,0 1.31,0.292 1.823,0.876l0,-3.125l1.662,0l0,8.676Zm-4.438,-3.279c0,0.671 0.093,1.156 0.278,1.456c0.268,0.434 0.643,0.651 1.125,0.651c0.382,0 0.708,-0.163 0.976,-0.488c0.268,-0.326 0.402,-0.812 0.402,-1.459c0,-0.722 -0.13,-1.242 -0.39,-1.56c-0.261,-0.317 -0.594,-0.476 -1,-0.476c-0.395,0 -0.725,0.157 -0.992,0.47c-0.266,0.314 -0.399,0.783 -0.399,1.406Z" style="fill-rule:nonzero;"/><path d="M48.074,12.851l1.657,0.278c-0.213,0.608 -0.549,1.071 -1.009,1.388c-0.459,0.318 -1.034,0.477 -1.725,0.477c-1.093,0 -1.901,-0.357 -2.426,-1.072c-0.414,-0.572 -0.622,-1.294 -0.622,-2.166c0,-1.041 0.273,-1.857 0.817,-2.447c0.545,-0.589 1.233,-0.884 2.066,-0.884c0.935,0 1.672,0.308 2.213,0.926c0.54,0.617 0.799,1.563 0.775,2.837l-4.166,0c0.012,0.494 0.146,0.877 0.402,1.152c0.257,0.274 0.576,0.411 0.959,0.411c0.26,0 0.479,-0.071 0.657,-0.213c0.177,-0.142 0.312,-0.371 0.402,-0.687Zm0.095,-1.68c-0.012,-0.482 -0.136,-0.848 -0.373,-1.098c-0.237,-0.251 -0.525,-0.376 -0.864,-0.376c-0.363,0 -0.663,0.132 -0.899,0.397c-0.237,0.264 -0.354,0.623 -0.35,1.077l2.486,0Z" style="fill-rule:nonzero;"/><path d="M52.767,14.852l-1.663,0l0,-6.285l1.545,0l0,0.893c0.264,-0.422 0.502,-0.7 0.713,-0.834c0.211,-0.134 0.451,-0.201 0.719,-0.201c0.379,0 0.744,0.104 1.095,0.313l-0.515,1.45c-0.28,-0.181 -0.541,-0.272 -0.781,-0.272c-0.233,0 -0.43,0.064 -0.592,0.192c-0.162,0.129 -0.289,0.36 -0.382,0.696c-0.092,0.335 -0.139,1.037 -0.139,2.106l0,1.942Z" style="fill-rule:nonzero;"/><path d="M55.91,6.176l3.468,0c0.686,0 1.198,0.028 1.535,0.086c0.338,0.057 0.639,0.176 0.906,0.358c0.266,0.181 0.488,0.423 0.666,0.725c0.177,0.301 0.266,0.64 0.266,1.015c0,0.406 -0.11,0.779 -0.329,1.118c-0.219,0.339 -0.515,0.594 -0.89,0.763c0.528,0.154 0.935,0.417 1.219,0.788c0.284,0.37 0.426,0.806 0.426,1.307c0,0.395 -0.092,0.779 -0.275,1.151c-0.184,0.373 -0.434,0.671 -0.752,0.894c-0.317,0.223 -0.709,0.36 -1.175,0.411c-0.291,0.032 -0.996,0.052 -2.112,0.06l-2.953,0l0,-8.676Zm1.751,1.444l0,2.006l1.148,0c0.683,0 1.107,-0.01 1.273,-0.03c0.3,-0.035 0.535,-0.139 0.707,-0.31c0.172,-0.172 0.257,-0.398 0.257,-0.678c0,-0.268 -0.074,-0.486 -0.221,-0.654c-0.148,-0.168 -0.368,-0.269 -0.66,-0.305c-0.174,-0.019 -0.673,-0.029 -1.498,-0.029l-1.006,0Zm0,3.45l0,2.32l1.622,0c0.631,0 1.032,-0.018 1.201,-0.053c0.261,-0.048 0.473,-0.163 0.636,-0.347c0.164,-0.183 0.246,-0.429 0.246,-0.736c0,-0.261 -0.063,-0.482 -0.189,-0.663c-0.127,-0.182 -0.309,-0.314 -0.548,-0.397c-0.238,-0.083 -0.756,-0.124 -1.553,-0.124l-1.415,0Z" style="fill-rule:nonzero;"/><path d="M64.645,7.714l0,-1.538l1.663,0l0,1.538l-1.663,0Zm0,7.138l0,-6.285l1.663,0l0,6.285l-1.663,0Z" style="fill-rule:nonzero;"/><rect x="68.012" y="6.176" width="1.663" height="8.676" style="fill-rule:nonzero;"/><rect x="71.379" y="6.176" width="1.663" height="8.676" style="fill-rule:nonzero;"/><path d="M78.386,12.851l1.657,0.278c-0.213,0.608 -0.549,1.071 -1.009,1.388c-0.459,0.318 -1.035,0.477 -1.725,0.477c-1.093,0 -1.902,-0.357 -2.426,-1.072c-0.415,-0.572 -0.622,-1.294 -0.622,-2.166c0,-1.041 0.273,-1.857 0.817,-2.447c0.544,-0.589 1.233,-0.884 2.065,-0.884c0.935,0 1.673,0.308 2.214,0.926c0.54,0.617 0.799,1.563 0.775,2.837l-4.166,0c0.012,0.494 0.146,0.877 0.402,1.152c0.257,0.274 0.576,0.411 0.959,0.411c0.26,0 0.479,-0.071 0.657,-0.213c0.177,-0.142 0.311,-0.371 0.402,-0.687Zm0.095,-1.68c-0.012,-0.482 -0.136,-0.848 -0.373,-1.098c-0.237,-0.251 -0.525,-0.376 -0.864,-0.376c-0.363,0 -0.663,0.132 -0.9,0.397c-0.236,0.264 -0.353,0.623 -0.349,1.077l2.486,0Z" style="fill-rule:nonzero;"/><path d="M87.251,14.852l-1.544,0l0,-0.924c-0.257,0.359 -0.56,0.627 -0.909,0.802c-0.349,0.176 -0.701,0.264 -1.056,0.264c-0.722,0 -1.341,-0.291 -1.855,-0.873c-0.515,-0.582 -0.773,-1.394 -0.773,-2.436c0,-1.065 0.251,-1.875 0.752,-2.429c0.501,-0.554 1.134,-0.831 1.9,-0.831c0.702,0 1.309,0.292 1.822,0.876l0,-3.125l1.663,0l0,8.676Zm-4.438,-3.279c0,0.671 0.092,1.156 0.278,1.456c0.268,0.434 0.643,0.651 1.124,0.651c0.383,0 0.709,-0.163 0.977,-0.488c0.268,-0.326 0.402,-0.812 0.402,-1.459c0,-0.722 -0.13,-1.242 -0.39,-1.56c-0.261,-0.317 -0.594,-0.476 -1.001,-0.476c-0.394,0 -0.724,0.157 -0.991,0.47c-0.266,0.314 -0.399,0.783 -0.399,1.406Z" style="fill-rule:nonzero;"/></g></g></svg>