<?xml version="1.0" encoding="UTF-8" standalone="no"?><!DOCTYPE svg PUBLIC "-//W3C//DTD SVG 1.1//EN" "http://www.w3.org/Graphics/SVG/1.1/DTD/svg11.dtd"><svg width="100%" height="100%" viewBox="0 0 93 21" version="1.1" xmlns="http://www.w3.org/2000/svg" xmlns:xlink="http://www.w3.org/1999/xlink" xml:space="preserve" xmlns:serif="http://www.serif.com/" style="fill-rule:evenodd;clip-rule:evenodd;stroke-linejoin:round;stroke-miterlimit:1.41421;"><g id="OrderPlaced"><path d="M8.218,13.441l0.047,-0.047l3.472,3.472l1.721,-1.721l0,5.204l-5.204,0l1.721,-1.721l-3.472,-3.472l0.05,-0.05c0.667,-0.428 1.236,-0.998 1.665,-1.665Z"/><path d="M7.339,10.513c0,1.999 -1.643,3.688 -3.67,3.688c-2.026,0 -3.669,-1.689 -3.669,-3.688c0,-1.999 1.643,-3.688 3.669,-3.688c2.027,0 3.67,1.689 3.67,3.688" style="fill-rule:nonzero;"/><path d="M8.937,9.268l5.439,0l0,-2.427l3.672,3.672l-3.672,3.672l0,-2.426l-5.44,0c0.096,-0.401 0.147,-0.819 0.147,-1.246c0,-0.427 -0.051,-0.844 -0.146,-1.245Z"/><path d="M6.551,5.919l-0.048,-0.048l3.472,-3.472l-1.721,-1.721l5.204,0l0,5.204l-1.721,-1.721l-3.472,3.472l-0.046,-0.046c-0.429,-0.668 -0.999,-1.24 -1.668,-1.668Z"/><g><path d="M21.953,10.715c0,-0.884 0.132,-1.626 0.396,-2.226c0.197,-0.441 0.467,-0.838 0.808,-1.189c0.341,-0.351 0.715,-0.612 1.121,-0.781c0.541,-0.229 1.164,-0.343 1.87,-0.343c1.279,0 2.302,0.396 3.069,1.189c0.767,0.793 1.151,1.896 1.151,3.308c0,1.401 -0.381,2.497 -1.142,3.288c-0.762,0.791 -1.779,1.186 -3.054,1.186c-1.29,0 -2.316,-0.393 -3.077,-1.18c-0.762,-0.788 -1.142,-1.872 -1.142,-3.252Zm1.805,-0.06c0,0.983 0.226,1.727 0.68,2.234c0.454,0.507 1.03,0.761 1.728,0.761c0.699,0 1.272,-0.252 1.719,-0.755c0.448,-0.503 0.672,-1.257 0.672,-2.263c0,-0.994 -0.218,-1.736 -0.654,-2.225c-0.436,-0.49 -1.015,-0.734 -1.737,-0.734c-0.722,0 -1.304,0.247 -1.746,0.742c-0.441,0.496 -0.662,1.242 -0.662,2.24Z" style="fill-rule:nonzero;"/><path d="M33.315,14.999l-1.663,0l0,-6.285l1.545,0l0,0.894c0.264,-0.422 0.502,-0.7 0.713,-0.834c0.211,-0.135 0.451,-0.202 0.719,-0.202c0.379,0 0.744,0.105 1.095,0.314l-0.515,1.45c-0.28,-0.182 -0.541,-0.272 -0.781,-0.272c-0.233,0 -0.43,0.064 -0.592,0.192c-0.162,0.128 -0.289,0.36 -0.382,0.695c-0.092,0.336 -0.139,1.038 -0.139,2.107l0,1.941Z" style="fill-rule:nonzero;"/><path d="M42.204,14.999l-1.545,0l0,-0.923c-0.256,0.359 -0.559,0.626 -0.908,0.802c-0.349,0.175 -0.701,0.263 -1.056,0.263c-0.722,0 -1.341,-0.291 -1.856,-0.873c-0.515,-0.582 -0.772,-1.393 -0.772,-2.435c0,-1.065 0.251,-1.875 0.752,-2.429c0.501,-0.555 1.134,-0.832 1.899,-0.832c0.703,0 1.31,0.292 1.823,0.876l0,-3.125l1.663,0l0,8.676Zm-4.439,-3.278c0,0.67 0.093,1.156 0.279,1.455c0.268,0.434 0.643,0.651 1.124,0.651c0.383,0 0.708,-0.162 0.976,-0.488c0.269,-0.325 0.403,-0.812 0.403,-1.459c0,-0.722 -0.13,-1.241 -0.391,-1.559c-0.26,-0.318 -0.593,-0.476 -1,-0.476c-0.394,0 -0.725,0.156 -0.991,0.47c-0.266,0.314 -0.4,0.782 -0.4,1.406Z" style="fill-rule:nonzero;"/><path d="M47.483,12.999l1.657,0.278c-0.213,0.608 -0.55,1.07 -1.009,1.388c-0.46,0.317 -1.035,0.476 -1.725,0.476c-1.093,0 -1.902,-0.357 -2.427,-1.071c-0.414,-0.572 -0.621,-1.294 -0.621,-2.166c0,-1.041 0.272,-1.857 0.817,-2.447c0.544,-0.59 1.233,-0.885 2.065,-0.885c0.935,0 1.673,0.309 2.213,0.926c0.541,0.618 0.799,1.564 0.776,2.838l-4.167,0c0.012,0.493 0.146,0.877 0.403,1.151c0.256,0.274 0.576,0.411 0.958,0.411c0.261,0 0.48,-0.071 0.657,-0.213c0.178,-0.142 0.312,-0.37 0.403,-0.686Zm0.094,-1.681c-0.011,-0.481 -0.136,-0.847 -0.372,-1.098c-0.237,-0.25 -0.525,-0.375 -0.864,-0.375c-0.363,0 -0.663,0.132 -0.9,0.396c-0.237,0.264 -0.353,0.624 -0.349,1.077l2.485,0Z" style="fill-rule:nonzero;"/><path d="M52.176,14.999l-1.663,0l0,-6.285l1.544,0l0,0.894c0.265,-0.422 0.502,-0.7 0.713,-0.834c0.212,-0.135 0.451,-0.202 0.72,-0.202c0.378,0 0.743,0.105 1.094,0.314l-0.515,1.45c-0.28,-0.182 -0.54,-0.272 -0.781,-0.272c-0.232,0 -0.43,0.064 -0.591,0.192c-0.162,0.128 -0.289,0.36 -0.382,0.695c-0.093,0.336 -0.139,1.038 -0.139,2.107l0,1.941Z" style="fill-rule:nonzero;"/><path d="M55.312,14.999l0,-8.676l2.811,0c1.066,0 1.76,0.044 2.083,0.131c0.498,0.13 0.914,0.413 1.249,0.849c0.335,0.436 0.503,0.999 0.503,1.689c0,0.533 -0.097,0.981 -0.29,1.344c-0.193,0.363 -0.439,0.648 -0.737,0.855c-0.298,0.207 -0.6,0.344 -0.908,0.411c-0.418,0.083 -1.024,0.125 -1.817,0.125l-1.142,0l0,3.272l-1.752,0Zm1.752,-7.208l0,2.462l0.959,0c0.69,0 1.152,-0.045 1.384,-0.136c0.233,-0.091 0.416,-0.233 0.548,-0.426c0.132,-0.194 0.198,-0.418 0.198,-0.675c0,-0.315 -0.093,-0.576 -0.278,-0.781c-0.185,-0.205 -0.42,-0.333 -0.704,-0.385c-0.209,-0.039 -0.63,-0.059 -1.261,-0.059l-0.846,0Z" style="fill-rule:nonzero;"/><rect x="63.384" y="6.323" width="1.663" height="8.676" style="fill-rule:nonzero;"/><path d="M67.994,10.632l-1.509,-0.272c0.17,-0.608 0.462,-1.058 0.876,-1.35c0.414,-0.292 1.03,-0.438 1.847,-0.438c0.741,0 1.294,0.088 1.657,0.264c0.363,0.175 0.618,0.398 0.766,0.668c0.148,0.271 0.222,0.767 0.222,1.489l-0.018,1.941c0,0.552 0.027,0.96 0.08,1.222c0.053,0.262 0.153,0.543 0.299,0.843l-1.645,0c-0.044,-0.11 -0.097,-0.274 -0.16,-0.491c-0.028,-0.099 -0.047,-0.164 -0.059,-0.195c-0.284,0.276 -0.588,0.483 -0.912,0.621c-0.323,0.138 -0.668,0.207 -1.035,0.207c-0.647,0 -1.157,-0.175 -1.53,-0.526c-0.373,-0.352 -0.559,-0.795 -0.559,-1.332c0,-0.355 0.085,-0.672 0.254,-0.95c0.17,-0.278 0.408,-0.491 0.713,-0.639c0.306,-0.148 0.747,-0.277 1.323,-0.388c0.777,-0.146 1.316,-0.282 1.616,-0.408l0,-0.166c0,-0.319 -0.079,-0.547 -0.237,-0.683c-0.158,-0.136 -0.456,-0.204 -0.894,-0.204c-0.296,0 -0.526,0.058 -0.692,0.174c-0.166,0.117 -0.3,0.321 -0.403,0.613Zm2.226,1.349c-0.213,0.071 -0.551,0.156 -1.012,0.255c-0.462,0.098 -0.764,0.195 -0.906,0.289c-0.217,0.154 -0.325,0.35 -0.325,0.586c0,0.233 0.086,0.434 0.26,0.604c0.174,0.17 0.395,0.254 0.663,0.254c0.3,0 0.586,-0.098 0.858,-0.295c0.201,-0.15 0.333,-0.334 0.397,-0.551c0.043,-0.142 0.065,-0.412 0.065,-0.811l0,-0.331Z" style="fill-rule:nonzero;"/><path d="M78.972,10.573l-1.639,0.295c-0.055,-0.327 -0.18,-0.574 -0.376,-0.739c-0.195,-0.166 -0.449,-0.249 -0.76,-0.249c-0.415,0 -0.745,0.143 -0.992,0.429c-0.246,0.286 -0.369,0.765 -0.369,1.435c0,0.746 0.125,1.273 0.375,1.58c0.251,0.308 0.587,0.462 1.009,0.462c0.316,0 0.574,-0.09 0.776,-0.269c0.201,-0.18 0.343,-0.488 0.426,-0.926l1.633,0.278c-0.17,0.749 -0.495,1.315 -0.976,1.698c-0.482,0.383 -1.127,0.574 -1.936,0.574c-0.919,0 -1.652,-0.29 -2.198,-0.87c-0.546,-0.58 -0.82,-1.383 -0.82,-2.408c0,-1.038 0.275,-1.846 0.823,-2.424c0.548,-0.578 1.29,-0.867 2.225,-0.867c0.765,0 1.374,0.165 1.826,0.494c0.452,0.33 0.776,0.832 0.973,1.507Z" style="fill-rule:nonzero;"/><path d="M83.872,12.999l1.657,0.278c-0.213,0.608 -0.549,1.07 -1.009,1.388c-0.459,0.317 -1.034,0.476 -1.725,0.476c-1.093,0 -1.901,-0.357 -2.426,-1.071c-0.414,-0.572 -0.621,-1.294 -0.621,-2.166c0,-1.041 0.272,-1.857 0.816,-2.447c0.545,-0.59 1.233,-0.885 2.066,-0.885c0.935,0 1.672,0.309 2.213,0.926c0.54,0.618 0.799,1.564 0.775,2.838l-4.166,0c0.012,0.493 0.146,0.877 0.402,1.151c0.257,0.274 0.576,0.411 0.959,0.411c0.26,0 0.479,-0.071 0.657,-0.213c0.177,-0.142 0.312,-0.37 0.402,-0.686Zm0.095,-1.681c-0.012,-0.481 -0.136,-0.847 -0.373,-1.098c-0.237,-0.25 -0.525,-0.375 -0.864,-0.375c-0.363,0 -0.663,0.132 -0.899,0.396c-0.237,0.264 -0.353,0.624 -0.349,1.077l2.485,0Z" style="fill-rule:nonzero;"/><path d="M92.737,14.999l-1.544,0l0,-0.923c-0.257,0.359 -0.559,0.626 -0.909,0.802c-0.349,0.175 -0.701,0.263 -1.056,0.263c-0.722,0 -1.34,-0.291 -1.855,-0.873c-0.515,-0.582 -0.772,-1.393 -0.772,-2.435c0,-1.065 0.25,-1.875 0.751,-2.429c0.501,-0.555 1.134,-0.832 1.9,-0.832c0.702,0 1.31,0.292 1.823,0.876l0,-3.125l1.662,0l0,8.676Zm-4.438,-3.278c0,0.67 0.093,1.156 0.278,1.455c0.268,0.434 0.643,0.651 1.125,0.651c0.382,0 0.708,-0.162 0.976,-0.488c0.268,-0.325 0.402,-0.812 0.402,-1.459c0,-0.722 -0.13,-1.241 -0.39,-1.559c-0.261,-0.318 -0.594,-0.476 -1,-0.476c-0.395,0 -0.725,0.156 -0.992,0.47c-0.266,0.314 -0.399,0.782 -0.399,1.406Z" style="fill-rule:nonzero;"/></g></g></svg>