<?xml version="1.0" encoding="UTF-8" standalone="no"?><!DOCTYPE svg PUBLIC "-//W3C//DTD SVG 1.1//EN" "http://www.w3.org/Graphics/SVG/1.1/DTD/svg11.dtd"><svg width="100%" height="100%" viewBox="0 0 108 108" version="1.1" xmlns="http://www.w3.org/2000/svg" xmlns:xlink="http://www.w3.org/1999/xlink" xml:space="preserve" xmlns:serif="http://www.serif.com/" style="fill-rule:evenodd;clip-rule:evenodd;stroke-linejoin:round;stroke-miterlimit:1.41421;"><g id="OrderPlaced-arrow"><path id="email-3-icon" d="M52.833,52.013l-3.415,-15.631l18.345,18.345l-14.93,-2.714Zm-2.229,2.229l-3.271,-15.855l-10.089,10.089l18.385,18.385l10.07,-10.071l-15.095,-2.548Z" style="fill:#737373;fill-rule:nonzero;"/><path id="OrderPlaced" d="M98.117,92.992l3.837,-3.837l6.008,18.023l-18.023,-6.008l3.935,-3.935l-3.896,-3.897l4.242,-4.243l3.897,3.897Zm-8.139,-8.139l-4.243,4.242l-8.485,-8.485l4.242,-4.242c2.829,2.828 5.657,5.656 8.486,8.485Zm-20.504,-20.504l7.776,7.776l-4.243,4.243l-7.776,-7.776l4.243,-4.243Zm-30.408,-30.408l-4.243,4.243l-8.485,-8.486l4.243,-4.242c2.828,2.828 5.656,5.657 8.485,8.485Zm-12.728,-12.728l-4.243,4.243l-8.485,-8.485l4.243,-4.243c2.828,2.828 5.657,5.657 8.485,8.485Zm-12.728,-12.728l-4.243,4.243l-8.485,-8.485l4.243,-4.243c2.828,2.828 5.657,5.657 8.485,8.485Z" style="fill:#737373;fill-rule:nonzero;"/></g></svg>