<?xml version="1.0" encoding="UTF-8" standalone="no"?><!DOCTYPE svg PUBLIC "-//W3C//DTD SVG 1.1//EN" "http://www.w3.org/Graphics/SVG/1.1/DTD/svg11.dtd"><svg width="100%" height="100%" viewBox="0 0 82 12" version="1.1" xmlns="http://www.w3.org/2000/svg" xmlns:xlink="http://www.w3.org/1999/xlink" xml:space="preserve" xmlns:serif="http://www.serif.com/" style="fill-rule:evenodd;clip-rule:evenodd;stroke-linejoin:round;stroke-miterlimit:1.41421;"><g id="ShipOrder"><path d="M7.889,4.884c0,1.999 -1.643,3.688 -3.669,3.688c-2.027,0 -3.67,-1.689 -3.67,-3.688c0,-1.999 1.643,-3.688 3.67,-3.688c2.026,0 3.669,1.689 3.669,3.688" style="fill-rule:nonzero;"/><path d="M9.487,3.639l5.439,0l0,-2.426l3.672,3.671l-3.672,3.672l0,-2.426l-5.439,0c0.096,-0.401 0.147,-0.819 0.147,-1.246c0,-0.427 -0.051,-0.844 -0.147,-1.245Z"/><text x="21.669px" y="9.216px" style="font-family:'Arial-BoldMT', 'Arial', sans-serif;font-weight:700;font-size:12.12px;">ShipOrder</text><path d="M7.889,4.884c0,1.999 -1.643,3.688 -3.669,3.688c-2.027,0 -3.67,-1.689 -3.67,-3.688c0,-1.999 1.643,-3.688 3.67,-3.688c2.026,0 3.669,1.689 3.669,3.688" style="fill-rule:nonzero;"/><path d="M9.487,3.639l5.439,0l0,-2.426l3.672,3.671l-3.672,3.672l0,-2.426l-5.439,0c0.096,-0.401 0.147,-0.819 0.147,-1.246c0,-0.427 -0.051,-0.844 -0.147,-1.245Z"/></g></svg>