<?xml version="1.0" encoding="UTF-8" standalone="no"?><!DOCTYPE svg PUBLIC "-//W3C//DTD SVG 1.1//EN" "http://www.w3.org/Graphics/SVG/1.1/DTD/svg11.dtd"><svg width="100%" height="100%" viewBox="0 0 95 17" version="1.1" xmlns="http://www.w3.org/2000/svg" xmlns:xlink="http://www.w3.org/1999/xlink" xml:space="preserve" xmlns:serif="http://www.serif.com/" style="fill-rule:evenodd;clip-rule:evenodd;stroke-linejoin:round;stroke-miterlimit:1.41421;"><g id="WasBilled-true"><path id="db" d="M11.744,15.291l-0.001,0c-0.065,0.807 -2.566,1.451 -5.643,1.451c-3.082,0 -5.587,-0.647 -5.642,-1.451l-0.001,0l0,-12.033l0.007,0.004l0.039,0.023l0.02,0.011l0.02,0.012l0.019,0.011l0.02,0.011l0.02,0.011l0.021,0.011l0.02,0.011l0.02,0.01l0.021,0.01l0.02,0.011l0.021,0.01l0.021,0.011l0.042,0.02l0.021,0.009l0.021,0.011l0.022,0.009l0.021,0.01l0.022,0.01l0.021,0.009l0.022,0.009l0.022,0.01l0.022,0.009l0.022,0.009l0.023,0.009l0.022,0.009l0.023,0.01l0.022,0.008l0.023,0.009l0.023,0.009l0.023,0.009l0.023,0.009l0.023,0.008l0.024,0.009l0.023,0.008l0.023,0.009l0.048,0.016l0.024,0.008l0.048,0.017l0.025,0.008l0.024,0.007l0.024,0.008l0.025,0.009l0.049,0.015l0.026,0.008l0.024,0.007l0.051,0.016l0.026,0.007l0.026,0.007l0.05,0.015l0.079,0.021l0.027,0.008l0.026,0.007l0.027,0.007l0.026,0.006l0.026,0.008l0.028,0.006l0.027,0.007l0.027,0.007l0.027,0.006l0.11,0.027l0.028,0.006l0.029,0.006l0.027,0.007l0.056,0.012l0.029,0.006l0.058,0.012l0.028,0.006l0.087,0.018l0.029,0.006l0.029,0.006l0.03,0.006l0.029,0.005l0.03,0.006l0.03,0.005l0.03,0.006l0.03,0.005l0.029,0.006l0.031,0.005l0.03,0.005l0.03,0.006l0.031,0.005l0.031,0.005l0.03,0.005l0.031,0.006l0.062,0.009l0.031,0.005l0.032,0.005l0.062,0.01l0.032,0.004l0.095,0.014l0.032,0.005l0.032,0.004l0.032,0.004l0.032,0.005l0.13,0.016l0.033,0.005l0.033,0.004l0.033,0.003l0.066,0.009l0.033,0.003l0.033,0.004l0.034,0.003l0.033,0.005l0.034,0.003l0.033,0.003l0.102,0.011l0.034,0.003l0.034,0.004l0.034,0.003l0.034,0.003l0.035,0.003l0.138,0.012l0.035,0.002l0.034,0.003l0.035,0.003l0.036,0.003l0.034,0.002l0.035,0.003l0.071,0.005l0.036,0.002l0.035,0.003l0.036,0.002l0.072,0.004l0.035,0.002l0.036,0.003l0.108,0.005l0.036,0.002l0.072,0.003l0.037,0.002l0.037,0.001l0.036,0.002l0.036,0.001l0.037,0.002l0.073,0.002l0.038,0.002l0.073,0.002l0.038,0.001l0.037,0.001l0.037,0.001l0.074,0.001l0.038,0.001l0.075,0.002l0.037,0l0.038,0l0.075,0.001l0.038,0l0.038,0.001l0.227,0l0.038,-0.001l0.038,0l0.038,0l0.037,-0.001l0.038,0l0.038,0l0.037,-0.001l0.037,-0.001l0.038,-0.001l0.037,0l0.037,-0.001l0.038,-0.001l0.037,-0.001l0.037,-0.001l0.037,-0.001l0.036,-0.001l0.038,-0.002l0.036,-0.001l0.037,-0.001l0.037,-0.002l0.036,-0.001l0.036,-0.002l0.037,-0.001l0.037,-0.002l0.072,-0.003l0.036,-0.002l0.036,-0.002l0.072,-0.003l0.036,-0.003l0.036,-0.002l0.072,-0.004l0.035,-0.002l0.035,-0.003l0.036,-0.002l0.071,-0.005l0.035,-0.003l0.034,-0.002l0.036,-0.003l0.035,-0.003l0.035,-0.003l0.034,-0.002l0.035,-0.003l0.034,-0.003l0.035,-0.003l0.034,-0.003l0.035,-0.003l0.034,-0.003l0.034,-0.003l0.034,-0.004l0.034,-0.003l0.034,-0.004l0.034,-0.003l0.034,-0.004l0.034,-0.003l0.033,-0.003l0.034,-0.005l0.033,-0.003l0.034,-0.004l0.033,-0.003l0.032,-0.004l0.033,-0.005l0.033,-0.003l0.033,-0.004l0.033,-0.005l0.097,-0.012l0.033,-0.004l0.032,-0.005l0.032,-0.004l0.033,-0.004l0.031,-0.005l0.064,-0.009l0.031,-0.005l0.032,-0.004l0.062,-0.01l0.032,-0.005l0.031,-0.005l0.062,-0.009l0.031,-0.006l0.031,-0.005l0.03,-0.005l0.031,-0.005l0.03,-0.006l0.031,-0.005l0.029,-0.005l0.031,-0.006l0.029,-0.005l0.031,-0.006l0.029,-0.005l0.03,-0.006l0.029,-0.005l0.03,-0.006l0.029,-0.006l0.03,-0.006l0.057,-0.012l0.029,-0.006l0.029,-0.006l0.028,-0.006l0.029,-0.006l0.029,-0.006l0.028,-0.006l0.028,-0.006l0.028,-0.007l0.028,-0.006l0.028,-0.006l0.028,-0.007l0.027,-0.006l0.055,-0.014l0.028,-0.006l0.026,-0.007l0.027,-0.007l0.028,-0.006l0.026,-0.008l0.027,-0.006l0.026,-0.007l0.026,-0.007l0.027,-0.008l0.026,-0.007l0.026,-0.007l0.027,-0.007l0.025,-0.007l0.026,-0.008l0.025,-0.007l0.026,-0.007l0.025,-0.008l0.026,-0.008l0.024,-0.008l0.026,-0.007l0.024,-0.008l0.025,-0.007l0.025,-0.009l0.025,-0.008l0.024,-0.007l0.024,-0.008l0.024,-0.009l0.024,-0.008l0.024,-0.008l0.048,-0.016l0.023,-0.009l0.024,-0.008l0.023,-0.009l0.023,-0.008l0.024,-0.009l0.023,-0.009l0.022,-0.009l0.023,-0.009l0.023,-0.008l0.022,-0.01l0.023,-0.009l0.022,-0.009l0.022,-0.009l0.022,-0.009l0.022,-0.01l0.022,-0.009l0.022,-0.009l0.021,-0.01l0.022,-0.01l0.021,-0.009l0.021,-0.011l0.021,-0.009l0.042,-0.02l0.021,-0.011l0.021,-0.01l0.02,-0.011l0.021,-0.01l0.02,-0.01l0.02,-0.011l0.021,-0.011l0.02,-0.011l0.02,-0.011l0.02,-0.011l0.019,-0.012l0.02,-0.011l0.019,-0.012l0.02,-0.011l0.007,-0.004l0,12.033Zm-5.643,-14.888c3.116,0 5.643,0.669 5.643,1.494c0,0.825 -2.527,1.494 -5.643,1.494c-3.117,0 -5.644,-0.669 -5.644,-1.494c0,-0.825 2.527,-1.494 5.644,-1.494Z" style="fill:#fff;"/><g><rect x="18.267" y="5.248" width="0.853" height="6.442" style="fill:#fff;fill-rule:nonzero;"/><path d="M20.205,10.297l0.782,-0.123c0.044,0.313 0.167,0.554 0.367,0.721c0.201,0.167 0.481,0.25 0.842,0.25c0.363,0 0.633,-0.074 0.808,-0.222c0.176,-0.148 0.264,-0.321 0.264,-0.521c0,-0.178 -0.078,-0.319 -0.233,-0.421c-0.108,-0.071 -0.378,-0.16 -0.808,-0.268c-0.581,-0.147 -0.983,-0.274 -1.207,-0.381c-0.224,-0.107 -0.394,-0.254 -0.51,-0.443c-0.115,-0.189 -0.173,-0.398 -0.173,-0.627c0,-0.208 0.048,-0.4 0.143,-0.578c0.095,-0.177 0.225,-0.324 0.389,-0.441c0.123,-0.091 0.29,-0.168 0.503,-0.231c0.212,-0.063 0.44,-0.094 0.683,-0.094c0.366,0 0.688,0.052 0.965,0.158c0.277,0.105 0.481,0.248 0.613,0.428c0.132,0.18 0.222,0.421 0.272,0.723l-0.773,0.106c-0.035,-0.241 -0.137,-0.428 -0.306,-0.563c-0.168,-0.135 -0.406,-0.202 -0.714,-0.202c-0.363,0 -0.622,0.06 -0.778,0.18c-0.155,0.12 -0.232,0.261 -0.232,0.422c0,0.103 0.032,0.195 0.096,0.277c0.065,0.085 0.166,0.155 0.303,0.211c0.08,0.029 0.312,0.097 0.699,0.202c0.56,0.149 0.95,0.272 1.171,0.367c0.222,0.095 0.395,0.234 0.521,0.415c0.126,0.182 0.189,0.407 0.189,0.677c0,0.264 -0.077,0.512 -0.231,0.745c-0.153,0.233 -0.375,0.413 -0.665,0.54c-0.29,0.128 -0.619,0.192 -0.985,0.192c-0.606,0 -1.068,-0.126 -1.386,-0.378c-0.318,-0.252 -0.521,-0.626 -0.609,-1.121Z" style="fill:#fff;fill-rule:nonzero;"/><path d="M24.863,8.552c0,-1.069 0.287,-1.906 0.862,-2.511c0.574,-0.605 1.315,-0.908 2.223,-0.908c0.595,0 1.131,0.143 1.609,0.427c0.477,0.284 0.841,0.68 1.092,1.188c0.25,0.509 0.375,1.085 0.375,1.73c0,0.653 -0.131,1.237 -0.395,1.753c-0.264,0.516 -0.637,0.906 -1.121,1.171c-0.483,0.265 -1.005,0.398 -1.564,0.398c-0.607,0 -1.149,-0.147 -1.626,-0.44c-0.478,-0.292 -0.839,-0.692 -1.086,-1.199c-0.246,-0.507 -0.369,-1.043 -0.369,-1.609Zm0.879,0.014c0,0.776 0.209,1.387 0.626,1.834c0.418,0.447 0.942,0.67 1.571,0.67c0.642,0 1.17,-0.225 1.585,-0.676c0.414,-0.451 0.622,-1.092 0.622,-1.921c0,-0.524 -0.089,-0.982 -0.266,-1.373c-0.178,-0.391 -0.437,-0.694 -0.778,-0.91c-0.342,-0.215 -0.725,-0.323 -1.149,-0.323c-0.604,0 -1.123,0.208 -1.558,0.622c-0.435,0.415 -0.653,1.107 -0.653,2.077Z" style="fill:#fff;fill-rule:nonzero;"/><path d="M32.013,11.69l0,-4.667l0.712,0l0,0.708c0.182,-0.331 0.349,-0.55 0.503,-0.655c0.154,-0.106 0.323,-0.158 0.508,-0.158c0.266,0 0.537,0.085 0.813,0.254l-0.273,0.734c-0.193,-0.114 -0.386,-0.171 -0.58,-0.171c-0.173,0 -0.328,0.052 -0.466,0.156c-0.137,0.104 -0.235,0.248 -0.294,0.433c-0.088,0.281 -0.132,0.589 -0.132,0.923l0,2.443l-0.791,0Z" style="fill:#fff;fill-rule:nonzero;"/><path d="M38.047,11.69l0,-0.589c-0.296,0.463 -0.731,0.695 -1.305,0.695c-0.372,0 -0.714,-0.103 -1.026,-0.308c-0.312,-0.205 -0.554,-0.492 -0.726,-0.859c-0.171,-0.368 -0.257,-0.79 -0.257,-1.268c0,-0.466 0.078,-0.888 0.233,-1.268c0.156,-0.379 0.388,-0.67 0.699,-0.872c0.311,-0.202 0.658,-0.303 1.042,-0.303c0.281,0 0.531,0.059 0.751,0.178c0.22,0.118 0.398,0.273 0.536,0.463l0,-2.311l0.787,0l0,6.442l-0.734,0Zm-2.501,-2.329c0,0.598 0.126,1.044 0.378,1.34c0.252,0.296 0.55,0.444 0.892,0.444c0.346,0 0.64,-0.141 0.882,-0.424c0.241,-0.283 0.362,-0.714 0.362,-1.294c0,-0.639 -0.123,-1.108 -0.369,-1.406c-0.246,-0.299 -0.549,-0.449 -0.91,-0.449c-0.351,0 -0.645,0.144 -0.881,0.431c-0.236,0.287 -0.354,0.74 -0.354,1.358Z" style="fill:#fff;fill-rule:nonzero;"/><path d="M43.219,10.187l0.818,0.101c-0.129,0.478 -0.368,0.848 -0.717,1.112c-0.348,0.264 -0.794,0.396 -1.336,0.396c-0.682,0 -1.224,-0.211 -1.623,-0.631c-0.4,-0.42 -0.6,-1.01 -0.6,-1.769c0,-0.785 0.202,-1.394 0.606,-1.828c0.404,-0.434 0.929,-0.65 1.573,-0.65c0.624,0 1.134,0.212 1.53,0.637c0.395,0.425 0.593,1.022 0.593,1.793c0,0.047 -0.001,0.117 -0.004,0.211l-3.481,0c0.029,0.512 0.174,0.905 0.435,1.177c0.261,0.273 0.586,0.409 0.976,0.409c0.29,0 0.537,-0.076 0.742,-0.228c0.206,-0.153 0.368,-0.396 0.488,-0.73Zm-2.597,-1.279l2.606,0c-0.035,-0.392 -0.135,-0.687 -0.299,-0.883c-0.252,-0.305 -0.578,-0.457 -0.98,-0.457c-0.363,0 -0.668,0.122 -0.916,0.365c-0.248,0.243 -0.385,0.568 -0.411,0.975Z" style="fill:#fff;fill-rule:nonzero;"/><path d="M45.021,11.69l0,-4.667l0.712,0l0,0.708c0.182,-0.331 0.349,-0.55 0.503,-0.655c0.154,-0.106 0.323,-0.158 0.508,-0.158c0.266,0 0.537,0.085 0.813,0.254l-0.273,0.734c-0.193,-0.114 -0.387,-0.171 -0.58,-0.171c-0.173,0 -0.328,0.052 -0.466,0.156c-0.137,0.104 -0.236,0.248 -0.294,0.433c-0.088,0.281 -0.132,0.589 -0.132,0.923l0,2.443l-0.791,0Z" style="fill:#fff;fill-rule:nonzero;"/><path d="M48.093,11.69l0,-6.442l2.417,0c0.492,0 0.887,0.065 1.184,0.195c0.297,0.131 0.53,0.331 0.699,0.602c0.168,0.271 0.253,0.555 0.253,0.851c0,0.275 -0.075,0.534 -0.225,0.777c-0.149,0.244 -0.375,0.44 -0.676,0.589c0.389,0.115 0.689,0.309 0.898,0.585c0.21,0.275 0.315,0.6 0.315,0.975c0,0.302 -0.064,0.583 -0.192,0.842c-0.127,0.259 -0.285,0.459 -0.472,0.6c-0.188,0.14 -0.423,0.247 -0.705,0.318c-0.283,0.072 -0.63,0.108 -1.04,0.108l-2.456,0Zm0.852,-3.735l1.393,0c0.378,0 0.649,-0.025 0.813,-0.075c0.217,-0.064 0.38,-0.171 0.49,-0.321c0.11,-0.149 0.165,-0.337 0.165,-0.562c0,-0.214 -0.051,-0.402 -0.154,-0.565c-0.102,-0.163 -0.249,-0.274 -0.439,-0.334c-0.191,-0.06 -0.517,-0.09 -0.98,-0.09l-1.288,0l0,1.947Zm0,2.975l1.604,0c0.276,0 0.469,-0.01 0.58,-0.031c0.197,-0.035 0.361,-0.094 0.493,-0.176c0.131,-0.082 0.24,-0.201 0.325,-0.358c0.085,-0.157 0.127,-0.338 0.127,-0.543c0,-0.24 -0.061,-0.449 -0.184,-0.626c-0.123,-0.177 -0.294,-0.302 -0.512,-0.373c-0.219,-0.072 -0.533,-0.108 -0.943,-0.108l-1.49,0l0,2.215Z" style="fill:#fff;fill-rule:nonzero;"/><path d="M54.034,6.157l0,-0.909l0.791,0l0,0.909l-0.791,0Zm0,5.533l0,-4.667l0.791,0l0,4.667l-0.791,0Z" style="fill:#fff;fill-rule:nonzero;"/><rect x="56.012" y="5.248" width="0.791" height="6.442" style="fill:#fff;fill-rule:nonzero;"/><rect x="58.011" y="5.248" width="0.791" height="6.442" style="fill:#fff;fill-rule:nonzero;"/><path d="M63.223,10.187l0.818,0.101c-0.129,0.478 -0.368,0.848 -0.717,1.112c-0.348,0.264 -0.794,0.396 -1.336,0.396c-0.682,0 -1.224,-0.211 -1.623,-0.631c-0.4,-0.42 -0.6,-1.01 -0.6,-1.769c0,-0.785 0.202,-1.394 0.606,-1.828c0.404,-0.434 0.929,-0.65 1.573,-0.65c0.624,0 1.134,0.212 1.53,0.637c0.395,0.425 0.593,1.022 0.593,1.793c0,0.047 -0.002,0.117 -0.005,0.211l-3.48,0c0.029,0.512 0.174,0.905 0.435,1.177c0.261,0.273 0.586,0.409 0.976,0.409c0.29,0 0.537,-0.076 0.742,-0.228c0.205,-0.153 0.368,-0.396 0.488,-0.73Zm-2.597,-1.279l2.606,0c-0.035,-0.392 -0.135,-0.687 -0.299,-0.883c-0.252,-0.305 -0.579,-0.457 -0.98,-0.457c-0.363,0 -0.669,0.122 -0.916,0.365c-0.248,0.243 -0.385,0.568 -0.411,0.975Z" style="fill:#fff;fill-rule:nonzero;"/><path d="M68.062,11.69l0,-0.589c-0.296,0.463 -0.731,0.695 -1.306,0.695c-0.372,0 -0.714,-0.103 -1.026,-0.308c-0.312,-0.205 -0.553,-0.492 -0.725,-0.859c-0.171,-0.368 -0.257,-0.79 -0.257,-1.268c0,-0.466 0.078,-0.888 0.233,-1.268c0.155,-0.379 0.388,-0.67 0.699,-0.872c0.31,-0.202 0.657,-0.303 1.041,-0.303c0.281,0 0.532,0.059 0.752,0.178c0.219,0.118 0.398,0.273 0.536,0.463l0,-2.311l0.786,0l0,6.442l-0.733,0Zm-2.501,-2.329c0,0.598 0.126,1.044 0.378,1.34c0.252,0.296 0.549,0.444 0.892,0.444c0.346,0 0.639,-0.141 0.881,-0.424c0.242,-0.283 0.363,-0.714 0.363,-1.294c0,-0.639 -0.123,-1.108 -0.369,-1.406c-0.247,-0.299 -0.55,-0.449 -0.91,-0.449c-0.352,0 -0.645,0.144 -0.881,0.431c-0.236,0.287 -0.354,0.74 -0.354,1.358Z" style="fill:#fff;fill-rule:nonzero;"/><path d="M76.701,7.902l-4.254,0l0,-0.738l4.254,0l0,0.738Zm0,1.956l-4.254,0l0,-0.739l4.254,0l0,0.739Z" style="fill:#fff;fill-rule:nonzero;"/><path d="M82.023,10.983l0.114,0.698c-0.222,0.047 -0.422,0.071 -0.597,0.071c-0.288,0 -0.51,-0.046 -0.668,-0.137c-0.159,-0.09 -0.27,-0.21 -0.334,-0.358c-0.065,-0.148 -0.097,-0.459 -0.097,-0.934l0,-2.685l-0.58,0l0,-0.615l0.58,0l0,-1.156l0.787,-0.474l0,1.63l0.795,0l0,0.615l-0.795,0l0,2.729c0,0.226 0.013,0.371 0.041,0.435c0.028,0.065 0.074,0.116 0.137,0.154c0.063,0.038 0.153,0.057 0.27,0.057c0.088,0 0.203,-0.01 0.347,-0.03Z" style="fill:#fff;fill-rule:nonzero;"/><path d="M82.788,11.69l0,-4.667l0.712,0l0,0.708c0.181,-0.331 0.349,-0.55 0.503,-0.655c0.153,-0.106 0.323,-0.158 0.507,-0.158c0.267,0 0.538,0.085 0.813,0.254l-0.272,0.734c-0.194,-0.114 -0.387,-0.171 -0.58,-0.171c-0.173,0 -0.328,0.052 -0.466,0.156c-0.138,0.104 -0.236,0.248 -0.295,0.433c-0.087,0.281 -0.131,0.589 -0.131,0.923l0,2.443l-0.791,0Z" style="fill:#fff;fill-rule:nonzero;"/><path d="M88.852,11.69l0,-0.685c-0.363,0.527 -0.857,0.791 -1.481,0.791c-0.275,0 -0.532,-0.053 -0.771,-0.159c-0.239,-0.105 -0.416,-0.238 -0.532,-0.397c-0.116,-0.16 -0.197,-0.356 -0.244,-0.587c-0.032,-0.155 -0.048,-0.401 -0.048,-0.738l0,-2.892l0.791,0l0,2.588c0,0.414 0.016,0.692 0.048,0.835c0.05,0.208 0.156,0.372 0.317,0.49c0.161,0.119 0.36,0.178 0.597,0.178c0.238,0 0.46,-0.06 0.668,-0.182c0.208,-0.122 0.355,-0.287 0.442,-0.497c0.086,-0.209 0.13,-0.513 0.13,-0.911l0,-2.501l0.791,0l0,4.667l-0.708,0Z" style="fill:#fff;fill-rule:nonzero;"/><path d="M93.994,10.187l0.817,0.101c-0.129,0.478 -0.368,0.848 -0.716,1.112c-0.349,0.264 -0.794,0.396 -1.336,0.396c-0.683,0 -1.224,-0.211 -1.624,-0.631c-0.4,-0.42 -0.6,-1.01 -0.6,-1.769c0,-0.785 0.202,-1.394 0.607,-1.828c0.404,-0.434 0.928,-0.65 1.573,-0.65c0.624,0 1.134,0.212 1.529,0.637c0.396,0.425 0.593,1.022 0.593,1.793c0,0.047 -0.001,0.117 -0.004,0.211l-3.48,0c0.029,0.512 0.174,0.905 0.435,1.177c0.26,0.273 0.586,0.409 0.975,0.409c0.29,0 0.538,-0.076 0.743,-0.228c0.205,-0.153 0.368,-0.396 0.488,-0.73Zm-2.598,-1.279l2.606,0c-0.035,-0.392 -0.134,-0.687 -0.298,-0.883c-0.252,-0.305 -0.579,-0.457 -0.98,-0.457c-0.364,0 -0.669,0.122 -0.917,0.365c-0.247,0.243 -0.384,0.568 -0.411,0.975Z" style="fill:#fff;fill-rule:nonzero;"/></g><path d="M7.483,7.313l0,-7.313l-2.656,0l0,7.313l-1.469,0l2.735,4.687l2.75,-4.687l-1.36,0Z" style="fill:#3a3a3a;fill-rule:nonzero;"/></g></svg>