<?xml version="1.0" encoding="UTF-8" standalone="no"?><!DOCTYPE svg PUBLIC "-//W3C//DTD SVG 1.1//EN" "http://www.w3.org/Graphics/SVG/1.1/DTD/svg11.dtd"><svg width="100%" height="100%" viewBox="0 0 104 18" version="1.1" xmlns="http://www.w3.org/2000/svg" xmlns:xlink="http://www.w3.org/1999/xlink" xml:space="preserve" xmlns:serif="http://www.serif.com/" style="fill-rule:evenodd;clip-rule:evenodd;stroke-linejoin:round;stroke-miterlimit:1.41421;"><g id="WasPlaced-false"><g><rect x="18.267" y="6.078" width="0.853" height="6.442" style="fill:#fff;fill-rule:nonzero;"/><path d="M20.205,11.127l0.782,-0.123c0.044,0.314 0.167,0.554 0.367,0.721c0.201,0.167 0.481,0.251 0.842,0.251c0.363,0 0.633,-0.074 0.808,-0.222c0.176,-0.148 0.264,-0.322 0.264,-0.521c0,-0.179 -0.078,-0.319 -0.233,-0.422c-0.108,-0.07 -0.378,-0.16 -0.808,-0.268c-0.581,-0.147 -0.983,-0.273 -1.207,-0.38c-0.224,-0.107 -0.394,-0.255 -0.51,-0.444c-0.115,-0.189 -0.173,-0.398 -0.173,-0.626c0,-0.208 0.048,-0.401 0.143,-0.578c0.095,-0.177 0.225,-0.325 0.389,-0.442c0.123,-0.091 0.29,-0.167 0.503,-0.23c0.212,-0.063 0.44,-0.095 0.683,-0.095c0.366,0 0.688,0.053 0.965,0.158c0.277,0.106 0.481,0.249 0.613,0.429c0.132,0.18 0.222,0.421 0.272,0.723l-0.773,0.105c-0.035,-0.24 -0.137,-0.428 -0.306,-0.562c-0.168,-0.135 -0.406,-0.203 -0.714,-0.203c-0.363,0 -0.622,0.06 -0.778,0.181c-0.155,0.12 -0.232,0.26 -0.232,0.421c0,0.103 0.032,0.195 0.096,0.277c0.065,0.085 0.166,0.156 0.303,0.211c0.08,0.03 0.312,0.097 0.699,0.202c0.56,0.15 0.95,0.272 1.171,0.367c0.222,0.096 0.395,0.234 0.521,0.416c0.126,0.181 0.189,0.407 0.189,0.676c0,0.264 -0.077,0.512 -0.231,0.745c-0.153,0.233 -0.375,0.413 -0.665,0.541c-0.29,0.127 -0.619,0.191 -0.985,0.191c-0.606,0 -1.068,-0.126 -1.386,-0.378c-0.318,-0.252 -0.521,-0.625 -0.609,-1.121Z" style="fill:#fff;fill-rule:nonzero;"/><path d="M24.863,9.383c0,-1.07 0.287,-1.907 0.862,-2.512c0.574,-0.605 1.315,-0.907 2.223,-0.907c0.595,0 1.131,0.142 1.609,0.426c0.477,0.284 0.841,0.681 1.092,1.189c0.25,0.508 0.375,1.085 0.375,1.729c0,0.653 -0.131,1.238 -0.395,1.754c-0.264,0.515 -0.637,0.906 -1.121,1.171c-0.483,0.265 -1.005,0.397 -1.564,0.397c-0.607,0 -1.149,-0.146 -1.626,-0.439c-0.478,-0.293 -0.839,-0.693 -1.086,-1.2c-0.246,-0.507 -0.369,-1.043 -0.369,-1.608Zm0.879,0.013c0,0.776 0.209,1.388 0.626,1.835c0.418,0.446 0.942,0.67 1.571,0.67c0.642,0 1.17,-0.226 1.585,-0.677c0.414,-0.451 0.622,-1.091 0.622,-1.92c0,-0.525 -0.089,-0.982 -0.266,-1.374c-0.178,-0.391 -0.437,-0.694 -0.778,-0.909c-0.342,-0.216 -0.725,-0.323 -1.149,-0.323c-0.604,0 -1.123,0.207 -1.558,0.622c-0.435,0.414 -0.653,1.106 -0.653,2.076Z" style="fill:#fff;fill-rule:nonzero;"/><path d="M32.013,12.521l0,-4.667l0.712,0l0,0.707c0.182,-0.331 0.349,-0.549 0.503,-0.655c0.154,-0.105 0.323,-0.158 0.508,-0.158c0.266,0 0.537,0.085 0.813,0.255l-0.273,0.734c-0.193,-0.114 -0.386,-0.172 -0.58,-0.172c-0.173,0 -0.328,0.052 -0.466,0.156c-0.137,0.104 -0.235,0.249 -0.294,0.433c-0.088,0.282 -0.132,0.589 -0.132,0.923l0,2.444l-0.791,0Z" style="fill:#fff;fill-rule:nonzero;"/><path d="M38.047,12.521l0,-0.589c-0.296,0.463 -0.731,0.694 -1.305,0.694c-0.372,0 -0.714,-0.103 -1.026,-0.308c-0.312,-0.205 -0.554,-0.491 -0.726,-0.859c-0.171,-0.367 -0.257,-0.79 -0.257,-1.268c0,-0.465 0.078,-0.888 0.233,-1.267c0.156,-0.38 0.388,-0.671 0.699,-0.873c0.311,-0.202 0.658,-0.303 1.042,-0.303c0.281,0 0.531,0.059 0.751,0.178c0.22,0.119 0.398,0.273 0.536,0.464l0,-2.312l0.787,0l0,6.443l-0.734,0Zm-2.501,-2.33c0,0.598 0.126,1.045 0.378,1.341c0.252,0.296 0.55,0.444 0.892,0.444c0.346,0 0.64,-0.142 0.882,-0.424c0.241,-0.283 0.362,-0.715 0.362,-1.295c0,-0.638 -0.123,-1.107 -0.369,-1.406c-0.246,-0.299 -0.549,-0.448 -0.91,-0.448c-0.351,0 -0.645,0.143 -0.881,0.43c-0.236,0.288 -0.354,0.74 -0.354,1.358Z" style="fill:#fff;fill-rule:nonzero;"/><path d="M43.219,11.018l0.818,0.101c-0.129,0.477 -0.368,0.848 -0.717,1.111c-0.348,0.264 -0.794,0.396 -1.336,0.396c-0.682,0 -1.224,-0.21 -1.623,-0.631c-0.4,-0.42 -0.6,-1.01 -0.6,-1.768c0,-0.786 0.202,-1.395 0.606,-1.829c0.404,-0.433 0.929,-0.65 1.573,-0.65c0.624,0 1.134,0.212 1.53,0.637c0.395,0.425 0.593,1.023 0.593,1.793c0,0.047 -0.001,0.117 -0.004,0.211l-3.481,0c0.029,0.513 0.174,0.905 0.435,1.178c0.261,0.272 0.586,0.409 0.976,0.409c0.29,0 0.537,-0.077 0.742,-0.229c0.206,-0.152 0.368,-0.395 0.488,-0.729Zm-2.597,-1.279l2.606,0c-0.035,-0.393 -0.135,-0.687 -0.299,-0.884c-0.252,-0.304 -0.578,-0.457 -0.98,-0.457c-0.363,0 -0.668,0.122 -0.916,0.365c-0.248,0.243 -0.385,0.569 -0.411,0.976Z" style="fill:#fff;fill-rule:nonzero;"/><path d="M45.021,12.521l0,-4.667l0.712,0l0,0.707c0.182,-0.331 0.349,-0.549 0.503,-0.655c0.154,-0.105 0.323,-0.158 0.508,-0.158c0.266,0 0.537,0.085 0.813,0.255l-0.273,0.734c-0.193,-0.114 -0.387,-0.172 -0.58,-0.172c-0.173,0 -0.328,0.052 -0.466,0.156c-0.137,0.104 -0.236,0.249 -0.294,0.433c-0.088,0.282 -0.132,0.589 -0.132,0.923l0,2.444l-0.791,0Z" style="fill:#fff;fill-rule:nonzero;"/><path d="M48.128,12.521l0,-6.443l2.43,0c0.428,0 0.754,0.021 0.98,0.062c0.316,0.052 0.582,0.153 0.795,0.301c0.214,0.148 0.386,0.355 0.517,0.622c0.13,0.266 0.195,0.559 0.195,0.878c0,0.548 -0.174,1.012 -0.523,1.391c-0.348,0.38 -0.978,0.569 -1.889,0.569l-1.653,0l0,2.62l-0.852,0Zm0.852,-3.38l1.666,0c0.551,0 0.942,-0.102 1.173,-0.308c0.232,-0.205 0.348,-0.493 0.348,-0.865c0,-0.27 -0.069,-0.5 -0.205,-0.692c-0.136,-0.192 -0.316,-0.319 -0.538,-0.38c-0.144,-0.039 -0.409,-0.058 -0.796,-0.058l-1.648,0l0,2.303Z" style="fill:#fff;fill-rule:nonzero;"/><rect x="54.012" y="6.078" width="0.791" height="6.442" style="fill:#fff;fill-rule:nonzero;"/><path d="M59.075,11.945c-0.293,0.249 -0.575,0.425 -0.846,0.527c-0.271,0.103 -0.562,0.154 -0.873,0.154c-0.512,0 -0.906,-0.125 -1.182,-0.376c-0.275,-0.25 -0.413,-0.57 -0.413,-0.96c0,-0.228 0.052,-0.437 0.156,-0.626c0.104,-0.189 0.24,-0.341 0.409,-0.455c0.168,-0.114 0.358,-0.201 0.569,-0.259c0.155,-0.041 0.39,-0.081 0.703,-0.119c0.639,-0.076 1.109,-0.167 1.411,-0.272c0.003,-0.109 0.004,-0.178 0.004,-0.207c0,-0.322 -0.075,-0.549 -0.224,-0.681c-0.202,-0.179 -0.502,-0.268 -0.901,-0.268c-0.372,0 -0.647,0.065 -0.824,0.195c-0.177,0.131 -0.308,0.361 -0.393,0.693l-0.774,-0.106c0.071,-0.331 0.186,-0.598 0.348,-0.802c0.161,-0.204 0.394,-0.36 0.698,-0.47c0.305,-0.11 0.658,-0.165 1.059,-0.165c0.399,0 0.723,0.047 0.972,0.141c0.249,0.093 0.432,0.211 0.549,0.353c0.117,0.143 0.199,0.322 0.246,0.539c0.026,0.135 0.04,0.378 0.04,0.729l0,1.055c0,0.735 0.016,1.2 0.05,1.395c0.034,0.195 0.1,0.382 0.2,0.561l-0.826,0c-0.082,-0.165 -0.135,-0.356 -0.158,-0.576Zm-0.066,-1.767c-0.287,0.117 -0.718,0.217 -1.292,0.299c-0.325,0.047 -0.555,0.1 -0.69,0.158c-0.135,0.059 -0.239,0.145 -0.312,0.257c-0.073,0.113 -0.11,0.238 -0.11,0.376c0,0.211 0.08,0.387 0.239,0.527c0.16,0.141 0.394,0.211 0.701,0.211c0.305,0 0.576,-0.066 0.813,-0.2c0.238,-0.133 0.412,-0.315 0.523,-0.547c0.085,-0.178 0.128,-0.442 0.128,-0.791l0,-0.29Z" style="fill:#fff;fill-rule:nonzero;"/><path d="M64.08,10.811l0.778,0.101c-0.085,0.536 -0.303,0.956 -0.653,1.259c-0.35,0.303 -0.78,0.455 -1.289,0.455c-0.639,0 -1.153,-0.209 -1.541,-0.626c-0.388,-0.418 -0.582,-1.016 -0.582,-1.795c0,-0.504 0.083,-0.945 0.25,-1.323c0.167,-0.378 0.422,-0.662 0.763,-0.851c0.341,-0.188 0.713,-0.283 1.114,-0.283c0.507,0 0.921,0.128 1.244,0.385c0.322,0.256 0.528,0.62 0.619,1.092l-0.769,0.118c-0.073,-0.313 -0.203,-0.549 -0.389,-0.707c-0.186,-0.158 -0.411,-0.238 -0.674,-0.238c-0.399,0 -0.722,0.143 -0.972,0.429c-0.249,0.286 -0.373,0.737 -0.373,1.356c0,0.627 0.12,1.082 0.36,1.366c0.241,0.284 0.554,0.427 0.941,0.427c0.31,0 0.57,-0.096 0.778,-0.286c0.208,-0.19 0.339,-0.483 0.395,-0.879Z" style="fill:#fff;fill-rule:nonzero;"/><path d="M68.729,11.018l0.818,0.101c-0.129,0.477 -0.368,0.848 -0.716,1.111c-0.349,0.264 -0.794,0.396 -1.336,0.396c-0.683,0 -1.224,-0.21 -1.624,-0.631c-0.4,-0.42 -0.6,-1.01 -0.6,-1.768c0,-0.786 0.202,-1.395 0.606,-1.829c0.405,-0.433 0.929,-0.65 1.574,-0.65c0.624,0 1.133,0.212 1.529,0.637c0.395,0.425 0.593,1.023 0.593,1.793c0,0.047 -0.001,0.117 -0.004,0.211l-3.481,0c0.03,0.513 0.175,0.905 0.435,1.178c0.261,0.272 0.586,0.409 0.976,0.409c0.29,0 0.538,-0.077 0.743,-0.229c0.205,-0.152 0.367,-0.395 0.487,-0.729Zm-2.597,-1.279l2.606,0c-0.035,-0.393 -0.134,-0.687 -0.299,-0.884c-0.252,-0.304 -0.578,-0.457 -0.98,-0.457c-0.363,0 -0.668,0.122 -0.916,0.365c-0.247,0.243 -0.384,0.569 -0.411,0.976Z" style="fill:#fff;fill-rule:nonzero;"/><path d="M73.568,12.521l0,-0.589c-0.296,0.463 -0.731,0.694 -1.305,0.694c-0.372,0 -0.714,-0.103 -1.026,-0.308c-0.312,-0.205 -0.554,-0.491 -0.726,-0.859c-0.171,-0.367 -0.257,-0.79 -0.257,-1.268c0,-0.465 0.078,-0.888 0.233,-1.267c0.156,-0.38 0.388,-0.671 0.699,-0.873c0.311,-0.202 0.658,-0.303 1.042,-0.303c0.281,0 0.531,0.059 0.751,0.178c0.22,0.119 0.398,0.273 0.536,0.464l0,-2.312l0.787,0l0,6.443l-0.734,0Zm-2.501,-2.33c0,0.598 0.126,1.045 0.378,1.341c0.252,0.296 0.55,0.444 0.892,0.444c0.346,0 0.64,-0.142 0.882,-0.424c0.241,-0.283 0.362,-0.715 0.362,-1.295c0,-0.638 -0.123,-1.107 -0.369,-1.406c-0.246,-0.299 -0.549,-0.448 -0.91,-0.448c-0.351,0 -0.645,0.143 -0.881,0.43c-0.236,0.288 -0.354,0.74 -0.354,1.358Z" style="fill:#fff;fill-rule:nonzero;"/><path d="M82.208,8.732l-4.254,0l0,-0.738l4.254,0l0,0.738Zm0,1.956l-4.254,0l0,-0.738l4.254,0l0,0.738Z" style="fill:#fff;fill-rule:nonzero;"/><path d="M85.991,12.521l0,-4.052l-0.699,0l0,-0.615l0.699,0l0,-0.497c0,-0.314 0.028,-0.546 0.084,-0.699c0.076,-0.205 0.21,-0.371 0.402,-0.499c0.192,-0.127 0.46,-0.191 0.806,-0.191c0.223,0 0.469,0.027 0.738,0.079l-0.118,0.69c-0.164,-0.029 -0.32,-0.044 -0.466,-0.044c-0.24,0 -0.41,0.052 -0.51,0.154c-0.099,0.103 -0.149,0.295 -0.149,0.576l0,0.431l0.909,0l0,0.615l-0.909,0l0,4.052l-0.787,0Z" style="fill:#fff;fill-rule:nonzero;"/><path d="M91.348,11.945c-0.293,0.249 -0.575,0.425 -0.846,0.527c-0.271,0.103 -0.562,0.154 -0.872,0.154c-0.513,0 -0.907,-0.125 -1.182,-0.376c-0.276,-0.25 -0.413,-0.57 -0.413,-0.96c0,-0.228 0.052,-0.437 0.156,-0.626c0.104,-0.189 0.24,-0.341 0.408,-0.455c0.169,-0.114 0.359,-0.201 0.569,-0.259c0.156,-0.041 0.39,-0.081 0.704,-0.119c0.638,-0.076 1.108,-0.167 1.41,-0.272c0.003,-0.109 0.005,-0.178 0.005,-0.207c0,-0.322 -0.075,-0.549 -0.225,-0.681c-0.202,-0.179 -0.502,-0.268 -0.9,-0.268c-0.372,0 -0.647,0.065 -0.824,0.195c-0.178,0.131 -0.309,0.361 -0.394,0.693l-0.773,-0.106c0.07,-0.331 0.186,-0.598 0.347,-0.802c0.161,-0.204 0.394,-0.36 0.699,-0.47c0.304,-0.11 0.658,-0.165 1.059,-0.165c0.398,0 0.722,0.047 0.971,0.141c0.249,0.093 0.432,0.211 0.549,0.353c0.118,0.143 0.2,0.322 0.246,0.539c0.027,0.135 0.04,0.378 0.04,0.729l0,1.055c0,0.735 0.017,1.2 0.051,1.395c0.033,0.195 0.1,0.382 0.2,0.561l-0.827,0c-0.082,-0.165 -0.134,-0.356 -0.158,-0.576Zm-0.066,-1.767c-0.287,0.117 -0.718,0.217 -1.292,0.299c-0.325,0.047 -0.555,0.1 -0.69,0.158c-0.134,0.059 -0.238,0.145 -0.312,0.257c-0.073,0.113 -0.11,0.238 -0.11,0.376c0,0.211 0.08,0.387 0.24,0.527c0.16,0.141 0.393,0.211 0.701,0.211c0.305,0 0.576,-0.066 0.813,-0.2c0.237,-0.133 0.411,-0.315 0.523,-0.547c0.085,-0.178 0.127,-0.442 0.127,-0.791l0,-0.29Z" style="fill:#fff;fill-rule:nonzero;"/><rect x="93.291" y="6.078" width="0.791" height="6.442" style="fill:#fff;fill-rule:nonzero;"/><path d="M94.991,11.127l0.782,-0.123c0.044,0.314 0.167,0.554 0.367,0.721c0.201,0.167 0.482,0.251 0.842,0.251c0.363,0 0.633,-0.074 0.809,-0.222c0.175,-0.148 0.263,-0.322 0.263,-0.521c0,-0.179 -0.077,-0.319 -0.233,-0.422c-0.108,-0.07 -0.378,-0.16 -0.808,-0.268c-0.58,-0.147 -0.982,-0.273 -1.207,-0.38c-0.224,-0.107 -0.394,-0.255 -0.509,-0.444c-0.116,-0.189 -0.174,-0.398 -0.174,-0.626c0,-0.208 0.048,-0.401 0.143,-0.578c0.095,-0.177 0.225,-0.325 0.389,-0.442c0.123,-0.091 0.291,-0.167 0.503,-0.23c0.212,-0.063 0.44,-0.095 0.683,-0.095c0.367,0 0.688,0.053 0.965,0.158c0.277,0.106 0.481,0.249 0.613,0.429c0.132,0.18 0.223,0.421 0.272,0.723l-0.773,0.105c-0.035,-0.24 -0.137,-0.428 -0.305,-0.562c-0.169,-0.135 -0.407,-0.203 -0.715,-0.203c-0.363,0 -0.622,0.06 -0.777,0.181c-0.156,0.12 -0.233,0.26 -0.233,0.421c0,0.103 0.032,0.195 0.096,0.277c0.065,0.085 0.166,0.156 0.304,0.211c0.079,0.03 0.312,0.097 0.698,0.202c0.56,0.15 0.95,0.272 1.171,0.367c0.222,0.096 0.395,0.234 0.521,0.416c0.126,0.181 0.189,0.407 0.189,0.676c0,0.264 -0.077,0.512 -0.231,0.745c-0.153,0.233 -0.375,0.413 -0.665,0.541c-0.29,0.127 -0.618,0.191 -0.985,0.191c-0.606,0 -1.068,-0.126 -1.386,-0.378c-0.318,-0.252 -0.521,-0.625 -0.609,-1.121Z" style="fill:#fff;fill-rule:nonzero;"/><path d="M103.002,11.018l0.818,0.101c-0.129,0.477 -0.368,0.848 -0.716,1.111c-0.349,0.264 -0.794,0.396 -1.336,0.396c-0.683,0 -1.224,-0.21 -1.624,-0.631c-0.4,-0.42 -0.6,-1.01 -0.6,-1.768c0,-0.786 0.202,-1.395 0.606,-1.829c0.405,-0.433 0.929,-0.65 1.574,-0.65c0.624,0 1.133,0.212 1.529,0.637c0.395,0.425 0.593,1.023 0.593,1.793c0,0.047 -0.001,0.117 -0.004,0.211l-3.481,0c0.03,0.513 0.175,0.905 0.435,1.178c0.261,0.272 0.586,0.409 0.976,0.409c0.29,0 0.538,-0.077 0.743,-0.229c0.205,-0.152 0.367,-0.395 0.487,-0.729Zm-2.597,-1.279l2.606,0c-0.035,-0.393 -0.135,-0.687 -0.299,-0.884c-0.252,-0.304 -0.578,-0.457 -0.98,-0.457c-0.363,0 -0.668,0.122 -0.916,0.365c-0.247,0.243 -0.384,0.569 -0.411,0.976Z" style="fill:#fff;fill-rule:nonzero;"/></g><path id="db" d="M11.744,15.718l-0.001,0c-0.065,0.807 -2.566,1.452 -5.643,1.452c-3.082,0 -5.587,-0.648 -5.642,-1.452l-0.001,0l0,-12.033l0.007,0.004l0.039,0.023l0.02,0.011l0.02,0.012l0.019,0.011l0.02,0.012l0.02,0.01l0.021,0.011l0.02,0.011l0.02,0.011l0.021,0.01l0.02,0.01l0.021,0.011l0.021,0.01l0.042,0.02l0.021,0.01l0.021,0.01l0.022,0.009l0.021,0.01l0.022,0.01l0.021,0.009l0.022,0.01l0.022,0.009l0.022,0.009l0.022,0.01l0.023,0.009l0.022,0.009l0.023,0.009l0.022,0.009l0.023,0.009l0.023,0.009l0.023,0.008l0.023,0.009l0.023,0.008l0.024,0.009l0.023,0.009l0.023,0.008l0.048,0.017l0.024,0.007l0.048,0.017l0.025,0.008l0.024,0.008l0.024,0.007l0.025,0.009l0.049,0.015l0.026,0.008l0.024,0.007l0.051,0.016l0.026,0.007l0.026,0.008l0.05,0.014l0.079,0.022l0.027,0.007l0.026,0.007l0.027,0.007l0.026,0.007l0.026,0.007l0.028,0.006l0.027,0.007l0.027,0.007l0.027,0.007l0.11,0.026l0.028,0.006l0.029,0.007l0.027,0.006l0.056,0.012l0.029,0.007l0.058,0.012l0.028,0.006l0.087,0.018l0.029,0.006l0.029,0.005l0.03,0.006l0.029,0.005l0.03,0.006l0.03,0.006l0.03,0.005l0.03,0.005l0.029,0.006l0.031,0.006l0.03,0.005l0.03,0.005l0.031,0.005l0.031,0.006l0.03,0.004l0.031,0.006l0.062,0.009l0.031,0.006l0.032,0.005l0.062,0.009l0.032,0.004l0.095,0.015l0.032,0.004l0.032,0.005l0.032,0.004l0.032,0.004l0.13,0.017l0.033,0.004l0.033,0.004l0.033,0.004l0.066,0.008l0.033,0.004l0.033,0.003l0.034,0.004l0.033,0.004l0.034,0.004l0.033,0.003l0.102,0.01l0.034,0.003l0.034,0.004l0.034,0.003l0.034,0.003l0.035,0.003l0.138,0.012l0.035,0.003l0.034,0.003l0.035,0.002l0.036,0.003l0.034,0.003l0.035,0.003l0.071,0.004l0.036,0.003l0.035,0.002l0.036,0.002l0.072,0.005l0.035,0.001l0.036,0.003l0.108,0.005l0.036,0.002l0.072,0.004l0.037,0.001l0.037,0.002l0.036,0.001l0.036,0.002l0.037,0.001l0.073,0.003l0.038,0.001l0.073,0.002l0.038,0.002l0.037,0l0.037,0.001l0.074,0.002l0.038,0.001l0.075,0.001l0.037,0l0.038,0l0.075,0.002l0.038,0l0.038,0l0.227,0l0.038,0l0.038,0l0.038,-0.001l0.037,-0.001l0.038,0l0.038,0l0.037,-0.001l0.037,0l0.038,-0.001l0.037,-0.001l0.037,-0.001l0.038,-0.001l0.037,0l0.037,-0.002l0.037,-0.001l0.036,-0.001l0.038,-0.001l0.036,-0.001l0.037,-0.002l0.037,-0.001l0.036,-0.002l0.036,-0.001l0.037,-0.002l0.037,-0.001l0.072,-0.004l0.036,-0.002l0.036,-0.002l0.072,-0.003l0.036,-0.003l0.036,-0.001l0.072,-0.005l0.035,-0.002l0.035,-0.002l0.036,-0.003l0.071,-0.004l0.035,-0.003l0.034,-0.003l0.036,-0.003l0.035,-0.002l0.035,-0.003l0.034,-0.003l0.035,-0.003l0.034,-0.003l0.035,-0.003l0.034,-0.003l0.035,-0.003l0.034,-0.003l0.034,-0.003l0.034,-0.004l0.034,-0.003l0.034,-0.003l0.034,-0.004l0.034,-0.003l0.034,-0.003l0.033,-0.004l0.034,-0.004l0.033,-0.004l0.034,-0.003l0.033,-0.004l0.032,-0.004l0.033,-0.004l0.033,-0.004l0.033,-0.004l0.033,-0.004l0.097,-0.013l0.033,-0.004l0.032,-0.004l0.032,-0.004l0.033,-0.005l0.031,-0.004l0.064,-0.01l0.031,-0.005l0.032,-0.004l0.062,-0.009l0.032,-0.005l0.031,-0.006l0.062,-0.009l0.031,-0.006l0.031,-0.004l0.03,-0.006l0.031,-0.005l0.03,-0.005l0.031,-0.005l0.029,-0.006l0.031,-0.006l0.029,-0.005l0.031,-0.005l0.029,-0.006l0.03,-0.006l0.029,-0.005l0.03,-0.006l0.029,-0.005l0.03,-0.006l0.057,-0.012l0.029,-0.006l0.029,-0.006l0.028,-0.006l0.029,-0.006l0.029,-0.007l0.028,-0.006l0.028,-0.006l0.028,-0.006l0.028,-0.007l0.028,-0.006l0.028,-0.007l0.027,-0.006l0.055,-0.013l0.028,-0.007l0.026,-0.007l0.027,-0.007l0.028,-0.006l0.026,-0.007l0.027,-0.007l0.026,-0.007l0.026,-0.007l0.027,-0.007l0.026,-0.008l0.026,-0.007l0.027,-0.007l0.025,-0.007l0.026,-0.007l0.025,-0.008l0.026,-0.007l0.025,-0.008l0.026,-0.008l0.024,-0.007l0.026,-0.008l0.024,-0.007l0.025,-0.008l0.025,-0.009l0.025,-0.007l0.024,-0.008l0.024,-0.008l0.024,-0.008l0.024,-0.009l0.024,-0.007l0.048,-0.017l0.023,-0.008l0.024,-0.009l0.023,-0.009l0.023,-0.008l0.024,-0.009l0.023,-0.008l0.022,-0.009l0.023,-0.009l0.023,-0.009l0.022,-0.009l0.023,-0.009l0.022,-0.009l0.022,-0.01l0.022,-0.009l0.022,-0.009l0.022,-0.01l0.022,-0.009l0.021,-0.01l0.022,-0.01l0.021,-0.009l0.021,-0.01l0.021,-0.01l0.042,-0.02l0.021,-0.01l0.021,-0.011l0.02,-0.01l0.021,-0.01l0.02,-0.011l0.02,-0.011l0.021,-0.011l0.02,-0.01l0.02,-0.012l0.02,-0.011l0.019,-0.012l0.02,-0.011l0.019,-0.011l0.02,-0.012l0.007,-0.004l0,12.033Zm-5.643,-14.888c3.116,0 5.643,0.669 5.643,1.494c0,0.826 -2.527,1.494 -5.643,1.494c-3.117,0 -5.644,-0.668 -5.644,-1.494c0,-0.825 2.527,-1.494 5.644,-1.494Z" style="fill:#fff;"/></g></svg>