<svg xmlns="http://www.w3.org/2000/svg" xmlns:xlink="http://www.w3.org/1999/xlink" width="1320" height="736.33"><g transform="translate(-220 -312.5)"><path d="M384 528c8.84 0 16 26.86 16 60s-7.16 60-16 60H256c-8.84 0-16-26.86-16-60s7.16-60 16-60z" stroke="#000" stroke-width="2" fill="#fff"/><path d="M384 648c-8.84 0-16-26.86-16-60s7.16-60 16-60" stroke="#000" stroke-width="2" fill="none"/><use xlink:href="#a" transform="matrix(1,0,0,1,245,533) translate(20.9 58.6)"/><path d="M680 1028.83v-696h64v696z" stroke="#000" stroke-width="2" fill="#99d2f2"/><use xlink:href="#b" transform="matrix(6.123233995736766e-17,-1,1,6.123233995736766e-17,685,1023.8333333333335) translate(255.8 30.6)"/><use xlink:href="#c" transform="matrix(6.123233995736766e-17,-1,1,6.123233995736766e-17,685,1023.8333333333335) translate(337 30.6)"/><path d="M760 332.5h450.67v64H760z" stroke="#000" stroke-width="2" fill="#99d2f2"/><use xlink:href="#d" transform="matrix(1,0,0,1,765,337.5) translate(0 30.6)"/><use xlink:href="#e" transform="matrix(1,0,0,1,765,337.5) translate(69.9 30.6)"/><use xlink:href="#f" transform="matrix(1,0,0,1,765,337.5) translate(147.8 30.6)"/><path d="M760.33 407.5H1211v64H760.33z" stroke="#000" stroke-width="2" fill="#fff"/><use xlink:href="#g" transform="matrix(1,0,0,1,765.3333333333335,412.5) translate(0 30.6)"/><use xlink:href="#h" transform="matrix(1,0,0,1,765.3333333333335,412.5) translate(60.95 30.6)"/><use xlink:href="#i" transform="matrix(1,0,0,1,765.3333333333335,412.5) translate(127.8 30.6)"/><path d="M760 802.5v-320h64v320z" stroke="#000" stroke-width="2" fill="#f5b5c8"/><use xlink:href="#j" transform="matrix(6.123233995736766e-17,-1,1,6.123233995736766e-17,765,797.5) translate(76.9 30.6)"/><use xlink:href="#c" transform="matrix(6.123233995736766e-17,-1,1,6.123233995736766e-17,765,797.5) translate(139.9 30.6)"/><path d="M840 482.5h371v185H840z" stroke="#000" stroke-width="2" fill="#f5b5c8"/><use xlink:href="#k" transform="matrix(1,0,0,1,845,487.5) translate(0 26.300000000000004)"/><use xlink:href="#l" transform="matrix(1,0,0,1,845,487.5) translate(15 26.300000000000004)"/><use xlink:href="#m" transform="matrix(1,0,0,1,845,487.5) translate(85 26.300000000000004)"/><use xlink:href="#n" transform="matrix(1,0,0,1,845,487.5) translate(0 47.900000000000006)"/><use xlink:href="#o" transform="matrix(1,0,0,1,845,487.5) translate(0 69.50000000000001)"/><use xlink:href="#p" transform="matrix(1,0,0,1,845,487.5) translate(47 69.50000000000001)"/><use xlink:href="#n" transform="matrix(1,0,0,1,845,487.5) translate(0 91.10000000000002)"/><use xlink:href="#q" transform="matrix(1,0,0,1,845,487.5) translate(0 112.70000000000002)"/><use xlink:href="#n" transform="matrix(1,0,0,1,845,487.5) translate(0 134.3)"/><use xlink:href="#r" transform="matrix(1,0,0,1,845,487.5) translate(0 155.9)"/><use xlink:href="#s" transform="matrix(1,0,0,1,845,487.5) translate(63.900000000000006 155.9)"/><path d="M840 678.5h371V735H840z" stroke="#000" stroke-width="2" fill="#f5b5c8"/><use xlink:href="#t" transform="matrix(1,0,0,1,845,683.5) translate(0 27.1)"/><use xlink:href="#u" transform="matrix(1,0,0,1,845,683.5) translate(47.95 27.1)"/><use xlink:href="#v" transform="matrix(1,0,0,1,845,683.5) translate(130.85000000000002 27.1)"/><path d="M840 746h371v56.5H840z" stroke="#000" stroke-width="2" fill="#f5b5c8"/><use xlink:href="#w" transform="matrix(1,0,0,1,845,751) translate(0 27.1)"/><use xlink:href="#x" transform="matrix(1,0,0,1,845,751) translate(66.80000000000001 27.1)"/><use xlink:href="#c" transform="matrix(1,0,0,1,845,751) translate(129.8 27.1)"/><path d="M760.67 813.5h450.66v64H760.67z" stroke="#000" stroke-width="2" fill="#fff"/><use xlink:href="#y" transform="matrix(1,0,0,1,765.6666666666667,818.5) translate(0 30.6)"/><path d="M761 888.5h450.67v64H761z" stroke="#000" stroke-width="2" fill="#fff"/><use xlink:href="#z" transform="matrix(1,0,0,1,766,893.5) translate(0 30.6)"/><use xlink:href="#A" transform="matrix(1,0,0,1,766,893.5) translate(44.900000000000006 30.6)"/><use xlink:href="#B" transform="matrix(1,0,0,1,766,893.5) translate(68.9 30.6)"/><path d="M761.33 963.5H1212v64H761.33z" stroke="#000" stroke-width="2" fill="#99d2f2"/><use xlink:href="#w" transform="matrix(1,0,0,1,766.3333333333335,968.5) translate(0 30.6)"/><use xlink:href="#C" transform="matrix(1,0,0,1,766.3333333333335,968.5) translate(66.80000000000001 30.6)"/><use xlink:href="#c" transform="matrix(1,0,0,1,766.3333333333335,968.5) translate(148 30.6)"/><path d="M1520 635.5c0 6.63-26.86 12-60 12s-60-5.37-60-12v-96c0-6.63 26.86-12 60-12s60 5.37 60 12z" stroke="#000" stroke-width="2" fill="#fff"/><path d="M1520 539.5c0 6.63-26.86 12-60 12s-60-5.37-60-12" stroke="#000" stroke-width="2" fill="none"/><use xlink:href="#D" transform="matrix(1,0,0,1,1405,556.5) translate(23.525 46.6)"/><path d="M1211 439.5h249v88" stroke="#000" stroke-width="2" fill="none"/><path d="M1460 527.5l-4.64-14.27h9.28z"/><path d="M1461.04 527.54l-1.04-.04-1.04.04-4.97-15.3h12zm-4.3-13.3l3.26 10.02 3.26-10.03z"/><path d="M1004.44 595.78h197.28v-.06H1399M1004.44 595.78h-3" stroke="#000" stroke-width="2" fill="none"/><path d="M1399 595.72l-14.27 4.64v-9.27z"/><path d="M1400 595v1.45l-16.27 5.28V589.7zm-14.27 3.98l10.03-3.26-10.03-3.26z"/><path d="M1211 706.75h216.43v-60.32" stroke="#000" stroke-width="2" fill="none"/><path d="M1432.07 660.7h-9.27l4.63-14.27z"/><path d="M1428.2 645.52l5.24 16.18h-12.02l5.3-16.36zm-4.03 14.18h6.52l-3.27-10.03z"/><path d="M1211.67 920.5H1460v-273" stroke="#000" stroke-width="2" fill="none"/><path d="M1464.64 661.77h-9.28l4.64-14.27z"/><path d="M1460 647.5l1.04-.04 4.97 15.3h-12l4.96-15.3zm-3.26 13.27h6.52l-3.26-10.03z"/><path d="M760.67 845.5H320V648" stroke="#000" stroke-width="2" fill="none"/><path d="M324.64 662.27h-9.28L320 648z"/><path d="M326 663.27h-12l4.95-15.27h2.1zm-9.26-2h6.52L320 651.24z"/><path d="M320 528V364.5h440" stroke="#000" stroke-width="2" fill="none"/><path d="M760 364.5l-14.27 4.64v-9.28z"/><path d="M760 363.45v2.1l-15.27 4.96v-12zm-13.27 4.3l10.03-3.25-10.03-3.26z"/><path d="M1240 528h80v60h-80z" fill="none"/><g><use xlink:href="#E" transform="matrix(1,0,0,1,1245,533) translate(15.049999999999997 28.6)"/></g><path d="M1240 608h80v60h-80z" fill="none"/><g><use xlink:href="#E" transform="matrix(1,0,0,1,1245,613) translate(15.049999999999997 28.6)"/></g><path d="M1119.1 553.1H1240M1119.1 553.1h-3" stroke="#000" stroke-width="2" fill="none"/><path d="M1240 553.1l-14.27 4.65v-9.27z"/><path d="M1240 552.06v2.1l-15.27 4.96V547.1zm-13.27 4.3l10.03-3.25-10.03-3.25z"/><path d="M1117.78 637.1H1240M1117.78 637.1h-3" stroke="#000" stroke-width="2" fill="none"/><path d="M1240 637.1l-14.27 4.65v-9.27z"/><path d="M1240 636.06v2.1l-15.27 4.96V631.1zm-13.27 4.3l10.03-3.25-10.03-3.25z"/><path d="M389.37 714H642v120H389.37z" stroke="#000" stroke-width="2" fill="#fff"/><g><use xlink:href="#F" transform="matrix(1,0,0,1,394.3684210526316,719) translate(11.099999999999994 102.80000000000001)"/></g><g><path d="M638.63 714H386l126.32 53.33z" stroke="#000" stroke-width="2" fill="#fff"/></g><path d="M391.37 861H644v120H391.37z" stroke="#000" stroke-width="2" fill="#fff"/><g><use xlink:href="#G" transform="matrix(1,0,0,1,396.3684210526316,866) translate(23.125 102.80000000000001)"/></g><g><path d="M640.63 861H388l126.32 53.33z" stroke="#000" stroke-width="2" fill="#fff"/></g><path d="M403.37 380H656v120H403.37z" stroke="#000" stroke-width="2" fill="#fff"/><g><use xlink:href="#H" transform="matrix(1,0,0,1,408.3684210526316,385) translate(58.074999999999996 102.80000000000001)"/><use xlink:href="#I" transform="matrix(1,0,0,1,408.3684210526316,385) translate(139.025 102.80000000000001)"/></g><g><path d="M652.63 380H400l126.32 53.33z" stroke="#000" stroke-width="2" fill="#fff"/></g><defs><path d="M127-220V0H93v-220H8v-28h204v28h-85" id="J"/><path d="M114-163C36-179 61-72 57 0H25l-1-190h30c1 12-1 29 2 39 6-27 23-49 58-41v29" id="K"/><path d="M141-36C126-15 110 5 73 4 37 3 15-17 15-53c-1-64 63-63 125-63 3-35-9-54-41-54-24 1-41 7-42 31l-33-3c5-37 33-52 76-52 45 0 72 20 72 64v82c-1 20 7 32 28 27v20c-31 9-61-2-59-35zM48-53c0 20 12 33 32 33 41-3 63-29 60-74-43 2-92-5-92 41" id="L"/><path d="M117-194c89-4 53 116 60 194h-32v-121c0-31-8-49-39-48C34-167 62-67 57 0H25l-1-190h30c1 10-1 24 2 32 11-22 29-35 61-36" id="M"/><path d="M135-143c-3-34-86-38-87 0 15 53 115 12 119 90S17 21 10-45l28-5c4 36 97 45 98 0-10-56-113-15-118-90-4-57 82-63 122-42 12 7 21 19 24 35" id="N"/><path d="M115-194c55 1 70 41 70 98S169 2 115 4C84 4 66-9 55-30l1 105H24l-1-265h31l2 30c10-21 28-34 59-34zm-8 174c40 0 45-34 45-75s-6-73-45-74c-42 0-51 32-51 76 0 43 10 73 51 73" id="O"/><path d="M100-194c62-1 85 37 85 99 1 63-27 99-86 99S16-35 15-95c0-66 28-99 85-99zM99-20c44 1 53-31 53-75 0-43-8-75-51-75s-53 32-53 75 10 74 51 75" id="P"/><path d="M59-47c-2 24 18 29 38 22v24C64 9 27 4 27-40v-127H5v-23h24l9-43h21v43h35v23H59v120" id="Q"/><g id="a"><use transform="matrix(0.05,0,0,0.05,0,0)" xlink:href="#J"/><use transform="matrix(0.05,0,0,0.05,10.3,0)" xlink:href="#K"/><use transform="matrix(0.05,0,0,0.05,16.25,0)" xlink:href="#L"/><use transform="matrix(0.05,0,0,0.05,26.25,0)" xlink:href="#M"/><use transform="matrix(0.05,0,0,0.05,36.25,0)" xlink:href="#N"/><use transform="matrix(0.05,0,0,0.05,45.25,0)" xlink:href="#O"/><use transform="matrix(0.05,0,0,0.05,55.25,0)" xlink:href="#P"/><use transform="matrix(0.05,0,0,0.05,65.25,0)" xlink:href="#K"/><use transform="matrix(0.05,0,0,0.05,71.2,0)" xlink:href="#Q"/></g><g id="b"><use transform="matrix(0.05,0,0,0.05,0,0)" xlink:href="#J"/><use transform="matrix(0.05,0,0,0.05,10.3,0)" xlink:href="#K"/><use transform="matrix(0.05,0,0,0.05,16.25,0)" xlink:href="#L"/><use transform="matrix(0.05,0,0,0.05,26.25,0)" xlink:href="#M"/><use transform="matrix(0.05,0,0,0.05,36.25,0)" xlink:href="#N"/><use transform="matrix(0.05,0,0,0.05,45.25,0)" xlink:href="#O"/><use transform="matrix(0.05,0,0,0.05,55.25,0)" xlink:href="#P"/><use transform="matrix(0.05,0,0,0.05,65.25,0)" xlink:href="#K"/><use transform="matrix(0.05,0,0,0.05,71.2,0)" xlink:href="#Q"/></g><path d="M96-169c-40 0-48 33-48 73s9 75 48 75c24 0 41-14 43-38l32 2c-6 37-31 61-74 61-59 0-76-41-82-99-10-93 101-131 147-64 4 7 5 14 7 22l-32 3c-4-21-16-35-41-35" id="R"/><path d="M24-231v-30h32v30H24zM24 0v-190h32V0H24" id="S"/><g id="c"><use transform="matrix(0.05,0,0,0.05,0,0)" xlink:href="#J"/><use transform="matrix(0.05,0,0,0.05,10.3,0)" xlink:href="#K"/><use transform="matrix(0.05,0,0,0.05,16.25,0)" xlink:href="#L"/><use transform="matrix(0.05,0,0,0.05,26.25,0)" xlink:href="#M"/><use transform="matrix(0.05,0,0,0.05,36.25,0)" xlink:href="#N"/><use transform="matrix(0.05,0,0,0.05,45.25,0)" xlink:href="#L"/><use transform="matrix(0.05,0,0,0.05,55.25,0)" xlink:href="#R"/><use transform="matrix(0.05,0,0,0.05,64.25,0)" xlink:href="#Q"/><use transform="matrix(0.05,0,0,0.05,69.25,0)" xlink:href="#S"/><use transform="matrix(0.05,0,0,0.05,73.2,0)" xlink:href="#P"/><use transform="matrix(0.05,0,0,0.05,83.2,0)" xlink:href="#M"/></g><path d="M233-177c-1 41-23 64-60 70L243 0h-38l-65-103H63V0H30v-248c88 3 205-21 203 71zM63-129c60-2 137 13 137-47 0-61-80-42-137-45v92" id="T"/><path d="M100-194c63 0 86 42 84 106H49c0 40 14 67 53 68 26 1 43-12 49-29l28 8c-11 28-37 45-77 45C44 4 14-33 15-96c1-61 26-98 85-98zm52 81c6-60-76-77-97-28-3 7-6 17-6 28h103" id="U"/><path d="M108 0H70L1-190h34L89-25l56-165h34" id="V"/><g id="d"><use transform="matrix(0.05,0,0,0.05,0,0)" xlink:href="#T"/><use transform="matrix(0.05,0,0,0.05,12.950000000000001,0)" xlink:href="#U"/><use transform="matrix(0.05,0,0,0.05,22.950000000000003,0)" xlink:href="#R"/><use transform="matrix(0.05,0,0,0.05,31.950000000000003,0)" xlink:href="#U"/><use transform="matrix(0.05,0,0,0.05,41.95,0)" xlink:href="#S"/><use transform="matrix(0.05,0,0,0.05,45.900000000000006,0)" xlink:href="#V"/><use transform="matrix(0.05,0,0,0.05,54.900000000000006,0)" xlink:href="#U"/></g><path d="M33 0v-248h34V0H33" id="W"/><path d="M210-169c-67 3-38 105-44 169h-31v-121c0-29-5-50-35-48C34-165 62-65 56 0H25l-1-190h30c1 10-1 24 2 32 10-44 99-50 107 0 11-21 27-35 58-36 85-2 47 119 55 194h-31v-121c0-29-5-49-35-48" id="X"/><path d="M177-190C167-65 218 103 67 71c-23-6-38-20-44-43l32-5c15 47 100 32 89-28v-30C133-14 115 1 83 1 29 1 15-40 15-95c0-56 16-97 71-98 29-1 48 16 59 35 1-10 0-23 2-32h30zM94-22c36 0 50-32 50-73 0-42-14-75-50-75-39 0-46 34-46 75s6 73 46 73" id="Y"/><g id="e"><use transform="matrix(0.05,0,0,0.05,0,0)" xlink:href="#W"/><use transform="matrix(0.05,0,0,0.05,5,0)" xlink:href="#M"/><use transform="matrix(0.05,0,0,0.05,15,0)" xlink:href="#R"/><use transform="matrix(0.05,0,0,0.05,24,0)" xlink:href="#P"/><use transform="matrix(0.05,0,0,0.05,34,0)" xlink:href="#X"/><use transform="matrix(0.05,0,0,0.05,48.95,0)" xlink:href="#S"/><use transform="matrix(0.05,0,0,0.05,52.900000000000006,0)" xlink:href="#M"/><use transform="matrix(0.05,0,0,0.05,62.900000000000006,0)" xlink:href="#Y"/></g><path d="M240 0l2-218c-23 76-54 145-80 218h-23L58-218 59 0H30v-248h44l77 211c21-75 51-140 76-211h43V0h-30" id="Z"/><g id="f"><use transform="matrix(0.05,0,0,0.05,0,0)" xlink:href="#Z"/><use transform="matrix(0.05,0,0,0.05,14.950000000000001,0)" xlink:href="#U"/><use transform="matrix(0.05,0,0,0.05,24.950000000000003,0)" xlink:href="#N"/><use transform="matrix(0.05,0,0,0.05,33.95,0)" xlink:href="#N"/><use transform="matrix(0.05,0,0,0.05,42.95,0)" xlink:href="#L"/><use transform="matrix(0.05,0,0,0.05,52.95,0)" xlink:href="#Y"/><use transform="matrix(0.05,0,0,0.05,62.95,0)" xlink:href="#U"/></g><path d="M212-179c-10-28-35-45-73-45-59 0-87 40-87 99 0 60 29 101 89 101 43 0 62-24 78-52l27 14C228-24 195 4 139 4 59 4 22-46 18-125c-6-104 99-153 187-111 19 9 31 26 39 46" id="aa"/><path d="M106-169C34-169 62-67 57 0H25v-261h32l-1 103c12-21 28-36 61-36 89 0 53 116 60 194h-32v-121c2-32-8-49-39-48" id="ab"/><path d="M143 0L79-87 56-68V0H24v-261h32v163l83-92h37l-77 82L181 0h-38" id="ac"/><path d="M33-154v-36h34v36H33zM33 0v-36h34V0H33" id="ad"/><g id="g"><use transform="matrix(0.05,0,0,0.05,0,0)" xlink:href="#aa"/><use transform="matrix(0.05,0,0,0.05,12.950000000000001,0)" xlink:href="#ab"/><use transform="matrix(0.05,0,0,0.05,22.950000000000003,0)" xlink:href="#U"/><use transform="matrix(0.05,0,0,0.05,32.95,0)" xlink:href="#R"/><use transform="matrix(0.05,0,0,0.05,41.95,0)" xlink:href="#ac"/><use transform="matrix(0.05,0,0,0.05,50.95,0)" xlink:href="#ad"/></g><path d="M30-248c118-7 216 8 213 122C240-48 200 0 122 0H30v-248zM63-27c89 8 146-16 146-99s-60-101-146-95v194" id="ae"/><path d="M16-82v-28h88v28H16" id="af"/><path d="M84 4C-5 8 30-112 23-190h32v120c0 31 7 50 39 49 72-2 45-101 50-169h31l1 190h-30c-1-10 1-25-2-33-11 22-28 36-60 37" id="ag"/><g id="h"><use transform="matrix(0.05,0,0,0.05,0,0)" xlink:href="#ae"/><use transform="matrix(0.05,0,0,0.05,12.950000000000001,0)" xlink:href="#U"/><use transform="matrix(0.05,0,0,0.05,22.950000000000003,0)" xlink:href="#af"/><use transform="matrix(0.05,0,0,0.05,28.900000000000002,0)" xlink:href="#ae"/><use transform="matrix(0.05,0,0,0.05,41.85,0)" xlink:href="#ag"/><use transform="matrix(0.05,0,0,0.05,51.85,0)" xlink:href="#O"/></g><g id="i"><use transform="matrix(0.05,0,0,0.05,0,0)" xlink:href="#X"/><use transform="matrix(0.05,0,0,0.05,14.950000000000001,0)" xlink:href="#U"/><use transform="matrix(0.05,0,0,0.05,24.950000000000003,0)" xlink:href="#N"/><use transform="matrix(0.05,0,0,0.05,33.95,0)" xlink:href="#N"/><use transform="matrix(0.05,0,0,0.05,42.95,0)" xlink:href="#L"/><use transform="matrix(0.05,0,0,0.05,52.95,0)" xlink:href="#Y"/><use transform="matrix(0.05,0,0,0.05,62.95,0)" xlink:href="#U"/></g><path d="M140-251c81 0 123 46 123 126C263-46 219 4 140 4 59 4 17-45 17-125s42-126 123-126zm0 227c63 0 89-41 89-101s-29-99-89-99c-61 0-89 39-89 99S79-25 140-24" id="ah"/><path d="M115-194c53 0 69 39 70 98 0 66-23 100-70 100C84 3 66-7 56-30L54 0H23l1-261h32v101c10-23 28-34 59-34zm-8 174c40 0 45-34 45-75 0-40-5-75-45-74-42 0-51 32-51 76 0 43 10 73 51 73" id="ai"/><path d="M141 0L90-78 38 0H4l68-98-65-92h35l48 74 47-74h35l-64 92 68 98h-35" id="aj"/><g id="j"><use transform="matrix(0.05,0,0,0.05,0,0)" xlink:href="#ah"/><use transform="matrix(0.05,0,0,0.05,14,0)" xlink:href="#ag"/><use transform="matrix(0.05,0,0,0.05,24,0)" xlink:href="#Q"/><use transform="matrix(0.05,0,0,0.05,29,0)" xlink:href="#ai"/><use transform="matrix(0.05,0,0,0.05,39,0)" xlink:href="#P"/><use transform="matrix(0.05,0,0,0.05,49,0)" xlink:href="#aj"/></g><path d="M0 4l72-265h28L28 4H0" id="ak"/><g id="k"><use transform="matrix(0.05,0,0,0.05,0,0)" xlink:href="#ak"/><use transform="matrix(0.05,0,0,0.05,5,0)" xlink:href="#ak"/></g><path d="M30 0v-248h187v28H63v79h144v27H63v87h162V0H30" id="al"/><g id="l"><use transform="matrix(0.05,0,0,0.05,0,0)" xlink:href="#al"/><use transform="matrix(0.05,0,0,0.05,12,0)" xlink:href="#aj"/><use transform="matrix(0.05,0,0,0.05,21,0)" xlink:href="#U"/><use transform="matrix(0.05,0,0,0.05,31,0)" xlink:href="#R"/><use transform="matrix(0.05,0,0,0.05,40,0)" xlink:href="#ag"/><use transform="matrix(0.05,0,0,0.05,50,0)" xlink:href="#Q"/><use transform="matrix(0.05,0,0,0.05,55,0)" xlink:href="#U"/></g><path d="M197 0v-115H63V0H30v-248h33v105h134v-105h34V0h-34" id="am"/><path d="M85-194c31 0 48 13 60 33l-1-100h32l1 261h-30c-2-10 0-23-3-31C134-8 116 4 85 4 32 4 16-35 15-94c0-66 23-100 70-100zm9 24c-40 0-46 34-46 75 0 40 6 74 45 74 42 0 51-32 51-76 0-42-9-74-50-73" id="an"/><path d="M24 0v-261h32V0H24" id="ao"/><g id="m"><use transform="matrix(0.05,0,0,0.05,0,0)" xlink:href="#am"/><use transform="matrix(0.05,0,0,0.05,12.950000000000001,0)" xlink:href="#L"/><use transform="matrix(0.05,0,0,0.05,22.950000000000003,0)" xlink:href="#M"/><use transform="matrix(0.05,0,0,0.05,32.95,0)" xlink:href="#an"/><use transform="matrix(0.05,0,0,0.05,42.95,0)" xlink:href="#ao"/><use transform="matrix(0.05,0,0,0.05,46.900000000000006,0)" xlink:href="#U"/><use transform="matrix(0.05,0,0,0.05,56.900000000000006,0)" xlink:href="#K"/><use transform="matrix(0.05,0,0,0.05,62.85,0)" xlink:href="#N"/></g><path d="M185-189c-5-48-123-54-124 2 14 75 158 14 163 119 3 78-121 87-175 55-17-10-28-26-33-46l33-7c5 56 141 63 141-1 0-78-155-14-162-118-5-82 145-84 179-34 5 7 8 16 11 25" id="ap"/><g id="o"><use transform="matrix(0.05,0,0,0.05,0,0)" xlink:href="#ap"/><use transform="matrix(0.05,0,0,0.05,12,0)" xlink:href="#U"/><use transform="matrix(0.05,0,0,0.05,22,0)" xlink:href="#M"/><use transform="matrix(0.05,0,0,0.05,32,0)" xlink:href="#an"/></g><path d="M30-248c87 1 191-15 191 75 0 78-77 80-158 76V0H30v-248zm33 125c57 0 124 11 124-50 0-59-68-47-124-48v98" id="aq"/><g id="p"><use transform="matrix(0.05,0,0,0.05,0,0)" xlink:href="#aq"/><use transform="matrix(0.05,0,0,0.05,12,0)" xlink:href="#K"/><use transform="matrix(0.05,0,0,0.05,17.95,0)" xlink:href="#U"/><use transform="matrix(0.05,0,0,0.05,27.950000000000003,0)" xlink:href="#O"/><use transform="matrix(0.05,0,0,0.05,37.95,0)" xlink:href="#L"/><use transform="matrix(0.05,0,0,0.05,47.95,0)" xlink:href="#K"/><use transform="matrix(0.05,0,0,0.05,53.900000000000006,0)" xlink:href="#U"/><use transform="matrix(0.05,0,0,0.05,63.900000000000006,0)" xlink:href="#aq"/><use transform="matrix(0.05,0,0,0.05,75.9,0)" xlink:href="#ag"/><use transform="matrix(0.05,0,0,0.05,85.9,0)" xlink:href="#K"/><use transform="matrix(0.05,0,0,0.05,91.85000000000001,0)" xlink:href="#R"/><use transform="matrix(0.05,0,0,0.05,100.85000000000001,0)" xlink:href="#ab"/><use transform="matrix(0.05,0,0,0.05,110.85000000000001,0)" xlink:href="#L"/><use transform="matrix(0.05,0,0,0.05,120.85000000000001,0)" xlink:href="#N"/><use transform="matrix(0.05,0,0,0.05,129.85000000000002,0)" xlink:href="#U"/><use transform="matrix(0.05,0,0,0.05,139.85000000000002,0)" xlink:href="#an"/><use transform="matrix(0.05,0,0,0.05,149.85000000000002,0)" xlink:href="#aq"/><use transform="matrix(0.05,0,0,0.05,161.85000000000002,0)" xlink:href="#K"/><use transform="matrix(0.05,0,0,0.05,167.8,0)" xlink:href="#P"/><use transform="matrix(0.05,0,0,0.05,177.8,0)" xlink:href="#an"/><use transform="matrix(0.05,0,0,0.05,187.8,0)" xlink:href="#ag"/><use transform="matrix(0.05,0,0,0.05,197.8,0)" xlink:href="#R"/><use transform="matrix(0.05,0,0,0.05,206.8,0)" xlink:href="#Q"/><use transform="matrix(0.05,0,0,0.05,211.8,0)" xlink:href="#N"/></g><path d="M87 75C49 33 22-17 22-94c0-76 28-126 65-167h31c-38 41-64 92-64 168S80 34 118 75H87" id="ar"/><path d="M33-261c38 41 65 92 65 168S71 34 33 75H2C39 34 66-17 66-93S39-220 2-261h31" id="as"/><path d="M68-36c1 33-1 63-14 82H32c9-13 17-26 17-46H33v-36h35zM33-154v-36h35v36H33" id="at"/><g id="q"><use transform="matrix(0.05,0,0,0.05,0,0)" xlink:href="#ap"/><use transform="matrix(0.05,0,0,0.05,12,0)" xlink:href="#L"/><use transform="matrix(0.05,0,0,0.05,22,0)" xlink:href="#V"/><use transform="matrix(0.05,0,0,0.05,31,0)" xlink:href="#U"/><use transform="matrix(0.05,0,0,0.05,41,0)" xlink:href="#J"/><use transform="matrix(0.05,0,0,0.05,49.95,0)" xlink:href="#P"/><use transform="matrix(0.05,0,0,0.05,59.95,0)" xlink:href="#ae"/><use transform="matrix(0.05,0,0,0.05,72.9,0)" xlink:href="#L"/><use transform="matrix(0.05,0,0,0.05,82.9,0)" xlink:href="#Q"/><use transform="matrix(0.05,0,0,0.05,87.9,0)" xlink:href="#L"/><use transform="matrix(0.05,0,0,0.05,97.9,0)" xlink:href="#ai"/><use transform="matrix(0.05,0,0,0.05,107.9,0)" xlink:href="#L"/><use transform="matrix(0.05,0,0,0.05,117.9,0)" xlink:href="#N"/><use transform="matrix(0.05,0,0,0.05,126.9,0)" xlink:href="#U"/><use transform="matrix(0.05,0,0,0.05,136.9,0)" xlink:href="#ar"/><use transform="matrix(0.05,0,0,0.05,142.85,0)" xlink:href="#as"/><use transform="matrix(0.05,0,0,0.05,148.79999999999998,0)" xlink:href="#at"/></g><g id="r"><use transform="matrix(0.05,0,0,0.05,0,0)" xlink:href="#aq"/><use transform="matrix(0.05,0,0,0.05,12,0)" xlink:href="#ag"/><use transform="matrix(0.05,0,0,0.05,22,0)" xlink:href="#ai"/><use transform="matrix(0.05,0,0,0.05,32,0)" xlink:href="#ao"/><use transform="matrix(0.05,0,0,0.05,35.95,0)" xlink:href="#S"/><use transform="matrix(0.05,0,0,0.05,39.900000000000006,0)" xlink:href="#N"/><use transform="matrix(0.05,0,0,0.05,48.900000000000006,0)" xlink:href="#ab"/></g><g id="s"><use transform="matrix(0.05,0,0,0.05,0,0)" xlink:href="#aq"/><use transform="matrix(0.05,0,0,0.05,12,0)" xlink:href="#ag"/><use transform="matrix(0.05,0,0,0.05,22,0)" xlink:href="#K"/><use transform="matrix(0.05,0,0,0.05,27.950000000000003,0)" xlink:href="#R"/><use transform="matrix(0.05,0,0,0.05,36.95,0)" xlink:href="#ab"/><use transform="matrix(0.05,0,0,0.05,46.95,0)" xlink:href="#L"/><use transform="matrix(0.05,0,0,0.05,56.95,0)" xlink:href="#N"/><use transform="matrix(0.05,0,0,0.05,65.95,0)" xlink:href="#U"/><use transform="matrix(0.05,0,0,0.05,75.95,0)" xlink:href="#ah"/><use transform="matrix(0.05,0,0,0.05,89.95,0)" xlink:href="#K"/><use transform="matrix(0.05,0,0,0.05,95.9,0)" xlink:href="#an"/><use transform="matrix(0.05,0,0,0.05,105.9,0)" xlink:href="#U"/><use transform="matrix(0.05,0,0,0.05,115.9,0)" xlink:href="#K"/><use transform="matrix(0.05,0,0,0.05,121.85000000000001,0)" xlink:href="#T"/><use transform="matrix(0.05,0,0,0.05,134.8,0)" xlink:href="#U"/><use transform="matrix(0.05,0,0,0.05,144.8,0)" xlink:href="#R"/><use transform="matrix(0.05,0,0,0.05,153.8,0)" xlink:href="#U"/><use transform="matrix(0.05,0,0,0.05,163.8,0)" xlink:href="#S"/><use transform="matrix(0.05,0,0,0.05,167.75,0)" xlink:href="#V"/><use transform="matrix(0.05,0,0,0.05,176.75,0)" xlink:href="#U"/><use transform="matrix(0.05,0,0,0.05,186.75,0)" xlink:href="#an"/></g><g id="t"><use transform="matrix(0.05,0,0,0.05,0,0)" xlink:href="#ap"/><use transform="matrix(0.05,0,0,0.05,12,0)" xlink:href="#Q"/><use transform="matrix(0.05,0,0,0.05,17,0)" xlink:href="#P"/><use transform="matrix(0.05,0,0,0.05,27,0)" xlink:href="#K"/><use transform="matrix(0.05,0,0,0.05,32.95,0)" xlink:href="#U"/></g><g id="u"><use transform="matrix(0.05,0,0,0.05,0,0)" xlink:href="#T"/><use transform="matrix(0.05,0,0,0.05,12.950000000000001,0)" xlink:href="#U"/><use transform="matrix(0.05,0,0,0.05,22.950000000000003,0)" xlink:href="#R"/><use transform="matrix(0.05,0,0,0.05,31.950000000000003,0)" xlink:href="#P"/><use transform="matrix(0.05,0,0,0.05,41.95,0)" xlink:href="#K"/><use transform="matrix(0.05,0,0,0.05,47.900000000000006,0)" xlink:href="#an"/><use transform="matrix(0.05,0,0,0.05,57.900000000000006,0)" xlink:href="#U"/><use transform="matrix(0.05,0,0,0.05,67.9,0)" xlink:href="#an"/></g><path d="M205 0l-28-72H64L36 0H1l101-248h38L239 0h-34zm-38-99l-47-123c-12 45-31 82-46 123h93" id="au"/><g id="v"><use transform="matrix(0.05,0,0,0.05,0,0)" xlink:href="#au"/><use transform="matrix(0.05,0,0,0.05,12,0)" xlink:href="#R"/><use transform="matrix(0.05,0,0,0.05,21,0)" xlink:href="#Q"/><use transform="matrix(0.05,0,0,0.05,26,0)" xlink:href="#S"/><use transform="matrix(0.05,0,0,0.05,29.950000000000003,0)" xlink:href="#P"/><use transform="matrix(0.05,0,0,0.05,39.95,0)" xlink:href="#M"/><use transform="matrix(0.05,0,0,0.05,49.95,0)" xlink:href="#N"/></g><g id="w"><use transform="matrix(0.05,0,0,0.05,0,0)" xlink:href="#aa"/><use transform="matrix(0.05,0,0,0.05,12.950000000000001,0)" xlink:href="#P"/><use transform="matrix(0.05,0,0,0.05,22.950000000000003,0)" xlink:href="#X"/><use transform="matrix(0.05,0,0,0.05,37.900000000000006,0)" xlink:href="#X"/><use transform="matrix(0.05,0,0,0.05,52.85,0)" xlink:href="#S"/><use transform="matrix(0.05,0,0,0.05,56.80000000000001,0)" xlink:href="#Q"/></g><g id="x"><use transform="matrix(0.05,0,0,0.05,0,0)" xlink:href="#ah"/><use transform="matrix(0.05,0,0,0.05,14,0)" xlink:href="#ag"/><use transform="matrix(0.05,0,0,0.05,24,0)" xlink:href="#Q"/><use transform="matrix(0.05,0,0,0.05,29,0)" xlink:href="#ai"/><use transform="matrix(0.05,0,0,0.05,39,0)" xlink:href="#P"/><use transform="matrix(0.05,0,0,0.05,49,0)" xlink:href="#aj"/></g><g id="y"><use transform="matrix(0.05,0,0,0.05,0,0)" xlink:href="#ae"/><use transform="matrix(0.05,0,0,0.05,12.950000000000001,0)" xlink:href="#S"/><use transform="matrix(0.05,0,0,0.05,16.900000000000002,0)" xlink:href="#N"/><use transform="matrix(0.05,0,0,0.05,25.900000000000002,0)" xlink:href="#O"/><use transform="matrix(0.05,0,0,0.05,35.900000000000006,0)" xlink:href="#L"/><use transform="matrix(0.05,0,0,0.05,45.900000000000006,0)" xlink:href="#Q"/><use transform="matrix(0.05,0,0,0.05,50.900000000000006,0)" xlink:href="#R"/><use transform="matrix(0.05,0,0,0.05,59.900000000000006,0)" xlink:href="#ab"/></g><g id="z"><use transform="matrix(0.05,0,0,0.05,0,0)" xlink:href="#Z"/><use transform="matrix(0.05,0,0,0.05,14.950000000000001,0)" xlink:href="#L"/><use transform="matrix(0.05,0,0,0.05,24.950000000000003,0)" xlink:href="#K"/><use transform="matrix(0.05,0,0,0.05,30.900000000000002,0)" xlink:href="#ac"/></g><g id="A"><use transform="matrix(0.05,0,0,0.05,0,0)" xlink:href="#L"/><use transform="matrix(0.05,0,0,0.05,10,0)" xlink:href="#N"/></g><g id="B"><use transform="matrix(0.05,0,0,0.05,0,0)" xlink:href="#ae"/><use transform="matrix(0.05,0,0,0.05,12.950000000000001,0)" xlink:href="#S"/><use transform="matrix(0.05,0,0,0.05,16.900000000000002,0)" xlink:href="#N"/><use transform="matrix(0.05,0,0,0.05,25.900000000000002,0)" xlink:href="#O"/><use transform="matrix(0.05,0,0,0.05,35.900000000000006,0)" xlink:href="#L"/><use transform="matrix(0.05,0,0,0.05,45.900000000000006,0)" xlink:href="#Q"/><use transform="matrix(0.05,0,0,0.05,50.900000000000006,0)" xlink:href="#R"/><use transform="matrix(0.05,0,0,0.05,59.900000000000006,0)" xlink:href="#ab"/><use transform="matrix(0.05,0,0,0.05,69.9,0)" xlink:href="#U"/><use transform="matrix(0.05,0,0,0.05,79.9,0)" xlink:href="#an"/></g><g id="C"><use transform="matrix(0.05,0,0,0.05,0,0)" xlink:href="#J"/><use transform="matrix(0.05,0,0,0.05,10.3,0)" xlink:href="#K"/><use transform="matrix(0.05,0,0,0.05,16.25,0)" xlink:href="#L"/><use transform="matrix(0.05,0,0,0.05,26.25,0)" xlink:href="#M"/><use transform="matrix(0.05,0,0,0.05,36.25,0)" xlink:href="#N"/><use transform="matrix(0.05,0,0,0.05,45.25,0)" xlink:href="#O"/><use transform="matrix(0.05,0,0,0.05,55.25,0)" xlink:href="#P"/><use transform="matrix(0.05,0,0,0.05,65.25,0)" xlink:href="#K"/><use transform="matrix(0.05,0,0,0.05,71.2,0)" xlink:href="#Q"/></g><g id="D"><use transform="matrix(0.05,0,0,0.05,0,0)" xlink:href="#ap"/><use transform="matrix(0.05,0,0,0.05,12,0)" xlink:href="#Q"/><use transform="matrix(0.05,0,0,0.05,17,0)" xlink:href="#P"/><use transform="matrix(0.05,0,0,0.05,27,0)" xlink:href="#K"/><use transform="matrix(0.05,0,0,0.05,32.95,0)" xlink:href="#L"/><use transform="matrix(0.05,0,0,0.05,42.95,0)" xlink:href="#Y"/><use transform="matrix(0.05,0,0,0.05,52.95,0)" xlink:href="#U"/></g><g id="E"><use transform="matrix(0.05,0,0,0.05,0,0)" xlink:href="#T"/><use transform="matrix(0.05,0,0,0.05,12.950000000000001,0)" xlink:href="#au"/><use transform="matrix(0.05,0,0,0.05,24.950000000000003,0)" xlink:href="#Z"/></g><g id="F"><use transform="matrix(0.05,0,0,0.05,0,0)" xlink:href="#aq"/><use transform="matrix(0.05,0,0,0.05,12,0)" xlink:href="#K"/><use transform="matrix(0.05,0,0,0.05,17.95,0)" xlink:href="#U"/><use transform="matrix(0.05,0,0,0.05,27.950000000000003,0)" xlink:href="#O"/><use transform="matrix(0.05,0,0,0.05,37.95,0)" xlink:href="#L"/><use transform="matrix(0.05,0,0,0.05,47.95,0)" xlink:href="#K"/><use transform="matrix(0.05,0,0,0.05,53.900000000000006,0)" xlink:href="#U"/><use transform="matrix(0.05,0,0,0.05,63.900000000000006,0)" xlink:href="#aq"/><use transform="matrix(0.05,0,0,0.05,75.9,0)" xlink:href="#ag"/><use transform="matrix(0.05,0,0,0.05,85.9,0)" xlink:href="#K"/><use transform="matrix(0.05,0,0,0.05,91.85000000000001,0)" xlink:href="#R"/><use transform="matrix(0.05,0,0,0.05,100.85000000000001,0)" xlink:href="#ab"/><use transform="matrix(0.05,0,0,0.05,110.85000000000001,0)" xlink:href="#L"/><use transform="matrix(0.05,0,0,0.05,120.85000000000001,0)" xlink:href="#N"/><use transform="matrix(0.05,0,0,0.05,129.85000000000002,0)" xlink:href="#U"/><use transform="matrix(0.05,0,0,0.05,139.85000000000002,0)" xlink:href="#an"/><use transform="matrix(0.05,0,0,0.05,149.85000000000002,0)" xlink:href="#aq"/><use transform="matrix(0.05,0,0,0.05,161.85000000000002,0)" xlink:href="#K"/><use transform="matrix(0.05,0,0,0.05,167.8,0)" xlink:href="#P"/><use transform="matrix(0.05,0,0,0.05,177.8,0)" xlink:href="#an"/><use transform="matrix(0.05,0,0,0.05,187.8,0)" xlink:href="#ag"/><use transform="matrix(0.05,0,0,0.05,197.8,0)" xlink:href="#R"/><use transform="matrix(0.05,0,0,0.05,206.8,0)" xlink:href="#Q"/><use transform="matrix(0.05,0,0,0.05,211.8,0)" xlink:href="#N"/></g><g id="G"><use transform="matrix(0.05,0,0,0.05,0,0)" xlink:href="#aq"/><use transform="matrix(0.05,0,0,0.05,12,0)" xlink:href="#ag"/><use transform="matrix(0.05,0,0,0.05,22,0)" xlink:href="#K"/><use transform="matrix(0.05,0,0,0.05,27.950000000000003,0)" xlink:href="#R"/><use transform="matrix(0.05,0,0,0.05,36.95,0)" xlink:href="#ab"/><use transform="matrix(0.05,0,0,0.05,46.95,0)" xlink:href="#L"/><use transform="matrix(0.05,0,0,0.05,56.95,0)" xlink:href="#N"/><use transform="matrix(0.05,0,0,0.05,65.95,0)" xlink:href="#U"/><use transform="matrix(0.05,0,0,0.05,75.95,0)" xlink:href="#ah"/><use transform="matrix(0.05,0,0,0.05,89.95,0)" xlink:href="#K"/><use transform="matrix(0.05,0,0,0.05,95.9,0)" xlink:href="#an"/><use transform="matrix(0.05,0,0,0.05,105.9,0)" xlink:href="#U"/><use transform="matrix(0.05,0,0,0.05,115.9,0)" xlink:href="#K"/><use transform="matrix(0.05,0,0,0.05,121.85000000000001,0)" xlink:href="#T"/><use transform="matrix(0.05,0,0,0.05,134.8,0)" xlink:href="#U"/><use transform="matrix(0.05,0,0,0.05,144.8,0)" xlink:href="#R"/><use transform="matrix(0.05,0,0,0.05,153.8,0)" xlink:href="#U"/><use transform="matrix(0.05,0,0,0.05,163.8,0)" xlink:href="#S"/><use transform="matrix(0.05,0,0,0.05,167.75,0)" xlink:href="#V"/><use transform="matrix(0.05,0,0,0.05,176.75,0)" xlink:href="#U"/><use transform="matrix(0.05,0,0,0.05,186.75,0)" xlink:href="#an"/></g><g id="H"><use transform="matrix(0.05,0,0,0.05,0,0)" xlink:href="#aq"/><use transform="matrix(0.05,0,0,0.05,12,0)" xlink:href="#ag"/><use transform="matrix(0.05,0,0,0.05,22,0)" xlink:href="#K"/><use transform="matrix(0.05,0,0,0.05,27.950000000000003,0)" xlink:href="#R"/><use transform="matrix(0.05,0,0,0.05,36.95,0)" xlink:href="#ab"/><use transform="matrix(0.05,0,0,0.05,46.95,0)" xlink:href="#L"/><use transform="matrix(0.05,0,0,0.05,56.95,0)" xlink:href="#N"/><use transform="matrix(0.05,0,0,0.05,65.95,0)" xlink:href="#U"/></g><g id="I"><use transform="matrix(0.05,0,0,0.05,0,0)" xlink:href="#ah"/><use transform="matrix(0.05,0,0,0.05,14,0)" xlink:href="#K"/><use transform="matrix(0.05,0,0,0.05,19.95,0)" xlink:href="#an"/><use transform="matrix(0.05,0,0,0.05,29.950000000000003,0)" xlink:href="#U"/><use transform="matrix(0.05,0,0,0.05,39.95,0)" xlink:href="#K"/></g></defs></g></svg>