<?xml version="1.0" encoding="UTF-8" standalone="no"?><!DOCTYPE svg PUBLIC "-//W3C//DTD SVG 1.1//EN" "http://www.w3.org/Graphics/SVG/1.1/DTD/svg11.dtd"><svg width="100%" height="100%" viewBox="0 0 567 174" version="1.1" xmlns="http://www.w3.org/2000/svg" xmlns:xlink="http://www.w3.org/1999/xlink" xml:space="preserve" style="fill-rule:evenodd;clip-rule:evenodd;stroke-linejoin:round;stroke-miterlimit:1.5;"><rect id="Artboard3" x="0" y="0" width="567" height="173.339" style="fill:none;"/><clipPath id="_clip1"><rect x="0" y="0" width="567" height="173.339"/></clipPath><g clip-path="url(#_clip1)"><rect x="0" y="0" width="567" height="171.834" style="fill:#fff;"/><g><rect x="363.5" y="36.17" width="101" height="101" style="fill:#3a3a3a;"/><path d="M400.197,52.998l0,11.441l13.803,0l0,16.16l-13.803,0l0,11.453l39.053,0l0,-39.054l-39.053,0Z" style="fill:#fff;fill-rule:nonzero;"/><rect x="388.75" y="66.802" width="22.893" height="11.441" style="fill:#fff;fill-rule:nonzero;"/><rect x="102.5" y="36.17" width="101" height="101" style="fill:#3a3a3a;"/><path d="M248.864,56.652c0,1.999 -1.643,3.688 -3.669,3.688c-2.027,0 -3.67,-1.689 -3.67,-3.688c0,-1.999 1.643,-3.689 3.67,-3.689c2.026,0 3.669,1.69 3.669,3.689" style="fill-rule:nonzero;"/><path d="M250.462,55.406l5.439,0l0,-2.426l3.672,3.672l-3.672,3.672l0,-2.426l-5.439,0c0.096,-0.402 0.146,-0.819 0.146,-1.246c0,-0.427 -0.05,-0.844 -0.146,-1.246Z"/><path d="M139.197,52.998l0,11.441l13.803,0l0,16.16l-13.803,0l0,11.453l39.053,0l0,-39.054l-39.053,0Z" style="fill:#fff;fill-rule:nonzero;"/><rect x="127.75" y="66.802" width="22.893" height="11.441" style="fill:#fff;fill-rule:nonzero;"/><path d="M214.5,86.67l138,0" style="fill:none;stroke:#737373;stroke-width:6px;"/><rect x="263.5" y="71.17" width="42" height="31" style="fill:#fff;"/><path id="email-3-icon" d="M284.025,86.228l-13.468,-8.638l25.943,0l-12.475,8.638Zm0,3.152l-13.525,-8.898l0,14.268l26,0l0,-14.242l-12.475,8.872Z" style="fill:#737373;fill-rule:nonzero;"/><path d="M360.996,86.67l-16.992,8.496l0,-16.993l16.992,8.497Z" style="fill:#737373;"/><text x="262.643px" y="60.984px" style="font-family:'Arial-BoldMT', 'Arial', sans-serif;font-weight:700;font-size:12.12px;">PlaceOrder</text><g transform="matrix(1,0,0,1,7.02276,24.2008)"><text x="123.31px" y="89.48px" style="font-family:'Arial-BoldMT', 'Arial', sans-serif;font-weight:700;font-size:12px;fill:#fff;">ClientUI</text><text x="122.291px" y="103.48px" style="font-family:'ArialMT', 'Arial', sans-serif;font-size:12px;fill:#bfbfbf;">Endpoint</text></g><g transform="matrix(1,0,0,1,268.023,24.2008)"><text x="130.298px" y="89.48px" style="font-family:'Arial-BoldMT', 'Arial', sans-serif;font-weight:700;font-size:12px;fill:#fff;">Sales</text><text x="122.291px" y="103.48px" style="font-family:'ArialMT', 'Arial', sans-serif;font-size:12px;fill:#bfbfbf;">Endpoint</text></g></g></g></svg>