<svg xmlns="http://www.w3.org/2000/svg" xmlns:xlink="http://www.w3.org/1999/xlink" width="1160" height="921.33"><g transform="translate(-60 -60)"><path d="M0 0h1360v1760H0z" fill="#fff"/><path d="M400 80h160v160H400z" fill="#ef8d22"/><path d="M508 181.07c-.27 4-12.7 7.2-28 7.2s-27.73-3.2-28-7.2v-.14-66.53h56zm0 0z" fill="#fff"/><path d="M452 114.6c0-4.1 12.54-7.4 28-7.4s28 3.3 28 7.4c0 4.1-12.54 7.43-28 7.43s-28-3.33-28-7.42z" fill="#fff"/><path d="M480 126.46h-2.44l-.17-.03H476.45l-.17-.03h-.38l-.18-.02h-.54l-.2-.03h-.52l-.2-.03h-.17l-.16-.02h-.36l-.17-.03h-.34l-.18-.03-.18-.02h-.35l-.17-.03-.18-.02-.18-.02-.17-.02h-.36l-.16-.03h-.18l-.16-.02-.18-.02h-.17l-.16-.03h-.2l-.16-.03-.16-.02h-.18l-.16-.03h-.18l-.16-.03-.16-.02-.17-.03h-.16l-.15-.03-.18-.02h-.16l-.15-.04-.16-.02-.18-.02h-.16l-.16-.04-.16-.02-.16-.02h-.16l-.16-.04-.16-.02-.16-.03-.16-.02h-.16l-.16-.05h-.15l-.15-.04-.16-.02-.17-.03h-.14l-.17-.04-.16-.02-.15-.03h-.16l-.14-.04-.16-.03h-.14l-.16-.05h-.15l-.13-.04-.16-.04h-.14l-.14-.04-.14-.04-.16-.03-.15-.02-.14-.04-.15-.03-.14-.02-.14-.03-.15-.02-.14-.03-.14-.03-.14-.03-.14-.04-.13-.03-.15-.03-.14-.03-.14-.02-.13-.04-.16-.03-.14-.02-.13-.03-.14-.03-.13-.04-.14-.03-.13-.03-.13-.03-.14-.04-.13-.04-.13-.03-.14-.06-.13-.03-.13-.02-.13-.03-.13-.03-.12-.05-.13-.03-.14-.04-.13-.04-.13-.04-.12-.03-.13-.04-.1-.05-.14-.02-.12-.05-.13-.03-.1-.05-.14-.03-.1-.03-.13-.06-.1-.03-.14-.04-.1-.05-.14-.02-.12-.05-.1-.03-.14-.05-.1-.05-.12-.03-.12-.05-.1-.04-.12-.04-.1-.04-.12-.05-.12-.05-.1-.03-.12-.05-.1-.05-.12-.05-.12-.04-.1-.05-.1-.05-.12-.05-.1-.05-.1-.04-.12-.05-.1-.06-.1-.05-.1-.06-.1-.04-.1-.07-.12-.05-.1-.04-.1-.05-.1-.08-.1-.04-.1-.05-.1-.07-.1-.04-.1-.07-.1-.05-.1-.06-.1-.06-.08-.05-.1-.07-.1-.06-.1-.05-.1-.06-.07-.08-.1-.06-.1-.06-.1-.07-.08-.06-.1-.07-.1-.08-.08-.06-.08-.06-.1-.08-.08-.07-.1-.08-.08-.06-.1-.07-.07-.08-.1-.08-.07-.08-.08-.1-.1-.07-.07-.08-.08-.08-.05-.05-.03-.05-.05-.03-.03-.05-.05-.06-.06-.04-.03-.05-.04-.05-.03-.03-.05-.05-.03-.05-.05-.05-.03-.04-.03-.05-.05-.05-.04-.05-.05-.06-.02-.05-.04-.05-.04-.05-.04-.04-.03-.07-.05-.04-.03-.04-.03-.07-.03-.05-.06-.06-.03-.05-.02-.07-.04-.05-.03-.06-.02-.05-.05-.07-.03-.06-.03-.05-.03-.07-.04-.07-.03-.06v-.06l-.05-.05-.03-.08-.04-.06-.03-.06-.03-.07-.02-.06-.03-.08-.03-.08-.02-.06-.03-.06-.02-.07-.03-.08-.02-.06-.03-.08v-.08l-.05-.06v-.06l-.03-.08-.02-.07-.02-.08-.03-.07-.02-.08v-.07l-.02-.08-.02-.08v-.14l-.03-.08v-.14l-.03-.08v-.08l-.02-.07v-.31l-.03-.08V114.37l.02-.08v-.3l.03-.08v-.08l.02-.06v-.16l.03-.07v-.16l.03-.07.02-.08v-.08l.03-.07.03-.08.02-.06v-.08l.03-.06.02-.07.04-.08v-.06l.04-.07.02-.07.03-.06.02-.06.03-.08.02-.07.03-.07.03-.07.02-.06.03-.06.03-.07.03-.06.02-.06.04-.06v-.06l.04-.07.04-.05.03-.06.03-.06.03-.05.05-.07.03-.06.04-.05.04-.06.03-.06.04-.06.05-.05.02-.07.03-.04.03-.05.05-.07.03-.04.04-.05.04-.04.04-.06.03-.05.06-.05.03-.05.04-.05.03-.04.03-.05.05-.04.03-.05.05-.04.03-.04.05-.05.04-.05.05-.03.04-.06.03-.05.05-.06.03-.03.05-.04.08-.08.08-.1.1-.07.07-.07.08-.08.1-.08.1-.07.08-.08.08-.08.1-.06.08-.08.1-.06.08-.07.1-.08.1-.07.07-.07.08-.06.1-.06.1-.07.1-.06.07-.06.1-.06.1-.06.1-.05.1-.07.08-.06.1-.05.1-.07.1-.07.1-.04.1-.07.1-.05.1-.04.1-.07.1-.06.1-.04.1-.07.1-.05.1-.04.1-.05.1-.06.12-.05.1-.07.1-.05.1-.05.1-.05.13-.04.1-.05.1-.06.12-.03.1-.04.12-.05.1-.04.12-.04.12-.05.1-.03.12-.05.1-.06.12-.05.12-.04.1-.05.12-.04.13-.03.1-.05.12-.03.12-.05.1-.03.14-.05.1-.03.14-.06.1-.03.14-.04.1-.03.14-.05.13-.03.14-.05.1-.03.14-.03.12-.05.13-.04.13-.03.13-.03.12-.05.12-.03.13-.04.13-.03.13-.05.13-.03.14-.03.13-.03.13-.02.14-.04.13-.04.13-.04.14-.03.13-.03.14-.03.13-.03.14-.04.15-.03.12-.03.14-.03.14-.02.15-.04h.13l.14-.04.14-.04.15-.03.15-.03.15-.03.14-.03.14-.02.15-.03.14-.04.15-.04.16-.03.14-.02.14-.04.15-.03h.17l.14-.04.16-.03h.16l.14-.05h.16l.14-.04.16-.04h.15l.16-.04.16-.02.13-.03h.16l.15-.04.16-.02.16-.03h.16l.16-.02.16-.03.16-.02.16-.03.16-.02h.16l.16-.04.16-.02.16-.02h.16l.17-.04.15-.02.16-.02h.17l.18-.03.16-.04.17-.02h.17l.16-.03h.16l.18-.02.16-.02h.18l.16-.03h.17l.2-.03.15-.02h.17l.18-.03h.16l.18-.03.17-.02h.2l.15-.03h.35l.18-.03.17-.02h.18l.17-.03h.18l.18-.02.17-.02h.18l.18-.02h.36l.17-.03h.38l.18-.02h.17l.18-.02h.55l.2-.03H476.45l.2-.03h.37l.17-.02h1.68l.18-.03H480.94l.18.02H482.8l.18.03h.36l.2.02h.73l.2.03h.54l.17.03h.17l.18.02h.37l.16.03h.36l.17.03h.17l.17.02h.36l.17.03.18.02.17.02.18.02h.35l.16.03h.2l.16.02.18.02h.16l.18.03h.17l.16.03.2.02h.16l.16.03h.18l.16.03.18.02h.16l.16.03h.17l.16.03.15.03h.18l.16.02.15.02.16.02.18.03h.16l.16.02.16.02.16.03h.16l.16.03.16.03.16.02.16.03.16.02h.16l.15.04.15.02.16.03h.17l.14.04.17.02.16.03h.15l.16.04.14.03h.16l.14.05h.16l.15.04.13.04h.16l.14.04.14.04h.14l.16.04.15.04.14.03.15.02.14.02.14.03.15.03.14.03.14.03.14.04.14.03h.13l.15.05.14.03.14.04.13.03.16.03.14.04.13.03.14.03.13.03.14.03.13.04.13.04.14.04.13.03.13.04.14.03.13.03.13.05.13.03.13.04.12.03.13.05.14.03.13.03.13.03.12.04.13.03.1.03.14.05.12.03.13.05.1.03.14.05.1.04.13.05.1.02.14.05.1.03.14.05.12.03.1.05.14.03.1.05.12.06.12.03.1.04.12.05.1.04.12.03.12.05.1.04.12.05.1.06.12.05.12.04.1.05.1.04.12.04.1.05.1.05.12.05.1.06.1.04.1.05.1.04.1.04.12.05.1.07.1.04.1.05.1.06.1.04.1.05.1.07.1.04.1.07.1.06.1.04.08.06.1.07.1.05.1.06.1.06.07.07.1.07.1.07.1.06.08.06.1.07.1.06.08.07.08.07.1.06.08.08.1.06.08.08.1.08.07.07.1.08.07.08.08.08.1.1.07.08.08.08.05.05.03.04.05.05.03.04.05.05.06.02.03.05.04.05.03.04.05.05.03.06.03.05.05.06.03.04.05.05.04.05.05.05.02.05.04.06.04.05.04.06.03.04.05.07.03.05.03.04.03.07.06.05.03.06.02.05.04.05.03.05.02.06.05.07.03.05.03.06.03.06.04.05.03.07v.06l.05.06.03.07.04.07.03.07.03.06.02.06.03.07.03.06.02.06.03.08.02.06.03.06.02.07.03.08v.07l.05.08v.07l.03.06.02.08.02.06.03.08.02.07v.08l.02.08.02.06V113.54l.03.07v.16l.03.06v.08l.02.08V114.3l.03.08V114.86l-.02.08V115.22l-.03.07v.08l-.02.08v.14l-.03.08v.14l-.03.08-.02.08v.07l-.03.08-.03.06-.02.07v.07l-.03.08-.02.06-.04.06v.08l-.04.07-.02.05-.03.08-.02.07-.03.06-.02.06-.03.07-.03.07-.02.06-.03.07-.03.06-.03.06-.02.07-.04.04v.06l-.04.06-.04.07-.03.06-.03.04-.03.06-.05.07-.03.05-.04.06-.04.05-.03.06-.04.04-.05.06-.02.05-.03.07-.03.04-.05.05-.03.08-.04.04-.04.05-.04.05-.03.05-.06.06-.03.05-.04.05-.03.05-.05.04-.03.05-.03.05-.05.05-.03.03-.05.05-.04.05-.05.04-.04.05-.03.04-.05.03-.03.05-.05.05-.08.08-.08.08-.1.08-.07.1-.08.07-.1.08-.1.08-.08.08-.08.07-.1.08-.08.07-.1.08-.08.06-.1.06-.1.08-.07.07-.08.06-.1.07-.1.06-.1.06-.07.07-.1.05-.1.05-.1.06-.1.07-.08.05-.1.06-.1.06-.1.05-.1.07-.1.04-.1.07-.1.05-.1.04-.1.07-.1.04-.1.04-.1.05-.1.07-.1.04-.1.05-.12.04-.1.05-.1.04-.1.04-.1.05-.13.05-.1.05-.1.05-.12.04-.1.05-.12.05-.1.05-.12.03-.12.05-.1.05-.12.04-.1.04-.12.04-.12.05-.1.03-.12.05-.13.05-.1.03-.12.05-.12.03-.1.06-.14.05-.1.04-.14.05-.1.02-.14.03-.1.05-.14.03-.13.05-.14.03-.1.04-.14.05-.12.02-.13.04-.13.04-.13.04-.12.03-.12.05-.13.03-.13.03-.13.03-.13.04-.14.05-.13.02-.13.04-.14.03-.13.02-.13.03-.14.03-.13.04-.14.03-.13.03-.14.03-.15.04-.12.04-.14.03-.14.04-.15.03-.13.03-.14.04-.14.03-.15.03-.15.03-.15.02-.14.03-.14.03-.15.04-.14.04h-.15l-.16.04-.14.04-.14.03h-.15l-.17.04-.14.03h-.16l-.16.05h-.14l-.16.04-.14.04h-.16l-.15.04-.16.02-.16.03h-.13l-.16.04-.15.02-.16.03h-.16l-.16.04h-.16l-.16.03-.16.03-.16.02-.16.03h-.16l-.16.03-.16.02-.16.03h-.16l-.17.03-.15.02-.16.03-.17.02-.18.02-.16.02h-.17l-.17.04-.16.02-.16.02h-.18l-.16.03h-.18l-.16.03-.17.02h-.2l-.15.03h-.17l-.18.03-.16.02h-.18l-.17.03h-.35l-.17.03-.18.02h-.18l-.17.03h-.18l-.17.02-.18.02-.18.02h-.35l-.18.03h-.36l-.17.02h-.2l-.18.02H485l-.2.03h-.55l-.17.03h-.38l-.16.02H482.6l-.17.03h-2.25zm0-4.43H481.8l.18-.03h.53l.2-.02H483.55l.17-.03H484.43l.18-.03h.18l.18-.02h.51l.18-.03H486l.18-.03h.16l.18-.02h.33l.16-.03.17-.02h.16l.17-.02.16-.02h.16l.18-.03h.32l.18-.02.16-.02h.16l.16-.03h.16l.17-.03.17-.02h.16l.16-.03h.15l.16-.03.17-.02h.16l.15-.03h.16l.16-.03.16-.02h.16l.14-.03.16-.02.16-.04h.16l.14-.03h.16l.15-.02.15-.03.14-.02h.15l.15-.03.14-.03.16-.02h.14l.15-.05h.15l.14-.03.14-.03.14-.02.14-.03.15-.02.14-.02.16-.03.14-.02.14-.02.15-.02.13-.03h.15l.14-.05.13-.03h.14l.14-.05h.12l.15-.04.15-.04h.13l.14-.04.13-.02.13-.03.14-.03.13-.04h.13l.14-.04.13-.04h.13l.13-.04.14-.04.12-.03.13-.03.12-.02.13-.03.13-.04.12-.03.13-.03.1-.04.14-.03h.13l.1-.05.14-.03.13-.03.1-.03.12-.04.12-.04.1-.03.14-.04.1-.03.12-.03.12-.04.1-.03.12-.03.1-.03.12-.03.12-.04.1-.04.12-.04.1-.03.12-.04.1-.03.1-.03.12-.04.1-.03.1-.05.1-.03.12-.03.1-.03.1-.06.1-.03.1-.02.1-.04.1-.04.1-.04.08-.03.1-.03.1-.05.1-.03.1-.03.08-.06.08-.03.1-.02.1-.05.08-.03.1-.04.07-.04.1-.04.08-.04.1-.04.07-.04.1-.04.07-.03.08-.06.08-.03.08-.04.08-.03.08-.05.07-.03.1-.05.07-.03.06-.05.08-.03.1-.06.06-.03.06-.04.08-.04.06-.04.07-.04.06-.04.07-.04.07-.05.06-.02.06-.05.07-.03.05-.05.06-.05.06-.03.05-.05.07-.05.06-.03.05-.05.05-.06.06-.04.05-.04.04-.04.04-.05.07-.03.05-.05.04-.06.05-.05.02-.04.05-.05.05-.04h.02l.03-.04v-.02l.03-.02.02-.03h.03v-.05h.03l.02-.03.03-.03v-.02l.03-.03.02-.02v-.04h.03l.02-.03.04-.02v-.02l.03-.03.02-.03.02-.03v-.02l.03-.03v-.02l.03-.03.02-.03v-.03h.03v-.04l.03-.02.02-.03v-.02l.03-.03v-.02l.03-.03v-.02l.02-.03v-.05h.03l.02-.04v-.02l.02-.02v-.03l.02-.02v-.04l.03-.04v-.1l.02-.02v-.03h.02V115l.03-.03v-.2l.03-.02v-.3l-.02-.04v-.2h-.03v-.11l-.03-.04-.02-.04v-.1l-.03-.02v-.03l-.03-.05-.02-.03v-.06l-.03-.03-.02-.04h-.02v-.04l-.02-.02v-.03l-.03-.02v-.05h-.02l-.02-.04v-.02l-.03-.03-.03-.02v-.04h-.02v-.04l-.03-.02v-.03l-.03-.02h-.02v-.05h-.03v-.04l-.05-.02v-.02l-.03-.03h-.02l-.02-.05h-.02v-.04l-.04-.02-.02-.02-.02-.03-.04-.04h-.02l-.02-.03v-.03l-.04-.02h-.02l-.05-.06-.05-.05-.03-.05-.06-.04-.04-.04-.05-.04-.07-.05-.04-.03-.05-.05-.06-.05-.06-.05-.05-.03-.05-.05-.06-.06-.07-.03-.05-.04-.06-.04-.06-.04-.05-.04-.07-.05-.06-.04-.06-.05-.07-.02-.08-.05-.07-.05-.07-.03-.06-.05-.08-.03-.06-.05-.07-.03-.1-.06-.07-.05-.06-.04-.08-.05-.1-.02-.06-.05-.08-.03-.08-.05-.08-.03-.08-.05-.08-.03-.08-.03-.1-.04-.07-.03-.1-.05-.07-.03-.1-.05-.08-.03-.1-.03-.07-.05-.1-.04-.1-.04-.08-.04-.1-.04-.1-.03-.08-.04-.1-.03-.1-.03-.1-.05-.1-.03-.08-.03-.1-.04-.1-.05-.1-.02-.1-.04-.1-.03-.1-.04-.1-.03-.12-.03-.1-.03-.1-.03-.12-.04-.1-.04-.1-.04-.12-.03-.1-.04-.12-.03-.12-.03-.1-.04-.12-.03-.1-.03-.12-.03-.12-.03-.1-.04-.12-.03-.13-.03-.1-.03-.14-.02-.12-.04-.1-.03-.14-.02-.13-.03-.1-.03-.13-.04-.13-.03-.1-.03-.14-.03-.12-.03-.13-.03-.13-.03-.13-.02-.14-.04h-.12l-.13-.04-.12-.04-.13-.03h-.13l-.14-.05-.13-.03-.13-.03-.14-.02-.13-.03-.13-.03-.14-.02-.13-.03-.14-.04-.14-.02-.12-.03h-.15l-.15-.04h-.13l-.14-.04-.15-.04h-.14l-.16-.04-.14-.02-.14-.02-.15-.03h-.13l-.15-.05h-.14l-.14-.04-.15-.02-.15-.02-.16-.03h-.16l-.14-.02-.16-.03-.14-.02h-.15l-.16-.05h-.15l-.16-.03h-.16l-.16-.05h-.14l-.16-.03h-.16l-.16-.03-.14-.02h-.16l-.16-.04-.16-.02-.16-.02h-.15l-.16-.03h-.16l-.15-.02-.16-.02h-.17l-.16-.03h-.16l-.16-.03-.16-.02h-.32l-.16-.03h-.18l-.16-.03-.16-.02H487.66l-.16-.03h-.17l-.16-.03H487l-.17-.02h-.33l-.18-.03-.16-.02h-.18l-.17-.02-.15-.02h-.51l-.18-.03h-.52l-.16-.02h-.17l-.18-.02H483.03l-.18-.03H481.43l-.18-.03H478.73l-.18.02H477.14l-.18.03H476.1l-.18.03h-.17l-.16.02h-.54l-.18.03h-.51l-.16.03-.18.02H473.68l-.18.03h-.16l-.17.02-.16.02h-.17l-.16.02h-.17l-.16.03H472l-.16.02-.16.02h-.18l-.16.03h-.32l-.16.03-.17.02h-.17l-.16.03h-.16l-.15.03-.16.02h-.17l-.16.03h-.15l-.16.03-.16.02-.16.03-.16.02-.14.02-.16.02h-.16l-.16.03h-.14l-.16.04h-.15l-.15.03h-.14l-.15.05h-.15l-.14.03-.16.03-.14.02h-.15l-.15.04-.14.02-.14.02-.14.03-.14.02-.15.04h-.14l-.16.04-.14.02-.14.02-.15.03h-.13l-.15.05-.14.03h-.13l-.14.05h-.14l-.12.04-.15.02-.15.03-.13.02-.14.02-.13.03-.13.03-.14.02-.13.03-.13.03-.14.04h-.13l-.13.04-.13.04-.14.03h-.12l-.13.05-.12.03-.13.04-.13.03-.12.02-.13.02-.1.03-.14.03-.13.04-.1.03-.14.03-.13.03-.1.04-.12.04-.12.03-.1.04-.14.03-.1.03-.12.04-.12.03-.1.03-.12.03-.1.03-.12.04-.12.03-.1.03-.12.03-.1.02-.12.04-.1.04-.1.04-.12.03-.1.03-.1.03-.1.03-.12.05-.1.04-.1.04-.1.03-.1.06-.1.03-.1.02-.1.03-.08.05-.1.03-.1.03-.1.05-.1.04-.08.04-.08.04-.1.04-.1.03-.08.04-.1.03-.07.03-.1.05-.08.03-.1.05-.07.03-.1.05-.07.04-.08.03-.08.05-.08.03-.08.05-.08.03-.07.05-.1.03-.07.06-.06.03-.08.04-.1.05-.06.02-.06.05-.08.03-.06.05-.07.03-.06.05-.07.05-.07.03-.06.06-.06.03-.07.04-.05.04-.06.04-.06.04-.05.05-.07.04-.06.05-.05.04-.05.03-.06.05-.05.05-.04.05-.04.03-.07.05-.05.04-.04.04-.05.04-.02.05-.05.05-.05.05h-.02l-.03.03v.03l-.03.02h-.02l-.03.05-.03.04-.02.02-.03.02v.03l-.03.02-.02.04-.03.04-.02.02-.04.02v.03h-.03v.05h-.02l-.02.03v.03l-.03.02v.03h-.03v.05h-.02v.03l-.03.04v.02l-.03.03h-.02v.04l-.03.03v.03l-.03.02v.03h-.02v.05l-.03.04-.02.02v.03h-.02v.02l-.02.04v.04l-.03.02v.1l-.02.03-.02.05v.11l-.03.02V114.42l-.03.03v.31l.02.02v.18l.03.04V115.13h.03v.04l.02.02v.1l.03.03v.05h.03v.04l.02.02v.05h.03v.04h.02l.02.04v.02l.02.03v.02l.03.03v.02l.02.04.02.02v.03h.03v.04l.03.02.02.04v.02l.03.03v.02l.03.03.02.02.03.04v.02l.05.03v.03h.03l.02.05h.02l.02.04v.02l.04.03.02.02h.02v.04h.04l.02.04.02.02v.02l.04.03h.02l.05.06.05.06.03.03.06.04.04.05.05.04.07.03.04.05.05.04.06.04.06.04.05.05.05.04.06.03.07.05.05.05.06.03.06.05.05.05.07.03.06.05.06.03.07.06.08.04.07.04.07.04.06.04.08.04.06.05.07.04.1.05.07.02.06.05.08.03.1.05.06.03.08.05.08.03.08.05.08.04.08.05.08.02.1.04.07.04.1.04.07.04.1.04.08.04.1.04.07.03.1.05.1.03.08.04.1.05.1.02.08.03.1.05.1.03.1.03.1.04.08.04.1.04.1.03.1.04.1.05.1.02.1.03.1.03.12.05.1.03.1.04.12.03.1.03.1.03.12.02.1.04.12.04.12.04.1.03.12.03.1.03.12.03.12.04.1.03.12.03.13.03.1.02.14.04.12.03.1.02.14.03.13.03.1.04h.13l.13.04.1.04.14.03.12.03.13.03.13.02.13.02.14.03.12.03.13.04.12.03h.13l.13.05.14.03h.13l.13.05.14.03.13.03.13.02.14.03.13.02.14.04.14.03h.12l.15.04h.15l.13.04.14.04h.15l.14.04.16.02.14.03.14.03.15.03.13.02h.15l.14.04.14.02.15.03.15.02h.16l.16.04h.14l.16.03.14.03.15.02h.16l.15.03.16.03.16.02h.16l.14.03h.16l.16.05h.16l.14.03.16.02.16.02.16.02h.16l.15.03h.16l.16.02.15.02h.16l.17.03h.16l.16.03.16.02h.16l.16.03h.16l.16.03.18.02h.32l.18.03h.16l.16.03.17.02H473l.17.03h.17l.16.02.18.02h.16l.18.02h.32l.18.03h.51l.18.02h.17l.17.02h.69l.17.03h.89l.2.03h.52l.2.02H479.83zm0 0" fill="#ef8d22"/><path d="M400 205c0-2.76 2.24-5 5-5h150c2.76 0 5 2.24 5 5v30c0 2.76-2.24 5-5 5H405c-2.76 0-5-2.24-5-5z" fill="none"/><use xlink:href="#a" transform="matrix(1,0,0,1,400,200) translate(26.839506172839506 23.555555555555557)"/><use xlink:href="#b" transform="matrix(1,0,0,1,400,200) translate(107.58024691358024 23.555555555555557)"/><path d="M80 80h160v160H80z" fill="#ef8d22"/><path d="M181.87 116.8v18.13H160v25.6h21.87v18.14H120V116.8z" fill="#fff"/><path d="M163.73 138.67H200v18.1h-36.27z" fill="#fff"/><path d="M80 205c0-2.76 2.24-5 5-5h150c2.76 0 5 2.24 5 5v30c0 2.76-2.24 5-5 5H85c-2.76 0-5-2.24-5-5z" fill="none"/><use xlink:href="#c" transform="matrix(1,0,0,1,80,200) translate(42.098765432098766 23.555555555555557)"/><path d="M1040 438.67h160v160h-160z" fill="#7ab648"/><path d="M1125.54 537.43c-.26-.04-.53-.04-.77-.12-.24-.07-.48-.2-.7-.35-.42-.3-.76-.72-.97-1.2-.1-.24-.14-.5-.2-.75l-4.6-37.76-2.6 16.08-.2.74c-.16.22-.27.46-.44.65-.36.4-.8.7-1.32.85-.25.08-.5.08-.76.1h-4.56l-3.68 8.02-.45.68c-.56.46-.67.65-1.37.84-.26.06-.53.1-.8.1-.55-.03-1.07-.2-1.52-.5-.22-.17-.42-.36-.58-.57-.16-.2-.28-.46-.4-.7l-5.9-15.07-1.02 2.67-.4.72c-.52.5-.64.72-1.36.94-.27.07-.56.07-.83.12H1080v-5.55h8.18l2.88-7.63.4-.74c.2-.2.38-.4.6-.57.23-.16.47-.3.74-.37.53-.18 1.1-.18 1.65-.02.27.08.53.2.75.37.62.43.67.67 1.04 1.3l6.16 15.72 1.7-3.7.43-.67c.2-.18.37-.37.6-.5.6-.4.8-.35 1.5-.44h3.98l5.3-33.2.24-.76c.4-.58.44-.8 1.04-1.17.23-.14.48-.24.74-.3.5-.15 1.06-.15 1.57 0 .24.1.47.22.7.36.22.15.4.32.58.53.47.55.45.77.63 1.44l4.98 40.7 2.02-9.6.26-.7c.38-.56.43-.77 1.02-1.12.22-.13.46-.22.7-.3.5-.1 1-.1 1.5.03.25.07.5.2.7.3.2.14.4.32.6.5.47.54 1.1 2 1.27 2.35h2.85l2.32-10.37.27-.74c.4-.54.45-.75 1.08-1.1.22-.1.48-.2.73-.27.27-.07.52-.08.78-.07.53.03 1.02.2 1.46.5.57.43.62.64.96 1.23l3.6 8.94h11.5v5.56h-13.36l-.82-.13c-.24-.1-.5-.2-.73-.35-.64-.42-.67-.64-1.04-1.27l-.97-2.4-.88 3.84-.25.7c-.15.2-.26.44-.43.6-.36.38-.8.64-1.28.77-.24.05-.5.07-.74.1h-6.78l-.05-.02-4.33 20.56c-.1.24-.13.5-.26.72-.23.47-.6.87-1.06 1.12-.22.13-.5.2-.74.3-.25.02-.5.02-.76.05zm0 0" fill="#fff"/><path d="M1040 562.33c0-2.76 2.24-5 5-5h150c2.76 0 5 2.24 5 5V595c0 2.76-2.24 5-5 5h-150c-2.76 0-5-2.24-5-5z" fill="none"/><use xlink:href="#d" transform="matrix(1,0,0,1,1040,557.3333333333334) translate(16.913580246913583 25.055555555555557)"/><path d="M80 800h160v160H80z" fill="#3aa6dd"/><path d="M181.87 836.8v18.13H160v25.6h21.87v18.14H120V836.8z" fill="#fff"/><path d="M163.73 858.67H200v18.1h-36.27z" fill="#fff"/><path d="M80 923.67c0-2.76 2.24-5 5-5h150c2.76 0 5 2.24 5 5v32.66c0 2.76-2.24 5-5 5H85c-2.76 0-5-2.24-5-5z" fill="none"/><use xlink:href="#e" transform="matrix(1,0,0,1,80,918.6666666666666) translate(56.79012345679012 25.055555555555557)"/><path d="M160 800V600" stroke="#000" stroke-width="2" fill="none"/><path d="M161 800h-2 2zM164.64 614.27h-9.28L160 600z"/><path d="M166 615.27h-12l4.95-15.27h2.1zm-9.26-2h6.52L160 603.24z"/><path d="M160 240v200" stroke="#000" stroke-width="2" fill="none"/><path d="M161 240h-2 2zM160 440l-4.64-14.27h9.28z"/><path d="M161.05 440h-2.1L154 424.73h12zm-4.3-13.27l3.25 10.03 3.26-10.03z"/><path d="M400 439h160v160H400z" fill="url(#f)"/><path d="M458.13 475.8v18.13H480v25.6h-21.87v18.14H520V475.8z" fill="#fff"/><path d="M440 497.67h36.27v18.1H440z" fill="#fff"/><path d="M400 564c0-2.76 2.24-5 5-5h150c2.76 0 5 2.24 5 5v30c0 2.76-2.24 5-5 5H405c-2.76 0-5-2.24-5-5z" fill="none"/><use xlink:href="#g" transform="matrix(1,0,0,1,400,559) translate(46.51851851851852 23.555555555555557)"/><path d="M560 519h160" stroke="#000" stroke-width="2" fill="none"/><path d="M560 520v-2zM720 519l-14.27 4.64v-9.28z"/><path d="M720 517.95v2.1L704.73 525v-12zm-13.27 4.3l10.03-3.25-10.03-3.26z"/><path d="M880 519.67l160-.67" stroke="#000" stroke-width="2" fill="none"/><path d="M1040 519l-14.25 4.7-.04-9.28z"/><path d="M1040 517.95v2.1l-15.24 5.03-.05-12.03zm-13.25 4.36l10-3.3-10.03-3.2z"/><path d="M400 801h160v160H400z" fill="#3aa6dd"/><path d="M508 902.07c-.27 4-12.7 7.2-28 7.2s-27.73-3.2-28-7.2v-.14-66.53h56zm0 0z" fill="#fff"/><path d="M452 835.6c0-4.1 12.54-7.4 28-7.4s28 3.3 28 7.4c0 4.1-12.54 7.43-28 7.43s-28-3.33-28-7.42z" fill="#fff"/><path d="M480 847.46h-2.44l-.17-.03H476.45l-.17-.03h-.38l-.18-.02h-.54l-.2-.03h-.52l-.2-.03h-.17l-.16-.02h-.36l-.17-.03h-.34l-.18-.03-.18-.02h-.35l-.17-.03-.18-.02-.18-.02-.17-.02h-.36l-.16-.03h-.18l-.16-.02-.18-.02h-.17l-.16-.03h-.2l-.16-.03-.16-.02h-.18l-.16-.03h-.18l-.16-.03-.16-.02-.17-.03h-.16l-.15-.03-.18-.02h-.16l-.15-.04-.16-.02-.18-.02h-.16l-.16-.04-.16-.02-.16-.02h-.16l-.16-.04-.16-.02-.16-.03-.16-.02h-.16l-.16-.05h-.15l-.15-.04-.16-.02-.17-.03h-.14l-.17-.04-.16-.02-.15-.03h-.16l-.14-.04-.16-.03h-.14l-.16-.05h-.15l-.13-.04-.16-.04h-.14l-.14-.04-.14-.04-.16-.03-.15-.02-.14-.04-.15-.03-.14-.02-.14-.03-.15-.02-.14-.03-.14-.03-.14-.03-.14-.04-.13-.03-.15-.03-.14-.03-.14-.02-.13-.04-.16-.03-.14-.02-.13-.03-.14-.03-.13-.04-.14-.03-.13-.03-.13-.03-.14-.04-.13-.04-.13-.03-.14-.06-.13-.03-.13-.02-.13-.03-.13-.03-.12-.05-.13-.03-.14-.04-.13-.04-.13-.04-.12-.03-.13-.04-.1-.05-.14-.02-.12-.05-.13-.03-.1-.05-.14-.03-.1-.03-.13-.06-.1-.03-.14-.04-.1-.05-.14-.02-.12-.05-.1-.03-.14-.05-.1-.05-.12-.03-.12-.05-.1-.04-.12-.04-.1-.04-.12-.05-.12-.05-.1-.03-.12-.05-.1-.05-.12-.05-.12-.04-.1-.05-.1-.05-.12-.05-.1-.05-.1-.04-.12-.05-.1-.06-.1-.05-.1-.06-.1-.04-.1-.07-.12-.05-.1-.04-.1-.05-.1-.08-.1-.04-.1-.05-.1-.07-.1-.04-.1-.07-.1-.05-.1-.06-.1-.06-.08-.05-.1-.07-.1-.06-.1-.05-.1-.06-.07-.08-.1-.06-.1-.06-.1-.07-.08-.06-.1-.07-.1-.08-.08-.06-.08-.06-.1-.08-.08-.07-.1-.08-.08-.06-.1-.07-.07-.08-.1-.08-.07-.08-.08-.1-.1-.07-.07-.08-.08-.08-.05-.05-.03-.05-.05-.03-.03-.05-.05-.06-.06-.04-.03-.05-.04-.05-.03-.03-.05-.05-.03-.05-.05-.05-.03-.04-.03-.05-.05-.05-.04-.05-.05-.06-.02-.05-.04-.05-.04-.05-.04-.04-.03-.07-.05-.04-.03-.04-.03-.07-.03-.05-.06-.06-.03-.05-.02-.07-.04-.05-.03-.06-.02-.05-.05-.07-.03-.06-.03-.05-.03-.07-.04-.07-.03-.06v-.06l-.05-.05-.03-.08-.04-.06-.03-.06-.03-.07-.02-.06-.03-.08-.03-.08-.02-.06-.03-.06-.02-.07-.03-.08-.02-.06-.03-.08v-.08l-.05-.06v-.06l-.03-.08-.02-.07-.02-.08-.03-.07-.02-.08v-.07l-.02-.08-.02-.08v-.14l-.03-.08v-.14l-.03-.08v-.08l-.02-.07v-.31l-.03-.08V835.37l.02-.08v-.3l.03-.08v-.08l.02-.06v-.16l.03-.07v-.16l.03-.07.02-.08v-.08l.03-.07.03-.08.02-.06v-.08l.03-.06.02-.07.04-.08v-.06l.04-.07.02-.07.03-.06.02-.06.03-.08.02-.07.03-.07.03-.07.02-.06.03-.06.03-.07.03-.06.02-.06.04-.06v-.06l.04-.07.04-.05.03-.06.03-.06.03-.05.05-.07.03-.06.04-.05.04-.06.03-.06.04-.06.05-.05.02-.07.03-.04.03-.05.05-.07.03-.04.04-.05.04-.04.04-.06.03-.05.06-.05.03-.05.04-.05.03-.04.03-.05.05-.04.03-.05.05-.04.03-.04.05-.05.04-.05.05-.03.04-.06.03-.05.05-.06.03-.03.05-.04.08-.08.08-.1.1-.07.07-.07.08-.08.1-.08.1-.07.08-.08.08-.08.1-.06.08-.08.1-.06.08-.07.1-.08.1-.07.07-.07.08-.06.1-.06.1-.07.1-.06.07-.06.1-.06.1-.06.1-.05.1-.07.08-.06.1-.05.1-.07.1-.07.1-.04.1-.07.1-.05.1-.04.1-.07.1-.06.1-.04.1-.07.1-.05.1-.04.1-.05.1-.06.12-.05.1-.07.1-.05.1-.05.1-.05.13-.04.1-.05.1-.06.12-.03.1-.04.12-.05.1-.04.12-.04.12-.05.1-.03.12-.05.1-.06.12-.05.12-.04.1-.05.12-.04.13-.03.1-.05.12-.03.12-.05.1-.03.14-.05.1-.03.14-.06.1-.03.14-.04.1-.03.14-.05.13-.03.14-.05.1-.03.14-.03.12-.05.13-.04.13-.03.13-.03.12-.05.12-.03.13-.04.13-.03.13-.05.13-.03.14-.03.13-.03.13-.02.14-.04.13-.04.13-.04.14-.03.13-.03.14-.03.13-.03.14-.04.15-.03.12-.03.14-.03.14-.02.15-.04h.13l.14-.04.14-.04.15-.03.15-.03.15-.03.14-.03.14-.02.15-.03.14-.04.15-.04.16-.03.14-.02.14-.04.15-.03h.17l.14-.04.16-.03h.16l.14-.05h.16l.14-.04.16-.04h.15l.16-.04.16-.02.13-.03h.16l.15-.04.16-.02.16-.03h.16l.16-.02.16-.03.16-.02.16-.03.16-.02h.16l.16-.04.16-.02.16-.02h.16l.17-.04.15-.02.16-.02h.17l.18-.03.16-.04.17-.02h.17l.16-.03h.16l.18-.02.16-.02h.18l.16-.03h.17l.2-.03.15-.02h.17l.18-.03h.16l.18-.03.17-.02h.2l.15-.03h.35l.18-.03.17-.02h.18l.17-.03h.18l.18-.02.17-.02h.18l.18-.02h.36l.17-.03h.38l.18-.02h.17l.18-.02h.55l.2-.03H476.45l.2-.03h.37l.17-.02h1.68l.18-.03H480.94l.18.02H482.8l.18.03h.36l.2.02h.73l.2.03h.54l.17.03h.17l.18.02h.37l.16.03h.36l.17.03h.17l.17.02h.36l.17.03.18.02.17.02.18.02h.35l.16.03h.2l.16.02.18.02h.16l.18.03h.17l.16.03.2.02h.16l.16.03h.18l.16.03.18.02h.16l.16.03h.17l.16.03.15.03h.18l.16.02.15.02.16.02.18.03h.16l.16.02.16.02.16.03h.16l.16.03.16.03.16.02.16.03.16.02h.16l.15.04.15.02.16.03h.17l.14.04.17.02.16.03h.15l.16.04.14.03h.16l.14.05h.16l.15.04.13.04h.16l.14.04.14.04h.14l.16.04.15.04.14.03.15.02.14.02.14.03.15.03.14.03.14.03.14.04.14.03h.13l.15.05.14.03.14.04.13.03.16.03.14.04.13.03.14.03.13.03.14.03.13.04.13.04.14.04.13.03.13.04.14.03.13.03.13.05.13.03.13.04.12.03.13.05.14.03.13.03.13.03.12.04.13.03.1.03.14.05.12.03.13.05.1.03.14.05.1.04.13.05.1.02.14.05.1.03.14.05.12.03.1.05.14.03.1.05.12.06.12.03.1.04.12.05.1.04.12.03.12.05.1.04.12.05.1.06.12.05.12.04.1.05.1.04.12.04.1.05.1.05.12.05.1.06.1.04.1.05.1.04.1.04.12.05.1.07.1.04.1.05.1.06.1.04.1.05.1.07.1.04.1.07.1.06.1.04.08.06.1.07.1.05.1.06.1.06.07.07.1.07.1.07.1.06.08.06.1.07.1.06.08.07.08.07.1.06.08.08.1.06.08.08.1.08.07.07.1.08.07.08.08.08.1.1.07.08.08.08.05.05.03.04.05.05.03.04.05.05.06.02.03.05.04.05.03.04.05.05.03.06.03.05.05.06.03.04.05.05.04.05.05.05.02.05.04.06.04.05.04.06.03.04.05.07.03.05.03.04.03.07.06.05.03.06.02.05.04.05.03.05.02.06.05.07.03.05.03.06.03.06.04.05.03.07v.06l.05.06.03.07.04.07.03.07.03.06.02.06.03.07.03.06.02.06.03.08.02.06.03.06.02.07.03.08v.07l.05.08v.07l.03.06.02.08.02.06.03.08.02.07v.08l.02.08.02.06V834.54l.03.07v.16l.03.06v.08l.02.08V835.3l.03.08V835.86l-.02.08V836.22l-.03.07v.08l-.02.08v.14l-.03.08v.14l-.03.08-.02.08v.07l-.03.08-.03.06-.02.07v.07l-.03.08-.02.06-.04.06v.08l-.04.07-.02.05-.03.08-.02.07-.03.06-.02.06-.03.07-.03.07-.02.06-.03.07-.03.06-.03.06-.02.07-.04.04v.06l-.04.06-.04.07-.03.06-.03.04-.03.06-.05.07-.03.05-.04.06-.04.05-.03.06-.04.04-.05.06-.02.05-.03.07-.03.04-.05.05-.03.08-.04.04-.04.05-.04.05-.03.05-.06.06-.03.05-.04.05-.03.05-.05.04-.03.05-.03.05-.05.05-.03.03-.05.05-.04.05-.05.04-.04.05-.03.04-.05.03-.03.05-.05.05-.08.08-.08.08-.1.08-.07.1-.08.07-.1.08-.1.08-.08.08-.08.07-.1.08-.08.07-.1.08-.08.06-.1.06-.1.08-.07.07-.08.06-.1.07-.1.06-.1.06-.07.07-.1.05-.1.05-.1.06-.1.07-.08.05-.1.06-.1.06-.1.05-.1.07-.1.04-.1.07-.1.05-.1.04-.1.07-.1.04-.1.04-.1.05-.1.07-.1.04-.1.05-.12.04-.1.05-.1.04-.1.04-.1.05-.13.05-.1.05-.1.05-.12.04-.1.05-.12.05-.1.05-.12.03-.12.05-.1.05-.12.04-.1.04-.12.04-.12.05-.1.03-.12.05-.13.05-.1.03-.12.05-.12.03-.1.06-.14.05-.1.04-.14.05-.1.02-.14.03-.1.05-.14.03-.13.05-.14.03-.1.04-.14.05-.12.02-.13.04-.13.04-.13.04-.12.03-.12.05-.13.03-.13.03-.13.03-.13.04-.14.05-.13.02-.13.04-.14.03-.13.02-.13.03-.14.03-.13.04-.14.03-.13.03-.14.03-.15.04-.12.04-.14.03-.14.04-.15.03-.13.03-.14.04-.14.03-.15.03-.15.03-.15.02-.14.03-.14.03-.15.04-.14.04h-.15l-.16.04-.14.04-.14.03h-.15l-.17.04-.14.03h-.16l-.16.05h-.14l-.16.04-.14.04h-.16l-.15.04-.16.02-.16.03h-.13l-.16.04-.15.02-.16.03h-.16l-.16.04h-.16l-.16.03-.16.03-.16.02-.16.03h-.16l-.16.03-.16.02-.16.03h-.16l-.17.03-.15.02-.16.03-.17.02-.18.02-.16.02h-.17l-.17.04-.16.02-.16.02h-.18l-.16.03h-.18l-.16.03-.17.02h-.2l-.15.03h-.17l-.18.03-.16.02h-.18l-.17.03h-.35l-.17.03-.18.02h-.18l-.17.03h-.18l-.17.02-.18.02-.18.02h-.35l-.18.03h-.36l-.17.02h-.2l-.18.02H485l-.2.03h-.55l-.17.03h-.38l-.16.02H482.6l-.17.03h-2.25zm0-4.43H481.8l.18-.03h.53l.2-.02H483.55l.17-.03H484.43l.18-.03h.18l.18-.02h.51l.18-.03H486l.18-.03h.16l.18-.02h.33l.16-.03.17-.02h.16l.17-.02.16-.02h.16l.18-.03h.32l.18-.02.16-.02h.16l.16-.03h.16l.17-.03.17-.02h.16l.16-.03h.15l.16-.03.17-.02h.16l.15-.03h.16l.16-.03.16-.02h.16l.14-.03.16-.02.16-.04h.16l.14-.03h.16l.15-.02.15-.03.14-.02h.15l.15-.03.14-.03.16-.02h.14l.15-.05h.15l.14-.03.14-.03.14-.02.14-.03.15-.02.14-.02.16-.03.14-.02.14-.02.15-.02.13-.03h.15l.14-.05.13-.03h.14l.14-.05h.12l.15-.04.15-.04h.13l.14-.04.13-.02.13-.03.14-.03.13-.04h.13l.14-.04.13-.04h.13l.13-.04.14-.04.12-.03.13-.03.12-.02.13-.03.13-.04.12-.03.13-.03.1-.04.14-.03h.13l.1-.05.14-.03.13-.03.1-.03.12-.04.12-.04.1-.03.14-.04.1-.03.12-.03.12-.04.1-.03.12-.03.1-.03.12-.03.12-.04.1-.04.12-.04.1-.03.12-.04.1-.03.1-.03.12-.04.1-.03.1-.05.1-.03.12-.03.1-.03.1-.06.1-.03.1-.02.1-.04.1-.04.1-.04.08-.03.1-.03.1-.05.1-.03.1-.03.08-.06.08-.03.1-.02.1-.05.08-.03.1-.04.07-.04.1-.04.08-.04.1-.04.07-.04.1-.04.07-.03.08-.06.08-.03.08-.04.08-.03.08-.05.07-.03.1-.05.07-.03.06-.05.08-.03.1-.06.06-.03.06-.04.08-.04.06-.04.07-.04.06-.04.07-.04.07-.05.06-.02.06-.05.07-.03.05-.05.06-.05.06-.03.05-.05.07-.05.06-.03.05-.05.05-.06.06-.04.05-.04.04-.04.04-.05.07-.03.05-.05.04-.06.05-.05.02-.04.05-.05.05-.04h.02l.03-.04v-.02l.03-.02.02-.03h.03v-.05h.03l.02-.03.03-.03v-.02l.03-.03.02-.02v-.04h.03l.02-.03.04-.02v-.02l.03-.03.02-.03.02-.03v-.02l.03-.03v-.02l.03-.03.02-.03v-.03h.03v-.04l.03-.02.02-.03v-.02l.03-.03v-.02l.03-.03v-.02l.02-.03v-.05h.03l.02-.04v-.02l.02-.02v-.03l.02-.02v-.04l.03-.04v-.1l.02-.02v-.03h.02V836l.03-.03v-.2l.03-.02v-.3l-.02-.04v-.2h-.03v-.11l-.03-.04-.02-.04v-.1l-.03-.02v-.03l-.03-.05-.02-.03v-.06l-.03-.03-.02-.04h-.02v-.04l-.02-.02v-.03l-.03-.02v-.05h-.02l-.02-.04v-.02l-.03-.03-.03-.02v-.04h-.02v-.04l-.03-.02v-.03l-.03-.02h-.02v-.05h-.03v-.04l-.05-.02v-.02l-.03-.03h-.02l-.02-.05h-.02v-.04l-.04-.02-.02-.02-.02-.03-.04-.04h-.02l-.02-.03v-.03l-.04-.02h-.02l-.05-.06-.05-.05-.03-.05-.06-.04-.04-.04-.05-.04-.07-.05-.04-.03-.05-.05-.06-.05-.06-.05-.05-.03-.05-.05-.06-.06-.07-.03-.05-.04-.06-.04-.06-.04-.05-.04-.07-.05-.06-.04-.06-.05-.07-.02-.08-.05-.07-.05-.07-.03-.06-.05-.08-.03-.06-.05-.07-.03-.1-.06-.07-.05-.06-.04-.08-.05-.1-.02-.06-.05-.08-.03-.08-.05-.08-.03-.08-.05-.08-.03-.08-.03-.1-.04-.07-.03-.1-.05-.07-.03-.1-.05-.08-.03-.1-.03-.07-.05-.1-.04-.1-.04-.08-.04-.1-.04-.1-.03-.08-.04-.1-.03-.1-.03-.1-.05-.1-.03-.08-.03-.1-.04-.1-.05-.1-.02-.1-.04-.1-.03-.1-.04-.1-.03-.12-.03-.1-.03-.1-.03-.12-.04-.1-.04-.1-.04-.12-.03-.1-.04-.12-.03-.12-.03-.1-.04-.12-.03-.1-.03-.12-.03-.12-.03-.1-.04-.12-.03-.13-.03-.1-.03-.14-.02-.12-.04-.1-.03-.14-.02-.13-.03-.1-.03-.13-.04-.13-.03-.1-.03-.14-.03-.12-.03-.13-.03-.13-.03-.13-.02-.14-.04h-.12l-.13-.04-.12-.04-.13-.03h-.13l-.14-.05-.13-.03-.13-.03-.14-.02-.13-.03-.13-.03-.14-.02-.13-.03-.14-.04-.14-.02-.12-.03h-.15l-.15-.04h-.13l-.14-.04-.15-.04h-.14l-.16-.04-.14-.02-.14-.02-.15-.03h-.13l-.15-.05h-.14l-.14-.04-.15-.02-.15-.02-.16-.03h-.16l-.14-.02-.16-.03-.14-.02h-.15l-.16-.05h-.15l-.16-.03h-.16l-.16-.05h-.14l-.16-.03h-.16l-.16-.03-.14-.02h-.16l-.16-.04-.16-.02-.16-.02h-.15l-.16-.03h-.16l-.15-.02-.16-.02h-.17l-.16-.03h-.16l-.16-.03-.16-.02h-.32l-.16-.03h-.18l-.16-.03-.16-.02H487.66l-.16-.03h-.17l-.16-.03H487l-.17-.02h-.33l-.18-.03-.16-.02h-.18l-.17-.02-.15-.02h-.51l-.18-.03h-.52l-.16-.02h-.17l-.18-.02H483.03l-.18-.03H481.43l-.18-.03H478.73l-.18.02H477.14l-.18.03H476.1l-.18.03h-.17l-.16.02h-.54l-.18.03h-.51l-.16.03-.18.02H473.68l-.18.03h-.16l-.17.02-.16.02h-.17l-.16.02h-.17l-.16.03H472l-.16.02-.16.02h-.18l-.16.03h-.32l-.16.03-.17.02h-.17l-.16.03h-.16l-.15.03-.16.02h-.17l-.16.03h-.15l-.16.03-.16.02-.16.03-.16.02-.14.02-.16.02h-.16l-.16.03h-.14l-.16.04h-.15l-.15.03h-.14l-.15.05h-.15l-.14.03-.16.03-.14.02h-.15l-.15.04-.14.02-.14.02-.14.03-.14.02-.15.04h-.14l-.16.04-.14.02-.14.02-.15.03h-.13l-.15.05-.14.03h-.13l-.14.05h-.14l-.12.04-.15.02-.15.03-.13.02-.14.02-.13.03-.13.03-.14.02-.13.03-.13.03-.14.04h-.13l-.13.04-.13.04-.14.03h-.12l-.13.05-.12.03-.13.04-.13.03-.12.02-.13.02-.1.03-.14.03-.13.04-.1.03-.14.03-.13.03-.1.04-.12.04-.12.03-.1.04-.14.03-.1.03-.12.04-.12.03-.1.03-.12.03-.1.03-.12.04-.12.03-.1.03-.12.03-.1.02-.12.04-.1.04-.1.04-.12.03-.1.03-.1.03-.1.03-.12.05-.1.04-.1.04-.1.03-.1.06-.1.03-.1.02-.1.03-.08.05-.1.03-.1.03-.1.05-.1.04-.08.04-.08.04-.1.04-.1.03-.08.04-.1.03-.07.03-.1.05-.08.03-.1.05-.07.03-.1.05-.07.04-.08.03-.08.05-.08.03-.08.05-.08.03-.07.05-.1.03-.07.06-.06.03-.08.04-.1.05-.06.02-.06.05-.08.03-.06.05-.07.03-.06.05-.07.05-.07.03-.06.06-.06.03-.07.04-.05.04-.06.04-.06.04-.05.05-.07.04-.06.05-.05.04-.05.03-.06.05-.05.05-.04.05-.04.03-.07.05-.05.04-.04.04-.05.04-.02.05-.05.05-.05.05h-.02l-.03.03v.03l-.03.02h-.02l-.03.05-.03.04-.02.02-.03.02v.03l-.03.02-.02.04-.03.04-.02.02-.04.02v.03h-.03v.05h-.02l-.02.03v.03l-.03.02v.03h-.03v.05h-.02v.03l-.03.04v.02l-.03.03h-.02v.04l-.03.03v.03l-.03.02v.03h-.02v.05l-.03.04-.02.02v.03h-.02v.02l-.02.04v.04l-.03.02v.1l-.02.03-.02.05v.11l-.03.02V835.42l-.03.03v.31l.02.02v.18l.03.04V836.13h.03v.04l.02.02v.1l.03.03v.05h.03v.04l.02.02v.05h.03v.04h.02l.02.04v.02l.02.03v.02l.03.03v.02l.02.04.02.02v.03h.03v.04l.03.02.02.04v.02l.03.03v.02l.03.03.02.02.03.04v.02l.05.03v.03h.03l.02.05h.02l.02.04v.02l.04.03.02.02h.02v.04h.04l.02.04.02.02v.02l.04.03h.02l.05.06.05.06.03.03.06.04.04.05.05.04.07.03.04.05.05.04.06.04.06.04.05.05.05.04.06.03.07.05.05.05.06.03.06.05.05.05.07.03.06.05.06.03.07.06.08.04.07.04.07.04.06.04.08.04.06.05.07.04.1.05.07.02.06.05.08.03.1.05.06.03.08.05.08.03.08.05.08.04.08.05.08.02.1.04.07.04.1.04.07.04.1.04.08.04.1.04.07.03.1.05.1.03.08.04.1.05.1.02.08.03.1.05.1.03.1.03.1.04.08.04.1.04.1.03.1.04.1.05.1.02.1.03.1.03.12.05.1.03.1.04.12.03.1.03.1.03.12.02.1.04.12.04.12.04.1.03.12.03.1.03.12.03.12.04.1.03.12.03.13.03.1.02.14.04.12.03.1.02.14.03.13.03.1.04h.13l.13.04.1.04.14.03.12.03.13.03.13.02.13.02.14.03.12.03.13.04.12.03h.13l.13.05.14.03h.13l.13.05.14.03.13.03.13.02.14.03.13.02.14.04.14.03h.12l.15.04h.15l.13.04.14.04h.15l.14.04.16.02.14.03.14.03.15.03.13.02h.15l.14.04.14.02.15.03.15.02h.16l.16.04h.14l.16.03.14.03.15.02h.16l.15.03.16.03.16.02h.16l.14.03h.16l.16.05h.16l.14.03.16.02.16.02.16.02h.16l.15.03h.16l.16.02.15.02h.16l.17.03h.16l.16.03.16.02h.16l.16.03h.16l.16.03.18.02h.32l.18.03h.16l.16.03.17.02H473l.17.03h.17l.16.02.18.02h.16l.18.02h.32l.18.03h.51l.18.02h.17l.17.02h.69l.17.03h.89l.2.03h.52l.2.02H479.83zm0 0" fill="#3aa6dd"/><path d="M400 926c0-2.76 2.24-5 5-5h150c2.76 0 5 2.24 5 5v30c0 2.76-2.24 5-5 5H405c-2.76 0-5-2.24-5-5z" fill="none"/><use xlink:href="#h" transform="matrix(1,0,0,1,400,921) translate(41.53086419753086 23.555555555555557)"/><use xlink:href="#b" transform="matrix(1,0,0,1,400,921) translate(92.88888888888889 23.555555555555557)"/><path d="M720 439h160v160H720z" fill="#7ab648"/><path d="M828 540.07c-.27 4-12.7 7.2-28 7.2s-27.73-3.2-28-7.2v-.14-66.53h56zm0 0z" fill="#fff"/><path d="M772 473.6c0-4.1 12.54-7.4 28-7.4s28 3.3 28 7.4c0 4.1-12.54 7.43-28 7.43s-28-3.33-28-7.42z" fill="#fff"/><path d="M800 485.46h-2.44l-.17-.03H796.45l-.17-.03h-.38l-.18-.02h-.54l-.2-.03h-.52l-.2-.03h-.17l-.16-.02h-.36l-.17-.03h-.34l-.18-.03-.18-.02h-.35l-.17-.03-.18-.02-.18-.02-.17-.02h-.36l-.16-.03h-.18l-.16-.02-.18-.02h-.17l-.16-.03h-.2l-.16-.03-.16-.02h-.18l-.16-.03h-.18l-.16-.03-.16-.02-.17-.03h-.16l-.15-.03-.18-.02h-.16l-.15-.04-.16-.02-.18-.02h-.16l-.16-.04-.16-.02-.16-.02h-.16l-.16-.04-.16-.02-.16-.03-.16-.02h-.16l-.16-.05h-.15l-.15-.04-.16-.02-.17-.03h-.14l-.17-.04-.16-.02-.15-.03h-.16l-.14-.04-.16-.03h-.14l-.16-.05h-.15l-.13-.04-.16-.04h-.14l-.14-.04-.14-.04-.16-.03-.15-.02-.14-.04-.15-.03-.14-.02-.14-.03-.15-.02-.14-.03-.14-.03-.14-.03-.14-.04-.13-.03-.15-.03-.14-.03-.14-.02-.13-.04-.16-.03-.14-.02-.13-.03-.14-.03-.13-.04-.14-.03-.13-.03-.13-.03-.14-.04-.13-.04-.13-.03-.14-.06-.13-.03-.13-.02-.13-.03-.13-.03-.12-.05-.13-.03-.14-.04-.13-.04-.13-.04-.12-.03-.13-.04-.1-.05-.14-.02-.12-.05-.13-.03-.1-.05-.14-.03-.1-.03-.13-.06-.1-.03-.14-.04-.1-.05-.14-.02-.12-.05-.1-.03-.14-.05-.1-.05-.12-.03-.12-.05-.1-.04-.12-.04-.1-.04-.12-.05-.12-.05-.1-.03-.12-.05-.1-.05-.12-.05-.12-.04-.1-.05-.1-.05-.12-.05-.1-.05-.1-.04-.12-.05-.1-.06-.1-.05-.1-.06-.1-.04-.1-.07-.12-.05-.1-.04-.1-.05-.1-.08-.1-.04-.1-.05-.1-.07-.1-.04-.1-.07-.1-.05-.1-.06-.1-.06-.08-.05-.1-.07-.1-.06-.1-.05-.1-.06-.07-.08-.1-.06-.1-.06-.1-.07-.08-.06-.1-.07-.1-.08-.08-.06-.08-.06-.1-.08-.08-.07-.1-.08-.08-.06-.1-.07-.07-.08-.1-.08-.07-.08-.08-.1-.1-.07-.07-.08-.08-.08-.05-.05-.03-.05-.05-.03-.03-.05-.05-.06-.06-.04-.03-.05-.04-.05-.03-.03-.05-.05-.03-.05-.05-.05-.03-.04-.03-.05-.05-.05-.04-.05-.05-.06-.02-.05-.04-.05-.04-.05-.04-.04-.03-.07-.05-.04-.03-.04-.03-.07-.03-.05-.06-.06-.03-.05-.02-.07-.04-.05-.03-.06-.02-.05-.05-.07-.03-.06-.03-.05-.03-.07-.04-.07-.03-.06v-.06l-.05-.05-.03-.08-.04-.06-.03-.06-.03-.07-.02-.06-.03-.08-.03-.08-.02-.06-.03-.06-.02-.07-.03-.08-.02-.06-.03-.08v-.08l-.05-.06v-.06l-.03-.08-.02-.07-.02-.08-.03-.07-.02-.08v-.07l-.02-.08-.02-.08v-.14l-.03-.08v-.14l-.03-.08v-.08l-.02-.07v-.31l-.03-.08V473.37l.02-.08v-.3l.03-.08v-.08l.02-.06v-.16l.03-.07v-.16l.03-.07.02-.08v-.08l.03-.07.03-.08.02-.06v-.08l.03-.06.02-.07.04-.08v-.06l.04-.07.02-.07.03-.06.02-.06.03-.08.02-.07.03-.07.03-.07.02-.06.03-.06.03-.07.03-.06.02-.06.04-.06v-.06l.04-.07.04-.05.03-.06.03-.06.03-.05.05-.07.03-.06.04-.05.04-.06.03-.06.04-.06.05-.05.02-.07.03-.04.03-.05.05-.07.03-.04.04-.05.04-.04.04-.06.03-.05.06-.05.03-.05.04-.05.03-.04.03-.05.05-.04.03-.05.05-.04.03-.04.05-.05.04-.05.05-.03.04-.06.03-.05.05-.06.03-.03.05-.04.08-.08.08-.1.1-.07.07-.07.08-.08.1-.08.1-.07.08-.08.08-.08.1-.06.08-.08.1-.06.08-.07.1-.08.1-.07.07-.07.08-.06.1-.06.1-.07.1-.06.07-.06.1-.06.1-.06.1-.05.1-.07.08-.06.1-.05.1-.07.1-.07.1-.04.1-.07.1-.05.1-.04.1-.07.1-.06.1-.04.1-.07.1-.05.1-.04.1-.05.1-.06.12-.05.1-.07.1-.05.1-.05.1-.05.13-.04.1-.05.1-.06.12-.03.1-.04.12-.05.1-.04.12-.04.12-.05.1-.03.12-.05.1-.06.12-.05.12-.04.1-.05.12-.04.13-.03.1-.05.12-.03.12-.05.1-.03.14-.05.1-.03.14-.06.1-.03.14-.04.1-.03.14-.05.13-.03.14-.05.1-.03.14-.03.12-.05.13-.04.13-.03.13-.03.12-.05.12-.03.13-.04.13-.03.13-.05.13-.03.14-.03.13-.03.13-.02.14-.04.13-.04.13-.04.14-.03.13-.03.14-.03.13-.03.14-.04.15-.03.12-.03.14-.03.14-.02.15-.04h.13l.14-.04.14-.04.15-.03.15-.03.15-.03.14-.03.14-.02.15-.03.14-.04.15-.04.16-.03.14-.02.14-.04.15-.03h.17l.14-.04.16-.03h.16l.14-.05h.16l.14-.04.16-.04h.15l.16-.04.16-.02.13-.03h.16l.15-.04.16-.02.16-.03h.16l.16-.02.16-.03.16-.02.16-.03.16-.02h.16l.16-.04.16-.02.16-.02h.16l.17-.04.15-.02.16-.02h.17l.18-.03.16-.04.17-.02h.17l.16-.03h.16l.18-.02.16-.02h.18l.16-.03h.17l.2-.03.15-.02h.17l.18-.03h.16l.18-.03.17-.02h.2l.15-.03h.35l.18-.03.17-.02h.18l.17-.03h.18l.18-.02.17-.02h.18l.18-.02h.36l.17-.03h.38l.18-.02h.17l.18-.02h.55l.2-.03H796.45l.2-.03h.37l.17-.02h1.68l.18-.03H800.94l.18.02H802.8l.18.03h.36l.2.02h.73l.2.03h.54l.17.03h.17l.18.02h.37l.16.03h.36l.17.03h.17l.17.02h.36l.17.03.18.02.17.02.18.02h.35l.16.03h.2l.16.02.18.02h.16l.18.03h.17l.16.03.2.02h.16l.16.03h.18l.16.03.18.02h.16l.16.03h.17l.16.03.15.03h.18l.16.02.15.02.16.02.18.03h.16l.16.02.16.02.16.03h.16l.16.03.16.03.16.02.16.03.16.02h.16l.15.04.15.02.16.03h.17l.14.04.17.02.16.03h.15l.16.04.14.03h.16l.14.05h.16l.15.04.13.04h.16l.14.04.14.04h.14l.16.04.15.04.14.03.15.02.14.02.14.03.15.03.14.03.14.03.14.04.14.03h.13l.15.05.14.03.14.04.13.03.16.03.14.04.13.03.14.03.13.03.14.03.13.04.13.04.14.04.13.03.13.04.14.03.13.03.13.05.13.03.13.04.12.03.13.05.14.03.13.03.13.03.12.04.13.03.1.03.14.05.12.03.13.05.1.03.14.05.1.04.13.05.1.02.14.05.1.03.14.05.12.03.1.05.14.03.1.05.12.06.12.03.1.04.12.05.1.04.12.03.12.05.1.04.12.05.1.06.12.05.12.04.1.05.1.04.12.04.1.05.1.05.12.05.1.06.1.04.1.05.1.04.1.04.12.05.1.07.1.04.1.05.1.06.1.04.1.05.1.07.1.04.1.07.1.06.1.04.08.06.1.07.1.05.1.06.1.06.07.07.1.07.1.07.1.06.08.06.1.07.1.06.08.07.08.07.1.06.08.08.1.06.08.08.1.08.07.07.1.08.07.08.08.08.1.1.07.08.08.08.05.05.03.04.05.05.03.04.05.05.06.02.03.05.04.05.03.04.05.05.03.06.03.05.05.06.03.04.05.05.04.05.05.05.02.05.04.06.04.05.04.06.03.04.05.07.03.05.03.04.03.07.06.05.03.06.02.05.04.05.03.05.02.06.05.07.03.05.03.06.03.06.04.05.03.07v.06l.05.06.03.07.04.07.03.07.03.06.02.06.03.07.03.06.02.06.03.08.02.06.03.06.02.07.03.08v.07l.05.08v.07l.03.06.02.08.02.06.03.08.02.07v.08l.02.08.02.06V472.54l.03.07v.16l.03.06v.08l.02.08V473.3l.03.08V473.86l-.02.08V474.22l-.03.07v.08l-.02.08v.14l-.03.08v.14l-.03.08-.02.08v.07l-.03.08-.03.06-.02.07v.07l-.03.08-.02.06-.04.06v.08l-.04.07-.02.05-.03.08-.02.07-.03.06-.02.06-.03.07-.03.07-.02.06-.03.07-.03.06-.03.06-.02.07-.04.04v.06l-.04.06-.04.07-.03.06-.03.04-.03.06-.05.07-.03.05-.04.06-.04.05-.03.06-.04.04-.05.06-.02.05-.03.07-.03.04-.05.05-.03.08-.04.04-.04.05-.04.05-.03.05-.06.06-.03.05-.04.05-.03.05-.05.04-.03.05-.03.05-.05.05-.03.03-.05.05-.04.05-.05.04-.04.05-.03.04-.05.03-.03.05-.05.05-.08.08-.08.08-.1.08-.07.1-.08.07-.1.08-.1.08-.08.08-.08.07-.1.08-.08.07-.1.08-.08.06-.1.06-.1.08-.07.07-.08.06-.1.07-.1.06-.1.06-.07.07-.1.05-.1.05-.1.06-.1.07-.08.05-.1.06-.1.06-.1.05-.1.07-.1.04-.1.07-.1.05-.1.04-.1.07-.1.04-.1.04-.1.05-.1.07-.1.04-.1.05-.12.04-.1.05-.1.04-.1.04-.1.05-.13.05-.1.05-.1.05-.12.04-.1.05-.12.05-.1.05-.12.03-.12.05-.1.05-.12.04-.1.04-.12.04-.12.05-.1.03-.12.05-.13.05-.1.03-.12.05-.12.03-.1.06-.14.05-.1.04-.14.05-.1.02-.14.03-.1.05-.14.03-.13.05-.14.03-.1.04-.14.05-.12.02-.13.04-.13.04-.13.04-.12.03-.12.05-.13.03-.13.03-.13.03-.13.04-.14.05-.13.02-.13.04-.14.03-.13.02-.13.03-.14.03-.13.04-.14.03-.13.03-.14.03-.15.04-.12.04-.14.03-.14.04-.15.03-.13.03-.14.04-.14.03-.15.03-.15.03-.15.02-.14.03-.14.03-.15.04-.14.04h-.15l-.16.04-.14.04-.14.03h-.15l-.17.04-.14.03h-.16l-.16.05h-.14l-.16.04-.14.04h-.16l-.15.04-.16.02-.16.03h-.13l-.16.04-.15.02-.16.03h-.16l-.16.04h-.16l-.16.03-.16.03-.16.02-.16.03h-.16l-.16.03-.16.02-.16.03h-.16l-.17.03-.15.02-.16.03-.17.02-.18.02-.16.02h-.17l-.17.04-.16.02-.16.02h-.18l-.16.03h-.18l-.16.03-.17.02h-.2l-.15.03h-.17l-.18.03-.16.02h-.18l-.17.03h-.35l-.17.03-.18.02h-.18l-.17.03h-.18l-.17.02-.18.02-.18.02h-.35l-.18.03h-.36l-.17.02h-.2l-.18.02H805l-.2.03h-.55l-.17.03h-.38l-.16.02H802.6l-.17.03h-2.25zm0-4.43H801.8l.18-.03h.53l.2-.02H803.55l.17-.03H804.43l.18-.03h.18l.18-.02h.51l.18-.03H806l.18-.03h.16l.18-.02h.33l.16-.03.17-.02h.16l.17-.02.16-.02h.16l.18-.03h.32l.18-.02.16-.02h.16l.16-.03h.16l.17-.03.17-.02h.16l.16-.03h.15l.16-.03.17-.02h.16l.15-.03h.16l.16-.03.16-.02h.16l.14-.03.16-.02.16-.04h.16l.14-.03h.16l.15-.02.15-.03.14-.02h.15l.15-.03.14-.03.16-.02h.14l.15-.05h.15l.14-.03.14-.03.14-.02.14-.03.15-.02.14-.02.16-.03.14-.02.14-.02.15-.02.13-.03h.15l.14-.05.13-.03h.14l.14-.05h.12l.15-.04.15-.04h.13l.14-.04.13-.02.13-.03.14-.03.13-.04h.13l.14-.04.13-.04h.13l.13-.04.14-.04.12-.03.13-.03.12-.02.13-.03.13-.04.12-.03.13-.03.1-.04.14-.03h.13l.1-.05.14-.03.13-.03.1-.03.12-.04.12-.04.1-.03.14-.04.1-.03.12-.03.12-.04.1-.03.12-.03.1-.03.12-.03.12-.04.1-.04.12-.04.1-.03.12-.04.1-.03.1-.03.12-.04.1-.03.1-.05.1-.03.12-.03.1-.03.1-.06.1-.03.1-.02.1-.04.1-.04.1-.04.08-.03.1-.03.1-.05.1-.03.1-.03.08-.06.08-.03.1-.02.1-.05.08-.03.1-.04.07-.04.1-.04.08-.04.1-.04.07-.04.1-.04.07-.03.08-.06.08-.03.08-.04.08-.03.08-.05.07-.03.1-.05.07-.03.06-.05.08-.03.1-.06.06-.03.06-.04.08-.04.06-.04.07-.04.06-.04.07-.04.07-.05.06-.02.06-.05.07-.03.05-.05.06-.05.06-.03.05-.05.07-.05.06-.03.05-.05.05-.06.06-.04.05-.04.04-.04.04-.05.07-.03.05-.05.04-.06.05-.05.02-.04.05-.05.05-.04h.02l.03-.04v-.02l.03-.02.02-.03h.03v-.05h.03l.02-.03.03-.03v-.02l.03-.03.02-.02v-.04h.03l.02-.03.04-.02v-.02l.03-.03.02-.03.02-.03v-.02l.03-.03v-.02l.03-.03.02-.03v-.03h.03v-.04l.03-.02.02-.03v-.02l.03-.03v-.02l.03-.03v-.02l.02-.03v-.05h.03l.02-.04v-.02l.02-.02v-.03l.02-.02v-.04l.03-.04v-.1l.02-.02v-.03h.02V474l.03-.03v-.2l.03-.02v-.3l-.02-.04v-.2h-.03v-.11l-.03-.04-.02-.04v-.1l-.03-.02v-.03l-.03-.05-.02-.03v-.06l-.03-.03-.02-.04h-.02v-.04l-.02-.02v-.03l-.03-.02v-.05h-.02l-.02-.04v-.02l-.03-.03-.03-.02v-.04h-.02v-.04l-.03-.02v-.03l-.03-.02h-.02v-.05h-.03v-.04l-.05-.02v-.02l-.03-.03h-.02l-.02-.05h-.02v-.04l-.04-.02-.02-.02-.02-.03-.04-.04h-.02l-.02-.03v-.03l-.04-.02h-.02l-.05-.06-.05-.05-.03-.05-.06-.04-.04-.04-.05-.04-.07-.05-.04-.03-.05-.05-.06-.05-.06-.05-.05-.03-.05-.05-.06-.06-.07-.03-.05-.04-.06-.04-.06-.04-.05-.04-.07-.05-.06-.04-.06-.05-.07-.02-.08-.05-.07-.05-.07-.03-.06-.05-.08-.03-.06-.05-.07-.03-.1-.06-.07-.05-.06-.04-.08-.05-.1-.02-.06-.05-.08-.03-.08-.05-.08-.03-.08-.05-.08-.03-.08-.03-.1-.04-.07-.03-.1-.05-.07-.03-.1-.05-.08-.03-.1-.03-.07-.05-.1-.04-.1-.04-.08-.04-.1-.04-.1-.03-.08-.04-.1-.03-.1-.03-.1-.05-.1-.03-.08-.03-.1-.04-.1-.05-.1-.02-.1-.04-.1-.03-.1-.04-.1-.03-.12-.03-.1-.03-.1-.03-.12-.04-.1-.04-.1-.04-.12-.03-.1-.04-.12-.03-.12-.03-.1-.04-.12-.03-.1-.03-.12-.03-.12-.03-.1-.04-.12-.03-.13-.03-.1-.03-.14-.02-.12-.04-.1-.03-.14-.02-.13-.03-.1-.03-.13-.04-.13-.03-.1-.03-.14-.03-.12-.03-.13-.03-.13-.03-.13-.02-.14-.04h-.12l-.13-.04-.12-.04-.13-.03h-.13l-.14-.05-.13-.03-.13-.03-.14-.02-.13-.03-.13-.03-.14-.02-.13-.03-.14-.04-.14-.02-.12-.03h-.15l-.15-.04h-.13l-.14-.04-.15-.04h-.14l-.16-.04-.14-.02-.14-.02-.15-.03h-.13l-.15-.05h-.14l-.14-.04-.15-.02-.15-.02-.16-.03h-.16l-.14-.02-.16-.03-.14-.02h-.15l-.16-.05h-.15l-.16-.03h-.16l-.16-.05h-.14l-.16-.03h-.16l-.16-.03-.14-.02h-.16l-.16-.04-.16-.02-.16-.02h-.15l-.16-.03h-.16l-.15-.02-.16-.02h-.17l-.16-.03h-.16l-.16-.03-.16-.02h-.32l-.16-.03h-.18l-.16-.03-.16-.02H807.66l-.16-.03h-.17l-.16-.03H807l-.17-.02h-.33l-.18-.03-.16-.02h-.18l-.17-.02-.15-.02h-.51l-.18-.03h-.52l-.16-.02h-.17l-.18-.02H803.03l-.18-.03H801.43l-.18-.03H798.73l-.18.02H797.14l-.18.03H796.1l-.18.03h-.17l-.16.02h-.54l-.18.03h-.51l-.16.03-.18.02H793.68l-.18.03h-.16l-.17.02-.16.02h-.17l-.16.02h-.17l-.16.03H792l-.16.02-.16.02h-.18l-.16.03h-.32l-.16.03-.17.02h-.17l-.16.03h-.16l-.15.03-.16.02h-.17l-.16.03h-.15l-.16.03-.16.02-.16.03-.16.02-.14.02-.16.02h-.16l-.16.03h-.14l-.16.04h-.15l-.15.03h-.14l-.15.05h-.15l-.14.03-.16.03-.14.02h-.15l-.15.04-.14.02-.14.02-.14.03-.14.02-.15.04h-.14l-.16.04-.14.02-.14.02-.15.03h-.13l-.15.05-.14.03h-.13l-.14.05h-.14l-.12.04-.15.02-.15.03-.13.02-.14.02-.13.03-.13.03-.14.02-.13.03-.13.03-.14.04h-.13l-.13.04-.13.04-.14.03h-.12l-.13.05-.12.03-.13.04-.13.03-.12.02-.13.02-.1.03-.14.03-.13.04-.1.03-.14.03-.13.03-.1.04-.12.04-.12.03-.1.04-.14.03-.1.03-.12.04-.12.03-.1.03-.12.03-.1.03-.12.04-.12.03-.1.03-.12.03-.1.02-.12.04-.1.04-.1.04-.12.03-.1.03-.1.03-.1.03-.12.05-.1.04-.1.04-.1.03-.1.06-.1.03-.1.02-.1.03-.08.05-.1.03-.1.03-.1.05-.1.04-.08.04-.08.04-.1.04-.1.03-.08.04-.1.03-.07.03-.1.05-.08.03-.1.05-.07.03-.1.05-.07.04-.08.03-.08.05-.08.03-.08.05-.08.03-.07.05-.1.03-.07.06-.06.03-.08.04-.1.05-.06.02-.06.05-.08.03-.06.05-.07.03-.06.05-.07.05-.07.03-.06.06-.06.03-.07.04-.05.04-.06.04-.06.04-.05.05-.07.04-.06.05-.05.04-.05.03-.06.05-.05.05-.04.05-.04.03-.07.05-.05.04-.04.04-.05.04-.02.05-.05.05-.05.05h-.02l-.03.03v.03l-.03.02h-.02l-.03.05-.03.04-.02.02-.03.02v.03l-.03.02-.02.04-.03.04-.02.02-.04.02v.03h-.03v.05h-.02l-.02.03v.03l-.03.02v.03h-.03v.05h-.02v.03l-.03.04v.02l-.03.03h-.02v.04l-.03.03v.03l-.03.02v.03h-.02v.05l-.03.04-.02.02v.03h-.02v.02l-.02.04v.04l-.03.02v.1l-.02.03-.02.05v.11l-.03.02V473.42l-.03.03v.31l.02.02v.18l.03.04V474.13h.03v.04l.02.02v.1l.03.03v.05h.03v.04l.02.02v.05h.03v.04h.02l.02.04v.02l.02.03v.02l.03.03v.02l.02.04.02.02v.03h.03v.04l.03.02.02.04v.02l.03.03v.02l.03.03.02.02.03.04v.02l.05.03v.03h.03l.02.05h.02l.02.04v.02l.04.03.02.02h.02v.04h.04l.02.04.02.02v.02l.04.03h.02l.05.06.05.06.03.03.06.04.04.05.05.04.07.03.04.05.05.04.06.04.06.04.05.05.05.04.06.03.07.05.05.05.06.03.06.05.05.05.07.03.06.05.06.03.07.06.08.04.07.04.07.04.06.04.08.04.06.05.07.04.1.05.07.02.06.05.08.03.1.05.06.03.08.05.08.03.08.05.08.04.08.05.08.02.1.04.07.04.1.04.07.04.1.04.08.04.1.04.07.03.1.05.1.03.08.04.1.05.1.02.08.03.1.05.1.03.1.03.1.04.08.04.1.04.1.03.1.04.1.05.1.02.1.03.1.03.12.05.1.03.1.04.12.03.1.03.1.03.12.02.1.04.12.04.12.04.1.03.12.03.1.03.12.03.12.04.1.03.12.03.13.03.1.02.14.04.12.03.1.02.14.03.13.03.1.04h.13l.13.04.1.04.14.03.12.03.13.03.13.02.13.02.14.03.12.03.13.04.12.03h.13l.13.05.14.03h.13l.13.05.14.03.13.03.13.02.14.03.13.02.14.04.14.03h.12l.15.04h.15l.13.04.14.04h.15l.14.04.16.02.14.03.14.03.15.03.13.02h.15l.14.04.14.02.15.03.15.02h.16l.16.04h.14l.16.03.14.03.15.02h.16l.15.03.16.03.16.02h.16l.14.03h.16l.16.05h.16l.14.03.16.02.16.02.16.02h.16l.15.03h.16l.16.02.15.02h.16l.17.03h.16l.16.03.16.02h.16l.16.03h.16l.16.03.18.02h.32l.18.03h.16l.16.03.17.02H793l.17.03h.17l.16.02.18.02h.16l.18.02h.32l.18.03h.51l.18.02h.17l.17.02h.69l.17.03h.89l.2.03h.52l.2.02H799.83zm0 0" fill="#7ab648"/><path d="M720 564c0-2.76 2.24-5 5-5h150c2.76 0 5 2.24 5 5v30c0 2.76-2.24 5-5 5H725c-2.76 0-5-2.24-5-5z" fill="none"/><use xlink:href="#i" transform="matrix(1,0,0,1,720,559) translate(52.419753086419746 23.555555555555557)"/><use xlink:href="#b" transform="matrix(1,0,0,1,720,559) translate(82 23.555555555555557)"/><path d="M80 440h160v160H80z" fill="#de5f85"/><path d="M188 541.07c-.27 4-12.7 7.2-28 7.2s-27.73-3.2-28-7.2v-.14-66.53h56zm0 0z" fill="#fff"/><path d="M132 474.6c0-4.1 12.54-7.4 28-7.4s28 3.3 28 7.4c0 4.1-12.54 7.43-28 7.43s-28-3.33-28-7.42z" fill="#fff"/><path d="M160 486.46h-2.44l-.17-.03H156.45l-.17-.03h-.38l-.18-.02h-.54l-.2-.03h-.52l-.2-.03h-.17l-.16-.02h-.36l-.17-.03h-.34l-.18-.03-.18-.02h-.35l-.17-.03-.18-.02-.18-.02-.17-.02h-.36l-.16-.03h-.18l-.16-.02-.18-.02h-.17l-.16-.03h-.2l-.16-.03-.16-.02h-.18l-.16-.03h-.18l-.16-.03-.16-.02-.17-.03h-.16l-.15-.03-.18-.02h-.16l-.15-.04-.16-.02-.18-.02h-.16l-.16-.04-.16-.02-.16-.02h-.16l-.16-.04-.16-.02-.16-.03-.16-.02h-.16l-.16-.05h-.15l-.15-.04-.16-.02-.17-.03h-.14l-.17-.04-.16-.02-.15-.03h-.16l-.14-.04-.16-.03h-.14l-.16-.05h-.15l-.13-.04-.16-.04h-.14l-.14-.04-.14-.04-.16-.03-.15-.02-.14-.04-.15-.03-.14-.02-.14-.03-.15-.02-.14-.03-.14-.03-.14-.03-.14-.04-.13-.03-.15-.03-.14-.03-.14-.02-.13-.04-.16-.03-.14-.02-.13-.03-.14-.03-.13-.04-.14-.03-.13-.03-.13-.03-.14-.04-.13-.04-.13-.03-.14-.06-.13-.03-.13-.02-.13-.03-.13-.03-.12-.05-.13-.03-.14-.04-.13-.04-.13-.04-.12-.03-.13-.04-.1-.05-.14-.02-.12-.05-.13-.03-.1-.05-.14-.03-.1-.03-.13-.06-.1-.03-.14-.04-.1-.05-.14-.02-.12-.05-.1-.03-.14-.05-.1-.05-.12-.03-.12-.05-.1-.04-.12-.04-.1-.04-.12-.05-.12-.05-.1-.03-.12-.05-.1-.05-.12-.05-.12-.04-.1-.05-.1-.05-.12-.05-.1-.05-.1-.04-.12-.05-.1-.06-.1-.05-.1-.06-.1-.04-.1-.07-.12-.05-.1-.04-.1-.05-.1-.08-.1-.04-.1-.05-.1-.07-.1-.04-.1-.07-.1-.05-.1-.06-.1-.06-.08-.05-.1-.07-.1-.06-.1-.05-.1-.06-.07-.08-.1-.06-.1-.06-.1-.07-.08-.06-.1-.07-.1-.08-.08-.06-.08-.06-.1-.08-.08-.07-.1-.08-.08-.06-.1-.07-.07-.08-.1-.08-.07-.08-.08-.1-.1-.07-.07-.08-.08-.08-.05-.05-.03-.05-.05-.03-.03-.05-.05-.06-.06-.04-.03-.05-.04-.05-.03-.03-.05-.05-.03-.05-.05-.05-.03-.04-.03-.05-.05-.05-.04-.05-.05-.06-.02-.05-.04-.05-.04-.05-.04-.04-.03-.07-.05-.04-.03-.04-.03-.07-.03-.05-.06-.06-.03-.05-.02-.07-.04-.05-.03-.06-.02-.05-.05-.07-.03-.06-.03-.05-.03-.07-.04-.07-.03-.06v-.06l-.05-.05-.03-.08-.04-.06-.03-.06-.03-.07-.02-.06-.03-.08-.03-.08-.02-.06-.03-.06-.02-.07-.03-.08-.02-.06-.03-.08v-.08l-.05-.06v-.06l-.03-.08-.02-.07-.02-.08-.03-.07-.02-.08v-.07l-.02-.08-.02-.08v-.14l-.03-.08v-.14l-.03-.08v-.08l-.02-.07v-.31l-.03-.08V474.37l.02-.08v-.3l.03-.08v-.08l.02-.06v-.16l.03-.07v-.16l.03-.07.02-.08v-.08l.03-.07.03-.08.02-.06v-.08l.03-.06.02-.07.04-.08v-.06l.04-.07.02-.07.03-.06.02-.06.03-.08.02-.07.03-.07.03-.07.02-.06.03-.06.03-.07.03-.06.02-.06.04-.06v-.06l.04-.07.04-.05.03-.06.03-.06.03-.05.05-.07.03-.06.04-.05.04-.06.03-.06.04-.06.05-.05.02-.07.03-.04.03-.05.05-.07.03-.04.04-.05.04-.04.04-.06.03-.05.06-.05.03-.05.04-.05.03-.04.03-.05.05-.04.03-.05.05-.04.03-.04.05-.05.04-.05.05-.03.04-.06.03-.05.05-.06.03-.03.05-.04.08-.08.08-.1.1-.07.07-.07.08-.08.1-.08.1-.07.08-.08.08-.08.1-.06.08-.08.1-.06.08-.07.1-.08.1-.07.07-.07.08-.06.1-.06.1-.07.1-.06.07-.06.1-.06.1-.06.1-.05.1-.07.08-.06.1-.05.1-.07.1-.07.1-.04.1-.07.1-.05.1-.04.1-.07.1-.06.1-.04.1-.07.1-.05.1-.04.1-.05.1-.06.12-.05.1-.07.1-.05.1-.05.1-.05.13-.04.1-.05.1-.06.12-.03.1-.04.12-.05.1-.04.12-.04.12-.05.1-.03.12-.05.1-.06.12-.05.12-.04.1-.05.12-.04.13-.03.1-.05.12-.03.12-.05.1-.03.14-.05.1-.03.14-.06.1-.03.14-.04.1-.03.14-.05.13-.03.14-.05.1-.03.14-.03.12-.05.13-.04.13-.03.13-.03.12-.05.12-.03.13-.04.13-.03.13-.05.13-.03.14-.03.13-.03.13-.02.14-.04.13-.04.13-.04.14-.03.13-.03.14-.03.13-.03.14-.04.15-.03.12-.03.14-.03.14-.02.15-.04h.13l.14-.04.14-.04.15-.03.15-.03.15-.03.14-.03.14-.02.15-.03.14-.04.15-.04.16-.03.14-.02.14-.04.15-.03h.17l.14-.04.16-.03h.16l.14-.05h.16l.14-.04.16-.04h.15l.16-.04.16-.02.13-.03h.16l.15-.04.16-.02.16-.03h.16l.16-.02.16-.03.16-.02.16-.03.16-.02h.16l.16-.04.16-.02.16-.02h.16l.17-.04.15-.02.16-.02h.17l.18-.03.16-.04.17-.02h.17l.16-.03h.16l.18-.02.16-.02h.18l.16-.03h.17l.2-.03.15-.02h.17l.18-.03h.16l.18-.03.17-.02h.2l.15-.03h.35l.18-.03.17-.02h.18l.17-.03h.18l.18-.02.17-.02h.18l.18-.02h.36l.17-.03h.38l.18-.02h.17l.18-.02h.55l.2-.03H156.45l.2-.03h.37l.17-.02h1.68l.18-.03H160.94l.18.02H162.8l.18.03h.36l.2.02h.73l.2.03h.54l.17.03h.17l.18.02h.37l.16.03h.36l.17.03h.17l.17.02h.36l.17.03.18.02.17.02.18.02h.35l.16.03h.2l.16.02.18.02h.16l.18.03h.17l.16.03.2.02h.16l.16.03h.18l.16.03.18.02h.16l.16.03h.17l.16.03.15.03h.18l.16.02.15.02.16.02.18.03h.16l.16.02.16.02.16.03h.16l.16.03.16.03.16.02.16.03.16.02h.16l.15.04.15.02.16.03h.17l.14.04.17.02.16.03h.15l.16.04.14.03h.16l.14.05h.16l.15.04.13.04h.16l.14.04.14.04h.14l.16.04.15.04.14.03.15.02.14.02.14.03.15.03.14.03.14.03.14.04.14.03h.13l.15.05.14.03.14.04.13.03.16.03.14.04.13.03.14.03.13.03.14.03.13.04.13.04.14.04.13.03.13.04.14.03.13.03.13.05.13.03.13.04.12.03.13.05.14.03.13.03.13.03.12.04.13.03.1.03.14.05.12.03.13.05.1.03.14.05.1.04.13.05.1.02.14.05.1.03.14.05.12.03.1.05.14.03.1.05.12.06.12.03.1.04.12.05.1.04.12.03.12.05.1.04.12.05.1.06.12.05.12.04.1.05.1.04.12.04.1.05.1.05.12.05.1.06.1.04.1.05.1.04.1.04.12.05.1.07.1.04.1.05.1.06.1.04.1.05.1.07.1.04.1.07.1.06.1.04.08.06.1.07.1.05.1.06.1.06.07.07.1.07.1.07.1.06.08.06.1.07.1.06.08.07.08.07.1.06.08.08.1.06.08.08.1.08.07.07.1.08.07.08.08.08.1.1.07.08.08.08.05.05.03.04.05.05.03.04.05.05.06.02.03.05.04.05.03.04.05.05.03.06.03.05.05.06.03.04.05.05.04.05.05.05.02.05.04.06.04.05.04.06.03.04.05.07.03.05.03.04.03.07.06.05.03.06.02.05.04.05.03.05.02.06.05.07.03.05.03.06.03.06.04.05.03.07v.06l.05.06.03.07.04.07.03.07.03.06.02.06.03.07.03.06.02.06.03.08.02.06.03.06.02.07.03.08v.07l.05.08v.07l.03.06.02.08.02.06.03.08.02.07v.08l.02.08.02.06V473.54l.03.07v.16l.03.06v.08l.02.08V474.3l.03.08V474.86l-.02.08V475.22l-.03.07v.08l-.02.08v.14l-.03.08v.14l-.03.08-.02.08v.07l-.03.08-.03.06-.02.07v.07l-.03.08-.02.06-.04.06v.08l-.04.07-.02.05-.03.08-.02.07-.03.06-.02.06-.03.07-.03.07-.02.06-.03.07-.03.06-.03.06-.02.07-.04.04v.06l-.04.06-.04.07-.03.06-.03.04-.03.06-.05.07-.03.05-.04.06-.04.05-.03.06-.04.04-.05.06-.02.05-.03.07-.03.04-.05.05-.03.08-.04.04-.04.05-.04.05-.03.05-.06.06-.03.05-.04.05-.03.05-.05.04-.03.05-.03.05-.05.05-.03.03-.05.05-.04.05-.05.04-.04.05-.03.04-.05.03-.03.05-.05.05-.08.08-.08.08-.1.08-.07.1-.08.07-.1.08-.1.08-.08.08-.08.07-.1.08-.08.07-.1.08-.08.06-.1.06-.1.08-.07.07-.08.06-.1.07-.1.06-.1.06-.07.07-.1.05-.1.05-.1.06-.1.07-.08.05-.1.06-.1.06-.1.05-.1.07-.1.04-.1.07-.1.05-.1.04-.1.07-.1.04-.1.04-.1.05-.1.07-.1.04-.1.05-.12.04-.1.05-.1.04-.1.04-.1.05-.13.05-.1.05-.1.05-.12.04-.1.05-.12.05-.1.05-.12.03-.12.05-.1.05-.12.04-.1.04-.12.04-.12.05-.1.03-.12.05-.13.05-.1.03-.12.05-.12.03-.1.06-.14.05-.1.04-.14.05-.1.02-.14.03-.1.05-.14.03-.13.05-.14.03-.1.04-.14.05-.12.02-.13.04-.13.04-.13.04-.12.03-.12.05-.13.03-.13.03-.13.03-.13.04-.14.05-.13.02-.13.04-.14.03-.13.02-.13.03-.14.03-.13.04-.14.03-.13.03-.14.03-.15.04-.12.04-.14.03-.14.04-.15.03-.13.03-.14.04-.14.03-.15.03-.15.03-.15.02-.14.03-.14.03-.15.04-.14.04h-.15l-.16.04-.14.04-.14.03h-.15l-.17.04-.14.03h-.16l-.16.05h-.14l-.16.04-.14.04h-.16l-.15.04-.16.02-.16.03h-.13l-.16.04-.15.02-.16.03h-.16l-.16.04h-.16l-.16.03-.16.03-.16.02-.16.03h-.16l-.16.03-.16.02-.16.03h-.16l-.17.03-.15.02-.16.03-.17.02-.18.02-.16.02h-.17l-.17.04-.16.02-.16.02h-.18l-.16.03h-.18l-.16.03-.17.02h-.2l-.15.03h-.17l-.18.03-.16.02h-.18l-.17.03h-.35l-.17.03-.18.02h-.18l-.17.03h-.18l-.17.02-.18.02-.18.02h-.35l-.18.03h-.36l-.17.02h-.2l-.18.02H165l-.2.03h-.55l-.17.03h-.38l-.16.02H162.6l-.17.03h-2.25zm0-4.43H161.8l.18-.03h.53l.2-.02H163.55l.17-.03H164.43l.18-.03h.18l.18-.02h.51l.18-.03H166l.18-.03h.16l.18-.02h.33l.16-.03.17-.02h.16l.17-.02.16-.02h.16l.18-.03h.32l.18-.02.16-.02h.16l.16-.03h.16l.17-.03.17-.02h.16l.16-.03h.15l.16-.03.17-.02h.16l.15-.03h.16l.16-.03.16-.02h.16l.14-.03.16-.02.16-.04h.16l.14-.03h.16l.15-.02.15-.03.14-.02h.15l.15-.03.14-.03.16-.02h.14l.15-.05h.15l.14-.03.14-.03.14-.02.14-.03.15-.02.14-.02.16-.03.14-.02.14-.02.15-.02.13-.03h.15l.14-.05.13-.03h.14l.14-.05h.12l.15-.04.15-.04h.13l.14-.04.13-.02.13-.03.14-.03.13-.04h.13l.14-.04.13-.04h.13l.13-.04.14-.04.12-.03.13-.03.12-.02.13-.03.13-.04.12-.03.13-.03.1-.04.14-.03h.13l.1-.05.14-.03.13-.03.1-.03.12-.04.12-.04.1-.03.14-.04.1-.03.12-.03.12-.04.1-.03.12-.03.1-.03.12-.03.12-.04.1-.04.12-.04.1-.03.12-.04.1-.03.1-.03.12-.04.1-.03.1-.05.1-.03.12-.03.1-.03.1-.06.1-.03.1-.02.1-.04.1-.04.1-.04.08-.03.1-.03.1-.05.1-.03.1-.03.08-.06.08-.03.1-.02.1-.05.08-.03.1-.04.07-.04.1-.04.08-.04.1-.04.07-.04.1-.04.07-.03.08-.06.08-.03.08-.04.08-.03.08-.05.07-.03.1-.05.07-.03.06-.05.08-.03.1-.06.06-.03.06-.04.08-.04.06-.04.07-.04.06-.04.07-.04.07-.05.06-.02.06-.05.07-.03.05-.05.06-.05.06-.03.05-.05.07-.05.06-.03.05-.05.05-.06.06-.04.05-.04.04-.04.04-.05.07-.03.05-.05.04-.06.05-.05.02-.04.05-.05.05-.04h.02l.03-.04v-.02l.03-.02.02-.03h.03v-.05h.03l.02-.03.03-.03v-.02l.03-.03.02-.02v-.04h.03l.02-.03.04-.02v-.02l.03-.03.02-.03.02-.03v-.02l.03-.03v-.02l.03-.03.02-.03v-.03h.03v-.04l.03-.02.02-.03v-.02l.03-.03v-.02l.03-.03v-.02l.02-.03v-.05h.03l.02-.04v-.02l.02-.02v-.03l.02-.02v-.04l.03-.04v-.1l.02-.02v-.03h.02V475l.03-.03v-.2l.03-.02v-.3l-.02-.04v-.2h-.03v-.11l-.03-.04-.02-.04v-.1l-.03-.02v-.03l-.03-.05-.02-.03v-.06l-.03-.03-.02-.04h-.02v-.04l-.02-.02v-.03l-.03-.02v-.05h-.02l-.02-.04v-.02l-.03-.03-.03-.02v-.04h-.02v-.04l-.03-.02v-.03l-.03-.02h-.02v-.05h-.03v-.04l-.05-.02v-.02l-.03-.03h-.02l-.02-.05h-.02v-.04l-.04-.02-.02-.02-.02-.03-.04-.04h-.02l-.02-.03v-.03l-.04-.02h-.02l-.05-.06-.05-.05-.03-.05-.06-.04-.04-.04-.05-.04-.07-.05-.04-.03-.05-.05-.06-.05-.06-.05-.05-.03-.05-.05-.06-.06-.07-.03-.05-.04-.06-.04-.06-.04-.05-.04-.07-.05-.06-.04-.06-.05-.07-.02-.08-.05-.07-.05-.07-.03-.06-.05-.08-.03-.06-.05-.07-.03-.1-.06-.07-.05-.06-.04-.08-.05-.1-.02-.06-.05-.08-.03-.08-.05-.08-.03-.08-.05-.08-.03-.08-.03-.1-.04-.07-.03-.1-.05-.07-.03-.1-.05-.08-.03-.1-.03-.07-.05-.1-.04-.1-.04-.08-.04-.1-.04-.1-.03-.08-.04-.1-.03-.1-.03-.1-.05-.1-.03-.08-.03-.1-.04-.1-.05-.1-.02-.1-.04-.1-.03-.1-.04-.1-.03-.12-.03-.1-.03-.1-.03-.12-.04-.1-.04-.1-.04-.12-.03-.1-.04-.12-.03-.12-.03-.1-.04-.12-.03-.1-.03-.12-.03-.12-.03-.1-.04-.12-.03-.13-.03-.1-.03-.14-.02-.12-.04-.1-.03-.14-.02-.13-.03-.1-.03-.13-.04-.13-.03-.1-.03-.14-.03-.12-.03-.13-.03-.13-.03-.13-.02-.14-.04h-.12l-.13-.04-.12-.04-.13-.03h-.13l-.14-.05-.13-.03-.13-.03-.14-.02-.13-.03-.13-.03-.14-.02-.13-.03-.14-.04-.14-.02-.12-.03h-.15l-.15-.04h-.13l-.14-.04-.15-.04h-.14l-.16-.04-.14-.02-.14-.02-.15-.03h-.13l-.15-.05h-.14l-.14-.04-.15-.02-.15-.02-.16-.03h-.16l-.14-.02-.16-.03-.14-.02h-.15l-.16-.05h-.15l-.16-.03h-.16l-.16-.05h-.14l-.16-.03h-.16l-.16-.03-.14-.02h-.16l-.16-.04-.16-.02-.16-.02h-.15l-.16-.03h-.16l-.15-.02-.16-.02h-.17l-.16-.03h-.16l-.16-.03-.16-.02h-.32l-.16-.03h-.18l-.16-.03-.16-.02H167.66l-.16-.03h-.17l-.16-.03H167l-.17-.02h-.33l-.18-.03-.16-.02h-.18l-.17-.02-.15-.02h-.51l-.18-.03h-.52l-.16-.02h-.17l-.18-.02H163.03l-.18-.03H161.43l-.18-.03H158.73l-.18.02H157.14l-.18.03H156.1l-.18.03h-.17l-.16.02h-.54l-.18.03h-.51l-.16.03-.18.02H153.68l-.18.03h-.16l-.17.02-.16.02h-.17l-.16.02h-.17l-.16.03H152l-.16.02-.16.02h-.18l-.16.03h-.32l-.16.03-.17.02h-.17l-.16.03h-.16l-.15.03-.16.02h-.17l-.16.03h-.15l-.16.03-.16.02-.16.03-.16.02-.14.02-.16.02h-.16l-.16.03h-.14l-.16.04h-.15l-.15.03h-.14l-.15.05h-.15l-.14.03-.16.03-.14.02h-.15l-.15.04-.14.02-.14.02-.14.03-.14.02-.15.04h-.14l-.16.04-.14.02-.14.02-.15.03h-.13l-.15.05-.14.03h-.13l-.14.05h-.14l-.12.04-.15.02-.15.03-.13.02-.14.02-.13.03-.13.03-.14.02-.13.03-.13.03-.14.04h-.13l-.13.04-.13.04-.14.03h-.12l-.13.05-.12.03-.13.04-.13.03-.12.02-.13.02-.1.03-.14.03-.13.04-.1.03-.14.03-.13.03-.1.04-.12.04-.12.03-.1.04-.14.03-.1.03-.12.04-.12.03-.1.03-.12.03-.1.03-.12.04-.12.03-.1.03-.12.03-.1.02-.12.04-.1.04-.1.04-.12.03-.1.03-.1.03-.1.03-.12.05-.1.04-.1.04-.1.03-.1.06-.1.03-.1.02-.1.03-.08.05-.1.03-.1.03-.1.05-.1.04-.08.04-.08.04-.1.04-.1.03-.08.04-.1.03-.07.03-.1.05-.08.03-.1.05-.07.03-.1.05-.07.04-.08.03-.08.05-.08.03-.08.05-.08.03-.07.05-.1.03-.07.06-.06.03-.08.04-.1.05-.06.02-.06.05-.08.03-.06.05-.07.03-.06.05-.07.05-.07.03-.06.06-.06.03-.07.04-.05.04-.06.04-.06.04-.05.05-.07.04-.06.05-.05.04-.05.03-.06.05-.05.05-.04.05-.04.03-.07.05-.05.04-.04.04-.05.04-.02.05-.05.05-.05.05h-.02l-.03.03v.03l-.03.02h-.02l-.03.05-.03.04-.02.02-.03.02v.03l-.03.02-.02.04-.03.04-.02.02-.04.02v.03h-.03v.05h-.02l-.02.03v.03l-.03.02v.03h-.03v.05h-.02v.03l-.03.04v.02l-.03.03h-.02v.04l-.03.03v.03l-.03.02v.03h-.02v.05l-.03.04-.02.02v.03h-.02v.02l-.02.04v.04l-.03.02v.1l-.02.03-.02.05v.11l-.03.02V474.42l-.03.03v.31l.02.02v.18l.03.04V475.13h.03v.04l.02.02v.1l.03.03v.05h.03v.04l.02.02v.05h.03v.04h.02l.02.04v.02l.02.03v.02l.03.03v.02l.02.04.02.02v.03h.03v.04l.03.02.02.04v.02l.03.03v.02l.03.03.02.02.03.04v.02l.05.03v.03h.03l.02.05h.02l.02.04v.02l.04.03.02.02h.02v.04h.04l.02.04.02.02v.02l.04.03h.02l.05.06.05.06.03.03.06.04.04.05.05.04.07.03.04.05.05.04.06.04.06.04.05.05.05.04.06.03.07.05.05.05.06.03.06.05.05.05.07.03.06.05.06.03.07.06.08.04.07.04.07.04.06.04.08.04.06.05.07.04.1.05.07.02.06.05.08.03.1.05.06.03.08.05.08.03.08.05.08.04.08.05.08.02.1.04.07.04.1.04.07.04.1.04.08.04.1.04.07.03.1.05.1.03.08.04.1.05.1.02.08.03.1.05.1.03.1.03.1.04.08.04.1.04.1.03.1.04.1.05.1.02.1.03.1.03.12.05.1.03.1.04.12.03.1.03.1.03.12.02.1.04.12.04.12.04.1.03.12.03.1.03.12.03.12.04.1.03.12.03.13.03.1.02.14.04.12.03.1.02.14.03.13.03.1.04h.13l.13.04.1.04.14.03.12.03.13.03.13.02.13.02.14.03.12.03.13.04.12.03h.13l.13.05.14.03h.13l.13.05.14.03.13.03.13.02.14.03.13.02.14.04.14.03h.12l.15.04h.15l.13.04.14.04h.15l.14.04.16.02.14.03.14.03.15.03.13.02h.15l.14.04.14.02.15.03.15.02h.16l.16.04h.14l.16.03.14.03.15.02h.16l.15.03.16.03.16.02h.16l.14.03h.16l.16.05h.16l.14.03.16.02.16.02.16.02h.16l.15.03h.16l.16.02.15.02h.16l.17.03h.16l.16.03.16.02h.16l.16.03h.16l.16.03.18.02h.32l.18.03h.16l.16.03.17.02H153l.17.03h.17l.16.02.18.02h.16l.18.02h.32l.18.03h.51l.18.02h.17l.17.02h.69l.17.03h.89l.2.03h.52l.2.02H159.83zm0 0" fill="#de5f85"/><path d="M80 565c0-2.76 2.24-5 5-5h150c2.76 0 5 2.24 5 5v30c0 2.76-2.24 5-5 5H85c-2.76 0-5-2.24-5-5z" fill="none"/><use xlink:href="#j" transform="matrix(1,0,0,1,80,560) translate(31.259259259259252 23.555555555555557)"/><use xlink:href="#b" transform="matrix(1,0,0,1,80,560) translate(103.1604938271605 23.555555555555557)"/><path d="M240 154.9h160" stroke="#000" stroke-width="2" fill="none"/><path d="M240 155.9v-2zM400 154.9l-14.27 4.62v-9.27z"/><path d="M400 153.84v2.1l-15.27 4.96v-12.02zm-13.27 4.3l10.03-3.25-10.03-3.27z"/><path d="M240 880.25l160 .5" stroke="#000" stroke-width="2" fill="none"/><path d="M240 879.25v1.77-1.77zM400 880.75l-14.28 4.6.03-9.28z"/><path d="M400 879.7v2.1l-15.28 4.9.03-12zm-13.28 4.27l10.04-3.23-10.02-3.3z"/><path d="M240 519.75l160-.5" stroke="#000" stroke-width="2" fill="none"/><path d="M240 520.75v-1.77zM400 519.25l-14.25 4.68-.03-9.27z"/><path d="M400 518.2v2.1l-15.25 5-.03-12zm-13.26 4.35l10.02-3.3-10.04-3.22z"/><defs><path fill="#fff" d="M169-182c-1-43-94-46-97-3 18 66 151 10 154 114 3 95-165 93-204 36-6-8-10-19-12-30l50-8c3 46 112 56 116 5-17-69-150-10-154-114-4-87 153-88 188-35 5 8 8 18 10 28" id="k"/><path fill="#fff" d="M114-157C55-157 80-60 75 0H25v-261h50l-1 109c12-26 28-41 61-42 86-1 58 113 63 194h-50c-7-57 23-157-34-157" id="l"/><path fill="#fff" d="M25-224v-37h50v37H25zM25 0v-190h50V0H25" id="m"/><path fill="#fff" d="M135-194c53 0 70 44 70 98 0 56-19 98-73 100-31 1-45-17-59-34 3 33 2 69 2 105H25l-1-265h48c2 10 0 23 3 31 11-24 29-35 60-35zM114-30c33 0 39-31 40-66 0-38-9-64-40-64-56 0-55 130 0 130" id="n"/><path fill="#fff" d="M135-194c87-1 58 113 63 194h-50c-7-57 23-157-34-157-59 0-34 97-39 157H25l-1-190h47c2 12-1 28 3 38 12-26 28-41 61-42" id="o"/><path fill="#fff" d="M195-6C206 82 75 100 31 46c-4-6-6-13-8-21l49-6c3 16 16 24 34 25 40 0 42-37 40-79-11 22-30 35-61 35-53 0-70-43-70-97 0-56 18-96 73-97 30 0 46 14 59 34l2-30h47zm-90-29c32 0 41-27 41-63 0-35-9-62-40-62-32 0-39 29-40 63 0 36 9 62 39 62" id="p"/><g id="a"><use transform="matrix(0.04938271604938272,0,0,0.04938271604938272,0,0)" xlink:href="#k"/><use transform="matrix(0.04938271604938272,0,0,0.04938271604938272,11.851851851851853,0)" xlink:href="#l"/><use transform="matrix(0.04938271604938272,0,0,0.04938271604938272,22.666666666666668,0)" xlink:href="#m"/><use transform="matrix(0.04938271604938272,0,0,0.04938271604938272,27.60493827160494,0)" xlink:href="#n"/><use transform="matrix(0.04938271604938272,0,0,0.04938271604938272,38.41975308641975,0)" xlink:href="#n"/><use transform="matrix(0.04938271604938272,0,0,0.04938271604938272,49.23456790123457,0)" xlink:href="#m"/><use transform="matrix(0.04938271604938272,0,0,0.04938271604938272,54.17283950617284,0)" xlink:href="#o"/><use transform="matrix(0.04938271604938272,0,0,0.04938271604938272,64.98765432098766,0)" xlink:href="#p"/></g><path fill="#fff" d="M24-248c120-7 223 5 221 122C244-46 201 0 124 0H24v-248zM76-40c74 7 117-18 117-86 0-67-45-88-117-82v168" id="q"/><path fill="#fff" d="M182-130c37 4 62 22 62 59C244 23 116-4 24 0v-248c84 5 203-23 205 63 0 31-19 50-47 55zM76-148c40-3 101 13 101-30 0-44-60-28-101-31v61zm0 110c48-3 116 14 116-37 0-48-69-32-116-35v72" id="r"/><g id="b"><use transform="matrix(0.04938271604938272,0,0,0.04938271604938272,0,0)" xlink:href="#q"/><use transform="matrix(0.04938271604938272,0,0,0.04938271604938272,12.790123456790125,0)" xlink:href="#r"/></g><g id="c"><use transform="matrix(0.04938271604938272,0,0,0.04938271604938272,0,0)" xlink:href="#k"/><use transform="matrix(0.04938271604938272,0,0,0.04938271604938272,11.851851851851853,0)" xlink:href="#l"/><use transform="matrix(0.04938271604938272,0,0,0.04938271604938272,22.666666666666668,0)" xlink:href="#m"/><use transform="matrix(0.04938271604938272,0,0,0.04938271604938272,27.60493827160494,0)" xlink:href="#n"/><use transform="matrix(0.04938271604938272,0,0,0.04938271604938272,38.41975308641975,0)" xlink:href="#n"/><use transform="matrix(0.04938271604938272,0,0,0.04938271604938272,49.23456790123457,0)" xlink:href="#m"/><use transform="matrix(0.04938271604938272,0,0,0.04938271604938272,54.17283950617284,0)" xlink:href="#o"/><use transform="matrix(0.04938271604938272,0,0,0.04938271604938272,64.98765432098766,0)" xlink:href="#p"/></g><path fill="#fff" d="M185-48c-13 30-37 53-82 52C43 2 14-33 14-96s30-98 90-98c62 0 83 45 84 108H66c0 31 8 55 39 56 18 0 30-7 34-22zm-45-69c5-46-57-63-70-21-2 6-4 13-4 21h74" id="s"/><path fill="#fff" d="M135-150c-39-12-60 13-60 57V0H25l-1-190h47c2 13-1 29 3 40 6-28 27-53 61-41v41" id="t"/><path fill="#fff" d="M128 0H69L1-190h53L99-40l48-150h52" id="u"/><path fill="#fff" d="M190-63c-7 42-38 67-86 67-59 0-84-38-90-98-12-110 154-137 174-36l-49 2c-2-19-15-32-35-32-30 0-35 28-38 64-6 74 65 87 74 30" id="v"/><path fill="#fff" d="M67-125c0 53 21 87 73 88 37 1 54-22 65-47l45 17C233-25 199 4 140 4 58 4 20-42 15-125 8-235 124-281 211-232c18 10 29 29 36 50l-46 12c-8-25-30-41-62-41-52 0-71 34-72 86" id="w"/><path fill="#fff" d="M110-194c64 0 96 36 96 99 0 64-35 99-97 99-61 0-95-36-95-99 0-62 34-99 96-99zm-1 164c35 0 45-28 45-65 0-40-10-65-43-65-34 0-45 26-45 65 0 36 10 65 43 65" id="x"/><path fill="#fff" d="M115-3C79 11 28 4 28-45v-112H4v-33h27l15-45h31v45h36v33H77v99c-1 23 16 31 38 25v30" id="y"/><path fill="#fff" d="M25 0v-261h50V0H25" id="z"/><g id="d"><use transform="matrix(0.04938271604938272,0,0,0.04938271604938272,0,0)" xlink:href="#k"/><use transform="matrix(0.04938271604938272,0,0,0.04938271604938272,11.851851851851853,0)" xlink:href="#s"/><use transform="matrix(0.04938271604938272,0,0,0.04938271604938272,21.7283950617284,0)" xlink:href="#t"/><use transform="matrix(0.04938271604938272,0,0,0.04938271604938272,28.64197530864198,0)" xlink:href="#u"/><use transform="matrix(0.04938271604938272,0,0,0.04938271604938272,38.518518518518526,0)" xlink:href="#m"/><use transform="matrix(0.04938271604938272,0,0,0.04938271604938272,43.4567901234568,0)" xlink:href="#v"/><use transform="matrix(0.04938271604938272,0,0,0.04938271604938272,53.333333333333336,0)" xlink:href="#s"/><use transform="matrix(0.04938271604938272,0,0,0.04938271604938272,63.20987654320988,0)" xlink:href="#w"/><use transform="matrix(0.04938271604938272,0,0,0.04938271604938272,76.00000000000001,0)" xlink:href="#x"/><use transform="matrix(0.04938271604938272,0,0,0.04938271604938272,86.81481481481482,0)" xlink:href="#o"/><use transform="matrix(0.04938271604938272,0,0,0.04938271604938272,97.62962962962963,0)" xlink:href="#y"/><use transform="matrix(0.04938271604938272,0,0,0.04938271604938272,103.50617283950618,0)" xlink:href="#t"/><use transform="matrix(0.04938271604938272,0,0,0.04938271604938272,110.41975308641976,0)" xlink:href="#x"/><use transform="matrix(0.04938271604938272,0,0,0.04938271604938272,121.23456790123458,0)" xlink:href="#z"/></g><path fill="#fff" d="M133-34C117-15 103 5 69 4 32 3 11-16 11-54c-1-60 55-63 116-61 1-26-3-47-28-47-18 1-26 9-28 27l-52-2c7-38 36-58 82-57s74 22 75 68l1 82c-1 14 12 18 25 15v27c-30 8-71 5-69-32zm-48 3c29 0 43-24 42-57-32 0-66-3-65 30 0 17 8 27 23 27" id="A"/><path fill="#fff" d="M137-138c1-29-70-34-71-4 15 46 118 7 119 86 1 83-164 76-172 9l43-7c4 19 20 25 44 25 33 8 57-30 24-41C81-84 22-81 20-136c-2-80 154-74 161-7" id="B"/><g id="e"><use transform="matrix(0.04938271604938272,0,0,0.04938271604938272,0,0)" xlink:href="#k"/><use transform="matrix(0.04938271604938272,0,0,0.04938271604938272,11.851851851851853,0)" xlink:href="#A"/><use transform="matrix(0.04938271604938272,0,0,0.04938271604938272,21.7283950617284,0)" xlink:href="#z"/><use transform="matrix(0.04938271604938272,0,0,0.04938271604938272,26.666666666666668,0)" xlink:href="#s"/><use transform="matrix(0.04938271604938272,0,0,0.04938271604938272,36.543209876543216,0)" xlink:href="#B"/></g><linearGradient gradientUnits="userSpaceOnUse" id="f" x1="400" y1="599" x2="560" y2="599"><stop offset="0%" stop-color="#de5f85"/><stop offset="44.57%" stop-color="#de5f85"/><stop offset="100%" stop-color="#7ab648"/><stop offset="55.43%" stop-color="#7ab648"/></linearGradient><path fill="#fff" d="M199 0l-22-63H83L61 0H9l90-248h61L250 0h-51zm-33-102l-36-108c-10 38-24 72-36 108h72" id="C"/><path fill="#fff" d="M88-194c31-1 46 15 58 34l-1-101h50l1 261h-48c-2-10 0-23-3-31C134-8 116 4 84 4 32 4 16-41 15-95c0-56 19-97 73-99zm17 164c33 0 40-30 41-66 1-37-9-64-41-64s-38 30-39 65c0 43 13 65 39 65" id="D"/><g id="g"><use transform="matrix(0.04938271604938272,0,0,0.04938271604938272,0,0)" xlink:href="#C"/><use transform="matrix(0.04938271604938272,0,0,0.04938271604938272,12.790123456790125,0)" xlink:href="#D"/><use transform="matrix(0.04938271604938272,0,0,0.04938271604938272,23.60493827160494,0)" xlink:href="#A"/><use transform="matrix(0.04938271604938272,0,0,0.04938271604938272,33.48148148148148,0)" xlink:href="#n"/><use transform="matrix(0.04938271604938272,0,0,0.04938271604938272,44.2962962962963,0)" xlink:href="#y"/><use transform="matrix(0.04938271604938272,0,0,0.04938271604938272,50.17283950617284,0)" xlink:href="#s"/><use transform="matrix(0.04938271604938272,0,0,0.04938271604938272,60.04938271604939,0)" xlink:href="#t"/></g><g id="h"><use transform="matrix(0.04938271604938272,0,0,0.04938271604938272,0,0)" xlink:href="#k"/><use transform="matrix(0.04938271604938272,0,0,0.04938271604938272,11.851851851851853,0)" xlink:href="#A"/><use transform="matrix(0.04938271604938272,0,0,0.04938271604938272,21.7283950617284,0)" xlink:href="#z"/><use transform="matrix(0.04938271604938272,0,0,0.04938271604938272,26.666666666666668,0)" xlink:href="#s"/><use transform="matrix(0.04938271604938272,0,0,0.04938271604938272,36.543209876543216,0)" xlink:href="#B"/></g><g id="i"><use transform="matrix(0.04938271604938272,0,0,0.04938271604938272,0,0)" xlink:href="#k"/><use transform="matrix(0.04938271604938272,0,0,0.04938271604938272,11.851851851851853,0)" xlink:href="#w"/></g><g id="j"><use transform="matrix(0.04938271604938272,0,0,0.04938271604938272,0,0)" xlink:href="#C"/><use transform="matrix(0.04938271604938272,0,0,0.04938271604938272,12.790123456790125,0)" xlink:href="#D"/><use transform="matrix(0.04938271604938272,0,0,0.04938271604938272,23.60493827160494,0)" xlink:href="#A"/><use transform="matrix(0.04938271604938272,0,0,0.04938271604938272,33.48148148148148,0)" xlink:href="#n"/><use transform="matrix(0.04938271604938272,0,0,0.04938271604938272,44.2962962962963,0)" xlink:href="#y"/><use transform="matrix(0.04938271604938272,0,0,0.04938271604938272,50.17283950617284,0)" xlink:href="#s"/><use transform="matrix(0.04938271604938272,0,0,0.04938271604938272,60.04938271604939,0)" xlink:href="#t"/></g></defs></g></svg>