<?xml version="1.0" encoding="UTF-8" standalone="no"?><!DOCTYPE svg PUBLIC "-//W3C//DTD SVG 1.1//EN" "http://www.w3.org/Graphics/SVG/1.1/DTD/svg11.dtd"><svg width="100%" height="100%" viewBox="0 0 708 269" version="1.1" xmlns="http://www.w3.org/2000/svg" xmlns:xlink="http://www.w3.org/1999/xlink" xml:space="preserve" style="fill-rule:evenodd;clip-rule:evenodd;stroke-linejoin:round;stroke-miterlimit:1.5;"><rect id="Artboard1" x="0" y="0" width="708" height="269" style="fill:none;"/><path d="M375.003,51.503l209,0" style="fill:none;stroke:#737373;stroke-width:6px;stroke-dasharray:12,6,0,0;"/><g><path d="M314.003,112.443l99,99" style="fill:none;stroke:#737373;stroke-width:6px;stroke-dasharray:12,6,0,0;"/><path d="M389.313,165.832l-29.699,-29.698l-21.92,21.92l29.699,29.698l21.92,-21.92Z" style="fill:#fff;"/><path id="email-3-icon" d="M363.833,162.335l-3.415,-15.631l18.345,18.344l-14.93,-2.713Zm-2.229,2.229l-3.271,-15.855l-10.089,10.089l18.385,18.384l10.07,-10.07l-15.095,-2.548Z" style="fill:#737373;fill-rule:nonzero;"/><path d="M418.962,217.5l-18.023,-6.008l12.015,-12.016l6.008,18.024Z" style="fill:#737373;"/></g><g><path d="M546.971,212.479l99,-99" style="fill:none;stroke:#737373;stroke-width:6px;stroke-dasharray:12,6,0,0;"/><path d="M600.36,137.17l-29.698,29.699l21.92,21.92l29.699,-29.699l-21.921,-21.92Z" style="fill:#fff;"/><path id="email-3-icon1" d="M596.864,162.65l-15.632,3.415l18.345,-18.345l-2.713,14.93Zm2.228,2.228l-15.855,3.272l10.089,10.089l18.385,-18.385l-10.071,-10.07l-2.548,15.094Z" style="fill:#737373;fill-rule:nonzero;"/><path d="M539.525,220.024l6.008,-18.024l12.016,12.016l-18.024,6.008Z" style="fill:#737373;"/></g><g><rect x="458.503" y="35.503" width="42" height="31" style="fill:#fff;"/><path id="email-3-icon2" d="M479.028,50.562l-13.468,-8.639l25.943,0l-12.475,8.639Zm0,3.152l-13.525,-8.898l0,14.267l26,0l0,-14.241l-12.475,8.872Z" style="fill:#737373;fill-rule:nonzero;"/></g><rect x="594.997" y="1.003" width="101" height="101" style="fill:#3a3a3a;"/><g><path d="M631.693,17.832l0,11.441l13.804,0l0,16.16l-13.804,0l0,11.452l39.054,0l0,-39.053l-39.054,0Z" style="fill:#fff;fill-rule:nonzero;"/><rect x="620.247" y="31.636" width="22.893" height="11.441" style="fill:#fff;fill-rule:nonzero;"/></g><rect x="429" y="167" width="101" height="101" style="fill:#3a3a3a;"/><g><path d="M465.697,183.829l0,11.441l13.803,0l0,16.16l-13.803,0l0,11.452l39.053,0l0,-39.053l-39.053,0Z" style="fill:#fff;fill-rule:nonzero;"/><rect x="454.25" y="197.632" width="22.893" height="11.441" style="fill:#fff;fill-rule:nonzero;"/></g><rect x="263.003" y="1.003" width="101" height="101" style="fill:#3a3a3a;"/><g><path d="M299.7,17.832l0,11.441l13.803,0l0,16.16l-13.803,0l0,11.452l39.053,0l0,-39.053l-39.053,0Z" style="fill:#fff;fill-rule:nonzero;"/><rect x="288.253" y="31.636" width="22.893" height="11.441" style="fill:#fff;fill-rule:nonzero;"/></g><rect x="2.003" y="1.003" width="101" height="101" style="fill:#3a3a3a;"/><g><g><g><text x="38.426px" y="222.824px" style="font-family:'Arial-BoldMT', 'Arial', sans-serif;font-weight:700;font-size:12.12px;fill:#8c8c8c;">Command message</text><path d="M24.339,218.486c0,1.999 -1.643,3.688 -3.67,3.688c-2.026,0 -3.669,-1.689 -3.669,-3.688c0,-2 1.643,-3.689 3.669,-3.689c2.027,0 3.67,1.689 3.67,3.689" style="fill:#8c8c8c;fill-rule:nonzero;"/><path d="M25.937,217.24l5.439,0l0,-2.426l3.672,3.672l-3.672,3.672l0,-2.426l-5.44,0c0.096,-0.402 0.147,-0.819 0.147,-1.246c0,-0.427 -0.051,-0.844 -0.146,-1.246Z" style="fill:#8c8c8c;"/><text x="38.426px" y="252.173px" style="font-family:'Arial-BoldMT', 'Arial', sans-serif;font-weight:700;font-size:12.12px;fill:#8c8c8c;">Event message</text><path d="M24.339,247.835c0,1.999 -1.643,3.688 -3.67,3.688c-2.026,0 -3.669,-1.689 -3.669,-3.688c0,-1.999 1.643,-3.688 3.669,-3.688c2.027,0 3.67,1.689 3.67,3.688" style="fill:#8c8c8c;fill-rule:nonzero;"/><path d="M25.937,246.59l5.439,0l0,-2.426l3.672,3.671l-3.672,3.672l0,-2.426l-5.44,0c0.096,-0.401 0.147,-0.819 0.147,-1.246c0,-0.427 -0.051,-0.844 -0.146,-1.245Z" style="fill:#8c8c8c;"/><path d="M23.551,243.241l-0.048,-0.048l3.472,-3.472l-1.721,-1.721l5.204,0l0,5.204l-1.721,-1.721l-3.472,3.472l-0.046,-0.046c-0.429,-0.668 -0.999,-1.24 -1.668,-1.668Z" style="fill:#8c8c8c;"/><path d="M25.218,250.763l0.047,-0.047l3.472,3.472l1.721,-1.721l0,5.204l-5.204,0l1.721,-1.721l-3.472,-3.472l0.05,-0.05c0.667,-0.428 1.236,-0.998 1.665,-1.665Z" style="fill:#8c8c8c;"/><rect x="2" y="200" width="164" height="68" style="fill:none;stroke:#ccc;stroke-width:1px;"/></g></g></g><g><g><path d="M440.218,24.414l0.047,-0.047l3.472,3.471l1.721,-1.721l0,5.204l-5.204,0l1.721,-1.721l-3.472,-3.472l0.05,-0.049c0.667,-0.428 1.236,-0.999 1.665,-1.665Z"/></g><path d="M439.339,21.486c0,1.999 -1.643,3.688 -3.67,3.688c-2.026,0 -3.669,-1.689 -3.669,-3.688c0,-2 1.643,-3.689 3.669,-3.689c2.027,0 3.67,1.689 3.67,3.689" style="fill-rule:nonzero;"/><path d="M440.937,20.24l5.439,0l0,-2.426l3.672,3.672l-3.672,3.672l0,-2.426l-5.44,0c0.096,-0.402 0.147,-0.819 0.147,-1.246c0,-0.427 -0.051,-0.844 -0.146,-1.246Z"/><path d="M438.551,16.891l-0.048,-0.048l3.472,-3.471l-1.721,-1.722l5.204,0l0,5.204l-1.721,-1.721l-3.472,3.472l-0.046,-0.046c-0.429,-0.668 -0.999,-1.239 -1.668,-1.668Z"/></g><g><path d="M627.339,162.835c0,1.999 -1.643,3.688 -3.67,3.688c-2.026,0 -3.669,-1.689 -3.669,-3.688c0,-1.999 1.643,-3.688 3.669,-3.688c2.027,0 3.67,1.689 3.67,3.688" style="fill-rule:nonzero;"/><path d="M628.937,161.59l5.439,0l0,-2.426l3.672,3.671l-3.672,3.672l0,-2.426l-5.44,0c0.096,-0.401 0.147,-0.819 0.147,-1.246c0,-0.427 -0.051,-0.844 -0.146,-1.245Z"/><path d="M626.551,158.241l-0.048,-0.048l3.472,-3.472l-1.721,-1.721l5.204,0l0,5.204l-1.721,-1.721l-3.472,3.472l-0.046,-0.046c-0.429,-0.668 -0.999,-1.24 -1.668,-1.668Z"/><path d="M628.218,165.763l0.047,-0.047l3.472,3.472l1.721,-1.721l0,5.204l-5.204,0l1.721,-1.721l-3.472,-3.472l0.05,-0.05c0.667,-0.428 1.236,-0.998 1.665,-1.665Z"/></g><g><path d="M38.7,17.832l0,11.441l13.803,0l0,16.16l-13.803,0l0,11.452l39.053,0l0,-39.053l-39.053,0Z" style="fill:#fff;fill-rule:nonzero;"/><rect x="27.253" y="31.636" width="22.893" height="11.441" style="fill:#fff;fill-rule:nonzero;"/></g><path d="M114.003,51.503l138,0" style="fill:none;stroke:#737373;stroke-width:6px;"/><rect x="163.003" y="36.003" width="42" height="31" style="fill:#fff;"/><path id="email-3-icon3" d="M183.528,51.062l-13.468,-8.639l25.943,0l-12.475,8.639Zm0,3.152l-13.525,-8.898l0,14.267l26,0l0,-14.241l-12.475,8.872Z" style="fill:#737373;fill-rule:nonzero;"/><path d="M260.5,51.503l-16.993,8.497l0,-16.993l16.993,8.496Z" style="fill:#737373;"/><path d="M592.5,51.503l-16.993,8.497l0,-16.993l16.993,8.496Z" style="fill:#737373;"/><path d="M148.367,21.486c0,1.999 -1.642,3.688 -3.669,3.688c-2.027,0 -3.669,-1.689 -3.669,-3.688c0,-2 1.642,-3.689 3.669,-3.689c2.027,0 3.669,1.689 3.669,3.689" style="fill-rule:nonzero;"/><path d="M149.965,20.24l5.439,0l0,-2.426l3.672,3.672l-3.672,3.672l0,-2.426l-5.439,0c0.096,-0.402 0.147,-0.819 0.147,-1.246c0,-0.427 -0.051,-0.844 -0.147,-1.246Z"/><text x="162.147px" y="25.818px" style="font-family:'Arial-BoldMT', 'Arial', sans-serif;font-weight:700;font-size:12.12px;">PlaceOrder</text><path d="M148.367,21.486c0,1.999 -1.642,3.688 -3.669,3.688c-2.027,0 -3.669,-1.689 -3.669,-3.688c0,-2 1.642,-3.689 3.669,-3.689c2.027,0 3.669,1.689 3.669,3.689" style="fill-rule:nonzero;"/><path d="M149.965,20.24l5.439,0l0,-2.426l3.672,3.672l-3.672,3.672l0,-2.426l-5.439,0c0.096,-0.402 0.147,-0.819 0.147,-1.246c0,-0.427 -0.051,-0.844 -0.147,-1.246Z"/><g transform="matrix(1,0,0,1,-93.4738,-10.9655)"><text x="123.31px" y="89.48px" style="font-family:'Arial-BoldMT', 'Arial', sans-serif;font-weight:700;font-size:12px;fill:#fff;">ClientUI</text><text x="122.291px" y="103.48px" style="font-family:'ArialMT', 'Arial', sans-serif;font-size:12px;fill:#bfbfbf;">Endpoint</text></g><g transform="matrix(1,0,0,1,167.526,-10.9655)"><text x="130.298px" y="89.48px" style="font-family:'Arial-BoldMT', 'Arial', sans-serif;font-weight:700;font-size:12px;fill:#fff;">Sales</text><text x="122.291px" y="103.48px" style="font-family:'ArialMT', 'Arial', sans-serif;font-size:12px;fill:#bfbfbf;">Endpoint</text></g><g transform="matrix(1,0,0,1,499.519,-10.9655)"><text x="127.646px" y="89.48px" style="font-family:'Arial-BoldMT', 'Arial', sans-serif;font-weight:700;font-size:12px;fill:#fff;">Billing</text><text x="122.291px" y="103.48px" style="font-family:'ArialMT', 'Arial', sans-serif;font-size:12px;fill:#bfbfbf;">Endpoint</text></g><g transform="matrix(1,0,0,1,333.523,155.257)"><text x="120.316px" y="89.48px" style="font-family:'Arial-BoldMT', 'Arial', sans-serif;font-weight:700;font-size:12px;fill:#fff;">Shipping</text><text x="122.291px" y="103.48px" style="font-family:'ArialMT', 'Arial', sans-serif;font-size:12px;fill:#bfbfbf;">Endpoint</text></g><text x="453.426px" y="25.972px" style="font-family:'Arial-BoldMT', 'Arial', sans-serif;font-weight:700;font-size:12.12px;">OrderPlaced</text><text x="641.543px" y="167.173px" style="font-family:'Arial-BoldMT', 'Arial', sans-serif;font-weight:700;font-size:12.12px;">OrderBilled</text><path d="M254.218,165.763l0.047,-0.047l3.472,3.472l1.721,-1.722l0,5.205l-5.204,0l1.721,-1.722l-3.472,-3.471l0.05,-0.05c0.667,-0.428 1.236,-0.999 1.665,-1.665Z"/><path d="M253.339,162.835c0,1.999 -1.643,3.688 -3.67,3.688c-2.026,0 -3.669,-1.689 -3.669,-3.688c0,-1.999 1.643,-3.688 3.669,-3.688c2.027,0 3.67,1.689 3.67,3.688" style="fill-rule:nonzero;"/><path d="M254.937,161.589l5.439,0l0,-2.426l3.672,3.672l-3.672,3.672l0,-2.426l-5.44,0c0.096,-0.402 0.147,-0.819 0.147,-1.246c0,-0.427 -0.051,-0.844 -0.146,-1.246Z"/><path d="M252.551,158.24l-0.048,-0.047l3.472,-3.472l-1.721,-1.721l5.204,0l0,5.204l-1.721,-1.721l-3.472,3.471l-0.046,-0.046c-0.429,-0.667 -0.999,-1.239 -1.668,-1.668Z"/><text x="267.426px" y="167.321px" style="font-family:'Arial-BoldMT', 'Arial', sans-serif;font-weight:700;font-size:12.12px;">OrderPlaced</text></svg>