<svg xmlns="http://www.w3.org/2000/svg" xmlns:xlink="http://www.w3.org/1999/xlink" width="780" height="521.33"><g transform="translate(-60 -60)"><path d="M400 400h160v160H400z" fill="url(#a)"/><path d="M458.13 436.8v18.13H480v25.6h-21.87v18.14H520V436.8z" fill="#fff"/><path d="M440 458.67h36.27v18.1H440z" fill="#fff"/><path d="M400 525c0-2.76 2.24-5 5-5h150c2.76 0 5 2.24 5 5v30c0 2.76-2.24 5-5 5H405c-2.76 0-5-2.24-5-5z" fill="none"/><use xlink:href="#b" transform="matrix(1,0,0,1,400,520) translate(46.51851851851852 23.555555555555557)"/><path d="M80 80h160v160H80z" fill="#ef8d22"/><path d="M181.87 116.8v18.13H160v25.6h21.87v18.14H120V116.8z" fill="#fff"/><path d="M163.73 138.67H200v18.1h-36.27z" fill="#fff"/><path d="M80 205c0-2.76 2.24-5 5-5h150c2.76 0 5 2.24 5 5v30c0 2.76-2.24 5-5 5H85c-2.76 0-5-2.24-5-5z" fill="none"/><use xlink:href="#c" transform="matrix(1,0,0,1,80,200) translate(20.839506172839492 23.555555555555557)"/><use xlink:href="#d" transform="matrix(1,0,0,1,80,200) translate(72.19753086419752 23.555555555555557)"/><path d="M660 80h160v160H660z" fill="#ef8d22"/><path d="M745.54 178.77c-.26-.05-.53-.05-.77-.13s-.48-.2-.7-.35c-.42-.32-.76-.73-.97-1.2-.1-.25-.14-.5-.2-.76l-4.6-37.76-2.6 16.08-.2.73c-.16.22-.27.46-.44.65-.36.4-.8.7-1.32.83-.25.08-.5.08-.76.1h-4.56l-3.68 8.03-.45.68c-.56.46-.67.66-1.37.85-.26.06-.53.1-.8.1-.55-.02-1.07-.18-1.52-.5-.22-.16-.42-.35-.58-.56-.16-.2-.28-.47-.4-.7l-5.9-15.08-1.02 2.66-.4.72c-.52.52-.64.72-1.36.95-.27.08-.56.08-.83.13H700v-5.56h8.18l2.88-7.63.4-.73c.2-.2.38-.42.6-.58.23-.16.47-.3.74-.37.53-.18 1.1-.18 1.65-.02.27.08.53.2.75.36.62.42.67.66 1.04 1.28l6.16 15.73 1.7-3.7.43-.67c.2-.17.37-.36.6-.5.6-.4.8-.34 1.5-.44h3.98l5.3-33.2.24-.77c.4-.57.44-.78 1.04-1.17.23-.14.48-.24.74-.3.5-.14 1.06-.14 1.57.02.24.08.47.2.7.35.22.14.4.32.58.53.47.54.45.76.63 1.44l4.98 40.68 2.02-9.58.26-.72c.38-.54.43-.75 1.02-1.1.22-.13.46-.23.7-.3.5-.12 1-.12 1.5.02.25.07.5.18.7.3.2.14.4.3.6.5.47.53 1.1 2 1.27 2.34h2.85l2.32-10.37.27-.72c.4-.55.45-.76 1.08-1.1.22-.12.48-.22.73-.28.27-.06.52-.08.78-.06.53.03 1.02.2 1.46.5.57.42.62.63.96 1.22l3.6 8.95H780v5.56h-13.36l-.82-.13c-.24-.1-.5-.2-.73-.35-.64-.42-.67-.64-1.04-1.26l-.97-2.4-.88 3.84-.25.7c-.15.2-.26.43-.43.6-.36.38-.8.63-1.28.76-.24.06-.5.08-.74.1h-6.83l-4.33 20.56c-.1.24-.13.5-.26.72-.23.46-.6.86-1.06 1.12-.22.12-.5.2-.74.28-.25.04-.5.04-.76.07zm0 0" fill="#fff"/><path d="M660 203.67c0-2.76 2.24-5 5-5h150c2.76 0 5 2.24 5 5v32.66c0 2.76-2.24 5-5 5H665c-2.76 0-5-2.24-5-5z" fill="none"/><use xlink:href="#e" transform="matrix(1,0,0,1,660,198.66666666666666) translate(16.913580246913583 14.388888888888888)"/><use xlink:href="#f" transform="matrix(1,0,0,1,660,198.66666666666666) translate(46.51851851851851 35.72222222222222)"/><path d="M80 400h160v160H80z" fill="#3aa6dd"/><path d="M181.87 436.8v18.13H160v25.6h21.87v18.14H120V436.8z" fill="#fff"/><path d="M163.73 458.67H200v18.1h-36.27z" fill="#fff"/><path d="M80 523.67c0-2.76 2.24-5 5-5h150c2.76 0 5 2.24 5 5v32.66c0 2.76-2.24 5-5 5H85c-2.76 0-5-2.24-5-5z" fill="none"/><use xlink:href="#g" transform="matrix(1,0,0,1,80,518.6666666666666) translate(15.506172839506178 25.055555555555557)"/><use xlink:href="#h" transform="matrix(1,0,0,1,80,518.6666666666666) translate(96.24691358024691 25.055555555555557)"/><path d="M240 482h160" stroke="#000" stroke-width="2" fill="none"/><path d="M240 483v-2zM400 482l-14.27 4.64v-9.28z"/><path d="M400 480.95v2.1L384.73 488v-12zm-13.27 4.3l10.03-3.25-10.03-3.26z"/><path d="M240 160h420" stroke="#000" stroke-width="2" fill="none"/><path d="M240 161v-2zM660 160l-14.27 4.64v-9.28z"/><path d="M660 158.95v2.1L644.73 166v-12zm-13.27 4.3l10.03-3.25-10.03-3.26z"/><path d="M560 484.67l7.32-.16 7.02-.43 6.76-.7 6.54-.97 6.32-1.2 6.15-1.45 6-1.67 5.83-1.9 5.7-2.12 5.6-2.36 5.52-2.6 5.42-2.82 5.35-3.1 5.28-3.34 5.23-3.64 5.18-3.93 5.16-4.26 5.1-4.6 5.07-4.95 5.04-5.37 5-5.8 4.98-6.27 4.92-6.77 4.87-7.34 4.8-7.93 4.7-8.57 4.6-9.26 4.45-10 4.24-10.74 4.02-11.55 3.73-12.35 3.36-13.15 2.95-13.92 2.48-14.6 1.92-15.2 1.32-15.67.66-15.95.1-8" stroke="#000" stroke-width="2" fill="none"/><path d="M560.05 485.67H560v-1.1zM742.94 254.38l-9.26-.23 5-14.15z"/><path d="M744.3 255.4l-12.03-.3 5.34-15.1h2.1zm-9.22-2.22l6.5.16-3-10.1z"/><defs><linearGradient gradientUnits="userSpaceOnUse" id="a" x1="400" y1="560" x2="560" y2="560"><stop offset="0%" stop-color="#3aa6dd"/><stop offset="44.57%" stop-color="#3aa6dd"/><stop offset="100%" stop-color="#ef8d22"/><stop offset="55.43%" stop-color="#ef8d22"/></linearGradient><path fill="#fff" d="M199 0l-22-63H83L61 0H9l90-248h61L250 0h-51zm-33-102l-36-108c-10 38-24 72-36 108h72" id="i"/><path fill="#fff" d="M88-194c31-1 46 15 58 34l-1-101h50l1 261h-48c-2-10 0-23-3-31C134-8 116 4 84 4 32 4 16-41 15-95c0-56 19-97 73-99zm17 164c33 0 40-30 41-66 1-37-9-64-41-64s-38 30-39 65c0 43 13 65 39 65" id="j"/><path fill="#fff" d="M133-34C117-15 103 5 69 4 32 3 11-16 11-54c-1-60 55-63 116-61 1-26-3-47-28-47-18 1-26 9-28 27l-52-2c7-38 36-58 82-57s74 22 75 68l1 82c-1 14 12 18 25 15v27c-30 8-71 5-69-32zm-48 3c29 0 43-24 42-57-32 0-66-3-65 30 0 17 8 27 23 27" id="k"/><path fill="#fff" d="M135-194c53 0 70 44 70 98 0 56-19 98-73 100-31 1-45-17-59-34 3 33 2 69 2 105H25l-1-265h48c2 10 0 23 3 31 11-24 29-35 60-35zM114-30c33 0 39-31 40-66 0-38-9-64-40-64-56 0-55 130 0 130" id="l"/><path fill="#fff" d="M115-3C79 11 28 4 28-45v-112H4v-33h27l15-45h31v45h36v33H77v99c-1 23 16 31 38 25v30" id="m"/><path fill="#fff" d="M185-48c-13 30-37 53-82 52C43 2 14-33 14-96s30-98 90-98c62 0 83 45 84 108H66c0 31 8 55 39 56 18 0 30-7 34-22zm-45-69c5-46-57-63-70-21-2 6-4 13-4 21h74" id="n"/><path fill="#fff" d="M135-150c-39-12-60 13-60 57V0H25l-1-190h47c2 13-1 29 3 40 6-28 27-53 61-41v41" id="o"/><g id="b"><use transform="matrix(0.04938271604938272,0,0,0.04938271604938272,0,0)" xlink:href="#i"/><use transform="matrix(0.04938271604938272,0,0,0.04938271604938272,12.790123456790125,0)" xlink:href="#j"/><use transform="matrix(0.04938271604938272,0,0,0.04938271604938272,23.60493827160494,0)" xlink:href="#k"/><use transform="matrix(0.04938271604938272,0,0,0.04938271604938272,33.48148148148148,0)" xlink:href="#l"/><use transform="matrix(0.04938271604938272,0,0,0.04938271604938272,44.2962962962963,0)" xlink:href="#m"/><use transform="matrix(0.04938271604938272,0,0,0.04938271604938272,50.17283950617284,0)" xlink:href="#n"/><use transform="matrix(0.04938271604938272,0,0,0.04938271604938272,60.04938271604939,0)" xlink:href="#o"/></g><path fill="#fff" d="M169-182c-1-43-94-46-97-3 18 66 151 10 154 114 3 95-165 93-204 36-6-8-10-19-12-30l50-8c3 46 112 56 116 5-17-69-150-10-154-114-4-87 153-88 188-35 5 8 8 18 10 28" id="p"/><path fill="#fff" d="M25 0v-261h50V0H25" id="q"/><path fill="#fff" d="M137-138c1-29-70-34-71-4 15 46 118 7 119 86 1 83-164 76-172 9l43-7c4 19 20 25 44 25 33 8 57-30 24-41C81-84 22-81 20-136c-2-80 154-74 161-7" id="r"/><g id="c"><use transform="matrix(0.04938271604938272,0,0,0.04938271604938272,0,0)" xlink:href="#p"/><use transform="matrix(0.04938271604938272,0,0,0.04938271604938272,11.851851851851853,0)" xlink:href="#k"/><use transform="matrix(0.04938271604938272,0,0,0.04938271604938272,21.7283950617284,0)" xlink:href="#q"/><use transform="matrix(0.04938271604938272,0,0,0.04938271604938272,26.666666666666668,0)" xlink:href="#n"/><use transform="matrix(0.04938271604938272,0,0,0.04938271604938272,36.543209876543216,0)" xlink:href="#r"/></g><path fill="#fff" d="M67-93c0 74 22 123 53 168H70C40 30 18-18 18-93s22-123 52-168h50c-32 44-53 94-53 168" id="s"/><path fill="#fff" d="M230 0l2-204L168 0h-37L68-204 70 0H24v-248h70l56 185 57-185h69V0h-46" id="t"/><path fill="#fff" d="M140-251c80 0 125 45 125 126 0 70-33 111-92 124 6 28 34 38 68 31l-1 36C177 83 129 55 120 2 51-6 15-50 15-125c0-81 44-126 125-126zm-1 214c52 0 73-35 73-88 0-50-21-86-72-86-52 0-73 35-73 86s22 88 72 88" id="u"/><path fill="#fff" d="M102-93c0 74-22 123-52 168H0C30 29 54-18 53-93c0-74-22-123-53-168h50c30 45 52 94 52 168" id="v"/><g id="d"><use transform="matrix(0.04938271604938272,0,0,0.04938271604938272,0,0)" xlink:href="#s"/><use transform="matrix(0.04938271604938272,0,0,0.04938271604938272,5.8765432098765435,0)" xlink:href="#t"/><use transform="matrix(0.04938271604938272,0,0,0.04938271604938272,20.641975308641978,0)" xlink:href="#p"/><use transform="matrix(0.04938271604938272,0,0,0.04938271604938272,32.49382716049383,0)" xlink:href="#t"/><use transform="matrix(0.04938271604938272,0,0,0.04938271604938272,47.25925925925927,0)" xlink:href="#u"/><use transform="matrix(0.04938271604938272,0,0,0.04938271604938272,61.08641975308644,0)" xlink:href="#v"/></g><path fill="#fff" d="M128 0H69L1-190h53L99-40l48-150h52" id="w"/><path fill="#fff" d="M25-224v-37h50v37H25zM25 0v-190h50V0H25" id="x"/><path fill="#fff" d="M190-63c-7 42-38 67-86 67-59 0-84-38-90-98-12-110 154-137 174-36l-49 2c-2-19-15-32-35-32-30 0-35 28-38 64-6 74 65 87 74 30" id="y"/><path fill="#fff" d="M67-125c0 53 21 87 73 88 37 1 54-22 65-47l45 17C233-25 199 4 140 4 58 4 20-42 15-125 8-235 124-281 211-232c18 10 29 29 36 50l-46 12c-8-25-30-41-62-41-52 0-71 34-72 86" id="z"/><path fill="#fff" d="M110-194c64 0 96 36 96 99 0 64-35 99-97 99-61 0-95-36-95-99 0-62 34-99 96-99zm-1 164c35 0 45-28 45-65 0-40-10-65-43-65-34 0-45 26-45 65 0 36 10 65 43 65" id="A"/><path fill="#fff" d="M135-194c87-1 58 113 63 194h-50c-7-57 23-157-34-157-59 0-34 97-39 157H25l-1-190h47c2 12-1 28 3 38 12-26 28-41 61-42" id="B"/><g id="e"><use transform="matrix(0.04938271604938272,0,0,0.04938271604938272,0,0)" xlink:href="#p"/><use transform="matrix(0.04938271604938272,0,0,0.04938271604938272,11.851851851851853,0)" xlink:href="#n"/><use transform="matrix(0.04938271604938272,0,0,0.04938271604938272,21.7283950617284,0)" xlink:href="#o"/><use transform="matrix(0.04938271604938272,0,0,0.04938271604938272,28.64197530864198,0)" xlink:href="#w"/><use transform="matrix(0.04938271604938272,0,0,0.04938271604938272,38.518518518518526,0)" xlink:href="#x"/><use transform="matrix(0.04938271604938272,0,0,0.04938271604938272,43.4567901234568,0)" xlink:href="#y"/><use transform="matrix(0.04938271604938272,0,0,0.04938271604938272,53.333333333333336,0)" xlink:href="#n"/><use transform="matrix(0.04938271604938272,0,0,0.04938271604938272,63.20987654320988,0)" xlink:href="#z"/><use transform="matrix(0.04938271604938272,0,0,0.04938271604938272,76.00000000000001,0)" xlink:href="#A"/><use transform="matrix(0.04938271604938272,0,0,0.04938271604938272,86.81481481481482,0)" xlink:href="#B"/><use transform="matrix(0.04938271604938272,0,0,0.04938271604938272,97.62962962962963,0)" xlink:href="#m"/><use transform="matrix(0.04938271604938272,0,0,0.04938271604938272,103.50617283950618,0)" xlink:href="#o"/><use transform="matrix(0.04938271604938272,0,0,0.04938271604938272,110.41975308641976,0)" xlink:href="#A"/><use transform="matrix(0.04938271604938272,0,0,0.04938271604938272,121.23456790123458,0)" xlink:href="#q"/></g><g id="f"><use transform="matrix(0.04938271604938272,0,0,0.04938271604938272,0,0)" xlink:href="#s"/><use transform="matrix(0.04938271604938272,0,0,0.04938271604938272,5.8765432098765435,0)" xlink:href="#t"/><use transform="matrix(0.04938271604938272,0,0,0.04938271604938272,20.641975308641978,0)" xlink:href="#p"/><use transform="matrix(0.04938271604938272,0,0,0.04938271604938272,32.49382716049383,0)" xlink:href="#t"/><use transform="matrix(0.04938271604938272,0,0,0.04938271604938272,47.25925925925927,0)" xlink:href="#u"/><use transform="matrix(0.04938271604938272,0,0,0.04938271604938272,61.08641975308644,0)" xlink:href="#v"/></g><path fill="#fff" d="M114-157C55-157 80-60 75 0H25v-261h50l-1 109c12-26 28-41 61-42 86-1 58 113 63 194h-50c-7-57 23-157-34-157" id="C"/><path fill="#fff" d="M195-6C206 82 75 100 31 46c-4-6-6-13-8-21l49-6c3 16 16 24 34 25 40 0 42-37 40-79-11 22-30 35-61 35-53 0-70-43-70-97 0-56 18-96 73-97 30 0 46 14 59 34l2-30h47zm-90-29c32 0 41-27 41-63 0-35-9-62-40-62-32 0-39 29-40 63 0 36 9 62 39 62" id="D"/><g id="g"><use transform="matrix(0.04938271604938272,0,0,0.04938271604938272,0,0)" xlink:href="#p"/><use transform="matrix(0.04938271604938272,0,0,0.04938271604938272,11.851851851851853,0)" xlink:href="#C"/><use transform="matrix(0.04938271604938272,0,0,0.04938271604938272,22.666666666666668,0)" xlink:href="#x"/><use transform="matrix(0.04938271604938272,0,0,0.04938271604938272,27.60493827160494,0)" xlink:href="#l"/><use transform="matrix(0.04938271604938272,0,0,0.04938271604938272,38.41975308641975,0)" xlink:href="#l"/><use transform="matrix(0.04938271604938272,0,0,0.04938271604938272,49.23456790123457,0)" xlink:href="#x"/><use transform="matrix(0.04938271604938272,0,0,0.04938271604938272,54.17283950617284,0)" xlink:href="#B"/><use transform="matrix(0.04938271604938272,0,0,0.04938271604938272,64.98765432098766,0)" xlink:href="#D"/></g><path fill="#fff" d="M24 0v-248h52v208h133V0H24" id="E"/><g id="h"><use transform="matrix(0.04938271604938272,0,0,0.04938271604938272,0,0)" xlink:href="#s"/><use transform="matrix(0.04938271604938272,0,0,0.04938271604938272,5.8765432098765435,0)" xlink:href="#p"/><use transform="matrix(0.04938271604938272,0,0,0.04938271604938272,17.728395061728396,0)" xlink:href="#u"/><use transform="matrix(0.04938271604938272,0,0,0.04938271604938272,31.555555555555557,0)" xlink:href="#E"/><use transform="matrix(0.04938271604938272,0,0,0.04938271604938272,42.370370370370374,0)" xlink:href="#v"/></g></defs></g></svg>