<?xml version="1.0" encoding="UTF-8" standalone="no"?><!DOCTYPE svg PUBLIC "-//W3C//DTD SVG 1.1//EN" "http://www.w3.org/Graphics/SVG/1.1/DTD/svg11.dtd"><!-- Generated by graphviz version 2.35.0 (20140103.1005) --><!-- Title: FlowChart Pages: 1 --><svg width="600pt" height="593pt" viewBox="0.00 0.00 600 592.52" xmlns="http://www.w3.org/2000/svg" xmlns:xlink="http://www.w3.org/1999/xlink"><defs><linearGradient id="g-terminatorrl6vy8fqadcxr" x1="0%" x2="100%" y1="0%" y2="0%" spreadMethod="pad"><stop offset="0%" stop-color="#ff8787" stop-opacity="1"/><stop offset="100%" stop-color="#ffb9b9" stop-opacity="1"/></linearGradient><linearGradient id="g-decisionrl6vy8fqadcxr" x1="0%" x2="100%" y1="0%" y2="0%" spreadMethod="pad"><stop offset="0%" stop-color="#ffd287" stop-opacity="1"/><stop offset="100%" stop-color="#ffffb9" stop-opacity="1"/></linearGradient><linearGradient id="g-processrl6vy8fqadcxr" x1="0%" x2="100%" y1="0%" y2="0%" spreadMethod="pad"><stop offset="0%" stop-color="#99ff99" stop-opacity="1"/><stop offset="100%" stop-color="#cbffcb" stop-opacity="1"/></linearGradient><linearGradient id="g-defaultrl6vy8fqadcxr" x1="0%" x2="100%" y1="0%" y2="0%" spreadMethod="pad"><stop offset="0%" stop-color="#99ff99" stop-opacity="1"/><stop offset="100%" stop-color="#cbffcb" stop-opacity="1"/></linearGradient><linearGradient id="g-modulerl6vy8fqadcxr" x1="0%" x2="100%" y1="0%" y2="0%" spreadMethod="pad"><stop offset="0%" stop-color="#77c1e4" stop-opacity="1"/><stop offset="100%" stop-color="#a9f3ff" stop-opacity="1"/></linearGradient><linearGradient id="g-dataiorl6vy8fqadcxr" x1="0%" x2="100%" y1="0%" y2="0%" spreadMethod="pad"><stop offset="0%" stop-color="#bebebe" stop-opacity="1"/><stop offset="100%" stop-color="#f0f0f0" stop-opacity="1"/></linearGradient><linearGradient id="g-preparationrl6vy8fqadcxr" x1="0%" x2="100%" y1="0%" y2="0%" spreadMethod="pad"><stop offset="0%" stop-color="#bebebe" stop-opacity="1"/><stop offset="100%" stop-color="#f0f0f0" stop-opacity="1"/></linearGradient><linearGradient id="g-commentrl6vy8fqadcxr" x1="0%" x2="100%" y1="0%" y2="0%" spreadMethod="pad"><stop offset="0%" stop-color="#f5f588" stop-opacity="1"/><stop offset="100%" stop-color="#ffffba" stop-opacity="1"/></linearGradient><linearGradient id="g-manualrl6vy8fqadcxr" x1="0%" x2="100%" y1="0%" y2="0%" spreadMethod="pad"><stop offset="0%" stop-color="#9e78ff" stop-opacity="1"/><stop offset="100%" stop-color="#d0aaff" stop-opacity="1"/></linearGradient><filter id="dropshadowrl6vy8fqadcxr" height="150%" width="150%"><feGaussianBlur in="SourceAlpha" stdDeviation="3"/><feOffset dx="2" dy="2" result="offsetblur"/><feComponentTransfer/><feMerge><feMergeNode/><feMergeNode in="SourceGraphic"/></feMerge></filter></defs><g id="flowrl6vy8fqadcxr" class="graph" transform="scale(0.935535 0.935535) rotate(0) translate(4 624)"><title>FlowChart</title><!-- switch_block_1 --><g id="node1" class="node"><title>switch_block_1</title><polygon fill="url(#g-decisionrl6vy8fqadcxr)" stroke="black" points="248,-620 190.836,-602 248,-584 305.164,-602 248,-620"/><text xml:space="preserve" text-anchor="start" x="221.5" y="-599.5" font-family="Open Sans" font-size="10.00">Operation?</text></g><!-- process_block_2 --><g id="node2" class="node"><title>process_block_2</title><polygon fill="url(#g-processrl6vy8fqadcxr)" stroke="black" points="144.25,-542 -0.25,-542 -0.25,-506 144.25,-506 144.25,-542"/><text xml:space="preserve" text-anchor="start" x="6.5" y="-522.5" font-family="Open Sans" font-size="10.00">Determine routing for </text><text xml:space="preserve" text-anchor="start" x="113.5" y="-522.5" font-family="Droid Sans Mono" font-size="10.00">Send</text></g><!-- switch_block_1&#45;&gt;process_block_2 --><g id="edge1" class="edge"><title>switch_block_1->process_block_2</title><path fill="none" stroke="black" d="M224.991,-591.064C198.674,-579.7 154.834,-560.769 120.814,-546.079"/><polygon fill="black" stroke="black" points="122.069,-542.809 111.501,-542.057 119.294,-549.235 122.069,-542.809"/><text xml:space="preserve" text-anchor="start" x="171" y="-561.5" font-family="Open Sans" font-weight="bold" font-size="10.00"> Send </text><polyline fill="none" stroke="Black" points="202,-557.5 147.743,-557.5 "/></g><!-- process_block_3 --><g id="node3" class="node"><title>process_block_3</title><polygon fill="url(#g-processrl6vy8fqadcxr)" stroke="black" points="329.25,-542 166.75,-542 166.75,-506 329.25,-506 329.25,-542"/><text xml:space="preserve" text-anchor="start" x="173.5" y="-522.5" font-family="Open Sans" font-size="10.00">Determine routing for </text><text xml:space="preserve" text-anchor="start" x="280.5" y="-522.5" font-family="Droid Sans Mono" font-size="10.00">Publish</text></g><!-- switch_block_1&#45;&gt;process_block_3 --><g id="edge2" class="edge"><title>switch_block_1->process_block_3</title><path fill="none" stroke="black" d="M248,-583.754C248,-574.523 248,-562.935 248,-552.495"/><polygon fill="black" stroke="black" points="251.5,-552.177 248,-542.177 244.5,-552.177 251.5,-552.177"/><text xml:space="preserve" text-anchor="start" x="248" y="-561.5" font-family="Open Sans" font-weight="bold" font-size="10.00"> Publish </text><polyline fill="none" stroke="Black" points="291,-557.5 248,-557.5 "/></g><!-- process_block_4 --><g id="node4" class="node"><title>process_block_4</title><polygon fill="url(#g-processrl6vy8fqadcxr)" stroke="black" points="502.25,-542 351.75,-542 351.75,-506 502.25,-506 502.25,-542"/><text xml:space="preserve" text-anchor="start" x="358.5" y="-522.5" font-family="Open Sans" font-size="10.00">Determine routing for </text><text xml:space="preserve" text-anchor="start" x="465.5" y="-522.5" font-family="Droid Sans Mono" font-size="10.00">Reply</text></g><!-- switch_block_1&#45;&gt;process_block_4 --><g id="edge3" class="edge"><title>switch_block_1->process_block_4</title><path fill="none" stroke="black" d="M271.035,-591.22C297.704,-579.897 342.412,-560.914 377.141,-546.169"/><polygon fill="black" stroke="black" points="378.812,-549.262 386.648,-542.132 376.076,-542.819 378.812,-549.262"/><text xml:space="preserve" text-anchor="start" x="349" y="-561.5" font-family="Open Sans" font-weight="bold" font-size="10.00"> Reply </text><polyline fill="none" stroke="Black" points="383,-557.5 349.661,-557.5 "/></g><!-- switch_block_5 --><g id="node5" class="node"><title>switch_block_5</title><polygon fill="url(#g-decisionrl6vy8fqadcxr)" stroke="black" points="248,-474 181.601,-456 248,-438 314.399,-456 248,-474"/><text xml:space="preserve" text-anchor="start" x="216" y="-453.5" font-family="Open Sans" font-size="10.00">Routing type?</text></g><!-- process_block_2&#45;&gt;switch_block_5 --><g id="edge4" class="edge"><title>process_block_2->switch_block_5</title><path fill="none" stroke="black" d="M117.782,-505.832C147.173,-494.81 184.797,-480.701 212.039,-470.485"/><polygon fill="black" stroke="black" points="213.436,-473.699 221.571,-466.911 210.978,-467.145 213.436,-473.699"/></g><!-- process_block_3&#45;&gt;switch_block_5 --><g id="edge5" class="edge"><title>process_block_3->switch_block_5</title><path fill="none" stroke="black" d="M248,-505.659C248,-499.193 248,-491.682 248,-484.525"/><polygon fill="black" stroke="black" points="251.5,-484.454 248,-474.454 244.5,-484.454 251.5,-484.454"/></g><!-- process_block_4&#45;&gt;switch_block_5 --><g id="edge6" class="edge"><title>process_block_4->switch_block_5</title><path fill="none" stroke="black" d="M380.437,-505.832C350.453,-494.776 312.044,-480.614 284.318,-470.391"/><polygon fill="black" stroke="black" points="285.216,-466.992 274.622,-466.816 282.794,-473.559 285.216,-466.992"/></g><!-- terminator_block_6 --><g id="node6" class="node"><title>terminator_block_6</title><ellipse fill="url(#g-terminatorrl6vy8fqadcxr)" stroke="black" cx="284" cy="-18" rx="100.492" ry="18"/><text xml:space="preserve" text-anchor="start" x="206.5" y="-15.5" font-family="Open Sans" font-size="10.00">Hand message over to transport</text></g><!-- switch_block_5&#45;&gt;terminator_block_6 --><g id="edge7" class="edge"><title>switch_block_5->terminator_block_6</title><path fill="none" stroke="black" d="M241.779,-439.562C236.237,-424.402 229,-400.489 229,-379 229,-379 229,-379 229,-85 229,-68.36 239.445,-53.6888 251.232,-42.4306"/><polygon fill="black" stroke="black" points="253.873,-44.7689 259.075,-35.5388 249.253,-39.5106 253.873,-44.7689"/><text xml:space="preserve" text-anchor="start" x="229" y="-230.5" font-family="Open Sans" font-weight="bold" font-size="10.00"> Multicast </text><polyline fill="none" stroke="Black" points="281,-226.5 229,-226.5 "/></g><!-- process_block_7 --><g id="node7" class="node"><title>process_block_7</title><polygon fill="url(#g-processrl6vy8fqadcxr)" stroke="black" points="390.25,-396 285.75,-396 285.75,-360 390.25,-360 390.25,-396"/><text xml:space="preserve" text-anchor="start" x="292.5" y="-375.5" font-family="Open Sans" font-size="10.00">Iterate over routes</text></g><!-- switch_block_5&#45;&gt;process_block_7 --><g id="edge8" class="edge"><title>switch_block_5->process_block_7</title><path fill="none" stroke="black" d="M263.267,-442.108C275.994,-431.361 294.463,-415.764 309.857,-402.765"/><polygon fill="black" stroke="black" points="312.197,-405.37 317.579,-396.244 307.681,-400.022 312.197,-405.37"/><text xml:space="preserve" text-anchor="start" x="299" y="-415.5" font-family="Open Sans" font-weight="bold" font-size="10.00"> Unicast </text><polyline fill="none" stroke="Black" points="343,-411.5 299.406,-411.5 "/></g><!-- switch_block_8 --><g id="node8" class="node"><title>switch_block_8</title><polygon fill="url(#g-decisionrl6vy8fqadcxr)" stroke="black" points="420,-328 360.59,-310 420,-292 479.41,-310 420,-328"/><text xml:space="preserve" text-anchor="start" x="392" y="-307.5" font-family="Open Sans" font-size="10.00">Route type?</text></g><!-- process_block_7&#45;&gt;switch_block_8 --><g id="edge9" class="edge"><title>process_block_7->switch_block_8</title><path fill="none" stroke="black" d="M359.545,-359.659C370.923,-350.501 384.905,-339.247 396.555,-329.871"/><polygon fill="black" stroke="black" points="398.96,-332.428 404.555,-323.431 394.571,-326.975 398.96,-332.428"/></g><!-- process_block_9 --><g id="node9" class="node"><title>process_block_9</title><polygon fill="url(#g-processrl6vy8fqadcxr)" stroke="black" points="417,-250 303,-250 303,-214 417,-214 417,-250"/><text xml:space="preserve" text-anchor="start" x="310" y="-229.5" font-family="Open Sans" font-size="10.00">Determine instances</text></g><!-- switch_block_8&#45;&gt;process_block_9 --><g id="edge10" class="edge"><title>switch_block_8->process_block_9</title><path fill="none" stroke="black" d="M402.211,-297.048C394.977,-291.559 386.941,-284.584 381,-277 376.89,-271.753 373.321,-265.57 370.349,-259.524"/><polygon fill="black" stroke="black" points="373.485,-257.963 366.18,-250.29 367.105,-260.844 373.485,-257.963"/><text xml:space="preserve" text-anchor="start" x="381" y="-269.5" font-family="Open Sans" font-weight="bold" font-size="10.00"> ToEndpoint </text><polyline fill="none" stroke="Black" points="444,-265.5 373.941,-265.5 "/></g><!-- process_block_10 --><g id="node10" class="node"><title>process_block_10</title><polygon fill="url(#g-processrl6vy8fqadcxr)" stroke="black" points="498,-172 344,-172 344,-136 498,-136 498,-172"/><text xml:space="preserve" text-anchor="start" x="351" y="-151.5" font-family="Open Sans" font-size="10.00">Determine transport address</text></g><!-- switch_block_8&#45;&gt;process_block_10 --><g id="edge11" class="edge"><title>switch_block_8->process_block_10</title><path fill="none" stroke="black" d="M433.45,-295.885C438.039,-290.514 442.613,-283.933 445,-277 455.981,-245.107 444.615,-206.695 434.092,-181.604"/><polygon fill="black" stroke="black" points="437.249,-180.089 430,-172.363 430.848,-182.923 437.249,-180.089"/><text xml:space="preserve" text-anchor="start" x="449" y="-230.5" font-family="Open Sans" font-weight="bold" font-size="10.00"> ToInstance </text><polyline fill="none" stroke="Black" points="510,-226.5 447.61,-226.5 "/></g><!-- process_block_11 --><g id="node11" class="node"><title>process_block_11</title><polygon fill="url(#g-processrl6vy8fqadcxr)" stroke="black" points="476,-104 366,-104 366,-68 476,-68 476,-104"/><text xml:space="preserve" text-anchor="start" x="373" y="-83.5" font-family="Open Sans" font-size="10.00">Select routes to use</text></g><!-- switch_block_8&#45;&gt;process_block_11 --><g id="edge14" class="edge"><title>switch_block_8->process_block_11</title><path fill="none" stroke="black" d="M447.644,-300.296C470.26,-291.545 500.752,-275.621 515,-250 525.18,-231.694 521.895,-156.129 509,-136 501.859,-124.853 491.246,-116.014 479.839,-109.093"/><polygon fill="black" stroke="black" points="481.444,-105.98 471.006,-104.167 478.035,-112.094 481.444,-105.98"/><text xml:space="preserve" text-anchor="start" x="520" y="-191.5" font-family="Open Sans" font-weight="bold" font-size="10.00"> ToTransportAddress </text><polyline fill="none" stroke="Black" points="628,-187.5 520.251,-187.5 "/></g><!-- process_block_9&#45;&gt;process_block_10 --><g id="edge12" class="edge"><title>process_block_9->process_block_10</title><path fill="none" stroke="black" d="M373.842,-213.754C381.797,-203.843 391.933,-191.214 400.768,-180.207"/><polygon fill="black" stroke="black" points="403.683,-182.167 407.213,-172.177 398.224,-177.785 403.683,-182.167"/></g><!-- process_block_10&#45;&gt;process_block_11 --><g id="edge13" class="edge"><title>process_block_10->process_block_11</title><path fill="none" stroke="black" d="M421,-135.659C421,-129.193 421,-121.682 421,-114.525"/><polygon fill="black" stroke="black" points="424.5,-114.454 421,-104.454 417.5,-114.454 424.5,-114.454"/></g><!-- process_block_11&#45;&gt;terminator_block_6 --><g id="edge15" class="edge"><title>process_block_11->terminator_block_6</title><path fill="none" stroke="black" d="M385.362,-67.8316C367.457,-59.2056 345.626,-48.6883 326.816,-39.6266"/><polygon fill="black" stroke="black" points="328.102,-36.3615 317.574,-35.1745 325.064,-42.6678 328.102,-36.3615"/></g></g></svg>