<?xml version="1.0" encoding="UTF-8" standalone="no"?><!DOCTYPE svg PUBLIC "-//W3C//DTD SVG 1.1//EN" "http://www.w3.org/Graphics/SVG/1.1/DTD/svg11.dtd"><svg width="100%" height="100%" viewBox="0 0 708 269" version="1.1" xmlns="http://www.w3.org/2000/svg" xmlns:xlink="http://www.w3.org/1999/xlink" xml:space="preserve" style="fill-rule:evenodd;clip-rule:evenodd;stroke-linejoin:round;stroke-miterlimit:1.5;"><rect id="Artboard1" x="0" y="0" width="708" height="269" style="fill:none;"/><path d="M375.003,51.503l209,0" style="fill:none;stroke:#737373;stroke-width:6px;stroke-dasharray:12,6,0,0;"/><g><path d="M314.003,112.443l99,99" style="fill:none;stroke:#737373;stroke-width:6px;stroke-dasharray:12,6,0,0;"/><path d="M389.313,165.832l-29.699,-29.698l-21.92,21.92l29.699,29.698l21.92,-21.92Z" style="fill:#fff;"/><path id="email-3-icon" d="M363.833,162.335l-3.415,-15.631l18.345,18.344l-14.93,-2.713Zm-2.229,2.229l-3.271,-15.855l-10.089,10.089l18.385,18.384l10.07,-10.07l-15.095,-2.548Z" style="fill:#737373;fill-rule:nonzero;"/><path d="M418.962,217.5l-18.023,-6.008l12.015,-12.016l6.008,18.024Z" style="fill:#737373;"/></g><g><path d="M546.971,212.479l99,-99" style="fill:none;stroke:#737373;stroke-width:6px;stroke-dasharray:12,6,0,0;"/><path d="M600.36,137.17l-29.698,29.699l21.92,21.92l29.699,-29.699l-21.921,-21.92Z" style="fill:#fff;"/><path id="email-3-icon1" d="M596.864,162.65l-15.632,3.415l18.345,-18.345l-2.713,14.93Zm2.228,2.228l-15.855,3.272l10.089,10.089l18.385,-18.385l-10.071,-10.07l-2.548,15.094Z" style="fill:#737373;fill-rule:nonzero;"/><path d="M539.525,220.024l6.008,-18.024l12.016,12.016l-18.024,6.008Z" style="fill:#737373;"/></g><g><rect x="458.503" y="35.503" width="42" height="31" style="fill:#fff;"/><path id="email-3-icon2" d="M479.028,50.562l-13.468,-8.639l25.943,0l-12.475,8.639Zm0,3.152l-13.525,-8.898l0,14.267l26,0l0,-14.241l-12.475,8.872Z" style="fill:#737373;fill-rule:nonzero;"/></g><g id="Endpoint--Receiving---labeled-"><rect x="594.997" y="1.003" width="101" height="101" style="fill:#3a3a3a;"/><g><path d="M627.87,69.926l3.468,0c0.686,0 1.198,0.029 1.536,0.086c0.337,0.057 0.639,0.176 0.905,0.358c0.266,0.181 0.488,0.423 0.666,0.725c0.177,0.302 0.266,0.64 0.266,1.015c0,0.406 -0.109,0.779 -0.328,1.118c-0.219,0.34 -0.516,0.594 -0.891,0.764c0.529,0.153 0.935,0.416 1.219,0.787c0.284,0.371 0.426,0.807 0.426,1.308c0,0.394 -0.092,0.778 -0.275,1.151c-0.183,0.372 -0.434,0.67 -0.752,0.893c-0.317,0.223 -0.709,0.36 -1.174,0.412c-0.292,0.031 -0.997,0.051 -2.113,0.059l-2.953,0l0,-8.676Zm1.752,1.444l0,2.006l1.148,0c0.682,0 1.106,-0.01 1.272,-0.029c0.3,-0.036 0.536,-0.14 0.707,-0.311c0.172,-0.172 0.258,-0.398 0.258,-0.678c0,-0.268 -0.074,-0.486 -0.222,-0.654c-0.148,-0.167 -0.368,-0.269 -0.66,-0.304c-0.174,-0.02 -0.673,-0.03 -1.497,-0.03l-1.006,0Zm0,3.45l0,2.32l1.621,0c0.631,0 1.032,-0.018 1.201,-0.053c0.261,-0.048 0.473,-0.163 0.637,-0.346c0.163,-0.184 0.245,-0.43 0.245,-0.737c0,-0.261 -0.063,-0.482 -0.189,-0.663c-0.126,-0.182 -0.309,-0.314 -0.548,-0.397c-0.238,-0.082 -0.756,-0.124 -1.553,-0.124l-1.414,0Z" style="fill:#fff;fill-rule:nonzero;"/><path d="M636.605,71.465l0,-1.539l1.663,0l0,1.539l-1.663,0Zm0,7.137l0,-6.285l1.663,0l0,6.285l-1.663,0Z" style="fill:#fff;fill-rule:nonzero;"/><rect x="639.972" y="69.926" width="1.663" height="8.676" style="fill:#fff;fill-rule:nonzero;"/><rect x="643.339" y="69.926" width="1.663" height="8.676" style="fill:#fff;fill-rule:nonzero;"/><path d="M646.707,71.465l0,-1.539l1.663,0l0,1.539l-1.663,0Zm0,7.137l0,-6.285l1.663,0l0,6.285l-1.663,0Z" style="fill:#fff;fill-rule:nonzero;"/><path d="M655.791,78.602l-1.663,0l0,-3.208c0,-0.678 -0.036,-1.117 -0.107,-1.317c-0.071,-0.199 -0.186,-0.354 -0.346,-0.464c-0.16,-0.111 -0.352,-0.166 -0.577,-0.166c-0.288,0 -0.546,0.079 -0.775,0.237c-0.229,0.158 -0.386,0.367 -0.471,0.627c-0.084,0.261 -0.127,0.742 -0.127,1.444l0,2.847l-1.663,0l0,-6.285l1.545,0l0,0.923c0.548,-0.71 1.239,-1.065 2.071,-1.065c0.367,0 0.702,0.066 1.006,0.198c0.304,0.132 0.534,0.301 0.69,0.506c0.155,0.205 0.264,0.438 0.325,0.698c0.061,0.261 0.092,0.634 0.092,1.119l0,3.906Z" style="fill:#fff;fill-rule:nonzero;"/><path d="M657.324,79.016l1.899,0.231c0.032,0.221 0.105,0.373 0.219,0.455c0.158,0.119 0.407,0.178 0.746,0.178c0.434,0 0.759,-0.065 0.976,-0.195c0.146,-0.087 0.257,-0.227 0.332,-0.42c0.051,-0.139 0.077,-0.393 0.077,-0.764l0,-0.917c-0.497,0.678 -1.125,1.018 -1.882,1.018c-0.844,0 -1.513,-0.357 -2.006,-1.071c-0.387,-0.565 -0.58,-1.267 -0.58,-2.107c0,-1.054 0.253,-1.858 0.76,-2.415c0.507,-0.556 1.137,-0.834 1.891,-0.834c0.777,0 1.418,0.341 1.923,1.024l0,-0.882l1.557,0l0,5.64c0,0.741 -0.061,1.296 -0.184,1.663c-0.122,0.367 -0.294,0.655 -0.515,0.864c-0.221,0.209 -0.515,0.372 -0.884,0.491c-0.369,0.118 -0.836,0.177 -1.4,0.177c-1.065,0 -1.821,-0.182 -2.267,-0.547c-0.445,-0.365 -0.668,-0.828 -0.668,-1.388c0,-0.055 0.002,-0.122 0.006,-0.201Zm1.485,-3.687c0,0.667 0.129,1.155 0.388,1.465c0.258,0.309 0.577,0.464 0.955,0.464c0.407,0 0.75,-0.158 1.03,-0.476c0.28,-0.318 0.42,-0.788 0.42,-1.411c0,-0.651 -0.134,-1.135 -0.402,-1.45c-0.268,-0.316 -0.608,-0.474 -1.018,-0.474c-0.398,0 -0.727,0.155 -0.985,0.465c-0.259,0.309 -0.388,0.782 -0.388,1.417Z" style="fill:#fff;fill-rule:nonzero;"/><path d="M622.532,92.827l0,-8.676l6.273,0l0,1.024l-5.125,0l0,2.657l4.799,0l0,1.018l-4.799,0l0,2.953l5.326,0l0,1.024l-6.474,0Z" style="fill:#bfbfbf;fill-rule:nonzero;"/><path d="M630.456,92.827l0,-6.285l0.959,0l0,0.894c0.461,-0.691 1.128,-1.036 2,-1.036c0.379,0 0.727,0.068 1.045,0.204c0.317,0.136 0.555,0.315 0.713,0.536c0.157,0.221 0.268,0.483 0.331,0.787c0.04,0.197 0.059,0.542 0.059,1.036l0,3.864l-1.065,0l0,-3.823c0,-0.434 -0.041,-0.758 -0.124,-0.973c-0.083,-0.215 -0.23,-0.387 -0.441,-0.515c-0.211,-0.129 -0.459,-0.193 -0.743,-0.193c-0.454,0 -0.845,0.144 -1.175,0.432c-0.329,0.288 -0.494,0.835 -0.494,1.64l0,3.432l-1.065,0Z" style="fill:#bfbfbf;fill-rule:nonzero;"/><path d="M641.274,92.827l0,-0.793c-0.398,0.623 -0.984,0.935 -1.758,0.935c-0.501,0 -0.961,-0.138 -1.381,-0.414c-0.421,-0.276 -0.746,-0.662 -0.977,-1.157c-0.231,-0.495 -0.346,-1.064 -0.346,-1.707c0,-0.628 0.105,-1.197 0.314,-1.708c0.209,-0.511 0.522,-0.902 0.941,-1.174c0.418,-0.273 0.885,-0.409 1.402,-0.409c0.379,0 0.716,0.08 1.012,0.24c0.296,0.16 0.537,0.368 0.722,0.624l0,-3.113l1.059,0l0,8.676l-0.988,0Zm-3.367,-3.136c0,0.804 0.169,1.406 0.509,1.805c0.339,0.398 0.739,0.597 1.201,0.597c0.466,0 0.861,-0.19 1.187,-0.571c0.325,-0.381 0.488,-0.962 0.488,-1.743c0,-0.86 -0.166,-1.491 -0.497,-1.893c-0.332,-0.403 -0.74,-0.604 -1.225,-0.604c-0.474,0 -0.869,0.193 -1.187,0.58c-0.317,0.387 -0.476,0.996 -0.476,1.829Z" style="fill:#bfbfbf;fill-rule:nonzero;"/><path d="M643.937,95.236l0,-8.694l0.971,0l0,0.817c0.229,-0.32 0.487,-0.559 0.775,-0.719c0.288,-0.16 0.637,-0.24 1.047,-0.24c0.537,0 1.01,0.138 1.421,0.414c0.41,0.277 0.72,0.666 0.929,1.169c0.209,0.503 0.314,1.055 0.314,1.654c0,0.643 -0.116,1.222 -0.347,1.737c-0.23,0.515 -0.566,0.91 -1.006,1.184c-0.44,0.274 -0.902,0.411 -1.387,0.411c-0.356,0 -0.674,-0.075 -0.956,-0.225c-0.282,-0.15 -0.514,-0.339 -0.696,-0.568l0,3.06l-1.065,0Zm0.965,-5.516c0,0.809 0.164,1.407 0.491,1.793c0.327,0.387 0.724,0.58 1.19,0.58c0.473,0 0.878,-0.2 1.216,-0.6c0.337,-0.401 0.506,-1.021 0.506,-1.862c0,-0.801 -0.165,-1.4 -0.495,-1.799c-0.329,-0.398 -0.722,-0.597 -1.18,-0.597c-0.454,0 -0.855,0.212 -1.204,0.636c-0.35,0.424 -0.524,1.04 -0.524,1.849Z" style="fill:#bfbfbf;fill-rule:nonzero;"/><path d="M650.281,89.685c0,-1.164 0.324,-2.026 0.971,-2.587c0.54,-0.465 1.199,-0.698 1.976,-0.698c0.864,0 1.571,0.283 2.119,0.849c0.548,0.567 0.823,1.349 0.823,2.347c0,0.809 -0.122,1.445 -0.364,1.908c-0.243,0.464 -0.596,0.824 -1.06,1.08c-0.463,0.257 -0.969,0.385 -1.518,0.385c-0.879,0 -1.591,-0.282 -2.133,-0.846c-0.543,-0.564 -0.814,-1.377 -0.814,-2.438Zm1.095,0c0,0.804 0.176,1.407 0.527,1.808c0.351,0.4 0.793,0.6 1.325,0.6c0.529,0 0.969,-0.201 1.32,-0.603c0.351,-0.403 0.527,-1.016 0.527,-1.841c0,-0.777 -0.177,-1.366 -0.53,-1.766c-0.353,-0.401 -0.792,-0.601 -1.317,-0.601c-0.532,0 -0.974,0.199 -1.325,0.598c-0.351,0.398 -0.527,1 -0.527,1.805Z" style="fill:#bfbfbf;fill-rule:nonzero;"/><path d="M657.424,85.376l0,-1.225l1.065,0l0,1.225l-1.065,0Zm0,7.451l0,-6.285l1.065,0l0,6.285l-1.065,0Z" style="fill:#bfbfbf;fill-rule:nonzero;"/><path d="M660.111,92.827l0,-6.285l0.959,0l0,0.894c0.461,-0.691 1.128,-1.036 2,-1.036c0.379,0 0.727,0.068 1.044,0.204c0.318,0.136 0.556,0.315 0.714,0.536c0.157,0.221 0.268,0.483 0.331,0.787c0.039,0.197 0.059,0.542 0.059,1.036l0,3.864l-1.065,0l0,-3.823c0,-0.434 -0.041,-0.758 -0.124,-0.973c-0.083,-0.215 -0.23,-0.387 -0.441,-0.515c-0.211,-0.129 -0.459,-0.193 -0.743,-0.193c-0.454,0 -0.845,0.144 -1.175,0.432c-0.329,0.288 -0.494,0.835 -0.494,1.64l0,3.432l-1.065,0Z" style="fill:#bfbfbf;fill-rule:nonzero;"/><path d="M669.177,91.874l0.154,0.941c-0.3,0.063 -0.568,0.095 -0.805,0.095c-0.386,0 -0.686,-0.061 -0.899,-0.184c-0.213,-0.122 -0.363,-0.283 -0.45,-0.482c-0.087,-0.199 -0.13,-0.618 -0.13,-1.257l0,-3.616l-0.781,0l0,-0.829l0.781,0l0,-1.556l1.059,-0.639l0,2.195l1.071,0l0,0.829l-1.071,0l0,3.675c0,0.304 0.019,0.499 0.056,0.586c0.038,0.086 0.099,0.155 0.184,0.207c0.085,0.051 0.206,0.077 0.364,0.077c0.118,0 0.274,-0.014 0.467,-0.042Z" style="fill:#bfbfbf;fill-rule:nonzero;"/></g><g><path d="M631.693,17.832l0,11.441l13.804,0l0,16.16l-13.804,0l0,11.452l39.054,0l0,-39.053l-39.054,0Z" style="fill:#fff;fill-rule:nonzero;"/><rect x="620.247" y="31.636" width="22.893" height="11.441" style="fill:#fff;fill-rule:nonzero;"/></g></g><g id="Endpoint--Receiving---labeled-1"><rect x="429" y="167" width="101" height="101" style="fill:#3a3a3a;"/><g><path d="M454.02,241.775l1.705,-0.165c0.102,0.572 0.31,0.992 0.624,1.26c0.314,0.269 0.737,0.403 1.269,0.403c0.564,0 0.99,-0.12 1.276,-0.358c0.286,-0.239 0.429,-0.518 0.429,-0.838c0,-0.205 -0.06,-0.379 -0.181,-0.524c-0.12,-0.144 -0.33,-0.269 -0.63,-0.375c-0.205,-0.071 -0.673,-0.198 -1.403,-0.379c-0.939,-0.233 -1.597,-0.519 -1.976,-0.858c-0.533,-0.478 -0.799,-1.059 -0.799,-1.746c0,-0.442 0.125,-0.855 0.376,-1.24c0.25,-0.384 0.611,-0.677 1.083,-0.879c0.471,-0.201 1.04,-0.301 1.707,-0.301c1.089,0 1.908,0.238 2.459,0.716c0.55,0.477 0.839,1.114 0.867,1.911l-1.752,0.077c-0.075,-0.446 -0.236,-0.766 -0.482,-0.962c-0.247,-0.195 -0.617,-0.292 -1.11,-0.292c-0.509,0 -0.907,0.104 -1.195,0.313c-0.186,0.134 -0.278,0.314 -0.278,0.539c0,0.205 0.086,0.38 0.26,0.526c0.221,0.186 0.758,0.379 1.61,0.58c0.852,0.202 1.482,0.41 1.89,0.625c0.409,0.215 0.728,0.509 0.959,0.881c0.231,0.373 0.346,0.834 0.346,1.382c0,0.497 -0.138,0.963 -0.414,1.397c-0.276,0.434 -0.667,0.756 -1.172,0.968c-0.505,0.211 -1.134,0.316 -1.887,0.316c-1.097,0 -1.94,-0.253 -2.527,-0.76c-0.588,-0.507 -0.939,-1.246 -1.054,-2.217Z" style="fill:#fff;fill-rule:nonzero;"/><path d="M464.193,235.923l0,3.189c0.537,-0.627 1.178,-0.941 1.924,-0.941c0.382,0 0.727,0.071 1.035,0.213c0.308,0.142 0.54,0.324 0.696,0.545c0.155,0.221 0.262,0.465 0.319,0.734c0.057,0.268 0.086,0.684 0.086,1.248l0,3.687l-1.663,0l0,-3.32c0,-0.659 -0.032,-1.077 -0.095,-1.254c-0.063,-0.178 -0.174,-0.319 -0.334,-0.423c-0.16,-0.105 -0.36,-0.157 -0.601,-0.157c-0.276,0 -0.523,0.067 -0.74,0.201c-0.217,0.134 -0.375,0.336 -0.476,0.607c-0.101,0.27 -0.151,0.669 -0.151,1.198l0,3.148l-1.663,0l0,-8.675l1.663,0Z" style="fill:#fff;fill-rule:nonzero;"/><path d="M469.94,237.461l0,-1.538l1.662,0l0,1.538l-1.662,0Zm0,7.137l0,-6.285l1.662,0l0,6.285l-1.662,0Z" style="fill:#fff;fill-rule:nonzero;"/><path d="M473.26,238.313l1.55,0l0,0.924c0.201,-0.316 0.473,-0.572 0.817,-0.77c0.343,-0.197 0.724,-0.296 1.142,-0.296c0.73,0 1.349,0.286 1.858,0.858c0.509,0.573 0.764,1.37 0.764,2.391c0,1.05 -0.257,1.865 -0.77,2.447c-0.513,0.582 -1.134,0.873 -1.864,0.873c-0.347,0 -0.662,-0.069 -0.944,-0.207c-0.282,-0.138 -0.579,-0.375 -0.891,-0.71l0,3.166l-1.662,0l0,-8.676Zm1.645,3.036c0,0.707 0.14,1.228 0.42,1.566c0.28,0.337 0.621,0.506 1.024,0.506c0.386,0 0.708,-0.155 0.964,-0.465c0.257,-0.31 0.385,-0.818 0.385,-1.524c0,-0.659 -0.132,-1.148 -0.397,-1.467c-0.264,-0.32 -0.591,-0.48 -0.982,-0.48c-0.406,0 -0.744,0.157 -1.012,0.471c-0.268,0.313 -0.402,0.778 -0.402,1.393Z" style="fill:#fff;fill-rule:nonzero;"/><path d="M480.663,238.313l1.55,0l0,0.924c0.202,-0.316 0.474,-0.572 0.817,-0.77c0.343,-0.197 0.724,-0.296 1.142,-0.296c0.73,0 1.35,0.286 1.858,0.858c0.509,0.573 0.764,1.37 0.764,2.391c0,1.05 -0.257,1.865 -0.769,2.447c-0.513,0.582 -1.135,0.873 -1.865,0.873c-0.347,0 -0.661,-0.069 -0.944,-0.207c-0.282,-0.138 -0.578,-0.375 -0.89,-0.71l0,3.166l-1.663,0l0,-8.676Zm1.645,3.036c0,0.707 0.14,1.228 0.42,1.566c0.28,0.337 0.622,0.506 1.024,0.506c0.387,0 0.708,-0.155 0.965,-0.465c0.256,-0.31 0.384,-0.818 0.384,-1.524c0,-0.659 -0.132,-1.148 -0.396,-1.467c-0.264,-0.32 -0.592,-0.48 -0.983,-0.48c-0.406,0 -0.743,0.157 -1.012,0.471c-0.268,0.313 -0.402,0.778 -0.402,1.393Z" style="fill:#fff;fill-rule:nonzero;"/><path d="M488.114,237.461l0,-1.538l1.663,0l0,1.538l-1.663,0Zm0,7.137l0,-6.285l1.663,0l0,6.285l-1.663,0Z" style="fill:#fff;fill-rule:nonzero;"/><path d="M497.198,244.598l-1.663,0l0,-3.207c0,-0.679 -0.036,-1.118 -0.107,-1.317c-0.071,-0.199 -0.186,-0.354 -0.346,-0.465c-0.16,-0.11 -0.352,-0.165 -0.577,-0.165c-0.288,0 -0.546,0.079 -0.775,0.236c-0.229,0.158 -0.386,0.367 -0.471,0.628c-0.085,0.26 -0.127,0.741 -0.127,1.444l0,2.846l-1.663,0l0,-6.285l1.545,0l0,0.924c0.548,-0.711 1.239,-1.066 2.071,-1.066c0.367,0 0.702,0.066 1.006,0.199c0.304,0.132 0.534,0.3 0.689,0.506c0.156,0.205 0.265,0.438 0.326,0.698c0.061,0.26 0.092,0.633 0.092,1.118l0,3.906Z" style="fill:#fff;fill-rule:nonzero;"/><path d="M498.73,245.013l1.9,0.23c0.032,0.221 0.105,0.373 0.219,0.456c0.158,0.118 0.406,0.178 0.746,0.178c0.434,0 0.759,-0.066 0.976,-0.196c0.146,-0.087 0.257,-0.227 0.332,-0.42c0.051,-0.138 0.077,-0.392 0.077,-0.763l0,-0.918c-0.498,0.679 -1.125,1.018 -1.882,1.018c-0.845,0 -1.513,-0.357 -2.007,-1.071c-0.386,-0.564 -0.58,-1.266 -0.58,-2.107c0,-1.053 0.254,-1.858 0.761,-2.414c0.507,-0.556 1.137,-0.835 1.891,-0.835c0.777,0 1.418,0.342 1.923,1.024l0,-0.882l1.556,0l0,5.64c0,0.742 -0.061,1.296 -0.183,1.663c-0.122,0.367 -0.294,0.655 -0.515,0.864c-0.221,0.209 -0.516,0.373 -0.885,0.491c-0.368,0.119 -0.835,0.178 -1.399,0.178c-1.065,0 -1.821,-0.183 -2.267,-0.547c-0.446,-0.365 -0.668,-0.828 -0.668,-1.388c0,-0.055 0.001,-0.123 0.005,-0.201Zm1.486,-3.687c0,0.666 0.129,1.155 0.387,1.464c0.259,0.31 0.577,0.465 0.956,0.465c0.407,0 0.75,-0.159 1.03,-0.476c0.28,-0.318 0.42,-0.789 0.42,-1.412c0,-0.651 -0.134,-1.134 -0.402,-1.45c-0.269,-0.315 -0.608,-0.473 -1.018,-0.473c-0.399,0 -0.727,0.155 -0.986,0.464c-0.258,0.31 -0.387,0.782 -0.387,1.418Z" style="fill:#fff;fill-rule:nonzero;"/><path d="M456.535,258.824l0,-8.676l6.273,0l0,1.024l-5.125,0l0,2.657l4.8,0l0,1.018l-4.8,0l0,2.953l5.327,0l0,1.024l-6.475,0Z" style="fill:#bfbfbf;fill-rule:nonzero;"/><path d="M464.459,258.824l0,-6.285l0.959,0l0,0.893c0.462,-0.69 1.129,-1.035 2,-1.035c0.379,0 0.727,0.068 1.045,0.204c0.318,0.136 0.555,0.315 0.713,0.535c0.158,0.221 0.268,0.484 0.332,0.788c0.039,0.197 0.059,0.542 0.059,1.035l0,3.865l-1.066,0l0,-3.823c0,-0.434 -0.041,-0.759 -0.124,-0.974c-0.083,-0.215 -0.23,-0.387 -0.441,-0.515c-0.211,-0.128 -0.458,-0.192 -0.742,-0.192c-0.454,0 -0.846,0.144 -1.175,0.432c-0.33,0.288 -0.494,0.834 -0.494,1.639l0,3.433l-1.066,0Z" style="fill:#bfbfbf;fill-rule:nonzero;"/><path d="M475.278,258.824l0,-0.793c-0.399,0.623 -0.985,0.935 -1.758,0.935c-0.501,0 -0.962,-0.138 -1.382,-0.415c-0.42,-0.276 -0.746,-0.661 -0.976,-1.157c-0.231,-0.495 -0.347,-1.064 -0.347,-1.707c0,-0.627 0.105,-1.196 0.314,-1.707c0.209,-0.511 0.523,-0.903 0.941,-1.175c0.418,-0.272 0.886,-0.408 1.403,-0.408c0.378,0 0.716,0.08 1.012,0.239c0.295,0.16 0.536,0.368 0.722,0.625l0,-3.113l1.059,0l0,8.676l-0.988,0Zm-3.368,-3.137c0,0.805 0.17,1.407 0.509,1.805c0.339,0.399 0.74,0.598 1.201,0.598c0.466,0 0.862,-0.191 1.187,-0.571c0.326,-0.381 0.488,-0.962 0.488,-1.743c0,-0.86 -0.165,-1.491 -0.497,-1.894c-0.331,-0.402 -0.74,-0.603 -1.225,-0.603c-0.473,0 -0.869,0.193 -1.186,0.579c-0.318,0.387 -0.477,0.997 -0.477,1.829Z" style="fill:#bfbfbf;fill-rule:nonzero;"/><path d="M477.941,261.232l0,-8.693l0.97,0l0,0.816c0.229,-0.319 0.487,-0.559 0.775,-0.719c0.288,-0.159 0.638,-0.239 1.048,-0.239c0.536,0 1.01,0.138 1.42,0.414c0.411,0.276 0.72,0.666 0.929,1.169c0.209,0.503 0.314,1.054 0.314,1.654c0,0.643 -0.115,1.222 -0.346,1.737c-0.231,0.515 -0.566,0.909 -1.006,1.183c-0.44,0.275 -0.903,0.412 -1.388,0.412c-0.355,0 -0.674,-0.075 -0.956,-0.225c-0.282,-0.15 -0.514,-0.34 -0.695,-0.568l0,3.059l-1.065,0Zm0.964,-5.515c0,0.809 0.164,1.406 0.491,1.793c0.328,0.386 0.724,0.58 1.19,0.58c0.473,0 0.879,-0.2 1.216,-0.601c0.337,-0.4 0.506,-1.021 0.506,-1.861c0,-0.801 -0.165,-1.401 -0.494,-1.799c-0.33,-0.399 -0.723,-0.598 -1.181,-0.598c-0.453,0 -0.855,0.212 -1.204,0.636c-0.349,0.424 -0.524,1.041 -0.524,1.85Z" style="fill:#bfbfbf;fill-rule:nonzero;"/><path d="M484.285,255.681c0,-1.164 0.323,-2.026 0.97,-2.586c0.541,-0.465 1.2,-0.698 1.977,-0.698c0.864,0 1.57,0.283 2.118,0.849c0.549,0.566 0.823,1.348 0.823,2.346c0,0.809 -0.121,1.445 -0.364,1.909c-0.243,0.464 -0.596,0.824 -1.059,1.08c-0.464,0.256 -0.97,0.385 -1.518,0.385c-0.88,0 -1.591,-0.282 -2.134,-0.847c-0.542,-0.564 -0.813,-1.377 -0.813,-2.438Zm1.095,0c0,0.805 0.175,1.408 0.526,1.808c0.351,0.401 0.793,0.601 1.326,0.601c0.528,0 0.968,-0.201 1.32,-0.604c0.351,-0.402 0.526,-1.016 0.526,-1.84c0,-0.778 -0.176,-1.366 -0.529,-1.767c-0.354,-0.4 -0.792,-0.6 -1.317,-0.6c-0.533,0 -0.975,0.199 -1.326,0.597c-0.351,0.399 -0.526,1 -0.526,1.805Z" style="fill:#bfbfbf;fill-rule:nonzero;"/><path d="M491.428,251.373l0,-1.225l1.065,0l0,1.225l-1.065,0Zm0,7.451l0,-6.285l1.065,0l0,6.285l-1.065,0Z" style="fill:#bfbfbf;fill-rule:nonzero;"/><path d="M494.114,258.824l0,-6.285l0.959,0l0,0.893c0.462,-0.69 1.128,-1.035 2,-1.035c0.379,0 0.727,0.068 1.045,0.204c0.318,0.136 0.555,0.315 0.713,0.535c0.158,0.221 0.268,0.484 0.331,0.788c0.04,0.197 0.06,0.542 0.06,1.035l0,3.865l-1.066,0l0,-3.823c0,-0.434 -0.041,-0.759 -0.124,-0.974c-0.083,-0.215 -0.23,-0.387 -0.441,-0.515c-0.211,-0.128 -0.458,-0.192 -0.742,-0.192c-0.454,0 -0.846,0.144 -1.175,0.432c-0.33,0.288 -0.494,0.834 -0.494,1.639l0,3.433l-1.066,0Z" style="fill:#bfbfbf;fill-rule:nonzero;"/><path d="M503.181,257.871l0.154,0.941c-0.3,0.063 -0.569,0.094 -0.805,0.094c-0.387,0 -0.687,-0.061 -0.9,-0.183c-0.213,-0.122 -0.363,-0.283 -0.45,-0.482c-0.086,-0.2 -0.13,-0.619 -0.13,-1.258l0,-3.616l-0.781,0l0,-0.828l0.781,0l0,-1.557l1.06,-0.639l0,2.196l1.071,0l0,0.828l-1.071,0l0,3.675c0,0.304 0.018,0.499 0.056,0.586c0.037,0.087 0.098,0.156 0.183,0.207c0.085,0.052 0.206,0.077 0.364,0.077c0.119,0 0.274,-0.014 0.468,-0.041Z" style="fill:#bfbfbf;fill-rule:nonzero;"/></g><g><path d="M465.697,183.829l0,11.441l13.803,0l0,16.16l-13.803,0l0,11.452l39.053,0l0,-39.053l-39.053,0Z" style="fill:#fff;fill-rule:nonzero;"/><rect x="454.25" y="197.632" width="22.893" height="11.441" style="fill:#fff;fill-rule:nonzero;"/></g></g><g id="Endpoint--Receiving---labeled-2"><rect x="263.003" y="1.003" width="101" height="101" style="fill:#3a3a3a;"/><g><path d="M298.105,75.779l1.704,-0.166c0.103,0.572 0.311,0.992 0.625,1.261c0.313,0.268 0.736,0.402 1.269,0.402c0.564,0 0.989,-0.119 1.275,-0.358c0.286,-0.239 0.429,-0.518 0.429,-0.837c0,-0.205 -0.06,-0.38 -0.18,-0.524c-0.12,-0.144 -0.331,-0.269 -0.63,-0.376c-0.206,-0.071 -0.673,-0.197 -1.403,-0.379c-0.939,-0.232 -1.598,-0.518 -1.977,-0.858c-0.532,-0.477 -0.798,-1.059 -0.798,-1.746c0,-0.441 0.125,-0.855 0.375,-1.239c0.251,-0.385 0.612,-0.678 1.083,-0.879c0.472,-0.201 1.041,-0.302 1.708,-0.302c1.089,0 1.908,0.239 2.459,0.716c0.55,0.477 0.839,1.115 0.867,1.912l-1.752,0.077c-0.075,-0.446 -0.236,-0.767 -0.482,-0.962c-0.247,-0.195 -0.617,-0.293 -1.11,-0.293c-0.509,0 -0.908,0.104 -1.196,0.314c-0.185,0.134 -0.278,0.313 -0.278,0.538c0,0.205 0.087,0.381 0.261,0.527c0.221,0.185 0.757,0.379 1.609,0.58c0.853,0.201 1.483,0.409 1.891,0.624c0.409,0.215 0.728,0.509 0.959,0.882c0.231,0.373 0.346,0.833 0.346,1.382c0,0.497 -0.138,0.962 -0.414,1.396c-0.276,0.434 -0.667,0.757 -1.172,0.968c-0.505,0.211 -1.134,0.317 -1.888,0.317c-1.097,0 -1.939,-0.254 -2.527,-0.761c-0.588,-0.507 -0.939,-1.246 -1.053,-2.216Z" style="fill:#fff;fill-rule:nonzero;"/><path d="M307.864,74.234l-1.509,-0.272c0.169,-0.608 0.461,-1.057 0.875,-1.349c0.415,-0.292 1.03,-0.438 1.847,-0.438c0.742,0 1.294,0.088 1.657,0.263c0.363,0.176 0.618,0.399 0.766,0.669c0.148,0.27 0.222,0.766 0.222,1.488l-0.018,1.941c0,0.553 0.027,0.96 0.08,1.222c0.054,0.263 0.153,0.544 0.299,0.844l-1.645,0c-0.043,-0.111 -0.097,-0.274 -0.16,-0.491c-0.027,-0.099 -0.047,-0.164 -0.059,-0.196c-0.284,0.276 -0.588,0.484 -0.911,0.622c-0.324,0.138 -0.669,0.207 -1.036,0.207c-0.647,0 -1.157,-0.176 -1.53,-0.527c-0.373,-0.351 -0.559,-0.795 -0.559,-1.331c0,-0.356 0.085,-0.672 0.254,-0.95c0.17,-0.278 0.408,-0.492 0.713,-0.639c0.306,-0.148 0.747,-0.278 1.323,-0.388c0.777,-0.146 1.316,-0.282 1.616,-0.408l0,-0.166c0,-0.32 -0.079,-0.548 -0.237,-0.684c-0.158,-0.136 -0.456,-0.204 -0.894,-0.204c-0.295,0 -0.526,0.058 -0.692,0.175c-0.166,0.116 -0.3,0.32 -0.402,0.612Zm2.225,1.35c-0.213,0.071 -0.551,0.155 -1.012,0.254c-0.462,0.099 -0.764,0.195 -0.906,0.29c-0.217,0.154 -0.325,0.349 -0.325,0.586c0,0.233 0.087,0.434 0.26,0.604c0.174,0.169 0.395,0.254 0.663,0.254c0.3,0 0.586,-0.099 0.858,-0.296c0.201,-0.15 0.334,-0.333 0.397,-0.55c0.043,-0.142 0.065,-0.413 0.065,-0.811l0,-0.331Z" style="fill:#fff;fill-rule:nonzero;"/><rect x="313.361" y="69.926" width="1.663" height="8.676" style="fill:#fff;fill-rule:nonzero;"/><path d="M320.368,76.601l1.657,0.279c-0.213,0.607 -0.549,1.07 -1.009,1.387c-0.459,0.318 -1.034,0.477 -1.725,0.477c-1.093,0 -1.901,-0.357 -2.426,-1.071c-0.414,-0.572 -0.622,-1.294 -0.622,-2.166c0,-1.042 0.273,-1.858 0.817,-2.447c0.545,-0.59 1.233,-0.885 2.066,-0.885c0.935,0 1.672,0.309 2.213,0.926c0.54,0.617 0.799,1.563 0.775,2.838l-4.166,0c0.012,0.493 0.146,0.876 0.402,1.151c0.257,0.274 0.576,0.411 0.959,0.411c0.26,0 0.479,-0.071 0.657,-0.213c0.177,-0.142 0.312,-0.371 0.402,-0.687Zm0.095,-1.68c-0.012,-0.482 -0.136,-0.848 -0.373,-1.098c-0.237,-0.251 -0.525,-0.376 -0.864,-0.376c-0.363,0 -0.663,0.132 -0.899,0.397c-0.237,0.264 -0.354,0.623 -0.35,1.077l2.486,0Z" style="fill:#fff;fill-rule:nonzero;"/><path d="M322.883,76.809l1.669,-0.255c0.071,0.324 0.215,0.569 0.432,0.737c0.217,0.168 0.521,0.251 0.912,0.251c0.43,0 0.753,-0.078 0.97,-0.236c0.146,-0.111 0.219,-0.259 0.219,-0.444c0,-0.126 -0.039,-0.231 -0.118,-0.314c-0.083,-0.079 -0.268,-0.152 -0.556,-0.219c-1.342,-0.296 -2.192,-0.566 -2.551,-0.811c-0.497,-0.339 -0.746,-0.81 -0.746,-1.414c0,-0.544 0.215,-1.002 0.645,-1.373c0.43,-0.371 1.097,-0.556 2.001,-0.556c0.86,0 1.499,0.14 1.917,0.42c0.418,0.28 0.706,0.694 0.864,1.243l-1.568,0.29c-0.067,-0.245 -0.195,-0.432 -0.382,-0.562c-0.187,-0.131 -0.455,-0.196 -0.802,-0.196c-0.438,0 -0.751,0.061 -0.941,0.184c-0.126,0.086 -0.189,0.199 -0.189,0.337c0,0.118 0.055,0.219 0.166,0.302c0.149,0.11 0.667,0.266 1.553,0.467c0.886,0.202 1.504,0.448 1.855,0.74c0.347,0.296 0.521,0.708 0.521,1.237c0,0.576 -0.241,1.071 -0.722,1.485c-0.481,0.415 -1.193,0.622 -2.136,0.622c-0.856,0 -1.534,-0.174 -2.033,-0.521c-0.499,-0.347 -0.826,-0.819 -0.98,-1.414Z" style="fill:#fff;fill-rule:nonzero;"/><path d="M290.539,92.827l0,-8.676l6.273,0l0,1.024l-5.125,0l0,2.657l4.799,0l0,1.018l-4.799,0l0,2.953l5.326,0l0,1.024l-6.474,0Z" style="fill:#bfbfbf;fill-rule:nonzero;"/><path d="M298.463,92.827l0,-6.285l0.959,0l0,0.894c0.461,-0.691 1.128,-1.036 2,-1.036c0.379,0 0.727,0.068 1.044,0.204c0.318,0.136 0.556,0.315 0.714,0.536c0.157,0.221 0.268,0.483 0.331,0.787c0.039,0.197 0.059,0.542 0.059,1.036l0,3.864l-1.065,0l0,-3.823c0,-0.434 -0.042,-0.758 -0.124,-0.973c-0.083,-0.215 -0.23,-0.387 -0.441,-0.515c-0.211,-0.129 -0.459,-0.193 -0.743,-0.193c-0.454,0 -0.845,0.144 -1.175,0.432c-0.329,0.288 -0.494,0.835 -0.494,1.64l0,3.432l-1.065,0Z" style="fill:#bfbfbf;fill-rule:nonzero;"/><path d="M309.281,92.827l0,-0.793c-0.399,0.623 -0.984,0.935 -1.758,0.935c-0.501,0 -0.961,-0.138 -1.382,-0.414c-0.42,-0.276 -0.745,-0.662 -0.976,-1.157c-0.231,-0.495 -0.346,-1.064 -0.346,-1.707c0,-0.628 0.104,-1.197 0.313,-1.708c0.21,-0.511 0.523,-0.902 0.941,-1.174c0.419,-0.273 0.886,-0.409 1.403,-0.409c0.379,0 0.716,0.08 1.012,0.24c0.296,0.16 0.537,0.368 0.722,0.624l0,-3.113l1.059,0l0,8.676l-0.988,0Zm-3.367,-3.136c0,0.804 0.169,1.406 0.509,1.805c0.339,0.398 0.739,0.597 1.201,0.597c0.465,0 0.861,-0.19 1.186,-0.571c0.326,-0.381 0.489,-0.962 0.489,-1.743c0,-0.86 -0.166,-1.491 -0.497,-1.893c-0.332,-0.403 -0.74,-0.604 -1.225,-0.604c-0.474,0 -0.869,0.193 -1.187,0.58c-0.318,0.387 -0.476,0.996 -0.476,1.829Z" style="fill:#bfbfbf;fill-rule:nonzero;"/><path d="M311.944,95.236l0,-8.694l0.971,0l0,0.817c0.228,-0.32 0.487,-0.559 0.775,-0.719c0.288,-0.16 0.637,-0.24 1.047,-0.24c0.537,0 1.01,0.138 1.421,0.414c0.41,0.277 0.72,0.666 0.929,1.169c0.209,0.503 0.313,1.055 0.313,1.654c0,0.643 -0.115,1.222 -0.346,1.737c-0.231,0.515 -0.566,0.91 -1.006,1.184c-0.44,0.274 -0.902,0.411 -1.388,0.411c-0.355,0 -0.673,-0.075 -0.955,-0.225c-0.282,-0.15 -0.514,-0.339 -0.696,-0.568l0,3.06l-1.065,0Zm0.965,-5.516c0,0.809 0.163,1.407 0.491,1.793c0.327,0.387 0.724,0.58 1.189,0.58c0.474,0 0.879,-0.2 1.217,-0.6c0.337,-0.401 0.506,-1.021 0.506,-1.862c0,-0.801 -0.165,-1.4 -0.495,-1.799c-0.329,-0.398 -0.723,-0.597 -1.18,-0.597c-0.454,0 -0.855,0.212 -1.205,0.636c-0.349,0.424 -0.523,1.04 -0.523,1.849Z" style="fill:#bfbfbf;fill-rule:nonzero;"/><path d="M318.288,89.685c0,-1.164 0.324,-2.026 0.971,-2.587c0.54,-0.465 1.199,-0.698 1.976,-0.698c0.864,0 1.57,0.283 2.119,0.849c0.548,0.567 0.822,1.349 0.822,2.347c0,0.809 -0.121,1.445 -0.363,1.908c-0.243,0.464 -0.596,0.824 -1.06,1.08c-0.463,0.257 -0.969,0.385 -1.518,0.385c-0.88,0 -1.591,-0.282 -2.133,-0.846c-0.543,-0.564 -0.814,-1.377 -0.814,-2.438Zm1.095,0c0,0.804 0.175,1.407 0.527,1.808c0.351,0.4 0.793,0.6 1.325,0.6c0.529,0 0.969,-0.201 1.32,-0.603c0.351,-0.403 0.527,-1.016 0.527,-1.841c0,-0.777 -0.177,-1.366 -0.53,-1.766c-0.353,-0.401 -0.792,-0.601 -1.317,-0.601c-0.532,0 -0.974,0.199 -1.325,0.598c-0.352,0.398 -0.527,1 -0.527,1.805Z" style="fill:#bfbfbf;fill-rule:nonzero;"/><path d="M325.431,85.376l0,-1.225l1.065,0l0,1.225l-1.065,0Zm0,7.451l0,-6.285l1.065,0l0,6.285l-1.065,0Z" style="fill:#bfbfbf;fill-rule:nonzero;"/><path d="M328.118,92.827l0,-6.285l0.959,0l0,0.894c0.461,-0.691 1.128,-1.036 2,-1.036c0.379,0 0.727,0.068 1.044,0.204c0.318,0.136 0.556,0.315 0.713,0.536c0.158,0.221 0.269,0.483 0.332,0.787c0.039,0.197 0.059,0.542 0.059,1.036l0,3.864l-1.065,0l0,-3.823c0,-0.434 -0.042,-0.758 -0.124,-0.973c-0.083,-0.215 -0.23,-0.387 -0.441,-0.515c-0.211,-0.129 -0.459,-0.193 -0.743,-0.193c-0.454,0 -0.845,0.144 -1.175,0.432c-0.329,0.288 -0.494,0.835 -0.494,1.64l0,3.432l-1.065,0Z" style="fill:#bfbfbf;fill-rule:nonzero;"/><path d="M337.184,91.874l0.154,0.941c-0.3,0.063 -0.568,0.095 -0.805,0.095c-0.386,0 -0.686,-0.061 -0.899,-0.184c-0.213,-0.122 -0.363,-0.283 -0.45,-0.482c-0.087,-0.199 -0.13,-0.618 -0.13,-1.257l0,-3.616l-0.781,0l0,-0.829l0.781,0l0,-1.556l1.059,-0.639l0,2.195l1.071,0l0,0.829l-1.071,0l0,3.675c0,0.304 0.019,0.499 0.056,0.586c0.038,0.086 0.099,0.155 0.184,0.207c0.085,0.051 0.206,0.077 0.364,0.077c0.118,0 0.274,-0.014 0.467,-0.042Z" style="fill:#bfbfbf;fill-rule:nonzero;"/></g><g><path d="M299.7,17.832l0,11.441l13.803,0l0,16.16l-13.803,0l0,11.452l39.053,0l0,-39.053l-39.053,0Z" style="fill:#fff;fill-rule:nonzero;"/><rect x="288.253" y="31.636" width="22.893" height="11.441" style="fill:#fff;fill-rule:nonzero;"/></g></g><rect x="2.003" y="1.003" width="101" height="101" style="fill:#3a3a3a;"/><g><path d="M36.043,75.412l1.698,0.538c-0.26,0.947 -0.693,1.651 -1.299,2.11c-0.606,0.46 -1.374,0.69 -2.305,0.69c-1.152,0 -2.099,-0.394 -2.841,-1.181c-0.741,-0.787 -1.112,-1.863 -1.112,-3.228c0,-1.444 0.373,-2.566 1.118,-3.365c0.746,-0.799 1.726,-1.198 2.942,-1.198c1.061,0 1.923,0.314 2.586,0.941c0.394,0.371 0.69,0.903 0.887,1.598l-1.734,0.414c-0.102,-0.45 -0.316,-0.805 -0.642,-1.065c-0.325,-0.261 -0.721,-0.391 -1.186,-0.391c-0.643,0 -1.165,0.231 -1.566,0.693c-0.4,0.461 -0.6,1.209 -0.6,2.243c0,1.096 0.197,1.878 0.592,2.343c0.394,0.466 0.907,0.698 1.538,0.698c0.466,0 0.866,-0.148 1.202,-0.443c0.335,-0.296 0.576,-0.762 0.722,-1.397Z" style="fill:#fff;fill-rule:nonzero;"/><rect x="39.232" y="69.926" width="1.663" height="8.676" style="fill:#fff;fill-rule:nonzero;"/><path d="M42.6,71.465l0,-1.539l1.663,0l0,1.539l-1.663,0Zm0,7.137l0,-6.285l1.663,0l0,6.285l-1.663,0Z" style="fill:#fff;fill-rule:nonzero;"/><path d="M49.607,76.601l1.657,0.279c-0.213,0.607 -0.55,1.07 -1.009,1.387c-0.46,0.318 -1.035,0.477 -1.725,0.477c-1.093,0 -1.902,-0.357 -2.427,-1.071c-0.414,-0.572 -0.621,-1.294 -0.621,-2.166c0,-1.042 0.272,-1.858 0.816,-2.447c0.545,-0.59 1.233,-0.885 2.066,-0.885c0.935,0 1.673,0.309 2.213,0.926c0.541,0.617 0.799,1.563 0.775,2.838l-4.166,0c0.012,0.493 0.146,0.876 0.403,1.151c0.256,0.274 0.576,0.411 0.958,0.411c0.261,0 0.48,-0.071 0.657,-0.213c0.178,-0.142 0.312,-0.371 0.403,-0.687Zm0.094,-1.68c-0.012,-0.482 -0.136,-0.848 -0.373,-1.098c-0.236,-0.251 -0.524,-0.376 -0.864,-0.376c-0.363,0 -0.662,0.132 -0.899,0.397c-0.237,0.264 -0.353,0.623 -0.349,1.077l2.485,0Z" style="fill:#fff;fill-rule:nonzero;"/><path d="M58.424,78.602l-1.663,0l0,-3.208c0,-0.678 -0.035,-1.117 -0.106,-1.317c-0.071,-0.199 -0.187,-0.354 -0.346,-0.464c-0.16,-0.111 -0.352,-0.166 -0.577,-0.166c-0.288,0 -0.547,0.079 -0.776,0.237c-0.228,0.158 -0.385,0.367 -0.47,0.627c-0.085,0.261 -0.127,0.742 -0.127,1.444l0,2.847l-1.663,0l0,-6.285l1.544,0l0,0.923c0.549,-0.71 1.239,-1.065 2.072,-1.065c0.367,0 0.702,0.066 1.006,0.198c0.303,0.132 0.533,0.301 0.689,0.506c0.156,0.205 0.264,0.438 0.326,0.698c0.061,0.261 0.091,0.634 0.091,1.119l0,3.906Z" style="fill:#fff;fill-rule:nonzero;"/><path d="M62.993,72.317l0,1.325l-1.136,0l0,2.533c0,0.513 0.011,0.812 0.032,0.897c0.022,0.085 0.071,0.155 0.148,0.21c0.077,0.055 0.171,0.083 0.281,0.083c0.154,0 0.377,-0.053 0.669,-0.16l0.142,1.29c-0.386,0.166 -0.824,0.249 -1.314,0.249c-0.299,0 -0.57,-0.051 -0.81,-0.151c-0.241,-0.101 -0.418,-0.231 -0.53,-0.391c-0.113,-0.16 -0.19,-0.376 -0.234,-0.648c-0.035,-0.193 -0.053,-0.584 -0.053,-1.172l0,-2.74l-0.764,0l0,-1.325l0.764,0l0,-1.249l1.669,-0.97l0,2.219l1.136,0Z" style="fill:#fff;fill-rule:nonzero;"/><path d="M64.147,69.926l1.752,0l0,4.699c0,0.746 0.021,1.229 0.065,1.45c0.075,0.355 0.253,0.64 0.535,0.855c0.283,0.215 0.668,0.322 1.157,0.322c0.497,0 0.872,-0.101 1.125,-0.304c0.252,-0.204 0.404,-0.453 0.455,-0.749c0.052,-0.296 0.077,-0.787 0.077,-1.474l0,-4.799l1.752,0l0,4.557c0,1.041 -0.047,1.777 -0.142,2.207c-0.095,0.43 -0.269,0.793 -0.524,1.089c-0.254,0.296 -0.594,0.532 -1.02,0.707c-0.427,0.176 -0.983,0.264 -1.669,0.264c-0.829,0 -1.457,-0.096 -1.885,-0.287c-0.428,-0.192 -0.767,-0.44 -1.015,-0.746c-0.249,-0.306 -0.412,-0.626 -0.491,-0.962c-0.115,-0.497 -0.172,-1.231 -0.172,-2.201l0,-4.628Z" style="fill:#fff;fill-rule:nonzero;"/><rect x="72.858" y="69.926" width="1.752" height="8.676" style="fill:#fff;fill-rule:nonzero;"/><path d="M29.539,92.827l0,-8.676l6.273,0l0,1.024l-5.125,0l0,2.657l4.799,0l0,1.018l-4.799,0l0,2.953l5.326,0l0,1.024l-6.474,0Z" style="fill:#bfbfbf;fill-rule:nonzero;"/><path d="M37.463,92.827l0,-6.285l0.959,0l0,0.894c0.461,-0.691 1.128,-1.036 2,-1.036c0.379,0 0.727,0.068 1.044,0.204c0.318,0.136 0.556,0.315 0.714,0.536c0.157,0.221 0.268,0.483 0.331,0.787c0.039,0.197 0.059,0.542 0.059,1.036l0,3.864l-1.065,0l0,-3.823c0,-0.434 -0.042,-0.758 -0.124,-0.973c-0.083,-0.215 -0.23,-0.387 -0.441,-0.515c-0.211,-0.129 -0.459,-0.193 -0.743,-0.193c-0.454,0 -0.845,0.144 -1.175,0.432c-0.329,0.288 -0.494,0.835 -0.494,1.64l0,3.432l-1.065,0Z" style="fill:#bfbfbf;fill-rule:nonzero;"/><path d="M48.281,92.827l0,-0.793c-0.399,0.623 -0.984,0.935 -1.758,0.935c-0.501,0 -0.961,-0.138 -1.382,-0.414c-0.42,-0.276 -0.745,-0.662 -0.976,-1.157c-0.231,-0.495 -0.346,-1.064 -0.346,-1.707c0,-0.628 0.104,-1.197 0.313,-1.708c0.21,-0.511 0.523,-0.902 0.941,-1.174c0.419,-0.273 0.886,-0.409 1.403,-0.409c0.379,0 0.716,0.08 1.012,0.24c0.296,0.16 0.537,0.368 0.722,0.624l0,-3.113l1.059,0l0,8.676l-0.988,0Zm-3.367,-3.136c0,0.804 0.169,1.406 0.509,1.805c0.339,0.398 0.739,0.597 1.201,0.597c0.465,0 0.861,-0.19 1.186,-0.571c0.326,-0.381 0.489,-0.962 0.489,-1.743c0,-0.86 -0.166,-1.491 -0.497,-1.893c-0.332,-0.403 -0.74,-0.604 -1.225,-0.604c-0.474,0 -0.869,0.193 -1.187,0.58c-0.318,0.387 -0.476,0.996 -0.476,1.829Z" style="fill:#bfbfbf;fill-rule:nonzero;"/><path d="M50.944,95.236l0,-8.694l0.971,0l0,0.817c0.228,-0.32 0.487,-0.559 0.775,-0.719c0.288,-0.16 0.637,-0.24 1.047,-0.24c0.537,0 1.01,0.138 1.421,0.414c0.41,0.277 0.72,0.666 0.929,1.169c0.209,0.503 0.313,1.055 0.313,1.654c0,0.643 -0.115,1.222 -0.346,1.737c-0.231,0.515 -0.566,0.91 -1.006,1.184c-0.44,0.274 -0.902,0.411 -1.388,0.411c-0.355,0 -0.673,-0.075 -0.955,-0.225c-0.282,-0.15 -0.514,-0.339 -0.696,-0.568l0,3.06l-1.065,0Zm0.965,-5.516c0,0.809 0.163,1.407 0.491,1.793c0.327,0.387 0.724,0.58 1.189,0.58c0.474,0 0.879,-0.2 1.217,-0.6c0.337,-0.401 0.506,-1.021 0.506,-1.862c0,-0.801 -0.165,-1.4 -0.495,-1.799c-0.329,-0.398 -0.723,-0.597 -1.18,-0.597c-0.454,0 -0.855,0.212 -1.205,0.636c-0.349,0.424 -0.523,1.04 -0.523,1.849Z" style="fill:#bfbfbf;fill-rule:nonzero;"/><path d="M57.288,89.685c0,-1.164 0.324,-2.026 0.971,-2.587c0.54,-0.465 1.199,-0.698 1.976,-0.698c0.864,0 1.57,0.283 2.119,0.849c0.548,0.567 0.822,1.349 0.822,2.347c0,0.809 -0.121,1.445 -0.363,1.908c-0.243,0.464 -0.596,0.824 -1.06,1.08c-0.463,0.257 -0.969,0.385 -1.518,0.385c-0.88,0 -1.591,-0.282 -2.133,-0.846c-0.543,-0.564 -0.814,-1.377 -0.814,-2.438Zm1.095,0c0,0.804 0.175,1.407 0.527,1.808c0.351,0.4 0.793,0.6 1.325,0.6c0.529,0 0.969,-0.201 1.32,-0.603c0.351,-0.403 0.527,-1.016 0.527,-1.841c0,-0.777 -0.177,-1.366 -0.53,-1.766c-0.353,-0.401 -0.792,-0.601 -1.317,-0.601c-0.532,0 -0.974,0.199 -1.325,0.598c-0.352,0.398 -0.527,1 -0.527,1.805Z" style="fill:#bfbfbf;fill-rule:nonzero;"/><path d="M64.431,85.376l0,-1.225l1.065,0l0,1.225l-1.065,0Zm0,7.451l0,-6.285l1.065,0l0,6.285l-1.065,0Z" style="fill:#bfbfbf;fill-rule:nonzero;"/><path d="M67.118,92.827l0,-6.285l0.959,0l0,0.894c0.461,-0.691 1.128,-1.036 2,-1.036c0.379,0 0.727,0.068 1.044,0.204c0.318,0.136 0.556,0.315 0.713,0.536c0.158,0.221 0.269,0.483 0.332,0.787c0.039,0.197 0.059,0.542 0.059,1.036l0,3.864l-1.065,0l0,-3.823c0,-0.434 -0.042,-0.758 -0.124,-0.973c-0.083,-0.215 -0.23,-0.387 -0.441,-0.515c-0.211,-0.129 -0.459,-0.193 -0.743,-0.193c-0.454,0 -0.845,0.144 -1.175,0.432c-0.329,0.288 -0.494,0.835 -0.494,1.64l0,3.432l-1.065,0Z" style="fill:#bfbfbf;fill-rule:nonzero;"/><path d="M76.184,91.874l0.154,0.941c-0.3,0.063 -0.568,0.095 -0.805,0.095c-0.386,0 -0.686,-0.061 -0.899,-0.184c-0.213,-0.122 -0.363,-0.283 -0.45,-0.482c-0.087,-0.199 -0.13,-0.618 -0.13,-1.257l0,-3.616l-0.781,0l0,-0.829l0.781,0l0,-1.556l1.059,-0.639l0,2.195l1.071,0l0,0.829l-1.071,0l0,3.675c0,0.304 0.019,0.499 0.056,0.586c0.038,0.086 0.099,0.155 0.184,0.207c0.085,0.051 0.206,0.077 0.364,0.077c0.118,0 0.274,-0.014 0.467,-0.042Z" style="fill:#bfbfbf;fill-rule:nonzero;"/></g><g><g><g><path d="M44.859,219.634l1.698,0.538c-0.26,0.947 -0.693,1.651 -1.299,2.11c-0.605,0.46 -1.374,0.69 -2.305,0.69c-1.152,0 -2.099,-0.394 -2.84,-1.181c-0.742,-0.787 -1.113,-1.863 -1.113,-3.228c0,-1.444 0.373,-2.566 1.118,-3.365c0.746,-0.799 1.727,-1.198 2.942,-1.198c1.061,0 1.923,0.314 2.586,0.941c0.394,0.371 0.69,0.903 0.888,1.598l-1.734,0.414c-0.103,-0.45 -0.317,-0.805 -0.642,-1.065c-0.326,-0.261 -0.721,-0.391 -1.187,-0.391c-0.643,0 -1.165,0.231 -1.565,0.693c-0.401,0.461 -0.601,1.209 -0.601,2.243c0,1.096 0.197,1.878 0.592,2.343c0.394,0.466 0.907,0.698 1.538,0.698c0.466,0 0.866,-0.148 1.202,-0.443c0.335,-0.296 0.576,-0.762 0.722,-1.397Z" style="fill:#8c8c8c;fill-rule:nonzero;"/><path d="M47.664,219.592c0,-0.552 0.136,-1.086 0.408,-1.603c0.272,-0.517 0.658,-0.912 1.157,-1.184c0.499,-0.272 1.057,-0.408 1.672,-0.408c0.951,0 1.73,0.308 2.338,0.926c0.607,0.617 0.911,1.398 0.911,2.34c0,0.951 -0.307,1.739 -0.92,2.365c-0.614,0.625 -1.386,0.938 -2.317,0.938c-0.576,0 -1.126,-0.13 -1.648,-0.391c-0.523,-0.26 -0.921,-0.642 -1.193,-1.145c-0.272,-0.503 -0.408,-1.116 -0.408,-1.838Zm1.704,0.089c0,0.624 0.148,1.101 0.444,1.432c0.296,0.332 0.661,0.498 1.095,0.498c0.434,0 0.798,-0.166 1.092,-0.498c0.294,-0.331 0.441,-0.812 0.441,-1.444c0,-0.615 -0.147,-1.088 -0.441,-1.42c-0.294,-0.331 -0.658,-0.497 -1.092,-0.497c-0.434,0 -0.799,0.166 -1.095,0.497c-0.296,0.332 -0.444,0.809 -0.444,1.432Z" style="fill:#8c8c8c;fill-rule:nonzero;"/><path d="M55.328,216.539l1.532,0l0,0.858c0.549,-0.667 1.202,-1 1.959,-1c0.403,0 0.752,0.083 1.048,0.248c0.296,0.166 0.538,0.417 0.728,0.752c0.276,-0.335 0.574,-0.586 0.893,-0.752c0.32,-0.165 0.661,-0.248 1.024,-0.248c0.462,0 0.852,0.093 1.172,0.281c0.319,0.187 0.558,0.462 0.716,0.825c0.114,0.269 0.172,0.703 0.172,1.302l0,4.019l-1.663,0l0,-3.593c0,-0.623 -0.058,-1.025 -0.172,-1.207c-0.154,-0.237 -0.391,-0.355 -0.71,-0.355c-0.233,0 -0.452,0.071 -0.657,0.213c-0.205,0.142 -0.353,0.35 -0.444,0.625c-0.091,0.274 -0.136,0.707 -0.136,1.299l0,3.018l-1.663,0l0,-3.445c0,-0.611 -0.03,-1.006 -0.089,-1.183c-0.059,-0.178 -0.151,-0.31 -0.275,-0.397c-0.124,-0.086 -0.293,-0.13 -0.506,-0.13c-0.256,0 -0.487,0.069 -0.692,0.207c-0.205,0.138 -0.352,0.338 -0.441,0.598c-0.089,0.26 -0.133,0.692 -0.133,1.296l0,3.054l-1.663,0l0,-6.285Z" style="fill:#8c8c8c;fill-rule:nonzero;"/><path d="M66.104,216.539l1.533,0l0,0.858c0.548,-0.667 1.201,-1 1.959,-1c0.402,0 0.751,0.083 1.047,0.248c0.296,0.166 0.539,0.417 0.728,0.752c0.276,-0.335 0.574,-0.586 0.894,-0.752c0.319,-0.165 0.661,-0.248 1.024,-0.248c0.461,0 0.852,0.093 1.171,0.281c0.32,0.187 0.559,0.462 0.717,0.825c0.114,0.269 0.171,0.703 0.171,1.302l0,4.019l-1.663,0l0,-3.593c0,-0.623 -0.057,-1.025 -0.171,-1.207c-0.154,-0.237 -0.391,-0.355 -0.711,-0.355c-0.232,0 -0.451,0.071 -0.656,0.213c-0.206,0.142 -0.354,0.35 -0.444,0.625c-0.091,0.274 -0.136,0.707 -0.136,1.299l0,3.018l-1.663,0l0,-3.445c0,-0.611 -0.03,-1.006 -0.089,-1.183c-0.059,-0.178 -0.151,-0.31 -0.275,-0.397c-0.125,-0.086 -0.293,-0.13 -0.506,-0.13c-0.257,0 -0.488,0.069 -0.693,0.207c-0.205,0.138 -0.352,0.338 -0.441,0.598c-0.088,0.26 -0.133,0.692 -0.133,1.296l0,3.054l-1.663,0l0,-6.285Z" style="fill:#8c8c8c;fill-rule:nonzero;"/><path d="M78.248,218.456l-1.509,-0.272c0.17,-0.608 0.461,-1.057 0.876,-1.349c0.414,-0.292 1.029,-0.438 1.846,-0.438c0.742,0 1.294,0.088 1.657,0.263c0.363,0.176 0.619,0.399 0.767,0.669c0.148,0.27 0.221,0.766 0.221,1.488l-0.017,1.941c0,0.553 0.026,0.96 0.08,1.222c0.053,0.263 0.153,0.544 0.298,0.844l-1.645,0c-0.043,-0.111 -0.096,-0.275 -0.16,-0.492c-0.027,-0.098 -0.047,-0.163 -0.059,-0.195c-0.284,0.276 -0.588,0.484 -0.911,0.622c-0.324,0.138 -0.669,0.207 -1.036,0.207c-0.647,0 -1.157,-0.176 -1.529,-0.527c-0.373,-0.351 -0.56,-0.795 -0.56,-1.332c0,-0.355 0.085,-0.671 0.255,-0.949c0.169,-0.278 0.407,-0.492 0.713,-0.639c0.306,-0.148 0.747,-0.278 1.323,-0.388c0.777,-0.146 1.315,-0.282 1.615,-0.408l0,-0.166c0,-0.32 -0.079,-0.548 -0.237,-0.684c-0.157,-0.136 -0.455,-0.204 -0.893,-0.204c-0.296,0 -0.527,0.058 -0.693,0.175c-0.165,0.116 -0.299,0.32 -0.402,0.612Zm2.225,1.35c-0.213,0.071 -0.55,0.155 -1.012,0.254c-0.461,0.099 -0.763,0.195 -0.905,0.29c-0.217,0.154 -0.326,0.349 -0.326,0.586c0,0.233 0.087,0.434 0.261,0.603c0.173,0.17 0.394,0.255 0.662,0.255c0.3,0 0.586,-0.099 0.859,-0.296c0.201,-0.15 0.333,-0.333 0.396,-0.55c0.043,-0.142 0.065,-0.413 0.065,-0.811l0,-0.331Z" style="fill:#8c8c8c;fill-rule:nonzero;"/><path d="M89.463,222.824l-1.663,0l0,-3.208c0,-0.678 -0.036,-1.117 -0.107,-1.317c-0.071,-0.199 -0.186,-0.354 -0.346,-0.464c-0.16,-0.111 -0.352,-0.166 -0.577,-0.166c-0.288,0 -0.547,0.079 -0.775,0.237c-0.229,0.158 -0.386,0.367 -0.471,0.627c-0.085,0.261 -0.127,0.742 -0.127,1.444l0,2.847l-1.663,0l0,-6.285l1.545,0l0,0.923c0.548,-0.71 1.238,-1.065 2.071,-1.065c0.367,0 0.702,0.066 1.006,0.198c0.304,0.132 0.533,0.301 0.689,0.506c0.156,0.205 0.265,0.438 0.326,0.698c0.061,0.261 0.092,0.634 0.092,1.119l0,3.906Z" style="fill:#8c8c8c;fill-rule:nonzero;"/><path d="M96.913,222.824l-1.544,0l0,-0.924c-0.257,0.36 -0.56,0.627 -0.909,0.802c-0.349,0.176 -0.701,0.264 -1.056,0.264c-0.722,0 -1.341,-0.291 -1.855,-0.873c-0.515,-0.582 -0.773,-1.394 -0.773,-2.435c0,-1.066 0.251,-1.875 0.752,-2.43c0.501,-0.554 1.134,-0.831 1.9,-0.831c0.702,0 1.309,0.292 1.822,0.876l0,-3.125l1.663,0l0,8.676Zm-4.438,-3.279c0,0.671 0.092,1.156 0.278,1.456c0.268,0.434 0.643,0.651 1.124,0.651c0.383,0 0.709,-0.163 0.977,-0.488c0.268,-0.326 0.402,-0.812 0.402,-1.459c0,-0.722 -0.13,-1.242 -0.39,-1.559c-0.261,-0.318 -0.594,-0.477 -1.001,-0.477c-0.394,0 -0.724,0.157 -0.991,0.471c-0.266,0.313 -0.399,0.782 -0.399,1.405Z" style="fill:#8c8c8c;fill-rule:nonzero;"/><path d="M101.796,216.539l1.532,0l0,0.858c0.549,-0.667 1.202,-1 1.959,-1c0.403,0 0.752,0.083 1.048,0.248c0.296,0.166 0.538,0.417 0.728,0.752c0.276,-0.335 0.574,-0.586 0.893,-0.752c0.32,-0.165 0.661,-0.248 1.024,-0.248c0.462,0 0.852,0.093 1.172,0.281c0.319,0.187 0.558,0.462 0.716,0.825c0.114,0.269 0.171,0.703 0.171,1.302l0,4.019l-1.663,0l0,-3.593c0,-0.623 -0.057,-1.025 -0.171,-1.207c-0.154,-0.237 -0.391,-0.355 -0.71,-0.355c-0.233,0 -0.452,0.071 -0.657,0.213c-0.205,0.142 -0.353,0.35 -0.444,0.625c-0.091,0.274 -0.136,0.707 -0.136,1.299l0,3.018l-1.663,0l0,-3.445c0,-0.611 -0.03,-1.006 -0.089,-1.183c-0.059,-0.178 -0.151,-0.31 -0.275,-0.397c-0.124,-0.086 -0.293,-0.13 -0.506,-0.13c-0.256,0 -0.487,0.069 -0.692,0.207c-0.206,0.138 -0.353,0.338 -0.441,0.598c-0.089,0.26 -0.133,0.692 -0.133,1.296l0,3.054l-1.663,0l0,-6.285Z" style="fill:#8c8c8c;fill-rule:nonzero;"/><path d="M116.336,220.823l1.657,0.279c-0.213,0.607 -0.549,1.07 -1.009,1.387c-0.46,0.318 -1.035,0.477 -1.725,0.477c-1.093,0 -1.902,-0.357 -2.426,-1.071c-0.415,-0.573 -0.622,-1.294 -0.622,-2.166c0,-1.042 0.272,-1.858 0.817,-2.447c0.544,-0.59 1.233,-0.885 2.065,-0.885c0.935,0 1.673,0.308 2.214,0.926c0.54,0.617 0.798,1.563 0.775,2.838l-4.166,0c0.011,0.493 0.146,0.876 0.402,1.151c0.256,0.274 0.576,0.411 0.959,0.411c0.26,0 0.479,-0.071 0.657,-0.213c0.177,-0.142 0.311,-0.371 0.402,-0.687Zm0.095,-1.68c-0.012,-0.482 -0.136,-0.848 -0.373,-1.098c-0.237,-0.251 -0.525,-0.376 -0.864,-0.376c-0.363,0 -0.663,0.132 -0.9,0.397c-0.236,0.264 -0.353,0.623 -0.349,1.077l2.486,0Z" style="fill:#8c8c8c;fill-rule:nonzero;"/><path d="M118.851,221.031l1.669,-0.255c0.071,0.324 0.215,0.569 0.432,0.737c0.217,0.168 0.521,0.251 0.911,0.251c0.43,0 0.754,-0.079 0.971,-0.236c0.146,-0.111 0.219,-0.259 0.219,-0.444c0,-0.126 -0.04,-0.231 -0.118,-0.314c-0.083,-0.079 -0.269,-0.152 -0.557,-0.219c-1.341,-0.296 -2.191,-0.566 -2.55,-0.811c-0.497,-0.339 -0.746,-0.81 -0.746,-1.414c0,-0.544 0.215,-1.002 0.645,-1.373c0.43,-0.371 1.097,-0.556 2,-0.556c0.86,0 1.5,0.14 1.918,0.42c0.418,0.28 0.706,0.694 0.864,1.243l-1.569,0.29c-0.067,-0.245 -0.194,-0.432 -0.381,-0.563c-0.188,-0.13 -0.455,-0.195 -0.802,-0.195c-0.438,0 -0.752,0.061 -0.941,0.184c-0.126,0.086 -0.189,0.199 -0.189,0.337c0,0.118 0.055,0.219 0.165,0.302c0.15,0.11 0.668,0.266 1.554,0.467c0.885,0.202 1.504,0.448 1.855,0.74c0.347,0.296 0.521,0.708 0.521,1.237c0,0.576 -0.241,1.071 -0.722,1.485c-0.482,0.415 -1.194,0.622 -2.137,0.622c-0.856,0 -1.533,-0.174 -2.032,-0.521c-0.5,-0.347 -0.826,-0.819 -0.98,-1.414Z" style="fill:#8c8c8c;fill-rule:nonzero;"/><path d="M125.592,221.031l1.669,-0.255c0.071,0.324 0.215,0.569 0.432,0.737c0.217,0.168 0.52,0.251 0.911,0.251c0.43,0 0.754,-0.079 0.971,-0.236c0.145,-0.111 0.218,-0.259 0.218,-0.444c0,-0.126 -0.039,-0.231 -0.118,-0.314c-0.083,-0.079 -0.268,-0.152 -0.556,-0.219c-1.342,-0.296 -2.192,-0.566 -2.551,-0.811c-0.497,-0.339 -0.745,-0.81 -0.745,-1.414c0,-0.544 0.215,-1.002 0.645,-1.373c0.43,-0.371 1.096,-0.556 2,-0.556c0.86,0 1.499,0.14 1.917,0.42c0.418,0.28 0.706,0.694 0.864,1.243l-1.568,0.29c-0.067,-0.245 -0.194,-0.432 -0.382,-0.563c-0.187,-0.13 -0.454,-0.195 -0.802,-0.195c-0.437,0 -0.751,0.061 -0.941,0.184c-0.126,0.086 -0.189,0.199 -0.189,0.337c0,0.118 0.055,0.219 0.166,0.302c0.15,0.11 0.668,0.266 1.553,0.467c0.886,0.202 1.504,0.448 1.856,0.74c0.347,0.296 0.52,0.708 0.52,1.237c0,0.576 -0.24,1.071 -0.722,1.485c-0.481,0.415 -1.193,0.622 -2.136,0.622c-0.856,0 -1.534,-0.174 -2.033,-0.521c-0.499,-0.347 -0.825,-0.819 -0.979,-1.414Z" style="fill:#8c8c8c;fill-rule:nonzero;"/><path d="M134.161,218.456l-1.509,-0.272c0.17,-0.608 0.461,-1.057 0.876,-1.349c0.414,-0.292 1.029,-0.438 1.846,-0.438c0.742,0 1.294,0.088 1.657,0.263c0.363,0.176 0.619,0.399 0.767,0.669c0.147,0.27 0.221,0.766 0.221,1.488l-0.017,1.941c0,0.553 0.026,0.96 0.08,1.222c0.053,0.263 0.152,0.544 0.298,0.844l-1.645,0c-0.043,-0.111 -0.096,-0.275 -0.16,-0.492c-0.027,-0.098 -0.047,-0.163 -0.059,-0.195c-0.284,0.276 -0.588,0.484 -0.911,0.622c-0.324,0.138 -0.669,0.207 -1.036,0.207c-0.647,0 -1.157,-0.176 -1.53,-0.527c-0.372,-0.351 -0.559,-0.795 -0.559,-1.332c0,-0.355 0.085,-0.671 0.255,-0.949c0.169,-0.278 0.407,-0.492 0.713,-0.639c0.306,-0.148 0.746,-0.278 1.322,-0.388c0.778,-0.146 1.316,-0.282 1.616,-0.408l0,-0.166c0,-0.32 -0.079,-0.548 -0.237,-0.684c-0.157,-0.136 -0.455,-0.204 -0.893,-0.204c-0.296,0 -0.527,0.058 -0.693,0.175c-0.165,0.116 -0.299,0.32 -0.402,0.612Zm2.225,1.35c-0.213,0.071 -0.55,0.155 -1.012,0.254c-0.461,0.099 -0.763,0.195 -0.905,0.29c-0.217,0.154 -0.326,0.349 -0.326,0.586c0,0.233 0.087,0.434 0.261,0.603c0.173,0.17 0.394,0.255 0.662,0.255c0.3,0 0.586,-0.099 0.858,-0.296c0.202,-0.15 0.334,-0.333 0.397,-0.55c0.043,-0.142 0.065,-0.413 0.065,-0.811l0,-0.331Z" style="fill:#8c8c8c;fill-rule:nonzero;"/><path d="M139.505,223.238l1.9,0.231c0.031,0.221 0.104,0.373 0.218,0.455c0.158,0.119 0.407,0.178 0.746,0.178c0.434,0 0.76,-0.065 0.977,-0.195c0.146,-0.087 0.256,-0.227 0.331,-0.42c0.051,-0.139 0.077,-0.393 0.077,-0.764l0,-0.917c-0.497,0.678 -1.124,1.018 -1.882,1.018c-0.844,0 -1.513,-0.357 -2.006,-1.071c-0.387,-0.565 -0.58,-1.267 -0.58,-2.107c0,-1.054 0.253,-1.859 0.76,-2.415c0.507,-0.556 1.138,-0.834 1.891,-0.834c0.777,0 1.418,0.341 1.923,1.024l0,-0.882l1.557,0l0,5.64c0,0.741 -0.061,1.296 -0.184,1.663c-0.122,0.366 -0.293,0.655 -0.514,0.864c-0.221,0.209 -0.516,0.372 -0.885,0.491c-0.369,0.118 -0.836,0.177 -1.4,0.177c-1.065,0 -1.821,-0.182 -2.266,-0.547c-0.446,-0.365 -0.669,-0.828 -0.669,-1.388c0,-0.055 0.002,-0.122 0.006,-0.201Zm1.485,-3.687c0,0.667 0.129,1.155 0.388,1.465c0.258,0.309 0.577,0.464 0.956,0.464c0.406,0 0.749,-0.158 1.029,-0.476c0.28,-0.318 0.421,-0.788 0.421,-1.412c0,-0.65 -0.135,-1.134 -0.403,-1.449c-0.268,-0.316 -0.607,-0.474 -1.018,-0.474c-0.398,0 -0.727,0.155 -0.985,0.465c-0.259,0.309 -0.388,0.782 -0.388,1.417Z" style="fill:#8c8c8c;fill-rule:nonzero;"/><path d="M150.702,220.823l1.657,0.279c-0.213,0.607 -0.55,1.07 -1.009,1.387c-0.46,0.318 -1.035,0.477 -1.725,0.477c-1.093,0 -1.902,-0.357 -2.427,-1.071c-0.414,-0.573 -0.621,-1.294 -0.621,-2.166c0,-1.042 0.272,-1.858 0.817,-2.447c0.544,-0.59 1.232,-0.885 2.065,-0.885c0.935,0 1.673,0.308 2.213,0.926c0.541,0.617 0.799,1.563 0.775,2.838l-4.166,0c0.012,0.493 0.146,0.876 0.403,1.151c0.256,0.274 0.576,0.411 0.958,0.411c0.261,0 0.48,-0.071 0.657,-0.213c0.178,-0.142 0.312,-0.371 0.403,-0.687Zm0.094,-1.68c-0.011,-0.482 -0.136,-0.848 -0.372,-1.098c-0.237,-0.251 -0.525,-0.376 -0.865,-0.376c-0.362,0 -0.662,0.132 -0.899,0.397c-0.237,0.264 -0.353,0.623 -0.349,1.077l2.485,0Z" style="fill:#8c8c8c;fill-rule:nonzero;"/><path d="M24.339,218.486c0,1.999 -1.643,3.688 -3.67,3.688c-2.026,0 -3.669,-1.689 -3.669,-3.688c0,-2 1.643,-3.689 3.669,-3.689c2.027,0 3.67,1.689 3.67,3.689" style="fill:#8c8c8c;fill-rule:nonzero;"/><path d="M25.937,217.24l5.439,0l0,-2.426l3.672,3.672l-3.672,3.672l0,-2.426l-5.44,0c0.096,-0.402 0.147,-0.819 0.147,-1.246c0,-0.427 -0.051,-0.844 -0.146,-1.246Z" style="fill:#8c8c8c;"/><path d="M39.308,252.173l0,-8.675l6.433,0l0,1.467l-4.682,0l0,1.924l4.356,0l0,1.461l-4.356,0l0,2.362l4.847,0l0,1.461l-6.598,0Z" style="fill:#8c8c8c;fill-rule:nonzero;"/><path d="M49.108,252.173l-2.533,-6.285l1.746,0l1.183,3.208l0.344,1.071c0.09,-0.272 0.148,-0.452 0.171,-0.538c0.055,-0.178 0.115,-0.355 0.178,-0.533l1.195,-3.208l1.711,0l-2.498,6.285l-1.497,0Z" style="fill:#8c8c8c;fill-rule:nonzero;"/><path d="M57.76,250.173l1.657,0.278c-0.213,0.608 -0.549,1.07 -1.009,1.388c-0.46,0.318 -1.035,0.476 -1.725,0.476c-1.093,0 -1.902,-0.357 -2.426,-1.071c-0.415,-0.572 -0.622,-1.294 -0.622,-2.166c0,-1.041 0.272,-1.857 0.817,-2.447c0.544,-0.59 1.233,-0.885 2.065,-0.885c0.935,0 1.673,0.309 2.214,0.927c0.54,0.617 0.798,1.563 0.775,2.837l-4.166,0c0.011,0.493 0.145,0.877 0.402,1.151c0.256,0.274 0.576,0.412 0.959,0.412c0.26,0 0.479,-0.071 0.657,-0.213c0.177,-0.143 0.311,-0.371 0.402,-0.687Zm0.095,-1.681c-0.012,-0.481 -0.136,-0.847 -0.373,-1.097c-0.237,-0.251 -0.525,-0.376 -0.864,-0.376c-0.363,0 -0.663,0.132 -0.9,0.396c-0.236,0.265 -0.353,0.624 -0.349,1.077l2.486,0Z" style="fill:#8c8c8c;fill-rule:nonzero;"/><path d="M66.578,252.173l-1.663,0l0,-3.207c0,-0.679 -0.036,-1.118 -0.107,-1.317c-0.071,-0.199 -0.186,-0.354 -0.346,-0.465c-0.16,-0.11 -0.352,-0.165 -0.577,-0.165c-0.288,0 -0.546,0.079 -0.775,0.236c-0.229,0.158 -0.386,0.367 -0.471,0.628c-0.084,0.26 -0.127,0.742 -0.127,1.444l0,2.846l-1.663,0l0,-6.285l1.545,0l0,0.924c0.548,-0.711 1.239,-1.066 2.071,-1.066c0.367,0 0.702,0.066 1.006,0.199c0.304,0.132 0.534,0.3 0.69,0.506c0.155,0.205 0.264,0.438 0.325,0.698c0.061,0.26 0.092,0.633 0.092,1.118l0,3.906Z" style="fill:#8c8c8c;fill-rule:nonzero;"/><path d="M71.146,245.888l0,1.326l-1.136,0l0,2.533c0,0.513 0.011,0.812 0.033,0.897c0.021,0.084 0.071,0.154 0.148,0.21c0.077,0.055 0.17,0.082 0.281,0.082c0.154,0 0.377,-0.053 0.668,-0.159l0.143,1.29c-0.387,0.165 -0.825,0.248 -1.314,0.248c-0.3,0 -0.57,-0.05 -0.811,-0.151c-0.241,-0.1 -0.417,-0.23 -0.53,-0.39c-0.112,-0.16 -0.19,-0.376 -0.233,-0.648c-0.036,-0.193 -0.054,-0.584 -0.054,-1.172l0,-2.74l-0.763,0l0,-1.326l0.763,0l0,-1.248l1.669,-0.971l0,2.219l1.136,0Z" style="fill:#8c8c8c;fill-rule:nonzero;"/><path d="M75.543,245.888l1.533,0l0,0.859c0.549,-0.667 1.202,-1.001 1.959,-1.001c0.402,0 0.752,0.083 1.048,0.249c0.295,0.166 0.538,0.416 0.727,0.752c0.277,-0.336 0.574,-0.586 0.894,-0.752c0.32,-0.166 0.661,-0.249 1.024,-0.249c0.461,0 0.852,0.094 1.172,0.281c0.319,0.188 0.558,0.463 0.716,0.826c0.114,0.268 0.171,0.702 0.171,1.302l0,4.018l-1.663,0l0,-3.592c0,-0.623 -0.057,-1.026 -0.171,-1.207c-0.154,-0.237 -0.391,-0.355 -0.71,-0.355c-0.233,0 -0.452,0.071 -0.657,0.213c-0.205,0.142 -0.353,0.35 -0.444,0.624c-0.091,0.274 -0.136,0.707 -0.136,1.299l0,3.018l-1.663,0l0,-3.444c0,-0.611 -0.03,-1.006 -0.089,-1.184c-0.059,-0.177 -0.151,-0.309 -0.275,-0.396c-0.124,-0.087 -0.293,-0.13 -0.506,-0.13c-0.257,0 -0.487,0.069 -0.693,0.207c-0.205,0.138 -0.352,0.337 -0.44,0.598c-0.089,0.26 -0.134,0.692 -0.134,1.296l0,3.053l-1.663,0l0,-6.285Z" style="fill:#8c8c8c;fill-rule:nonzero;"/><path d="M90.084,250.173l1.657,0.278c-0.213,0.608 -0.549,1.07 -1.009,1.388c-0.46,0.318 -1.035,0.476 -1.725,0.476c-1.093,0 -1.902,-0.357 -2.427,-1.071c-0.414,-0.572 -0.621,-1.294 -0.621,-2.166c0,-1.041 0.272,-1.857 0.817,-2.447c0.544,-0.59 1.233,-0.885 2.065,-0.885c0.935,0 1.673,0.309 2.213,0.927c0.541,0.617 0.799,1.563 0.776,2.837l-4.167,0c0.012,0.493 0.146,0.877 0.403,1.151c0.256,0.274 0.576,0.412 0.959,0.412c0.26,0 0.479,-0.071 0.656,-0.213c0.178,-0.143 0.312,-0.371 0.403,-0.687Zm0.095,-1.681c-0.012,-0.481 -0.137,-0.847 -0.373,-1.097c-0.237,-0.251 -0.525,-0.376 -0.864,-0.376c-0.363,0 -0.663,0.132 -0.9,0.396c-0.237,0.265 -0.353,0.624 -0.349,1.077l2.486,0Z" style="fill:#8c8c8c;fill-rule:nonzero;"/><path d="M92.599,250.38l1.669,-0.254c0.071,0.323 0.215,0.569 0.432,0.736c0.217,0.168 0.521,0.252 0.911,0.252c0.43,0 0.754,-0.079 0.971,-0.237c0.146,-0.11 0.219,-0.258 0.219,-0.444c0,-0.126 -0.04,-0.23 -0.119,-0.313c-0.082,-0.079 -0.268,-0.152 -0.556,-0.219c-1.341,-0.296 -2.191,-0.566 -2.55,-0.811c-0.498,-0.339 -0.746,-0.811 -0.746,-1.414c0,-0.545 0.215,-1.002 0.645,-1.373c0.43,-0.371 1.097,-0.557 2,-0.557c0.86,0 1.499,0.14 1.918,0.421c0.418,0.28 0.706,0.694 0.864,1.242l-1.569,0.29c-0.067,-0.244 -0.194,-0.432 -0.381,-0.562c-0.188,-0.13 -0.455,-0.195 -0.802,-0.195c-0.438,0 -0.752,0.061 -0.941,0.183c-0.126,0.087 -0.19,0.2 -0.19,0.338c0,0.118 0.056,0.219 0.166,0.301c0.15,0.111 0.668,0.267 1.554,0.468c0.885,0.201 1.504,0.448 1.855,0.74c0.347,0.296 0.521,0.708 0.521,1.237c0,0.576 -0.241,1.071 -0.722,1.485c-0.482,0.414 -1.194,0.621 -2.137,0.621c-0.856,0 -1.533,-0.173 -2.033,-0.52c-0.499,-0.348 -0.825,-0.819 -0.979,-1.415Z" style="fill:#8c8c8c;fill-rule:nonzero;"/><path d="M99.34,250.38l1.668,-0.254c0.071,0.323 0.215,0.569 0.432,0.736c0.217,0.168 0.521,0.252 0.912,0.252c0.43,0 0.753,-0.079 0.97,-0.237c0.146,-0.11 0.219,-0.258 0.219,-0.444c0,-0.126 -0.039,-0.23 -0.118,-0.313c-0.083,-0.079 -0.268,-0.152 -0.556,-0.219c-1.342,-0.296 -2.192,-0.566 -2.551,-0.811c-0.497,-0.339 -0.746,-0.811 -0.746,-1.414c0,-0.545 0.215,-1.002 0.645,-1.373c0.431,-0.371 1.097,-0.557 2.001,-0.557c0.86,0 1.499,0.14 1.917,0.421c0.418,0.28 0.706,0.694 0.864,1.242l-1.568,0.29c-0.067,-0.244 -0.194,-0.432 -0.382,-0.562c-0.187,-0.13 -0.454,-0.195 -0.802,-0.195c-0.438,0 -0.751,0.061 -0.941,0.183c-0.126,0.087 -0.189,0.2 -0.189,0.338c0,0.118 0.055,0.219 0.166,0.301c0.15,0.111 0.667,0.267 1.553,0.468c0.886,0.201 1.504,0.448 1.855,0.74c0.348,0.296 0.521,0.708 0.521,1.237c0,0.576 -0.24,1.071 -0.722,1.485c-0.481,0.414 -1.193,0.621 -2.136,0.621c-0.856,0 -1.534,-0.173 -2.033,-0.52c-0.499,-0.348 -0.826,-0.819 -0.979,-1.415Z" style="fill:#8c8c8c;fill-rule:nonzero;"/><path d="M107.909,247.806l-1.509,-0.272c0.169,-0.608 0.461,-1.058 0.876,-1.35c0.414,-0.292 1.029,-0.438 1.846,-0.438c0.742,0 1.294,0.088 1.657,0.264c0.363,0.175 0.618,0.398 0.766,0.668c0.148,0.271 0.222,0.767 0.222,1.489l-0.017,1.941c0,0.552 0.026,0.96 0.079,1.222c0.054,0.262 0.153,0.543 0.299,0.843l-1.645,0c-0.043,-0.11 -0.097,-0.274 -0.16,-0.491c-0.027,-0.099 -0.047,-0.164 -0.059,-0.195c-0.284,0.276 -0.588,0.483 -0.911,0.621c-0.324,0.138 -0.669,0.207 -1.036,0.207c-0.647,0 -1.157,-0.175 -1.53,-0.526c-0.372,-0.351 -0.559,-0.795 -0.559,-1.332c0,-0.355 0.085,-0.672 0.255,-0.95c0.169,-0.278 0.407,-0.491 0.713,-0.639c0.305,-0.148 0.746,-0.277 1.322,-0.388c0.778,-0.145 1.316,-0.282 1.616,-0.408l0,-0.166c0,-0.319 -0.079,-0.547 -0.237,-0.683c-0.158,-0.136 -0.455,-0.204 -0.893,-0.204c-0.296,0 -0.527,0.058 -0.693,0.174c-0.165,0.117 -0.3,0.321 -0.402,0.613Zm2.225,1.349c-0.213,0.071 -0.55,0.156 -1.012,0.255c-0.462,0.098 -0.763,0.195 -0.905,0.29c-0.217,0.153 -0.326,0.349 -0.326,0.585c0,0.233 0.087,0.434 0.26,0.604c0.174,0.17 0.395,0.255 0.663,0.255c0.3,0 0.586,-0.099 0.858,-0.296c0.202,-0.15 0.334,-0.334 0.397,-0.551c0.043,-0.142 0.065,-0.412 0.065,-0.81l0,-0.332Z" style="fill:#8c8c8c;fill-rule:nonzero;"/><path d="M113.253,252.588l1.899,0.23c0.032,0.221 0.105,0.373 0.219,0.456c0.158,0.118 0.407,0.178 0.746,0.178c0.434,0 0.76,-0.066 0.977,-0.196c0.145,-0.086 0.256,-0.227 0.331,-0.42c0.051,-0.138 0.077,-0.392 0.077,-0.763l0,-0.918c-0.497,0.679 -1.125,1.018 -1.882,1.018c-0.844,0 -1.513,-0.357 -2.006,-1.071c-0.387,-0.564 -0.58,-1.266 -0.58,-2.107c0,-1.053 0.253,-1.858 0.76,-2.414c0.507,-0.556 1.137,-0.835 1.891,-0.835c0.777,0 1.418,0.342 1.923,1.024l0,-0.882l1.557,0l0,5.64c0,0.742 -0.061,1.296 -0.184,1.663c-0.122,0.367 -0.294,0.655 -0.515,0.864c-0.22,0.209 -0.515,0.373 -0.884,0.491c-0.369,0.119 -0.836,0.178 -1.4,0.178c-1.065,0 -1.821,-0.183 -2.266,-0.547c-0.446,-0.365 -0.669,-0.828 -0.669,-1.388c0,-0.055 0.002,-0.123 0.006,-0.201Zm1.485,-3.687c0,0.666 0.129,1.155 0.388,1.464c0.258,0.31 0.577,0.465 0.956,0.465c0.406,0 0.749,-0.159 1.029,-0.476c0.28,-0.318 0.42,-0.789 0.42,-1.412c0,-0.651 -0.134,-1.134 -0.402,-1.45c-0.268,-0.315 -0.608,-0.473 -1.018,-0.473c-0.398,0 -0.727,0.155 -0.985,0.464c-0.259,0.31 -0.388,0.782 -0.388,1.418Z" style="fill:#8c8c8c;fill-rule:nonzero;"/><path d="M124.45,250.173l1.657,0.278c-0.213,0.608 -0.55,1.07 -1.009,1.388c-0.46,0.318 -1.035,0.476 -1.726,0.476c-1.092,0 -1.901,-0.357 -2.426,-1.071c-0.414,-0.572 -0.621,-1.294 -0.621,-2.166c0,-1.041 0.272,-1.857 0.816,-2.447c0.545,-0.59 1.233,-0.885 2.066,-0.885c0.935,0 1.673,0.309 2.213,0.927c0.541,0.617 0.799,1.563 0.775,2.837l-4.166,0c0.012,0.493 0.146,0.877 0.403,1.151c0.256,0.274 0.576,0.412 0.958,0.412c0.261,0 0.48,-0.071 0.657,-0.213c0.178,-0.143 0.312,-0.371 0.403,-0.687Zm0.094,-1.681c-0.012,-0.481 -0.136,-0.847 -0.373,-1.097c-0.236,-0.251 -0.524,-0.376 -0.864,-0.376c-0.363,0 -0.662,0.132 -0.899,0.396c-0.237,0.265 -0.353,0.624 -0.349,1.077l2.485,0Z" style="fill:#8c8c8c;fill-rule:nonzero;"/><path d="M24.339,247.835c0,1.999 -1.643,3.688 -3.67,3.688c-2.026,0 -3.669,-1.689 -3.669,-3.688c0,-1.999 1.643,-3.688 3.669,-3.688c2.027,0 3.67,1.689 3.67,3.688" style="fill:#8c8c8c;fill-rule:nonzero;"/><path d="M25.937,246.59l5.439,0l0,-2.426l3.672,3.671l-3.672,3.672l0,-2.426l-5.44,0c0.096,-0.401 0.147,-0.819 0.147,-1.246c0,-0.427 -0.051,-0.844 -0.146,-1.245Z" style="fill:#8c8c8c;"/><path d="M23.551,243.241l-0.048,-0.048l3.472,-3.472l-1.721,-1.721l5.204,0l0,5.204l-1.721,-1.721l-3.472,3.472l-0.046,-0.046c-0.429,-0.668 -0.999,-1.24 -1.668,-1.668Z" style="fill:#8c8c8c;"/><path d="M25.218,250.763l0.047,-0.047l3.472,3.472l1.721,-1.721l0,5.204l-5.204,0l1.721,-1.721l-3.472,-3.472l0.05,-0.05c0.667,-0.428 1.236,-0.998 1.665,-1.665Z" style="fill:#8c8c8c;"/><rect x="2" y="200" width="164" height="68" style="fill:none;stroke:#ccc;stroke-width:1px;"/></g></g></g><g><g><g><path d="M453.953,21.539c0,-0.884 0.132,-1.625 0.396,-2.225c0.197,-0.442 0.467,-0.838 0.808,-1.19c0.341,-0.351 0.715,-0.611 1.121,-0.781c0.541,-0.229 1.164,-0.343 1.87,-0.343c1.279,0 2.302,0.397 3.069,1.19c0.767,0.793 1.151,1.895 1.151,3.308c0,1.4 -0.381,2.496 -1.142,3.287c-0.762,0.791 -1.779,1.187 -3.054,1.187c-1.29,0 -2.316,-0.394 -3.077,-1.181c-0.762,-0.787 -1.142,-1.871 -1.142,-3.252Zm1.805,-0.059c0,0.982 0.226,1.727 0.68,2.234c0.454,0.507 1.03,0.76 1.728,0.76c0.699,0 1.272,-0.251 1.719,-0.754c0.448,-0.503 0.672,-1.258 0.672,-2.264c0,-0.994 -0.218,-1.736 -0.654,-2.225c-0.436,-0.489 -1.015,-0.734 -1.737,-0.734c-0.722,0 -1.304,0.248 -1.746,0.743c-0.441,0.495 -0.662,1.242 -0.662,2.24Z" style="fill-rule:nonzero;"/><path d="M465.315,25.824l-1.663,0l0,-6.285l1.545,0l0,0.893c0.264,-0.422 0.502,-0.7 0.713,-0.834c0.211,-0.134 0.451,-0.201 0.719,-0.201c0.379,0 0.744,0.104 1.095,0.313l-0.515,1.45c-0.28,-0.181 -0.541,-0.272 -0.781,-0.272c-0.233,0 -0.43,0.064 -0.592,0.192c-0.162,0.129 -0.289,0.36 -0.382,0.696c-0.092,0.335 -0.139,1.037 -0.139,2.107l0,1.941Z" style="fill-rule:nonzero;"/><path d="M474.204,25.824l-1.545,0l0,-0.924c-0.256,0.36 -0.559,0.627 -0.908,0.802c-0.349,0.176 -0.701,0.264 -1.056,0.264c-0.722,0 -1.341,-0.291 -1.856,-0.873c-0.515,-0.582 -0.772,-1.394 -0.772,-2.435c0,-1.066 0.251,-1.875 0.752,-2.43c0.501,-0.554 1.134,-0.831 1.899,-0.831c0.703,0 1.31,0.292 1.823,0.876l0,-3.125l1.663,0l0,8.676Zm-4.439,-3.279c0,0.671 0.093,1.156 0.279,1.456c0.268,0.434 0.643,0.651 1.124,0.651c0.383,0 0.708,-0.163 0.976,-0.488c0.269,-0.326 0.403,-0.812 0.403,-1.459c0,-0.722 -0.13,-1.242 -0.391,-1.559c-0.26,-0.318 -0.593,-0.477 -1,-0.477c-0.394,0 -0.725,0.157 -0.991,0.471c-0.266,0.313 -0.4,0.782 -0.4,1.405Z" style="fill-rule:nonzero;"/><path d="M479.483,23.823l1.657,0.279c-0.213,0.607 -0.55,1.07 -1.009,1.387c-0.46,0.318 -1.035,0.477 -1.725,0.477c-1.093,0 -1.902,-0.357 -2.427,-1.071c-0.414,-0.573 -0.621,-1.294 -0.621,-2.166c0,-1.042 0.272,-1.858 0.817,-2.447c0.544,-0.59 1.233,-0.885 2.065,-0.885c0.935,0 1.673,0.308 2.213,0.926c0.541,0.617 0.799,1.563 0.776,2.838l-4.167,0c0.012,0.493 0.146,0.876 0.403,1.151c0.256,0.274 0.576,0.411 0.958,0.411c0.261,0 0.48,-0.071 0.657,-0.213c0.178,-0.142 0.312,-0.371 0.403,-0.687Zm0.094,-1.68c-0.011,-0.482 -0.136,-0.848 -0.372,-1.098c-0.237,-0.251 -0.525,-0.376 -0.864,-0.376c-0.363,0 -0.663,0.132 -0.9,0.397c-0.237,0.264 -0.353,0.623 -0.349,1.077l2.485,0Z" style="fill-rule:nonzero;"/><path d="M484.176,25.824l-1.663,0l0,-6.285l1.544,0l0,0.893c0.265,-0.422 0.502,-0.7 0.713,-0.834c0.212,-0.134 0.451,-0.201 0.72,-0.201c0.378,0 0.743,0.104 1.094,0.313l-0.515,1.45c-0.28,-0.181 -0.54,-0.272 -0.781,-0.272c-0.232,0 -0.43,0.064 -0.591,0.192c-0.162,0.129 -0.289,0.36 -0.382,0.696c-0.093,0.335 -0.139,1.037 -0.139,2.107l0,1.941Z" style="fill-rule:nonzero;"/><path d="M487.312,25.824l0,-8.676l2.811,0c1.066,0 1.76,0.043 2.083,0.13c0.498,0.13 0.914,0.413 1.249,0.849c0.335,0.436 0.503,1 0.503,1.69c0,0.533 -0.097,0.98 -0.29,1.343c-0.193,0.363 -0.439,0.648 -0.737,0.855c-0.298,0.208 -0.6,0.345 -0.908,0.412c-0.418,0.083 -1.024,0.124 -1.817,0.124l-1.142,0l0,3.273l-1.752,0Zm1.752,-7.208l0,2.461l0.959,0c0.69,0 1.152,-0.045 1.384,-0.136c0.233,-0.09 0.416,-0.232 0.548,-0.426c0.132,-0.193 0.198,-0.418 0.198,-0.674c0,-0.316 -0.093,-0.576 -0.278,-0.782c-0.185,-0.205 -0.42,-0.333 -0.704,-0.384c-0.209,-0.04 -0.63,-0.059 -1.261,-0.059l-0.846,0Z" style="fill-rule:nonzero;"/><rect x="495.384" y="17.148" width="1.663" height="8.676" style="fill-rule:nonzero;"/><path d="M499.994,21.456l-1.509,-0.272c0.17,-0.608 0.462,-1.057 0.876,-1.349c0.414,-0.292 1.03,-0.438 1.847,-0.438c0.741,0 1.294,0.088 1.657,0.263c0.363,0.176 0.618,0.399 0.766,0.669c0.148,0.27 0.222,0.766 0.222,1.488l-0.018,1.941c0,0.553 0.027,0.96 0.08,1.222c0.053,0.263 0.153,0.544 0.299,0.844l-1.645,0c-0.044,-0.111 -0.097,-0.275 -0.16,-0.492c-0.028,-0.098 -0.047,-0.163 -0.059,-0.195c-0.284,0.276 -0.588,0.484 -0.912,0.622c-0.323,0.138 -0.668,0.207 -1.035,0.207c-0.647,0 -1.157,-0.176 -1.53,-0.527c-0.373,-0.351 -0.559,-0.795 -0.559,-1.332c0,-0.355 0.085,-0.671 0.254,-0.949c0.17,-0.278 0.408,-0.492 0.713,-0.639c0.306,-0.148 0.747,-0.278 1.323,-0.388c0.777,-0.146 1.316,-0.282 1.616,-0.408l0,-0.166c0,-0.32 -0.079,-0.548 -0.237,-0.684c-0.158,-0.136 -0.456,-0.204 -0.894,-0.204c-0.296,0 -0.526,0.058 -0.692,0.175c-0.166,0.116 -0.3,0.32 -0.403,0.612Zm2.226,1.35c-0.213,0.071 -0.551,0.155 -1.012,0.254c-0.462,0.099 -0.764,0.195 -0.906,0.29c-0.217,0.154 -0.325,0.349 -0.325,0.586c0,0.233 0.086,0.434 0.26,0.603c0.174,0.17 0.395,0.255 0.663,0.255c0.3,0 0.586,-0.099 0.858,-0.296c0.201,-0.15 0.333,-0.333 0.397,-0.55c0.043,-0.142 0.065,-0.413 0.065,-0.811l0,-0.331Z" style="fill-rule:nonzero;"/><path d="M510.972,21.397l-1.639,0.296c-0.055,-0.328 -0.18,-0.574 -0.376,-0.74c-0.195,-0.166 -0.449,-0.248 -0.76,-0.248c-0.415,0 -0.745,0.143 -0.992,0.429c-0.246,0.286 -0.369,0.764 -0.369,1.435c0,0.745 0.125,1.272 0.375,1.58c0.251,0.308 0.587,0.462 1.009,0.462c0.316,0 0.574,-0.09 0.776,-0.27c0.201,-0.179 0.343,-0.488 0.426,-0.926l1.633,0.278c-0.17,0.75 -0.495,1.316 -0.976,1.699c-0.482,0.382 -1.127,0.574 -1.936,0.574c-0.919,0 -1.652,-0.29 -2.198,-0.87c-0.546,-0.58 -0.82,-1.383 -0.82,-2.409c0,-1.037 0.275,-1.845 0.823,-2.423c0.548,-0.578 1.29,-0.867 2.225,-0.867c0.765,0 1.374,0.164 1.826,0.494c0.452,0.329 0.776,0.831 0.973,1.506Z" style="fill-rule:nonzero;"/><path d="M515.872,23.823l1.657,0.279c-0.213,0.607 -0.549,1.07 -1.009,1.387c-0.459,0.318 -1.034,0.477 -1.725,0.477c-1.093,0 -1.901,-0.357 -2.426,-1.071c-0.414,-0.573 -0.621,-1.294 -0.621,-2.166c0,-1.042 0.272,-1.858 0.816,-2.447c0.545,-0.59 1.233,-0.885 2.066,-0.885c0.935,0 1.672,0.308 2.213,0.926c0.54,0.617 0.799,1.563 0.775,2.838l-4.166,0c0.012,0.493 0.146,0.876 0.402,1.151c0.257,0.274 0.576,0.411 0.959,0.411c0.26,0 0.479,-0.071 0.657,-0.213c0.177,-0.142 0.312,-0.371 0.402,-0.687Zm0.095,-1.68c-0.012,-0.482 -0.136,-0.848 -0.373,-1.098c-0.237,-0.251 -0.525,-0.376 -0.864,-0.376c-0.363,0 -0.663,0.132 -0.899,0.397c-0.237,0.264 -0.353,0.623 -0.349,1.077l2.485,0Z" style="fill-rule:nonzero;"/><path d="M524.737,25.824l-1.544,0l0,-0.924c-0.257,0.36 -0.559,0.627 -0.909,0.802c-0.349,0.176 -0.701,0.264 -1.056,0.264c-0.722,0 -1.34,-0.291 -1.855,-0.873c-0.515,-0.582 -0.772,-1.394 -0.772,-2.435c0,-1.066 0.25,-1.875 0.751,-2.43c0.501,-0.554 1.134,-0.831 1.9,-0.831c0.702,0 1.31,0.292 1.823,0.876l0,-3.125l1.662,0l0,8.676Zm-4.438,-3.279c0,0.671 0.093,1.156 0.278,1.456c0.268,0.434 0.643,0.651 1.125,0.651c0.382,0 0.708,-0.163 0.976,-0.488c0.268,-0.326 0.402,-0.812 0.402,-1.459c0,-0.722 -0.13,-1.242 -0.39,-1.559c-0.261,-0.318 -0.594,-0.477 -1,-0.477c-0.395,0 -0.725,0.157 -0.992,0.471c-0.266,0.313 -0.399,0.782 -0.399,1.405Z" style="fill-rule:nonzero;"/></g><path d="M440.218,24.414l0.047,-0.047l3.472,3.471l1.721,-1.721l0,5.204l-5.204,0l1.721,-1.721l-3.472,-3.472l0.05,-0.049c0.667,-0.428 1.236,-0.999 1.665,-1.665Z"/></g><path d="M439.339,21.486c0,1.999 -1.643,3.688 -3.67,3.688c-2.026,0 -3.669,-1.689 -3.669,-3.688c0,-2 1.643,-3.689 3.669,-3.689c2.027,0 3.67,1.689 3.67,3.689" style="fill-rule:nonzero;"/><path d="M440.937,20.24l5.439,0l0,-2.426l3.672,3.672l-3.672,3.672l0,-2.426l-5.44,0c0.096,-0.402 0.147,-0.819 0.147,-1.246c0,-0.427 -0.051,-0.844 -0.146,-1.246Z"/><path d="M438.551,16.891l-0.048,-0.048l3.472,-3.471l-1.721,-1.722l5.204,0l0,5.204l-1.721,-1.721l-3.472,3.472l-0.046,-0.046c-0.429,-0.668 -0.999,-1.239 -1.668,-1.668Z"/></g><g><g><path d="M641.953,162.889c0,-0.884 0.132,-1.626 0.396,-2.225c0.197,-0.442 0.467,-0.839 0.808,-1.19c0.341,-0.351 0.715,-0.611 1.121,-0.781c0.541,-0.229 1.164,-0.343 1.87,-0.343c1.279,0 2.302,0.396 3.069,1.189c0.767,0.793 1.151,1.896 1.151,3.308c0,1.401 -0.381,2.497 -1.142,3.288c-0.762,0.791 -1.779,1.186 -3.054,1.186c-1.29,0 -2.316,-0.393 -3.077,-1.18c-0.762,-0.787 -1.142,-1.871 -1.142,-3.252Zm1.805,-0.059c0,0.982 0.226,1.727 0.68,2.234c0.454,0.507 1.03,0.76 1.728,0.76c0.699,0 1.272,-0.252 1.719,-0.755c0.448,-0.503 0.672,-1.257 0.672,-2.263c0,-0.994 -0.218,-1.736 -0.654,-2.225c-0.436,-0.49 -1.015,-0.734 -1.737,-0.734c-0.722,0 -1.304,0.247 -1.746,0.743c-0.441,0.495 -0.662,1.241 -0.662,2.24Z" style="fill-rule:nonzero;"/><path d="M653.315,167.173l-1.663,0l0,-6.285l1.545,0l0,0.894c0.264,-0.422 0.502,-0.7 0.713,-0.834c0.211,-0.135 0.451,-0.202 0.719,-0.202c0.379,0 0.744,0.105 1.095,0.314l-0.515,1.45c-0.28,-0.182 -0.541,-0.272 -0.781,-0.272c-0.233,0 -0.43,0.064 -0.592,0.192c-0.162,0.128 -0.289,0.36 -0.382,0.695c-0.092,0.336 -0.139,1.038 -0.139,2.107l0,1.941Z" style="fill-rule:nonzero;"/><path d="M662.204,167.173l-1.545,0l0,-0.923c-0.256,0.359 -0.559,0.626 -0.908,0.802c-0.349,0.176 -0.701,0.263 -1.056,0.263c-0.722,0 -1.341,-0.291 -1.856,-0.873c-0.515,-0.581 -0.772,-1.393 -0.772,-2.435c0,-1.065 0.251,-1.875 0.752,-2.429c0.501,-0.554 1.134,-0.832 1.899,-0.832c0.703,0 1.31,0.292 1.823,0.876l0,-3.124l1.663,0l0,8.675Zm-4.439,-3.278c0,0.67 0.093,1.156 0.279,1.456c0.268,0.434 0.643,0.651 1.124,0.651c0.383,0 0.708,-0.163 0.976,-0.489c0.269,-0.325 0.403,-0.811 0.403,-1.458c0,-0.722 -0.13,-1.242 -0.391,-1.56c-0.26,-0.317 -0.593,-0.476 -1,-0.476c-0.394,0 -0.725,0.157 -0.991,0.47c-0.266,0.314 -0.4,0.782 -0.4,1.406Z" style="fill-rule:nonzero;"/><path d="M667.483,165.173l1.657,0.278c-0.213,0.608 -0.55,1.07 -1.009,1.388c-0.46,0.318 -1.035,0.476 -1.725,0.476c-1.093,0 -1.902,-0.357 -2.427,-1.071c-0.414,-0.572 -0.621,-1.294 -0.621,-2.166c0,-1.041 0.272,-1.857 0.817,-2.447c0.544,-0.59 1.233,-0.885 2.065,-0.885c0.935,0 1.673,0.309 2.213,0.927c0.541,0.617 0.799,1.563 0.776,2.837l-4.167,0c0.012,0.493 0.146,0.877 0.403,1.151c0.256,0.274 0.576,0.412 0.958,0.412c0.261,0 0.48,-0.071 0.657,-0.213c0.178,-0.143 0.312,-0.371 0.403,-0.687Zm0.094,-1.681c-0.011,-0.481 -0.136,-0.847 -0.372,-1.097c-0.237,-0.251 -0.525,-0.376 -0.864,-0.376c-0.363,0 -0.663,0.132 -0.9,0.396c-0.237,0.265 -0.353,0.624 -0.349,1.077l2.485,0Z" style="fill-rule:nonzero;"/><path d="M672.176,167.173l-1.663,0l0,-6.285l1.544,0l0,0.894c0.265,-0.422 0.502,-0.7 0.713,-0.834c0.212,-0.135 0.451,-0.202 0.72,-0.202c0.378,0 0.743,0.105 1.094,0.314l-0.515,1.45c-0.28,-0.182 -0.54,-0.272 -0.781,-0.272c-0.232,0 -0.43,0.064 -0.591,0.192c-0.162,0.128 -0.289,0.36 -0.382,0.695c-0.093,0.336 -0.139,1.038 -0.139,2.107l0,1.941Z" style="fill-rule:nonzero;"/><path d="M675.318,158.498l3.468,0c0.687,0 1.198,0.028 1.536,0.085c0.337,0.058 0.639,0.177 0.905,0.358c0.267,0.182 0.488,0.424 0.666,0.725c0.178,0.302 0.266,0.64 0.266,1.015c0,0.407 -0.109,0.779 -0.328,1.119c-0.219,0.339 -0.516,0.594 -0.891,0.763c0.529,0.154 0.935,0.416 1.219,0.787c0.284,0.371 0.426,0.807 0.426,1.308c0,0.395 -0.091,0.778 -0.275,1.151c-0.183,0.373 -0.434,0.671 -0.751,0.894c-0.318,0.223 -0.71,0.36 -1.175,0.411c-0.292,0.032 -0.996,0.051 -2.113,0.059l-2.953,0l0,-8.675Zm1.752,1.444l0,2.006l1.148,0c0.683,0 1.107,-0.01 1.272,-0.03c0.3,-0.035 0.536,-0.139 0.708,-0.311c0.171,-0.171 0.257,-0.397 0.257,-0.677c0,-0.268 -0.074,-0.486 -0.222,-0.654c-0.148,-0.168 -0.368,-0.269 -0.66,-0.305c-0.173,-0.02 -0.672,-0.029 -1.497,-0.029l-1.006,0Zm0,3.45l0,2.32l1.621,0c0.632,0 1.032,-0.018 1.202,-0.054c0.26,-0.047 0.472,-0.162 0.636,-0.346c0.164,-0.183 0.246,-0.429 0.246,-0.737c0,-0.26 -0.064,-0.481 -0.19,-0.662c-0.126,-0.182 -0.309,-0.314 -0.547,-0.397c-0.239,-0.083 -0.757,-0.124 -1.554,-0.124l-1.414,0Z" style="fill-rule:nonzero;"/><path d="M684.053,160.036l0,-1.538l1.663,0l0,1.538l-1.663,0Zm0,7.137l0,-6.285l1.663,0l0,6.285l-1.663,0Z" style="fill-rule:nonzero;"/><rect x="687.42" y="158.498" width="1.663" height="8.676" style="fill-rule:nonzero;"/><rect x="690.788" y="158.498" width="1.663" height="8.676" style="fill-rule:nonzero;"/><path d="M697.795,165.173l1.657,0.278c-0.213,0.608 -0.55,1.07 -1.009,1.388c-0.46,0.318 -1.035,0.476 -1.725,0.476c-1.093,0 -1.902,-0.357 -2.427,-1.071c-0.414,-0.572 -0.621,-1.294 -0.621,-2.166c0,-1.041 0.272,-1.857 0.816,-2.447c0.545,-0.59 1.233,-0.885 2.066,-0.885c0.935,0 1.673,0.309 2.213,0.927c0.541,0.617 0.799,1.563 0.775,2.837l-4.166,0c0.012,0.493 0.146,0.877 0.403,1.151c0.256,0.274 0.576,0.412 0.958,0.412c0.261,0 0.48,-0.071 0.657,-0.213c0.178,-0.143 0.312,-0.371 0.403,-0.687Zm0.094,-1.681c-0.012,-0.481 -0.136,-0.847 -0.373,-1.097c-0.236,-0.251 -0.524,-0.376 -0.864,-0.376c-0.363,0 -0.662,0.132 -0.899,0.396c-0.237,0.265 -0.353,0.624 -0.349,1.077l2.485,0Z" style="fill-rule:nonzero;"/><path d="M706.66,167.173l-1.545,0l0,-0.923c-0.256,0.359 -0.559,0.626 -0.908,0.802c-0.349,0.176 -0.702,0.263 -1.057,0.263c-0.722,0 -1.34,-0.291 -1.855,-0.873c-0.515,-0.581 -0.772,-1.393 -0.772,-2.435c0,-1.065 0.25,-1.875 0.751,-2.429c0.501,-0.554 1.135,-0.832 1.9,-0.832c0.702,0 1.31,0.292 1.823,0.876l0,-3.124l1.663,0l0,8.675Zm-4.439,-3.278c0,0.67 0.093,1.156 0.278,1.456c0.269,0.434 0.643,0.651 1.125,0.651c0.383,0 0.708,-0.163 0.976,-0.489c0.269,-0.325 0.403,-0.811 0.403,-1.458c0,-0.722 -0.131,-1.242 -0.391,-1.56c-0.26,-0.317 -0.594,-0.476 -1,-0.476c-0.395,0 -0.725,0.157 -0.991,0.47c-0.267,0.314 -0.4,0.782 -0.4,1.406Z" style="fill-rule:nonzero;"/></g><path d="M627.339,162.835c0,1.999 -1.643,3.688 -3.67,3.688c-2.026,0 -3.669,-1.689 -3.669,-3.688c0,-1.999 1.643,-3.688 3.669,-3.688c2.027,0 3.67,1.689 3.67,3.688" style="fill-rule:nonzero;"/><path d="M628.937,161.59l5.439,0l0,-2.426l3.672,3.671l-3.672,3.672l0,-2.426l-5.44,0c0.096,-0.401 0.147,-0.819 0.147,-1.246c0,-0.427 -0.051,-0.844 -0.146,-1.245Z"/><path d="M626.551,158.241l-0.048,-0.048l3.472,-3.472l-1.721,-1.721l5.204,0l0,5.204l-1.721,-1.721l-3.472,3.472l-0.046,-0.046c-0.429,-0.668 -0.999,-1.24 -1.668,-1.668Z"/><path d="M628.218,165.763l0.047,-0.047l3.472,3.472l1.721,-1.721l0,5.204l-5.204,0l1.721,-1.721l-3.472,-3.472l0.05,-0.05c0.667,-0.428 1.236,-0.998 1.665,-1.665Z"/></g><g><path d="M38.7,17.832l0,11.441l13.803,0l0,16.16l-13.803,0l0,11.452l39.053,0l0,-39.053l-39.053,0Z" style="fill:#fff;fill-rule:nonzero;"/><rect x="27.253" y="31.636" width="22.893" height="11.441" style="fill:#fff;fill-rule:nonzero;"/></g><path d="M114.003,51.503l138,0" style="fill:none;stroke:#737373;stroke-width:6px;"/><rect x="163.003" y="36.003" width="42" height="31" style="fill:#fff;"/><path id="email-3-icon3" d="M183.528,51.062l-13.468,-8.639l25.943,0l-12.475,8.639Zm0,3.152l-13.525,-8.898l0,14.267l26,0l0,-14.241l-12.475,8.872Z" style="fill:#737373;fill-rule:nonzero;"/><path d="M260.5,51.503l-16.993,8.497l0,-16.993l16.993,8.496Z" style="fill:#737373;"/><path d="M592.5,51.503l-16.993,8.497l0,-16.993l16.993,8.496Z" style="fill:#737373;"/><path d="M148.367,21.486c0,1.999 -1.642,3.688 -3.669,3.688c-2.027,0 -3.669,-1.689 -3.669,-3.688c0,-2 1.642,-3.689 3.669,-3.689c2.027,0 3.669,1.689 3.669,3.689" style="fill-rule:nonzero;"/><path d="M149.965,20.24l5.439,0l0,-2.426l3.672,3.672l-3.672,3.672l0,-2.426l-5.439,0c0.096,-0.402 0.147,-0.819 0.147,-1.246c0,-0.427 -0.051,-0.844 -0.147,-1.246Z"/><path d="M163.029,25.818l0,-8.676l2.811,0c1.065,0 1.759,0.043 2.083,0.13c0.497,0.13 0.913,0.413 1.248,0.849c0.336,0.436 0.504,1 0.504,1.69c0,0.533 -0.097,0.98 -0.29,1.343c-0.194,0.363 -0.439,0.648 -0.737,0.856c-0.298,0.207 -0.601,0.344 -0.909,0.411c-0.418,0.083 -1.023,0.124 -1.816,0.124l-1.143,0l0,3.273l-1.751,0Zm1.751,-7.208l0,2.462l0.959,0c0.691,0 1.152,-0.046 1.385,-0.137c0.233,-0.09 0.415,-0.232 0.547,-0.426c0.132,-0.193 0.199,-0.418 0.199,-0.674c0,-0.316 -0.093,-0.576 -0.279,-0.781c-0.185,-0.206 -0.42,-0.334 -0.704,-0.385c-0.209,-0.04 -0.629,-0.059 -1.26,-0.059l-0.847,0Z" style="fill-rule:nonzero;"/><rect x="171.101" y="17.142" width="1.663" height="8.676" style="fill-rule:nonzero;"/><path d="M175.711,21.45l-1.509,-0.272c0.169,-0.607 0.461,-1.057 0.876,-1.349c0.414,-0.292 1.029,-0.438 1.846,-0.438c0.742,0 1.294,0.088 1.657,0.263c0.363,0.176 0.618,0.399 0.766,0.669c0.148,0.27 0.222,0.766 0.222,1.488l-0.017,1.941c0,0.553 0.026,0.96 0.08,1.222c0.053,0.263 0.152,0.544 0.298,0.844l-1.645,0c-0.043,-0.111 -0.096,-0.274 -0.16,-0.491c-0.027,-0.099 -0.047,-0.164 -0.059,-0.196c-0.284,0.276 -0.588,0.484 -0.911,0.622c-0.324,0.138 -0.669,0.207 -1.036,0.207c-0.647,0 -1.157,-0.176 -1.53,-0.527c-0.372,-0.351 -0.559,-0.795 -0.559,-1.331c0,-0.356 0.085,-0.672 0.255,-0.95c0.169,-0.278 0.407,-0.491 0.713,-0.639c0.305,-0.148 0.746,-0.278 1.322,-0.388c0.778,-0.146 1.316,-0.282 1.616,-0.408l0,-0.166c0,-0.32 -0.079,-0.547 -0.237,-0.684c-0.158,-0.136 -0.455,-0.204 -0.893,-0.204c-0.296,0 -0.527,0.058 -0.693,0.175c-0.165,0.116 -0.3,0.32 -0.402,0.612Zm2.225,1.35c-0.213,0.071 -0.55,0.155 -1.012,0.254c-0.462,0.099 -0.763,0.195 -0.905,0.29c-0.217,0.154 -0.326,0.349 -0.326,0.586c0,0.233 0.087,0.434 0.26,0.604c0.174,0.169 0.395,0.254 0.663,0.254c0.3,0 0.586,-0.099 0.858,-0.296c0.202,-0.15 0.334,-0.333 0.397,-0.55c0.043,-0.142 0.065,-0.413 0.065,-0.811l0,-0.331Z" style="fill-rule:nonzero;"/><path d="M186.689,21.391l-1.64,0.296c-0.055,-0.327 -0.18,-0.574 -0.375,-0.74c-0.196,-0.165 -0.449,-0.248 -0.761,-0.248c-0.414,0 -0.745,0.143 -0.991,0.429c-0.247,0.286 -0.37,0.764 -0.37,1.435c0,0.746 0.125,1.272 0.376,1.58c0.25,0.308 0.587,0.462 1.009,0.462c0.315,0 0.574,-0.09 0.775,-0.27c0.201,-0.179 0.343,-0.488 0.426,-0.926l1.634,0.278c-0.17,0.75 -0.496,1.316 -0.977,1.699c-0.481,0.382 -1.126,0.574 -1.935,0.574c-0.919,0 -1.652,-0.29 -2.199,-0.87c-0.546,-0.58 -0.819,-1.383 -0.819,-2.409c0,-1.037 0.274,-1.845 0.822,-2.423c0.549,-0.578 1.29,-0.867 2.225,-0.867c0.766,0 1.374,0.165 1.826,0.494c0.452,0.329 0.776,0.831 0.974,1.506Z" style="fill-rule:nonzero;"/><path d="M191.589,23.817l1.657,0.279c-0.213,0.607 -0.55,1.07 -1.009,1.387c-0.46,0.318 -1.035,0.477 -1.725,0.477c-1.093,0 -1.902,-0.357 -2.427,-1.071c-0.414,-0.572 -0.621,-1.294 -0.621,-2.166c0,-1.042 0.272,-1.858 0.817,-2.447c0.544,-0.59 1.233,-0.885 2.065,-0.885c0.935,0 1.673,0.309 2.213,0.926c0.541,0.617 0.799,1.563 0.776,2.838l-4.167,0c0.012,0.493 0.146,0.877 0.403,1.151c0.256,0.274 0.576,0.411 0.958,0.411c0.261,0 0.48,-0.071 0.657,-0.213c0.178,-0.142 0.312,-0.371 0.403,-0.687Zm0.094,-1.68c-0.011,-0.482 -0.136,-0.847 -0.372,-1.098c-0.237,-0.251 -0.525,-0.376 -0.864,-0.376c-0.363,0 -0.663,0.132 -0.9,0.397c-0.237,0.264 -0.353,0.623 -0.349,1.077l2.485,0Z" style="fill-rule:nonzero;"/><path d="M194.347,21.533c0,-0.884 0.132,-1.625 0.396,-2.225c0.197,-0.442 0.467,-0.838 0.808,-1.19c0.341,-0.351 0.715,-0.611 1.121,-0.781c0.541,-0.229 1.164,-0.343 1.87,-0.343c1.279,0 2.301,0.397 3.069,1.19c0.767,0.793 1.151,1.895 1.151,3.308c0,1.4 -0.381,2.496 -1.142,3.287c-0.762,0.791 -1.78,1.187 -3.054,1.187c-1.29,0 -2.316,-0.394 -3.077,-1.181c-0.762,-0.787 -1.142,-1.871 -1.142,-3.252Zm1.805,-0.059c0,0.982 0.226,1.727 0.68,2.234c0.454,0.507 1.03,0.76 1.728,0.76c0.698,0 1.272,-0.251 1.719,-0.754c0.448,-0.503 0.672,-1.258 0.672,-2.264c0,-0.994 -0.218,-1.736 -0.654,-2.225c-0.436,-0.489 -1.015,-0.734 -1.737,-0.734c-0.722,0 -1.304,0.248 -1.746,0.743c-0.442,0.495 -0.662,1.242 -0.662,2.24Z" style="fill-rule:nonzero;"/><path d="M205.709,25.818l-1.663,0l0,-6.285l1.545,0l0,0.894c0.264,-0.423 0.502,-0.701 0.713,-0.835c0.211,-0.134 0.451,-0.201 0.719,-0.201c0.379,0 0.744,0.104 1.095,0.314l-0.515,1.449c-0.28,-0.181 -0.541,-0.272 -0.781,-0.272c-0.233,0 -0.43,0.064 -0.592,0.193c-0.162,0.128 -0.289,0.36 -0.382,0.695c-0.093,0.335 -0.139,1.037 -0.139,2.107l0,1.941Z" style="fill-rule:nonzero;"/><path d="M214.598,25.818l-1.545,0l0,-0.923c-0.256,0.359 -0.559,0.626 -0.908,0.801c-0.349,0.176 -0.701,0.264 -1.057,0.264c-0.722,0 -1.34,-0.291 -1.855,-0.873c-0.515,-0.582 -0.772,-1.394 -0.772,-2.435c0,-1.066 0.25,-1.875 0.751,-2.43c0.502,-0.554 1.135,-0.831 1.9,-0.831c0.702,0 1.31,0.292 1.823,0.876l0,-3.125l1.663,0l0,8.676Zm-4.439,-3.279c0,0.671 0.093,1.156 0.278,1.456c0.269,0.434 0.644,0.651 1.125,0.651c0.383,0 0.708,-0.163 0.976,-0.488c0.269,-0.326 0.403,-0.812 0.403,-1.459c0,-0.722 -0.13,-1.242 -0.391,-1.559c-0.26,-0.318 -0.594,-0.477 -1,-0.477c-0.394,0 -0.725,0.157 -0.991,0.471c-0.266,0.313 -0.4,0.782 -0.4,1.405Z" style="fill-rule:nonzero;"/><path d="M219.877,23.817l1.657,0.279c-0.213,0.607 -0.55,1.07 -1.009,1.387c-0.46,0.318 -1.035,0.477 -1.725,0.477c-1.093,0 -1.902,-0.357 -2.427,-1.071c-0.414,-0.572 -0.621,-1.294 -0.621,-2.166c0,-1.042 0.272,-1.858 0.817,-2.447c0.544,-0.59 1.232,-0.885 2.065,-0.885c0.935,0 1.673,0.309 2.213,0.926c0.541,0.617 0.799,1.563 0.775,2.838l-4.166,0c0.012,0.493 0.146,0.877 0.403,1.151c0.256,0.274 0.576,0.411 0.958,0.411c0.261,0 0.48,-0.071 0.657,-0.213c0.178,-0.142 0.312,-0.371 0.403,-0.687Zm0.094,-1.68c-0.011,-0.482 -0.136,-0.847 -0.372,-1.098c-0.237,-0.251 -0.525,-0.376 -0.865,-0.376c-0.362,0 -0.662,0.132 -0.899,0.397c-0.237,0.264 -0.353,0.623 -0.349,1.077l2.485,0Z" style="fill-rule:nonzero;"/><path d="M224.57,25.818l-1.663,0l0,-6.285l1.544,0l0,0.894c0.265,-0.423 0.502,-0.701 0.713,-0.835c0.211,-0.134 0.451,-0.201 0.719,-0.201c0.379,0 0.744,0.104 1.095,0.314l-0.515,1.449c-0.28,-0.181 -0.54,-0.272 -0.781,-0.272c-0.233,0 -0.43,0.064 -0.592,0.193c-0.161,0.128 -0.289,0.36 -0.381,0.695c-0.093,0.335 -0.139,1.037 -0.139,2.107l0,1.941Z" style="fill-rule:nonzero;"/><path d="M148.367,21.486c0,1.999 -1.642,3.688 -3.669,3.688c-2.027,0 -3.669,-1.689 -3.669,-3.688c0,-2 1.642,-3.689 3.669,-3.689c2.027,0 3.669,1.689 3.669,3.689" style="fill-rule:nonzero;"/><path d="M149.965,20.24l5.439,0l0,-2.426l3.672,3.672l-3.672,3.672l0,-2.426l-5.439,0c0.096,-0.402 0.147,-0.819 0.147,-1.246c0,-0.427 -0.051,-0.844 -0.147,-1.246Z"/><path d="M267.953,162.889c0,-0.884 0.132,-1.626 0.396,-2.225c0.197,-0.442 0.467,-0.839 0.808,-1.19c0.341,-0.351 0.715,-0.611 1.121,-0.781c0.541,-0.229 1.164,-0.343 1.87,-0.343c1.279,0 2.302,0.396 3.069,1.189c0.767,0.793 1.151,1.896 1.151,3.308c0,1.401 -0.381,2.497 -1.142,3.288c-0.762,0.791 -1.779,1.186 -3.054,1.186c-1.29,0 -2.316,-0.393 -3.077,-1.18c-0.762,-0.787 -1.142,-1.871 -1.142,-3.252Zm1.805,-0.059c0,0.982 0.226,1.727 0.68,2.234c0.454,0.507 1.03,0.76 1.728,0.76c0.699,0 1.272,-0.252 1.719,-0.755c0.448,-0.503 0.672,-1.257 0.672,-2.263c0,-0.994 -0.218,-1.736 -0.654,-2.225c-0.436,-0.49 -1.015,-0.734 -1.737,-0.734c-0.722,0 -1.304,0.247 -1.746,0.743c-0.441,0.495 -0.662,1.241 -0.662,2.24Z" style="fill-rule:nonzero;"/><path d="M279.315,167.173l-1.663,0l0,-6.285l1.545,0l0,0.894c0.264,-0.422 0.502,-0.7 0.713,-0.834c0.211,-0.135 0.451,-0.202 0.719,-0.202c0.379,0 0.744,0.105 1.095,0.314l-0.515,1.45c-0.28,-0.182 -0.541,-0.272 -0.781,-0.272c-0.233,0 -0.43,0.064 -0.592,0.192c-0.162,0.128 -0.289,0.36 -0.382,0.695c-0.092,0.336 -0.139,1.038 -0.139,2.107l0,1.941Z" style="fill-rule:nonzero;"/><path d="M288.204,167.173l-1.545,0l0,-0.923c-0.256,0.359 -0.559,0.626 -0.908,0.802c-0.349,0.176 -0.701,0.263 -1.056,0.263c-0.722,0 -1.341,-0.291 -1.856,-0.873c-0.515,-0.581 -0.772,-1.393 -0.772,-2.435c0,-1.065 0.251,-1.875 0.752,-2.429c0.501,-0.554 1.134,-0.832 1.899,-0.832c0.703,0 1.31,0.292 1.823,0.876l0,-3.124l1.663,0l0,8.675Zm-4.439,-3.278c0,0.67 0.093,1.156 0.279,1.456c0.268,0.434 0.643,0.651 1.124,0.651c0.383,0 0.708,-0.163 0.976,-0.489c0.269,-0.325 0.403,-0.811 0.403,-1.458c0,-0.722 -0.13,-1.242 -0.391,-1.56c-0.26,-0.317 -0.593,-0.476 -1,-0.476c-0.394,0 -0.725,0.157 -0.991,0.47c-0.266,0.314 -0.4,0.782 -0.4,1.406Z" style="fill-rule:nonzero;"/><path d="M293.483,165.173l1.657,0.278c-0.213,0.608 -0.55,1.07 -1.009,1.388c-0.46,0.318 -1.035,0.476 -1.725,0.476c-1.093,0 -1.902,-0.357 -2.427,-1.071c-0.414,-0.572 -0.621,-1.294 -0.621,-2.166c0,-1.041 0.272,-1.857 0.817,-2.447c0.544,-0.59 1.233,-0.885 2.065,-0.885c0.935,0 1.673,0.309 2.213,0.927c0.541,0.617 0.799,1.563 0.776,2.837l-4.167,0c0.012,0.493 0.146,0.877 0.403,1.151c0.256,0.274 0.576,0.412 0.958,0.412c0.261,0 0.48,-0.071 0.657,-0.213c0.178,-0.143 0.312,-0.371 0.403,-0.687Zm0.094,-1.681c-0.011,-0.481 -0.136,-0.847 -0.372,-1.097c-0.237,-0.251 -0.525,-0.376 -0.864,-0.376c-0.363,0 -0.663,0.132 -0.9,0.396c-0.237,0.265 -0.353,0.624 -0.349,1.077l2.485,0Z" style="fill-rule:nonzero;"/><path d="M298.176,167.173l-1.663,0l0,-6.285l1.544,0l0,0.894c0.265,-0.422 0.502,-0.7 0.713,-0.834c0.212,-0.135 0.451,-0.202 0.72,-0.202c0.378,0 0.743,0.105 1.094,0.314l-0.515,1.45c-0.28,-0.182 -0.54,-0.272 -0.781,-0.272c-0.232,0 -0.43,0.064 -0.591,0.192c-0.162,0.128 -0.289,0.36 -0.382,0.695c-0.093,0.336 -0.139,1.038 -0.139,2.107l0,1.941Z" style="fill-rule:nonzero;"/><path d="M301.312,167.173l0,-8.675l2.811,0c1.066,0 1.76,0.043 2.083,0.13c0.498,0.13 0.914,0.413 1.249,0.849c0.335,0.436 0.503,0.999 0.503,1.69c0,0.532 -0.097,0.98 -0.29,1.343c-0.193,0.363 -0.439,0.648 -0.737,0.855c-0.298,0.207 -0.6,0.344 -0.908,0.411c-0.418,0.083 -1.024,0.125 -1.817,0.125l-1.142,0l0,3.272l-1.752,0Zm1.752,-7.208l0,2.462l0.959,0c0.69,0 1.152,-0.045 1.384,-0.136c0.233,-0.091 0.416,-0.233 0.548,-0.426c0.132,-0.193 0.198,-0.418 0.198,-0.675c0,-0.315 -0.093,-0.576 -0.278,-0.781c-0.185,-0.205 -0.42,-0.333 -0.704,-0.385c-0.209,-0.039 -0.63,-0.059 -1.261,-0.059l-0.846,0Z" style="fill-rule:nonzero;"/><rect x="309.384" y="158.498" width="1.663" height="8.676" style="fill-rule:nonzero;"/><path d="M313.994,162.806l-1.509,-0.272c0.17,-0.608 0.462,-1.058 0.876,-1.35c0.414,-0.292 1.03,-0.438 1.847,-0.438c0.741,0 1.294,0.088 1.657,0.264c0.363,0.175 0.618,0.398 0.766,0.668c0.148,0.271 0.222,0.767 0.222,1.489l-0.018,1.941c0,0.552 0.027,0.96 0.08,1.222c0.053,0.262 0.153,0.543 0.299,0.843l-1.645,0c-0.044,-0.11 -0.097,-0.274 -0.16,-0.491c-0.028,-0.099 -0.047,-0.164 -0.059,-0.195c-0.284,0.276 -0.588,0.483 -0.912,0.621c-0.323,0.138 -0.668,0.207 -1.035,0.207c-0.647,0 -1.157,-0.175 -1.53,-0.526c-0.373,-0.351 -0.559,-0.795 -0.559,-1.332c0,-0.355 0.085,-0.672 0.254,-0.95c0.17,-0.278 0.408,-0.491 0.713,-0.639c0.306,-0.148 0.747,-0.277 1.323,-0.388c0.777,-0.145 1.316,-0.282 1.616,-0.408l0,-0.166c0,-0.319 -0.079,-0.547 -0.237,-0.683c-0.158,-0.136 -0.456,-0.204 -0.894,-0.204c-0.296,0 -0.526,0.058 -0.692,0.174c-0.166,0.117 -0.3,0.321 -0.403,0.613Zm2.226,1.349c-0.213,0.071 -0.551,0.156 -1.012,0.255c-0.462,0.098 -0.764,0.195 -0.906,0.29c-0.217,0.153 -0.325,0.349 -0.325,0.585c0,0.233 0.086,0.434 0.26,0.604c0.174,0.17 0.395,0.255 0.663,0.255c0.3,0 0.586,-0.099 0.858,-0.296c0.201,-0.15 0.333,-0.334 0.397,-0.551c0.043,-0.142 0.065,-0.412 0.065,-0.81l0,-0.332Z" style="fill-rule:nonzero;"/><path d="M324.972,162.747l-1.639,0.296c-0.055,-0.328 -0.18,-0.574 -0.376,-0.74c-0.195,-0.166 -0.449,-0.249 -0.76,-0.249c-0.415,0 -0.745,0.143 -0.992,0.429c-0.246,0.286 -0.369,0.765 -0.369,1.435c0,0.746 0.125,1.273 0.375,1.581c0.251,0.307 0.587,0.461 1.009,0.461c0.316,0 0.574,-0.09 0.776,-0.269c0.201,-0.18 0.343,-0.488 0.426,-0.926l1.633,0.278c-0.17,0.749 -0.495,1.316 -0.976,1.698c-0.482,0.383 -1.127,0.574 -1.936,0.574c-0.919,0 -1.652,-0.29 -2.198,-0.87c-0.546,-0.58 -0.82,-1.382 -0.82,-2.408c0,-1.038 0.275,-1.846 0.823,-2.424c0.548,-0.578 1.29,-0.867 2.225,-0.867c0.765,0 1.374,0.165 1.826,0.495c0.452,0.329 0.776,0.831 0.973,1.506Z" style="fill-rule:nonzero;"/><path d="M329.872,165.173l1.657,0.278c-0.213,0.608 -0.549,1.07 -1.009,1.388c-0.459,0.318 -1.034,0.476 -1.725,0.476c-1.093,0 -1.901,-0.357 -2.426,-1.071c-0.414,-0.572 -0.621,-1.294 -0.621,-2.166c0,-1.041 0.272,-1.857 0.816,-2.447c0.545,-0.59 1.233,-0.885 2.066,-0.885c0.935,0 1.672,0.309 2.213,0.927c0.54,0.617 0.799,1.563 0.775,2.837l-4.166,0c0.012,0.493 0.146,0.877 0.402,1.151c0.257,0.274 0.576,0.412 0.959,0.412c0.26,0 0.479,-0.071 0.657,-0.213c0.177,-0.143 0.312,-0.371 0.402,-0.687Zm0.095,-1.681c-0.012,-0.481 -0.136,-0.847 -0.373,-1.097c-0.237,-0.251 -0.525,-0.376 -0.864,-0.376c-0.363,0 -0.663,0.132 -0.899,0.396c-0.237,0.265 -0.353,0.624 -0.349,1.077l2.485,0Z" style="fill-rule:nonzero;"/><path d="M338.737,167.173l-1.544,0l0,-0.923c-0.257,0.359 -0.559,0.626 -0.909,0.802c-0.349,0.176 -0.701,0.263 -1.056,0.263c-0.722,0 -1.34,-0.291 -1.855,-0.873c-0.515,-0.581 -0.772,-1.393 -0.772,-2.435c0,-1.065 0.25,-1.875 0.751,-2.429c0.501,-0.554 1.134,-0.832 1.9,-0.832c0.702,0 1.31,0.292 1.823,0.876l0,-3.124l1.662,0l0,8.675Zm-4.438,-3.278c0,0.67 0.093,1.156 0.278,1.456c0.268,0.434 0.643,0.651 1.125,0.651c0.382,0 0.708,-0.163 0.976,-0.489c0.268,-0.325 0.402,-0.811 0.402,-1.458c0,-0.722 -0.13,-1.242 -0.39,-1.56c-0.261,-0.317 -0.594,-0.476 -1,-0.476c-0.395,0 -0.725,0.157 -0.992,0.47c-0.266,0.314 -0.399,0.782 -0.399,1.406Z" style="fill-rule:nonzero;"/><path d="M254.218,165.763l0.047,-0.047l3.472,3.472l1.721,-1.721l0,5.204l-5.204,0l1.721,-1.721l-3.472,-3.472l0.05,-0.05c0.667,-0.428 1.236,-0.998 1.665,-1.665Z"/><path d="M253.339,162.835c0,1.999 -1.643,3.688 -3.67,3.688c-2.026,0 -3.669,-1.689 -3.669,-3.688c0,-1.999 1.643,-3.688 3.669,-3.688c2.027,0 3.67,1.689 3.67,3.688" style="fill-rule:nonzero;"/><path d="M254.937,161.59l5.439,0l0,-2.426l3.672,3.671l-3.672,3.672l0,-2.426l-5.44,0c0.096,-0.401 0.147,-0.819 0.147,-1.246c0,-0.427 -0.051,-0.844 -0.146,-1.245Z"/><path d="M252.551,158.241l-0.048,-0.048l3.472,-3.472l-1.721,-1.721l5.204,0l0,5.204l-1.721,-1.721l-3.472,3.472l-0.046,-0.046c-0.429,-0.668 -0.999,-1.24 -1.668,-1.668Z"/></svg>