<?xml version="1.0" encoding="UTF-8" standalone="no"?><!DOCTYPE svg PUBLIC "-//W3C//DTD SVG 1.1//EN" "http://www.w3.org/Graphics/SVG/1.1/DTD/svg11.dtd"><svg width="100%" height="100%" viewBox="0 0 108 108" version="1.1" xmlns="http://www.w3.org/2000/svg" xmlns:xlink="http://www.w3.org/1999/xlink" xml:space="preserve" xmlns:serif="http://www.serif.com/" style="fill-rule:evenodd;clip-rule:evenodd;stroke-linejoin:round;stroke-miterlimit:1.41421;"><g id="OrderBilled-arrow"><path id="email-3-icon" d="M57.338,50.328l-15.631,3.415l18.344,-18.345l-2.713,14.93Zm2.229,2.229l-15.855,3.271l10.089,10.089l18.384,-18.385l-10.07,-10.07l-2.548,15.095Z" style="fill:#737373;fill-rule:nonzero;"/><path d="M9.845,93.516l3.965,-3.965c1.414,1.414 2.829,2.829 4.243,4.243l-3.965,3.964l3.936,3.936l-18.024,6.008l6.008,-18.024l3.837,3.838Zm20.936,-12.45l-8.486,8.485l-4.242,-4.243l8.485,-8.485c1.414,1.414 2.828,2.829 4.243,4.243Zm12.728,-12.728l-8.486,8.485l-4.242,-4.242l8.485,-8.486c1.414,1.414 2.828,2.829 4.243,4.243Zm26.165,-34.651l7.776,-7.776c1.414,1.415 2.828,2.829 4.242,4.243l-7.775,7.776l-4.243,-4.243Zm24.746,-16.261l-8.485,8.485l-4.243,-4.242l8.486,-8.485c1.414,1.414 2.828,2.828 4.242,4.242Zm12.728,-12.728l-8.485,8.486l-4.243,-4.243l8.486,-8.485c1.414,1.414 2.828,2.828 4.242,4.242Z" style="fill:#737373;fill-rule:nonzero;"/></g></svg>