<?xml version="1.0" encoding="UTF-8" standalone="no"?><!DOCTYPE svg PUBLIC "-//W3C//DTD SVG 1.1//EN" "http://www.w3.org/Graphics/SVG/1.1/DTD/svg11.dtd"><svg width="100%" height="100%" viewBox="0 0 119 25" version="1.1" xmlns="http://www.w3.org/2000/svg" xmlns:xlink="http://www.w3.org/1999/xlink" xml:space="preserve" xmlns:serif="http://www.serif.com/" style="fill-rule:evenodd;clip-rule:evenodd;stroke-linejoin:round;stroke-miterlimit:1.41421;"><g id="saga-completed"><rect x="0" y="0" width="119" height="25"/><g><g><path d="M12.594,10.819c-1.606,-0.64 -2.797,-1.752 -2.797,-4.819l-1.797,0c0,4.572 2.314,5.987 4.594,6.728l0,-1.909Z" style="fill:#fff;fill-rule:nonzero;"/><path d="M20.491,16.896c-0.472,-3.291 -2.393,-4.415 -4.415,-5.044l0,1.899c1.348,0.505 2.292,1.348 2.618,3.268l-1.056,0.023l2.078,3.336l1.864,-3.482l-1.089,0Z" style="fill:#fff;fill-rule:nonzero;"/></g><path d="M15.29,17.008l0,-11.008l-1.91,0l0,11.008l-1.055,0l1.965,3.37l1.977,-3.37l-0.977,0Z" style="fill:#999;fill-rule:nonzero;"/></g><g><path d="M26.468,14.119l1.547,-0.151c0.093,0.519 0.282,0.901 0.567,1.144c0.285,0.244 0.669,0.365 1.152,0.365c0.512,0 0.898,-0.108 1.157,-0.325c0.26,-0.216 0.39,-0.469 0.39,-0.76c0,-0.186 -0.055,-0.344 -0.164,-0.475c-0.109,-0.131 -0.3,-0.244 -0.572,-0.341c-0.186,-0.064 -0.611,-0.179 -1.273,-0.344c-0.852,-0.211 -1.45,-0.471 -1.794,-0.778c-0.483,-0.434 -0.725,-0.962 -0.725,-1.585c0,-0.401 0.114,-0.776 0.341,-1.125c0.227,-0.349 0.555,-0.615 0.983,-0.798c0.428,-0.182 0.944,-0.274 1.55,-0.274c0.988,0 1.732,0.217 2.231,0.65c0.5,0.433 0.762,1.012 0.787,1.735l-1.59,0.07c-0.068,-0.405 -0.214,-0.696 -0.437,-0.873c-0.224,-0.177 -0.56,-0.266 -1.008,-0.266c-0.461,0 -0.823,0.095 -1.085,0.285c-0.168,0.122 -0.252,0.285 -0.252,0.489c0,0.186 0.079,0.345 0.236,0.478c0.201,0.168 0.688,0.343 1.461,0.526c0.774,0.183 1.346,0.372 1.716,0.567c0.371,0.195 0.661,0.462 0.87,0.8c0.21,0.338 0.315,0.756 0.315,1.254c0,0.451 -0.126,0.874 -0.376,1.268c-0.251,0.394 -0.605,0.686 -1.064,0.878c-0.458,0.191 -1.029,0.287 -1.713,0.287c-0.996,0 -1.76,-0.23 -2.294,-0.69c-0.533,-0.46 -0.852,-1.131 -0.956,-2.011Z" style="fill:#fff;fill-rule:nonzero;"/><path d="M35.325,12.717l-1.369,-0.247c0.154,-0.552 0.419,-0.96 0.795,-1.225c0.376,-0.265 0.934,-0.397 1.675,-0.397c0.674,0 1.175,0.079 1.504,0.239c0.33,0.159 0.562,0.361 0.696,0.606c0.134,0.246 0.201,0.696 0.201,1.351l-0.016,1.762c0,0.501 0.024,0.871 0.073,1.109c0.048,0.238 0.138,0.493 0.271,0.766l-1.493,0c-0.04,-0.101 -0.088,-0.249 -0.145,-0.446c-0.025,-0.09 -0.043,-0.149 -0.054,-0.177c-0.258,0.25 -0.534,0.438 -0.827,0.563c-0.294,0.126 -0.607,0.188 -0.94,0.188c-0.587,0 -1.05,-0.159 -1.389,-0.478c-0.338,-0.318 -0.507,-0.721 -0.507,-1.208c0,-0.322 0.077,-0.61 0.231,-0.862c0.154,-0.253 0.37,-0.446 0.647,-0.58c0.278,-0.134 0.678,-0.252 1.2,-0.352c0.706,-0.132 1.195,-0.256 1.467,-0.371l0,-0.15c0,-0.29 -0.072,-0.497 -0.215,-0.62c-0.143,-0.124 -0.414,-0.186 -0.811,-0.186c-0.269,0 -0.478,0.053 -0.628,0.159c-0.151,0.105 -0.273,0.291 -0.366,0.556Zm2.02,1.224c-0.194,0.065 -0.5,0.142 -0.919,0.231c-0.419,0.09 -0.693,0.177 -0.821,0.263c-0.197,0.14 -0.296,0.317 -0.296,0.532c0,0.211 0.079,0.394 0.236,0.548c0.158,0.154 0.359,0.231 0.602,0.231c0.272,0 0.532,-0.09 0.779,-0.269c0.182,-0.136 0.302,-0.302 0.36,-0.499c0.039,-0.129 0.059,-0.374 0.059,-0.736l0,-0.301Z" style="fill:#fff;fill-rule:nonzero;"/><path d="M40.175,17.057l1.724,0.209c0.029,0.201 0.095,0.338 0.199,0.414c0.143,0.107 0.369,0.161 0.677,0.161c0.394,0 0.689,-0.059 0.886,-0.178c0.133,-0.078 0.233,-0.205 0.301,-0.381c0.047,-0.125 0.07,-0.356 0.07,-0.693l0,-0.832c-0.451,0.616 -1.021,0.924 -1.708,0.924c-0.766,0 -1.373,-0.325 -1.821,-0.973c-0.351,-0.512 -0.526,-1.149 -0.526,-1.912c0,-0.956 0.23,-1.686 0.69,-2.191c0.46,-0.505 1.032,-0.757 1.716,-0.757c0.705,0 1.287,0.309 1.745,0.929l0,-0.801l1.413,0l0,5.119c0,0.673 -0.055,1.176 -0.166,1.509c-0.111,0.333 -0.267,0.595 -0.468,0.785c-0.2,0.189 -0.468,0.338 -0.803,0.445c-0.334,0.108 -0.758,0.161 -1.27,0.161c-0.967,0 -1.652,-0.165 -2.057,-0.496c-0.405,-0.332 -0.607,-0.751 -0.607,-1.26c0,-0.05 0.002,-0.111 0.005,-0.182Zm1.349,-3.347c0,0.605 0.117,1.049 0.351,1.33c0.235,0.281 0.524,0.421 0.868,0.421c0.369,0 0.68,-0.144 0.934,-0.432c0.255,-0.288 0.382,-0.715 0.382,-1.281c0,-0.591 -0.122,-1.03 -0.366,-1.316c-0.243,-0.286 -0.551,-0.43 -0.923,-0.43c-0.362,0 -0.66,0.141 -0.895,0.422c-0.234,0.281 -0.351,0.71 -0.351,1.286Z" style="fill:#fff;fill-rule:nonzero;"/><path d="M48.162,12.717l-1.369,-0.247c0.154,-0.552 0.419,-0.96 0.794,-1.225c0.376,-0.265 0.935,-0.397 1.676,-0.397c0.673,0 1.175,0.079 1.504,0.239c0.33,0.159 0.561,0.361 0.696,0.606c0.134,0.246 0.201,0.696 0.201,1.351l-0.016,1.762c0,0.501 0.024,0.871 0.073,1.109c0.048,0.238 0.138,0.493 0.271,0.766l-1.493,0c-0.04,-0.101 -0.088,-0.249 -0.145,-0.446c-0.025,-0.09 -0.043,-0.149 -0.054,-0.177c-0.258,0.25 -0.534,0.438 -0.827,0.563c-0.294,0.126 -0.607,0.188 -0.94,0.188c-0.587,0 -1.05,-0.159 -1.389,-0.478c-0.338,-0.318 -0.507,-0.721 -0.507,-1.208c0,-0.322 0.077,-0.61 0.231,-0.862c0.154,-0.253 0.369,-0.446 0.647,-0.58c0.277,-0.134 0.678,-0.252 1.2,-0.352c0.706,-0.132 1.195,-0.256 1.467,-0.371l0,-0.15c0,-0.29 -0.072,-0.497 -0.215,-0.62c-0.143,-0.124 -0.414,-0.186 -0.811,-0.186c-0.269,0 -0.478,0.053 -0.629,0.159c-0.15,0.105 -0.272,0.291 -0.365,0.556Zm2.02,1.224c-0.194,0.065 -0.5,0.142 -0.919,0.231c-0.419,0.09 -0.693,0.177 -0.822,0.263c-0.196,0.14 -0.295,0.317 -0.295,0.532c0,0.211 0.079,0.394 0.236,0.548c0.158,0.154 0.358,0.231 0.602,0.231c0.272,0 0.532,-0.09 0.779,-0.269c0.182,-0.136 0.302,-0.302 0.36,-0.499c0.039,-0.129 0.059,-0.374 0.059,-0.736l0,-0.301Z" style="fill:#fff;fill-rule:nonzero;"/><path d="M61.182,12.663l-1.488,0.269c-0.05,-0.298 -0.164,-0.521 -0.341,-0.672c-0.177,-0.15 -0.407,-0.225 -0.69,-0.225c-0.376,0 -0.676,0.129 -0.9,0.389c-0.224,0.26 -0.336,0.694 -0.336,1.302c0,0.677 0.114,1.155 0.341,1.435c0.228,0.279 0.533,0.418 0.916,0.418c0.287,0 0.521,-0.081 0.704,-0.244c0.182,-0.163 0.311,-0.443 0.386,-0.84l1.483,0.252c-0.154,0.68 -0.449,1.194 -0.886,1.541c-0.437,0.348 -1.023,0.521 -1.757,0.521c-0.834,0 -1.499,-0.263 -1.995,-0.789c-0.496,-0.526 -0.744,-1.255 -0.744,-2.186c0,-0.942 0.249,-1.675 0.747,-2.2c0.497,-0.524 1.171,-0.786 2.019,-0.786c0.695,0 1.247,0.149 1.657,0.448c0.41,0.299 0.705,0.755 0.884,1.367Z" style="fill:#fff;fill-rule:nonzero;"/><path d="M61.977,13.748c0,-0.501 0.123,-0.987 0.37,-1.456c0.247,-0.469 0.597,-0.827 1.05,-1.074c0.453,-0.247 0.959,-0.37 1.518,-0.37c0.863,0 1.57,0.28 2.121,0.84c0.552,0.561 0.827,1.269 0.827,2.124c0,0.863 -0.278,1.579 -0.835,2.146c-0.557,0.568 -1.258,0.851 -2.103,0.851c-0.522,0 -1.021,-0.118 -1.495,-0.354c-0.475,-0.236 -0.836,-0.583 -1.083,-1.039c-0.247,-0.457 -0.37,-1.013 -0.37,-1.668Zm1.547,0.081c0,0.565 0.134,0.999 0.402,1.299c0.269,0.301 0.6,0.451 0.994,0.451c0.394,0 0.724,-0.15 0.991,-0.451c0.267,-0.3 0.4,-0.737 0.4,-1.31c0,-0.559 -0.133,-0.989 -0.4,-1.289c-0.267,-0.301 -0.597,-0.451 -0.991,-0.451c-0.394,0 -0.725,0.15 -0.994,0.451c-0.268,0.3 -0.402,0.734 -0.402,1.3Z" style="fill:#fff;fill-rule:nonzero;"/><path d="M68.932,10.976l1.391,0l0,0.779c0.498,-0.605 1.091,-0.907 1.778,-0.907c0.365,0 0.682,0.075 0.951,0.225c0.268,0.151 0.489,0.378 0.66,0.682c0.251,-0.304 0.521,-0.531 0.812,-0.682c0.29,-0.15 0.599,-0.225 0.929,-0.225c0.419,0 0.773,0.085 1.063,0.255c0.29,0.17 0.507,0.42 0.65,0.749c0.104,0.243 0.156,0.637 0.156,1.182l0,3.647l-1.509,0l0,-3.261c0,-0.565 -0.052,-0.931 -0.156,-1.095c-0.14,-0.215 -0.355,-0.323 -0.645,-0.323c-0.211,0 -0.41,0.065 -0.596,0.194c-0.186,0.129 -0.32,0.317 -0.403,0.566c-0.082,0.249 -0.123,0.642 -0.123,1.179l0,2.74l-1.51,0l0,-3.126c0,-0.555 -0.026,-0.914 -0.08,-1.075c-0.054,-0.161 -0.137,-0.281 -0.25,-0.36c-0.113,-0.078 -0.266,-0.118 -0.459,-0.118c-0.233,0 -0.442,0.063 -0.629,0.188c-0.186,0.126 -0.319,0.306 -0.4,0.543c-0.08,0.236 -0.121,0.628 -0.121,1.176l0,2.772l-1.509,0l0,-5.705Z" style="fill:#fff;fill-rule:nonzero;"/><path d="M78.783,10.976l1.407,0l0,0.838c0.183,-0.286 0.43,-0.519 0.741,-0.698c0.312,-0.179 0.657,-0.268 1.037,-0.268c0.662,0 1.224,0.259 1.686,0.778c0.462,0.52 0.693,1.243 0.693,2.17c0,0.953 -0.233,1.693 -0.698,2.221c-0.465,0.528 -1.029,0.792 -1.692,0.792c-0.315,0 -0.601,-0.062 -0.857,-0.188c-0.256,-0.125 -0.525,-0.34 -0.808,-0.644l0,2.873l-1.509,0l0,-7.874Zm1.493,2.756c0,0.641 0.127,1.114 0.381,1.42c0.255,0.307 0.564,0.46 0.93,0.46c0.35,0 0.642,-0.141 0.875,-0.422c0.233,-0.281 0.349,-0.742 0.349,-1.383c0,-0.598 -0.12,-1.042 -0.36,-1.332c-0.24,-0.29 -0.537,-0.435 -0.891,-0.435c-0.369,0 -0.675,0.142 -0.919,0.427c-0.243,0.285 -0.365,0.706 -0.365,1.265Z" style="fill:#fff;fill-rule:nonzero;"/><rect x="85.545" y="8.807" width="1.509" height="7.874" style="fill:#fff;fill-rule:nonzero;"/><path d="M91.904,14.865l1.504,0.253c-0.193,0.551 -0.498,0.971 -0.915,1.259c-0.418,0.288 -0.94,0.432 -1.566,0.432c-0.992,0 -1.726,-0.324 -2.202,-0.972c-0.376,-0.519 -0.564,-1.174 -0.564,-1.966c0,-0.945 0.247,-1.685 0.741,-2.22c0.494,-0.536 1.119,-0.803 1.874,-0.803c0.849,0 1.519,0.28 2.009,0.84c0.491,0.561 0.725,1.419 0.704,2.576l-3.781,0c0.01,0.447 0.132,0.795 0.365,1.044c0.233,0.249 0.523,0.374 0.87,0.374c0.236,0 0.435,-0.065 0.596,-0.194c0.161,-0.129 0.283,-0.336 0.365,-0.623Zm0.086,-1.525c-0.01,-0.437 -0.123,-0.769 -0.338,-0.997c-0.215,-0.227 -0.476,-0.341 -0.784,-0.341c-0.33,0 -0.602,0.12 -0.817,0.36c-0.214,0.24 -0.32,0.566 -0.317,0.978l2.256,0Z" style="fill:#fff;fill-rule:nonzero;"/><path d="M97.335,10.976l0,1.204l-1.032,0l0,2.298c0,0.466 0.01,0.737 0.03,0.814c0.02,0.077 0.064,0.141 0.134,0.191c0.07,0.05 0.155,0.075 0.255,0.075c0.14,0 0.342,-0.048 0.607,-0.145l0.129,1.171c-0.351,0.15 -0.748,0.225 -1.192,0.225c-0.272,0 -0.518,-0.045 -0.736,-0.137c-0.219,-0.091 -0.379,-0.209 -0.481,-0.354c-0.102,-0.145 -0.173,-0.341 -0.212,-0.588c-0.032,-0.176 -0.048,-0.53 -0.048,-1.064l0,-2.486l-0.693,0l0,-1.204l0.693,0l0,-1.133l1.514,-0.881l0,2.014l1.032,0Z" style="fill:#fff;fill-rule:nonzero;"/><path d="M101.685,14.865l1.504,0.253c-0.193,0.551 -0.499,0.971 -0.916,1.259c-0.417,0.288 -0.939,0.432 -1.565,0.432c-0.992,0 -1.726,-0.324 -2.203,-0.972c-0.376,-0.519 -0.564,-1.174 -0.564,-1.966c0,-0.945 0.248,-1.685 0.742,-2.22c0.494,-0.536 1.119,-0.803 1.874,-0.803c0.849,0 1.518,0.28 2.009,0.84c0.491,0.561 0.725,1.419 0.704,2.576l-3.782,0c0.011,0.447 0.133,0.795 0.366,1.044c0.232,0.249 0.522,0.374 0.87,0.374c0.236,0 0.435,-0.065 0.596,-0.194c0.161,-0.129 0.283,-0.336 0.365,-0.623Zm0.086,-1.525c-0.011,-0.437 -0.123,-0.769 -0.338,-0.997c-0.215,-0.227 -0.477,-0.341 -0.784,-0.341c-0.33,0 -0.602,0.12 -0.817,0.36c-0.215,0.24 -0.32,0.566 -0.317,0.978l2.256,0Z" style="fill:#fff;fill-rule:nonzero;"/><path d="M109.731,16.681l-1.402,0l0,-0.838c-0.233,0.326 -0.507,0.568 -0.824,0.727c-0.317,0.16 -0.637,0.239 -0.959,0.239c-0.655,0 -1.217,-0.264 -1.684,-0.792c-0.467,-0.528 -0.701,-1.265 -0.701,-2.21c0,-0.967 0.228,-1.702 0.682,-2.205c0.455,-0.503 1.03,-0.754 1.724,-0.754c0.638,0 1.189,0.265 1.655,0.794l0,-2.835l1.509,0l0,7.874Zm-4.028,-2.976c0,0.609 0.084,1.049 0.252,1.321c0.244,0.394 0.584,0.591 1.021,0.591c0.347,0 0.642,-0.148 0.886,-0.443c0.243,-0.295 0.365,-0.737 0.365,-1.324c0,-0.655 -0.118,-1.127 -0.354,-1.415c-0.237,-0.289 -0.539,-0.433 -0.908,-0.433c-0.358,0 -0.658,0.143 -0.9,0.427c-0.241,0.285 -0.362,0.71 -0.362,1.276Z" style="fill:#fff;fill-rule:nonzero;"/></g></g></svg>