<?xml version="1.0" encoding="UTF-8" standalone="no"?><!DOCTYPE svg PUBLIC "-//W3C//DTD SVG 1.1//EN" "http://www.w3.org/Graphics/SVG/1.1/DTD/svg11.dtd"><svg width="100%" height="100%" viewBox="0 0 114 172" version="1.1" xmlns="http://www.w3.org/2000/svg" xmlns:xlink="http://www.w3.org/1999/xlink" xml:space="preserve" xmlns:serif="http://www.serif.com/" style="fill-rule:evenodd;clip-rule:evenodd;stroke-linejoin:round;stroke-miterlimit:1.41421;"><g id="shipping-endpoint"><g id="Shipping"><rect x="0" y="0.678" width="113.818" height="115.822" style="fill:#3a3a3a;"/><g><path d="M45.921,27l0,9.246l11.155,0l0,13.059l-11.155,0l0,9.255l31.56,0l0,-31.56l-31.56,0Z" style="fill:#fff;fill-rule:nonzero;"/><rect x="36.671" y="38.155" width="18.501" height="9.246" style="fill:#fff;fill-rule:nonzero;"/></g><g><path d="M31.848,77.62l1.688,-0.164c0.101,0.566 0.307,0.982 0.618,1.248c0.31,0.265 0.729,0.398 1.257,0.398c0.558,0 0.979,-0.118 1.262,-0.354c0.284,-0.237 0.425,-0.513 0.425,-0.83c0,-0.203 -0.059,-0.375 -0.178,-0.518c-0.12,-0.143 -0.328,-0.267 -0.624,-0.372c-0.204,-0.07 -0.666,-0.195 -1.389,-0.375c-0.93,-0.231 -1.582,-0.514 -1.957,-0.85c-0.528,-0.472 -0.791,-1.049 -0.791,-1.728c0,-0.438 0.124,-0.847 0.372,-1.228c0.248,-0.381 0.605,-0.671 1.072,-0.87c0.467,-0.199 1.03,-0.299 1.691,-0.299c1.078,0 1.889,0.237 2.434,0.709c0.545,0.473 0.831,1.104 0.859,1.893l-1.735,0.076c-0.074,-0.441 -0.233,-0.759 -0.477,-0.952c-0.245,-0.194 -0.611,-0.29 -1.099,-0.29c-0.504,0 -0.898,0.103 -1.184,0.31c-0.183,0.133 -0.275,0.311 -0.275,0.534c0,0.203 0.086,0.377 0.258,0.521c0.219,0.184 0.75,0.375 1.594,0.574c0.843,0.199 1.467,0.406 1.872,0.618c0.404,0.213 0.72,0.504 0.949,0.873c0.228,0.37 0.343,0.826 0.343,1.369c0,0.492 -0.137,0.953 -0.411,1.382c-0.273,0.43 -0.66,0.749 -1.16,0.958c-0.5,0.209 -1.123,0.314 -1.869,0.314c-1.086,0 -1.92,-0.251 -2.502,-0.753c-0.582,-0.502 -0.929,-1.233 -1.043,-2.194Z" style="fill:#fff;fill-rule:nonzero;"/><path d="M41.921,71.825l0,3.158c0.531,-0.621 1.166,-0.932 1.904,-0.932c0.379,0 0.721,0.071 1.025,0.211c0.305,0.141 0.534,0.321 0.689,0.539c0.154,0.219 0.259,0.461 0.316,0.727c0.057,0.265 0.085,0.678 0.085,1.236l0,3.651l-1.646,0l0,-3.288c0,-0.652 -0.032,-1.066 -0.094,-1.242c-0.063,-0.175 -0.173,-0.315 -0.331,-0.419c-0.158,-0.103 -0.357,-0.155 -0.595,-0.155c-0.273,0 -0.518,0.066 -0.732,0.199c-0.215,0.133 -0.372,0.333 -0.472,0.601c-0.1,0.267 -0.149,0.663 -0.149,1.186l0,3.118l-1.647,0l0,-8.59l1.647,0Z" style="fill:#fff;fill-rule:nonzero;"/><path d="M47.61,73.348l0,-1.523l1.646,0l0,1.523l-1.646,0Zm0,7.067l0,-6.223l1.646,0l0,6.223l-1.646,0Z" style="fill:#fff;fill-rule:nonzero;"/><path d="M50.897,74.192l1.535,0l0,0.914c0.199,-0.313 0.469,-0.566 0.809,-0.762c0.34,-0.195 0.717,-0.293 1.131,-0.293c0.722,0 1.336,0.284 1.84,0.85c0.503,0.566 0.755,1.355 0.755,2.367c0,1.039 -0.254,1.847 -0.761,2.423c-0.508,0.576 -1.123,0.864 -1.846,0.864c-0.344,0 -0.655,-0.068 -0.935,-0.205c-0.279,-0.137 -0.573,-0.371 -0.881,-0.703l0,3.135l-1.647,0l0,-8.59Zm1.629,3.006c0,0.699 0.139,1.216 0.416,1.55c0.277,0.334 0.615,0.501 1.014,0.501c0.382,0 0.701,-0.154 0.955,-0.46c0.254,-0.307 0.381,-0.81 0.381,-1.509c0,-0.653 -0.131,-1.137 -0.393,-1.453c-0.262,-0.317 -0.586,-0.475 -0.973,-0.475c-0.402,0 -0.736,0.155 -1.002,0.466c-0.265,0.31 -0.398,0.77 -0.398,1.38Z" style="fill:#fff;fill-rule:nonzero;"/><path d="M58.227,74.192l1.535,0l0,0.914c0.2,-0.313 0.469,-0.566 0.809,-0.762c0.34,-0.195 0.717,-0.293 1.131,-0.293c0.722,0 1.336,0.284 1.84,0.85c0.504,0.566 0.755,1.355 0.755,2.367c0,1.039 -0.253,1.847 -0.761,2.423c-0.508,0.576 -1.123,0.864 -1.846,0.864c-0.344,0 -0.655,-0.068 -0.935,-0.205c-0.279,-0.137 -0.573,-0.371 -0.881,-0.703l0,3.135l-1.647,0l0,-8.59Zm1.629,3.006c0,0.699 0.139,1.216 0.416,1.55c0.277,0.334 0.615,0.501 1.014,0.501c0.383,0 0.701,-0.154 0.955,-0.46c0.254,-0.307 0.381,-0.81 0.381,-1.509c0,-0.653 -0.131,-1.137 -0.393,-1.453c-0.262,-0.317 -0.586,-0.475 -0.973,-0.475c-0.402,0 -0.736,0.155 -1.001,0.466c-0.266,0.31 -0.399,0.77 -0.399,1.38Z" style="fill:#fff;fill-rule:nonzero;"/><path d="M65.604,73.348l0,-1.523l1.647,0l0,1.523l-1.647,0Zm0,7.067l0,-6.223l1.647,0l0,6.223l-1.647,0Z" style="fill:#fff;fill-rule:nonzero;"/><path d="M74.598,80.415l-1.646,0l0,-3.176c0,-0.672 -0.035,-1.107 -0.106,-1.304c-0.07,-0.197 -0.184,-0.35 -0.342,-0.46c-0.159,-0.109 -0.349,-0.164 -0.572,-0.164c-0.285,0 -0.541,0.078 -0.767,0.234c-0.227,0.157 -0.382,0.364 -0.466,0.622c-0.084,0.257 -0.126,0.734 -0.126,1.429l0,2.819l-1.647,0l0,-6.223l1.53,0l0,0.914c0.543,-0.703 1.226,-1.055 2.05,-1.055c0.364,0 0.696,0.066 0.997,0.197c0.3,0.13 0.528,0.297 0.682,0.501c0.154,0.203 0.262,0.433 0.322,0.691c0.061,0.258 0.091,0.627 0.091,1.107l0,3.868Z" style="fill:#fff;fill-rule:nonzero;"/><path d="M76.116,80.825l1.881,0.228c0.031,0.219 0.103,0.369 0.216,0.451c0.157,0.118 0.403,0.176 0.739,0.176c0.429,0 0.752,-0.064 0.967,-0.193c0.144,-0.086 0.253,-0.225 0.328,-0.416c0.05,-0.137 0.076,-0.389 0.076,-0.756l0,-0.908c-0.492,0.672 -1.113,1.008 -1.863,1.008c-0.836,0 -1.498,-0.354 -1.987,-1.061c-0.383,-0.559 -0.574,-1.254 -0.574,-2.086c0,-1.043 0.251,-1.84 0.753,-2.391c0.502,-0.55 1.126,-0.826 1.872,-0.826c0.77,0 1.404,0.338 1.904,1.014l0,-0.873l1.541,0l0,5.584c0,0.734 -0.06,1.283 -0.181,1.646c-0.121,0.364 -0.291,0.649 -0.51,0.856c-0.219,0.207 -0.511,0.369 -0.876,0.486c-0.365,0.117 -0.827,0.176 -1.386,0.176c-1.054,0 -1.803,-0.181 -2.244,-0.542c-0.441,-0.361 -0.662,-0.819 -0.662,-1.374c0,-0.055 0.002,-0.121 0.006,-0.199Zm1.471,-3.651c0,0.661 0.127,1.144 0.383,1.451c0.256,0.306 0.572,0.46 0.947,0.46c0.402,0 0.742,-0.158 1.019,-0.472c0.277,-0.315 0.416,-0.78 0.416,-1.398c0,-0.644 -0.133,-1.123 -0.398,-1.435c-0.266,-0.313 -0.602,-0.469 -1.008,-0.469c-0.395,0 -0.72,0.153 -0.976,0.46c-0.256,0.307 -0.383,0.774 -0.383,1.403Z" style="fill:#fff;fill-rule:nonzero;"/><path d="M34.338,94.415l0,-8.59l6.211,0l0,1.013l-5.074,0l0,2.631l4.752,0l0,1.008l-4.752,0l0,2.924l5.274,0l0,1.014l-6.411,0Z" style="fill:#bfbfbf;fill-rule:nonzero;"/><path d="M42.184,94.415l0,-6.223l0.949,0l0,0.885c0.457,-0.684 1.118,-1.026 1.981,-1.026c0.375,0 0.72,0.068 1.034,0.202c0.315,0.135 0.55,0.312 0.706,0.531c0.156,0.218 0.266,0.478 0.328,0.779c0.039,0.195 0.059,0.537 0.059,1.025l0,3.827l-1.055,0l0,-3.786c0,-0.429 -0.041,-0.751 -0.123,-0.963c-0.082,-0.213 -0.227,-0.383 -0.436,-0.51c-0.209,-0.127 -0.455,-0.191 -0.736,-0.191c-0.449,0 -0.837,0.143 -1.163,0.428c-0.326,0.285 -0.489,0.826 -0.489,1.623l0,3.399l-1.055,0Z" style="fill:#bfbfbf;fill-rule:nonzero;"/><path d="M52.895,94.415l0,-0.786c-0.394,0.618 -0.974,0.926 -1.74,0.926c-0.496,0 -0.952,-0.137 -1.368,-0.41c-0.416,-0.273 -0.739,-0.655 -0.967,-1.145c-0.229,-0.491 -0.343,-1.054 -0.343,-1.691c0,-0.621 0.104,-1.184 0.311,-1.69c0.207,-0.506 0.517,-0.894 0.931,-1.163c0.414,-0.27 0.877,-0.405 1.389,-0.405c0.375,0 0.709,0.079 1.002,0.238c0.293,0.158 0.531,0.364 0.715,0.618l0,-3.082l1.049,0l0,8.59l-0.979,0Zm-3.334,-3.106c0,0.797 0.168,1.393 0.504,1.787c0.336,0.395 0.732,0.592 1.19,0.592c0.46,0 0.852,-0.188 1.174,-0.565c0.323,-0.377 0.484,-0.953 0.484,-1.726c0,-0.852 -0.164,-1.477 -0.492,-1.875c-0.329,-0.398 -0.733,-0.598 -1.213,-0.598c-0.469,0 -0.861,0.192 -1.175,0.575c-0.315,0.382 -0.472,0.986 -0.472,1.81Z" style="fill:#bfbfbf;fill-rule:nonzero;"/><path d="M55.532,96.799l0,-8.607l0.961,0l0,0.809c0.226,-0.317 0.482,-0.554 0.767,-0.712c0.286,-0.159 0.631,-0.238 1.037,-0.238c0.532,0 1,0.137 1.407,0.41c0.406,0.274 0.713,0.66 0.92,1.158c0.207,0.498 0.31,1.044 0.31,1.637c0,0.637 -0.114,1.21 -0.343,1.72c-0.228,0.51 -0.56,0.9 -0.996,1.172c-0.435,0.271 -0.893,0.407 -1.374,0.407c-0.351,0 -0.667,-0.074 -0.946,-0.222c-0.279,-0.149 -0.509,-0.336 -0.688,-0.563l0,3.029l-1.055,0Zm0.955,-5.461c0,0.801 0.162,1.393 0.486,1.776c0.324,0.383 0.717,0.574 1.178,0.574c0.469,0 0.87,-0.198 1.204,-0.595c0.334,-0.396 0.501,-1.01 0.501,-1.842c0,-0.793 -0.163,-1.387 -0.489,-1.782c-0.326,-0.394 -0.716,-0.592 -1.169,-0.592c-0.449,0 -0.847,0.21 -1.193,0.63c-0.345,0.42 -0.518,1.031 -0.518,1.831Z" style="fill:#bfbfbf;fill-rule:nonzero;"/><path d="M61.813,91.303c0,-1.152 0.32,-2.006 0.961,-2.56c0.535,-0.461 1.188,-0.692 1.957,-0.692c0.856,0 1.555,0.281 2.098,0.841c0.543,0.561 0.814,1.335 0.814,2.323c0,0.801 -0.12,1.431 -0.36,1.89c-0.24,0.459 -0.59,0.815 -1.049,1.069c-0.459,0.254 -0.96,0.381 -1.503,0.381c-0.871,0 -1.575,-0.279 -2.112,-0.838c-0.537,-0.558 -0.806,-1.363 -0.806,-2.414Zm1.084,0c0,0.797 0.174,1.394 0.522,1.79c0.347,0.397 0.785,0.595 1.312,0.595c0.524,0 0.959,-0.199 1.307,-0.598c0.347,-0.398 0.521,-1.005 0.521,-1.822c0,-0.769 -0.175,-1.352 -0.524,-1.749c-0.35,-0.396 -0.784,-0.595 -1.304,-0.595c-0.527,0 -0.965,0.198 -1.312,0.592c-0.348,0.395 -0.522,0.99 -0.522,1.787Z" style="fill:#bfbfbf;fill-rule:nonzero;"/><path d="M68.885,87.038l0,-1.213l1.055,0l0,1.213l-1.055,0Zm0,7.377l0,-6.223l1.055,0l0,6.223l-1.055,0Z" style="fill:#bfbfbf;fill-rule:nonzero;"/><path d="M71.546,94.415l0,-6.223l0.949,0l0,0.885c0.457,-0.684 1.117,-1.026 1.98,-1.026c0.375,0 0.72,0.068 1.034,0.202c0.315,0.135 0.55,0.312 0.706,0.531c0.157,0.218 0.266,0.478 0.329,0.779c0.039,0.195 0.058,0.537 0.058,1.025l0,3.827l-1.055,0l0,-3.786c0,-0.429 -0.041,-0.751 -0.123,-0.963c-0.082,-0.213 -0.227,-0.383 -0.436,-0.51c-0.209,-0.127 -0.454,-0.191 -0.735,-0.191c-0.45,0 -0.837,0.143 -1.164,0.428c-0.326,0.285 -0.489,0.826 -0.489,1.623l0,3.399l-1.054,0Z" style="fill:#bfbfbf;fill-rule:nonzero;"/><path d="M80.522,93.471l0.152,0.932c-0.296,0.062 -0.562,0.094 -0.796,0.094c-0.383,0 -0.68,-0.061 -0.891,-0.182c-0.211,-0.121 -0.359,-0.28 -0.445,-0.478c-0.086,-0.197 -0.129,-0.612 -0.129,-1.245l0,-3.58l-0.774,0l0,-0.82l0.774,0l0,-1.541l1.049,-0.633l0,2.174l1.06,0l0,0.82l-1.06,0l0,3.639c0,0.301 0.018,0.494 0.055,0.58c0.037,0.086 0.098,0.154 0.182,0.205c0.084,0.051 0.204,0.076 0.36,0.076c0.117,0 0.272,-0.013 0.463,-0.041Z" style="fill:#bfbfbf;fill-rule:nonzero;"/></g></g><rect x="0" y="118" width="113.818" height="54" style="fill:#3a3a3a;"/></g></svg>