<?xml version="1.0" encoding="UTF-8" standalone="no"?><!DOCTYPE svg PUBLIC "-//W3C//DTD SVG 1.1//EN" "http://www.w3.org/Graphics/SVG/1.1/DTD/svg11.dtd"><svg width="100%" height="100%" viewBox="0 0 726 447" version="1.1" xmlns="http://www.w3.org/2000/svg" xmlns:xlink="http://www.w3.org/1999/xlink" xml:space="preserve" xmlns:serif="http://www.serif.com/" style="fill-rule:evenodd;clip-rule:evenodd;stroke-miterlimit:8;"><rect id="Page-2" serif:id="Page 2" x="0" y="0" width="725.019" height="446.628" style="fill:none;"/><clipPath id="_clip1"><rect x="0" y="0" width="725.019" height="446.628"/></clipPath><g clip-path="url(#_clip1)"><rect x="-67.786" y="-56.116" width="960" height="540" style="fill:#fff;"/><path d="M160.903,1.272l101.698,0c2.199,0 3.982,1.783 3.982,3.982l0,41.585c0,2.199 -1.783,3.982 -3.982,3.982l-101.698,0c-2.2,0 -3.983,-1.783 -3.983,-3.982l0,-41.585c0,-2.199 1.783,-3.982 3.983,-3.982Z" style="fill-rule:nonzero;"/><path d="M457.915,0.446l101.822,0c2.2,0 3.983,1.783 3.983,3.983l0,42.41c0,2.199 -1.783,3.982 -3.983,3.982l-101.822,0c-2.2,0 -3.983,-1.783 -3.983,-3.982l0,-42.41c0,-2.2 1.783,-3.983 3.983,-3.983Z" style="fill-rule:nonzero;"/><path d="M617.73,1.055l101.989,0c2.2,0 3.983,1.784 3.983,3.983l0,41.801c0,2.199 -1.783,3.982 -3.983,3.982l-101.989,0c-2.2,0 -3.983,-1.783 -3.983,-3.982l0,-41.801c0,-2.199 1.783,-3.983 3.983,-3.983Z" style="fill-rule:nonzero;"/><path d="M211.752,128.292l-29.536,-29.536l29.536,-29.536l29.536,29.536l-29.536,29.536Z" style="fill:#d2d2d2;"/><path d="M668.724,175.547l-29.536,-29.536l29.536,-29.536l29.537,29.536l-29.537,29.536Z" style="fill:#d2d2d2;"/><g transform="matrix(1,0,0,1,-67.7857,-56.1159)"><text x="236px" y="78px" style="font-family:'Arial-BoldMT', 'Arial', sans-serif;font-weight:700;font-size:16px;fill:#fff;">On premise</text><text x="257px" y="97px" style="font-family:'ArialMT', 'Arial', sans-serif;font-size:12px;fill:#fff;">endpoint</text></g><g transform="matrix(1,0,0,1,-67.7857,-56.1159)"><text x="551px" y="79px" style="font-family:'Arial-BoldMT', 'Arial', sans-serif;font-weight:700;font-size:16px;fill:#fff;">Hybrid</text><text x="554px" y="98px" style="font-family:'ArialMT', 'Arial', sans-serif;font-size:12px;fill:#fff;">endpoint</text></g><g transform="matrix(1,0,0,1,-67.7857,-56.1159)"><text x="714px" y="78px" style="font-family:'Arial-BoldMT', 'Arial', sans-serif;font-weight:700;font-size:16px;fill:#fff;">Cloud</text><text x="713px" y="97px" style="font-family:'ArialMT', 'Arial', sans-serif;font-size:12px;fill:#fff;">endpoint</text></g><text x="197.214px" y="101.884px" style="font-family:'ArialMT', 'Arial', sans-serif;font-size:8px;">Interop?</text><g transform="matrix(1,0,0,1,-67.7857,-56.1159)"><text x="725px" y="196px" style="font-family:'ArialMT', 'Arial', sans-serif;font-size:8px;">Which</text><text x="727px" y="205px" style="font-family:'ArialMT', 'Arial', sans-serif;font-size:8px;">cloud</text><text x="720px" y="214px" style="font-family:'ArialMT', 'Arial', sans-serif;font-size:8px;">provider?</text></g><path d="M211.752,50.817l0,18.408" style="fill:none;stroke:#000;stroke-width:2.25px;"/><path d="M668.724,50.811l0,65.669" style="fill:none;stroke:#000;stroke-width:2.25px;"/><path d="M182.214,98.684l-150.7,0l0,55.844l0,1.125" style="fill:none;stroke:#000;stroke-width:2.25px;"/><path d="M31.514,161.784l6.365,-10.933c0.405,-0.696 0.169,-1.589 -0.527,-1.994c-0.696,-0.405 -1.589,-0.169 -1.994,0.527l-3.844,6.603l-3.844,-6.603c-0.405,-0.696 -1.297,-0.932 -1.994,-0.527c-0.696,0.405 -0.931,1.298 -0.526,1.994l6.364,10.933Z" style="fill-rule:nonzero;"/><path d="M348.6,222.892c0,16.962 13.772,30.734 30.735,30.734c16.963,0 30.735,-13.772 30.735,-30.734c0,-16.963 -13.772,-30.735 -30.735,-30.735c-16.963,0 -30.735,13.772 -30.735,30.735Z" style="fill:#ffaa19;"/><path d="M0.853,192.549c0,16.963 13.771,30.735 30.734,30.735c16.963,0 30.735,-13.772 30.735,-30.735c0,-16.963 -13.772,-30.735 -30.735,-30.735c-16.963,0 -30.734,13.772 -30.734,30.735Z" style="fill:#ffaa19;"/><path d="M211.752,252.428l-29.536,-29.536l29.536,-29.537l29.536,29.537l-29.536,29.536Z" style="fill:#d2d2d2;"/><path d="M211.752,128.278l0,57.827l0,1.125" style="fill:none;stroke:#000;stroke-width:2.25px;"/><path d="M211.752,193.36l6.364,-10.933c0.406,-0.696 0.17,-1.588 -0.526,-1.994c-0.696,-0.405 -1.589,-0.169 -1.994,0.527l-3.844,6.603l-3.844,-6.603c-0.405,-0.696 -1.298,-0.932 -1.994,-0.527c-0.696,0.406 -0.932,1.298 -0.527,1.994l6.365,10.933Z" style="fill-rule:nonzero;"/><path d="M241.214,98.684l138.1,0l0,86.144l0,1.125" style="fill:none;stroke:#000;stroke-width:2.25px;"/><path d="M379.314,192.084l6.365,-10.933c0.405,-0.696 0.169,-1.589 -0.527,-1.994c-0.696,-0.405 -1.589,-0.169 -1.994,0.527l-3.844,6.603l-3.843,-6.603c-0.406,-0.696 -1.298,-0.932 -1.995,-0.527c-0.696,0.405 -0.931,1.298 -0.526,1.994l6.364,10.933Z" style="fill-rule:nonzero;"/><clipPath id="_clip2"><path d="M348.605,214.523l61.587,0.479l-0.129,16.585l-61.587,-0.479l0.129,-16.585Z" clip-rule="nonzero"/></clipPath><g clip-path="url(#_clip2)"><g transform="matrix(0.99997,0.00777104,-0.00777104,0.99997,-0.438125,0.525071)"><text x="357.881px" y="222.626px" style="font-family:'Arial-BoldMT', 'Arial', sans-serif;font-weight:700;font-size:10px;">RabbitMQ</text></g></g><text x="21.214px" y="195.884px" style="font-family:'ArialMT', 'Arial', sans-serif;font-size:10px;">SQL</text><text x="189.214px" y="225.884px" style="font-family:'ArialMT', 'Arial', sans-serif;font-size:8px;">Throughput?</text><path d="M241.214,222.884l101.17,0" style="fill:none;stroke:#000;stroke-width:2.25px;"/><path d="M348.514,222.884l-10.933,-6.364c-0.696,-0.406 -1.588,-0.17 -1.994,0.526c-0.405,0.696 -0.169,1.589 0.527,1.994l6.603,3.844l-6.603,3.844c-0.696,0.405 -0.932,1.298 -0.527,1.994c0.406,0.696 1.298,0.932 1.994,0.527l10.933,-6.365Z" style="fill-rule:nonzero;"/><path d="M182.214,222.884l-59.8,0l0,7.3l-10.1,0l0,43.844l0,1.125" style="fill:none;stroke:#000;stroke-width:2.25px;"/><path d="M112.314,281.284l6.365,-10.933c0.405,-0.696 0.169,-1.589 -0.527,-1.994c-0.696,-0.405 -1.589,-0.169 -1.994,0.527l-3.844,6.603l-3.843,-6.603c-0.406,-0.696 -1.298,-0.932 -1.995,-0.527c-0.696,0.405 -0.931,1.298 -0.526,1.994l6.364,10.933Z" style="fill-rule:nonzero;"/><path d="M81.645,312.027c0,16.963 13.771,30.735 30.734,30.735c16.963,0 30.735,-13.772 30.735,-30.735c0,-16.963 -13.772,-30.734 -30.735,-30.734c-16.963,0 -30.734,13.771 -30.734,30.734Z" style="fill:#ffaa19;"/><path d="M211.714,252.384l0,104.1" style="fill:none;stroke:#000;stroke-width:2.25px;"/><path d="M211.752,418.562l-31.036,-31.036l31.036,-31.036l31.036,31.036l-31.036,31.036Z" style="fill:#d2d2d2;"/><text x="97.214px" y="314.884px" style="font-family:'Arial-BoldMT', 'Arial', sans-serif;font-weight:700;font-size:10px;">MSMQ</text><text x="187.214px" y="389.884px" style="font-family:'ArialMT', 'Arial', sans-serif;font-size:8px;">Use MSDTC?</text><path d="M112.314,348.815l0,1.125l0,37.544l68.4,0" style="fill:none;stroke:#000;stroke-width:2.25px;"/><path d="M112.314,342.684l-6.364,10.933c-0.405,0.696 -0.17,1.589 0.526,1.994c0.697,0.405 1.589,0.17 1.995,-0.526l3.843,-6.603l3.844,6.603c0.405,0.696 1.298,0.931 1.994,0.526c0.696,-0.405 0.932,-1.298 0.527,-1.994l-6.365,-10.933Z" style="fill-rule:nonzero;"/><path d="M31.514,229.315l0,1.125l0,208.044l180.2,0l0,-20" style="fill:none;stroke:#000;stroke-width:2.25px;"/><path d="M31.514,223.184l-6.364,10.933c-0.405,0.696 -0.17,1.589 0.526,1.994c0.697,0.405 1.589,0.17 1.994,-0.526l3.844,-6.603l3.844,6.603c0.405,0.696 1.298,0.931 1.994,0.526c0.696,-0.405 0.932,-1.298 0.527,-1.994l-6.365,-10.933Z" style="fill-rule:nonzero;"/><path d="M638.296,346.164c0,16.963 13.772,30.735 30.735,30.735c16.963,0 30.734,-13.772 30.734,-30.735c0,-16.962 -13.771,-30.734 -30.734,-30.734c-16.963,0 -30.735,13.772 -30.735,30.734Z" style="fill:#ffaa19;"/><path d="M668.77,175.488l0.203,132.686l0.001,1.125" style="fill:none;stroke:#000;stroke-width:2.25px;"/><path d="M668.984,315.43l6.347,-10.943c0.405,-0.697 0.167,-1.589 -0.529,-1.993c-0.697,-0.404 -1.589,-0.167 -1.993,0.53l-3.834,6.608l-3.854,-6.597c-0.406,-0.695 -1.299,-0.93 -1.995,-0.523c-0.695,0.406 -0.93,1.299 -0.524,1.995l6.382,10.923Z" style="fill-rule:nonzero;"/><path d="M433.462,346.164c0,16.963 13.772,30.735 30.735,30.735c16.963,0 30.734,-13.772 30.734,-30.735c0,-16.962 -13.771,-30.734 -30.734,-30.734c-16.963,0 -30.735,13.772 -30.735,30.734Z" style="fill:#ffaa19;"/><path d="M539.648,175.547l-29.537,-29.536l29.537,-29.536l29.536,29.536l-29.536,29.536Z" style="fill:#d2d2d2;"/><path d="M639.114,145.984l-62.744,0l-1.125,0" style="fill:none;stroke:#000;stroke-width:2.25px;"/><path d="M569.114,145.984l10.933,6.365c0.696,0.405 1.589,0.169 1.994,-0.527c0.406,-0.696 0.17,-1.589 -0.526,-1.994l-6.603,-3.844l6.603,-3.844c0.696,-0.405 0.932,-1.298 0.526,-1.994c-0.405,-0.696 -1.298,-0.932 -1.994,-0.526l-10.933,6.364Z" style="fill-rule:nonzero;"/><path d="M508.913,346.164c0,16.963 13.772,30.735 30.735,30.735c16.963,0 30.734,-13.772 30.734,-30.735c0,-16.962 -13.771,-30.734 -30.734,-30.734c-16.963,0 -30.735,13.772 -30.735,30.734Z" style="fill:#ffaa19;"/><path d="M539.648,175.533l0,132.641l0,1.125" style="fill:none;stroke:#000;stroke-width:2.25px;"/><path d="M539.648,315.43l6.364,-10.933c0.405,-0.696 0.17,-1.589 -0.526,-1.994c-0.697,-0.405 -1.589,-0.17 -1.994,0.526l-3.844,6.603l-3.844,-6.603c-0.405,-0.696 -1.298,-0.931 -1.994,-0.526c-0.696,0.405 -0.932,1.298 -0.527,1.994l6.365,10.933Z" style="fill-rule:nonzero;"/><path d="M510.114,145.984l-46,0l0,162.144l0,1.125" style="fill:none;stroke:#000;stroke-width:2.25px;"/><path d="M464.114,315.384l6.365,-10.933c0.405,-0.696 0.169,-1.589 -0.527,-1.994c-0.696,-0.405 -1.589,-0.169 -1.994,0.527l-3.844,6.603l-3.843,-6.603c-0.406,-0.696 -1.298,-0.932 -1.995,-0.527c-0.696,0.405 -0.931,1.298 -0.526,1.994l6.364,10.933Z" style="fill-rule:nonzero;"/><path d="M508.814,50.784l0,34.2l159.9,0l0,31.4" style="fill:none;stroke:#000;stroke-width:2.25px;"/><rect x="201.485" y="144.922" width="20.533" height="17.423" style="fill:#fff;stroke:#000;stroke-width:0.75px;stroke-linejoin:round;stroke-miterlimit:4;"/><rect x="51.655" y="82.41" width="106.783" height="32.692" style="fill:#fff;stroke:#000;stroke-width:0.75px;stroke-linejoin:round;stroke-miterlimit:4;"/><rect x="265.066" y="82.41" width="69.796" height="32.692" style="fill:#fff;stroke:#000;stroke-width:0.75px;stroke-linejoin:round;stroke-miterlimit:4;"/><rect x="266.961" y="206.546" width="45.533" height="32.692" style="fill:#fff;stroke:#000;stroke-width:0.75px;stroke-linejoin:round;stroke-miterlimit:4;"/><rect x="88.472" y="206.546" width="74.213" height="32.692" style="fill:#fff;stroke:#000;stroke-width:0.75px;stroke-linejoin:round;stroke-miterlimit:4;"/><rect x="163.409" y="295.748" width="96.686" height="17.423" style="fill:#fff;stroke:#000;stroke-width:0.75px;stroke-linejoin:round;stroke-miterlimit:4;"/><rect x="137.121" y="378.815" width="24.063" height="17.423" style="fill:#fff;stroke:#000;stroke-width:0.75px;stroke-linejoin:round;stroke-miterlimit:4;"/><rect x="138.886" y="427.763" width="20.533" height="17.423" style="fill:#fff;stroke:#000;stroke-width:0.75px;stroke-linejoin:round;stroke-miterlimit:4;"/><rect x="646.507" y="190.778" width="44.435" height="17.423" style="fill:#fff;stroke:#000;stroke-width:0.75px;stroke-linejoin:round;stroke-miterlimit:4;"/><rect x="593.319" y="137.3" width="33.873" height="17.423" style="fill:#fff;stroke:#000;stroke-width:0.75px;stroke-linejoin:round;stroke-miterlimit:4;"/><rect x="527.616" y="190.778" width="24.063" height="17.423" style="fill:#fff;stroke:#000;stroke-width:0.75px;stroke-linejoin:round;stroke-miterlimit:4;"/><rect x="476.763" y="137.3" width="20.533" height="17.423" style="fill:#fff;stroke:#000;stroke-width:0.75px;stroke-linejoin:round;stroke-miterlimit:4;"/><g transform="matrix(1,0,0,1,-67.7857,-56.1159)"><text x="717px" y="400px" style="font-family:'Arial-BoldMT', 'Arial', sans-serif;font-weight:700;font-size:10px;">Amazon</text><text x="726px" y="411px" style="font-family:'Arial-BoldMT', 'Arial', sans-serif;font-weight:700;font-size:10px;">SQS</text></g><g transform="matrix(1,0,0,1,-67.7857,-56.1159)"><text x="518px" y="394px" style="font-family:'Arial-BoldMT', 'Arial', sans-serif;font-weight:700;font-size:10px;">Azure</text><text x="513px" y="405px" style="font-family:'Arial-BoldMT', 'Arial', sans-serif;font-weight:700;font-size:10px;">Storage</text><text x="514px" y="416px" style="font-family:'Arial-BoldMT', 'Arial', sans-serif;font-weight:700;font-size:10px;">Queues</text></g><g transform="matrix(1,0,0,1,-67.7857,-56.1159)"><text x="589px" y="200px" style="font-family:'ArialMT', 'Arial', sans-serif;font-size:8px;">Enterprise</text><text x="589px" y="209px" style="font-family:'ArialMT', 'Arial', sans-serif;font-size:8px;">Features?</text></g><g transform="matrix(1,0,0,1,-67.7857,-56.1159)"><text x="594px" y="394px" style="font-family:'Arial-BoldMT', 'Arial', sans-serif;font-weight:700;font-size:10px;">Azure</text><text x="590px" y="405px" style="font-family:'Arial-BoldMT', 'Arial', sans-serif;font-weight:700;font-size:10px;">Service</text><text x="598px" y="416px" style="font-family:'Arial-BoldMT', 'Arial', sans-serif;font-weight:700;font-size:10px;">Bus</text></g><text x="205.214px" y="156.884px" style="font-family:'ArialMT', 'Arial', sans-serif;font-size:10px;">No</text><g transform="matrix(1,0,0,1,-67.7857,-56.1159)"><text x="123px" y="150px" style="font-family:'ArialMT', 'Arial', sans-serif;font-size:10px;">Y</text><text x="128.77px" y="150px" style="font-family:'ArialMT', 'Arial', sans-serif;font-size:10px;">es, with a legacy app</text><text x="134px" y="166px" style="font-family:'ArialMT', 'Arial', sans-serif;font-size:10px;">using SQL</text><text x="183.123px" y="166px" style="font-family:'ArialMT', 'Arial', sans-serif;font-size:10px;">Server</text></g><g transform="matrix(1,0,0,1,-67.7857,-56.1159)"><text x="338px" y="150px" style="font-family:'ArialMT', 'Arial', sans-serif;font-size:10px;">Y</text><text x="343.77px" y="150px" style="font-family:'ArialMT', 'Arial', sans-serif;font-size:10px;">es, with non</text><text x="337px" y="166px" style="font-family:'ArialMT', 'Arial', sans-serif;font-size:10px;">.NET</text><text x="362.357px" y="166px" style="font-family:'ArialMT', 'Arial', sans-serif;font-size:10px;">systems</text></g><g transform="matrix(1,0,0,1,-67.7857,-56.1159)"><text x="339px" y="275px" style="font-family:'ArialMT', 'Arial', sans-serif;font-size:10px;">My main</text><text x="340px" y="290px" style="font-family:'ArialMT', 'Arial', sans-serif;font-size:10px;">concern</text></g><g transform="matrix(1,0,0,1,-67.7857,-56.1159)"><text x="163px" y="275px" style="font-family:'ArialMT', 'Arial', sans-serif;font-size:10px;">Important, but</text><text x="164px" y="290px" style="font-family:'ArialMT', 'Arial', sans-serif;font-size:10px;">no RabbitMQ</text></g><text x="167.214px" y="307.884px" style="font-family:'ArialMT', 'Arial', sans-serif;font-size:10px;">less than 500 msg/s</text><g transform="matrix(1,0,0,1,-67.7857,-56.1159)"><text x="209px" y="447px" style="font-family:'ArialMT', 'Arial', sans-serif;font-size:10px;">Y<tspan x="214.752px " y="447px ">e</tspan></text><text x="220.313px" y="447px" style="font-family:'ArialMT', 'Arial', sans-serif;font-size:10px;">s</text><text x="211px" y="496px" style="font-family:'ArialMT', 'Arial', sans-serif;font-size:10px;">No</text></g><text x="650.214px" y="202.884px" style="font-family:'ArialMT', 'Arial', sans-serif;font-size:10px;">Amazon</text><text x="597.214px" y="148.884px" style="font-family:'ArialMT', 'Arial', sans-serif;font-size:10px;">Azure</text><g transform="matrix(1,0,0,1,-67.7857,-56.1159)"><text x="599px" y="259px" style="font-family:'ArialMT', 'Arial', sans-serif;font-size:10px;">Y<tspan x="604.752px " y="259px ">e</tspan></text><text x="610.313px" y="259px" style="font-family:'ArialMT', 'Arial', sans-serif;font-size:10px;">s</text></g><text x="480.214px" y="148.884px" style="font-family:'ArialMT', 'Arial', sans-serif;font-size:10px;">No</text></g></svg>