<?xml version="1.0" standalone="no"?>
<!DOCTYPE svg PUBLIC "-//W3C//DTD SVG 1.1//EN" "http://www.w3.org/Graphics/SVG/1.1/DTD/svg11.dtd">
<svg width="100%" height="100%" viewBox="0 0 256 256" version="1.1" xmlns="http://www.w3.org/2000/svg" xmlns:xlink="http://www.w3.org/1999/xlink" xml:space="preserve" style="fill-rule:evenodd;clip-rule:evenodd;stroke-linejoin:round;stroke-miterlimit:1.41421;">
    <g id="NSB" transform="matrix(4.01254,0,0,4.01254,-550.119,-417.705)">
        <rect x="137.1" y="104.1" width="63.8" height="63.8" style="fill:rgb(0,114,156);"/>
        <path d="M147.8,157.2L162,128.9L176.1,143L190.3,114.7" style="fill:none;stroke-width:3.99px;stroke:white;"/>
        <g>
            <rect x="144.2" y="111.2" width="7.1" height="7.1" style="fill:rgb(0,163,196);"/>
            <rect x="158.4" y="111.2" width="7.1" height="7.1" style="fill:rgb(0,163,196);"/>
            <rect x="172.6" y="111.2" width="7.1" height="7.1" style="fill:rgb(0,163,196);"/>
            <rect x="158.4" y="125.3" width="7.1" height="7.1" style="fill:rgb(0,163,196);"/>
            <rect x="172.6" y="125.3" width="7.1" height="7.1" style="fill:rgb(0,163,196);"/>
            <rect x="186.7" y="111.2" width="7.1" height="7.1" style="fill:rgb(0,163,196);"/>
            <rect x="186.7" y="125.3" width="7.1" height="7.1" style="fill:rgb(0,163,196);"/>
            <rect x="144.2" y="125.3" width="7.1" height="7.1" style="fill:rgb(0,163,196);"/>
            <rect x="144.2" y="139.5" width="7.1" height="7.1" style="fill:rgb(0,163,196);"/>
            <rect x="158.4" y="139.5" width="7.1" height="7.1" style="fill:rgb(0,163,196);"/>
            <rect x="186.7" y="139.5" width="7.1" height="7.1" style="fill:rgb(0,163,196);"/>
            <rect x="144.2" y="153.6" width="7.1" height="7.1" style="fill:rgb(0,163,196);"/>
            <rect x="158.4" y="153.6" width="7.1" height="7.1" style="fill:rgb(0,163,196);"/>
            <rect x="172.6" y="153.6" width="7.1" height="7.1" style="fill:rgb(0,163,196);"/>
            <rect x="172.6" y="139.5" width="7.1" height="7.1" style="fill:rgb(0,163,196);"/>
            <rect x="186.7" y="153.6" width="7.1" height="7.1" style="fill:rgb(0,163,196);"/>
        </g>
    </g>
</svg>
