<?xml version="1.0" encoding="UTF-8" standalone="no"?>
<!DOCTYPE svg  PUBLIC '-//W3C//DTD SVG 1.1//EN'  'http://www.w3.org/Graphics/SVG/1.1/DTD/svg11.dtd'>
<svg stroke-linejoin="round" xmlns="http://www.w3.org/2000/svg" fill-rule="evenodd" xml:space="preserve" height="100%" width="100%" version="1.1" stroke-miterlimit="1.4142" clip-rule="evenodd" xmlns:xlink="http://www.w3.org/1999/xlink" viewBox="0 0 256 256">
    <g id="SC" transform="matrix(4.0125 0 0 4.0125 -474.28 -417.3)">
                <rect height="63.8" width="63.8" y="104" x="118.2" fill="#92117e"/>
                <g fill="#a84198">
                    <rect height="7.1" width="7.1" y="111.1" x="125.3"/>
                    <rect height="7.1" width="7.1" y="111.1" x="139.5"/>
                    <rect height="7.1" width="7.1" y="111.1" x="153.6"/>
                    <rect height="7.1" width="7.1" y="125.3" x="139.5"/>
                    <rect height="7.1" width="7.1" y="125.3" x="153.6"/>
                    <rect height="7.1" width="7.1" y="111.1" x="167.8"/>
                    <rect height="7.1" width="7.1" y="125.3" x="167.8"/>
                    <rect height="7.1" width="7.1" y="125.3" x="125.3"/>
                    <rect height="7.1" width="7.1" y="139.4" x="125.3"/>
                    <rect height="7.1" width="7.1" y="139.4" x="139.5"/>
                    <rect height="7.1" width="7.1" y="139.4" x="167.8"/>
                    <rect height="7.1" width="7.1" y="153.6" x="125.3"/>
                    <rect height="7.1" width="7.1" y="153.6" x="139.5"/>
                    <rect height="7.1" width="7.1" y="153.6" x="153.6"/>
                    <rect height="7.1" width="7.1" y="139.4" x="153.6"/>
                    <rect height="7.1" width="7.1" y="153.6" x="167.8"/>
                </g>
            <path id="gear-9-icon_1_" fill-rule="nonzero" fill="#fff" d="m158.8 135v-4.3l-2.3-0.8c-0.9-0.3-1.6-1-1.9-1.8-0.4-0.9-0.3-1.8 0.1-2.7l1-2.2-3-3-2.2 1c-0.8 0.4-1.8 0.4-2.7 0.1-0.9-0.4-1.5-1.1-1.8-1.9l-0.8-2.3h-4.3l-0.8 2.3c-0.3 0.9-1 1.6-1.8 1.9-0.9 0.4-1.8 0.3-2.7-0.1l-2.2-1-3 3 1 2.2c0.4 0.8 0.4 1.8 0.1 2.7-0.4 0.9-1.1 1.5-1.9 1.8l-2.3 0.8v4.3l2.3 0.8c0.9 0.3 1.6 1 1.9 1.8 0.4 0.9 0.3 1.8-0.1 2.7l-1 2.2 3 3 2.2-1c0.8-0.4 1.8-0.4 2.7-0.1 0.9 0.4 1.5 1.1 1.8 1.9l0.8 2.3h4.3l0.8-2.3c0.3-0.9 1-1.6 1.9-2s1.8-0.3 2.7 0.1l2.2 1.1 3-3-1-2.2c-0.4-0.8-0.4-1.8-0.1-2.7 0.4-0.9 1.1-1.5 1.9-1.8l2.2-0.8zm-15.8 3.7c-3.2 0-5.8-2.6-5.8-5.8s2.6-5.8 5.8-5.8 5.8 2.6 5.8 5.8-2.6 5.8-5.8 5.8zm30.1 8.8v-2.3l-1.2-0.4c-0.5-0.2-0.8-0.5-1-1s-0.2-1 0-1.4l0.6-1.2-1.6-1.6-1.2 0.6c-0.4 0.2-1 0.2-1.4 0-0.5-0.2-0.8-0.6-1-1l-0.4-1.2h-2.3l-0.4 1.2c-0.2 0.5-0.5 0.8-1 1s-1 0.2-1.4 0l-1.2-0.6-1.6 1.6 0.6 1.2c0.2 0.4 0.2 1 0 1.4-0.2 0.5-0.6 0.8-1 1l-1.2 0.4v2.3l1.2 0.4c0.5 0.2 0.8 0.5 1 1s0.2 1 0 1.4l-0.6 1.2 1.6 1.6 1.2-0.6c0.4-0.2 1-0.2 1.4 0 0.5 0.2 0.8 0.6 1 1l0.4 1.2h2.3l0.4-1.2c0.2-0.5 0.5-0.9 1-1 0.5-0.2 1-0.2 1.4 0l1.2 0.6 1.6-1.6-0.6-1.2c-0.2-0.4-0.2-1 0-1.4 0.2-0.5 0.6-0.8 1-1l1.2-0.4zm-8.4 2c-1.7 0-3.1-1.4-3.1-3.1s1.4-3.1 3.1-3.1 3.1 1.4 3.1 3.1-1.4 3.1-3.1 3.1z"/>
    </g>
</svg>
