<?xml version="1.0" encoding="UTF-8" standalone="no"?>
<!DOCTYPE svg  PUBLIC '-//W3C//DTD SVG 1.1//EN'  'http://www.w3.org/Graphics/SVG/1.1/DTD/svg11.dtd'>
<svg stroke-linejoin="round" xmlns="http://www.w3.org/2000/svg" fill-rule="evenodd" xml:space="preserve" height="100%" width="100%" version="1.1" stroke-miterlimit="1.4142" clip-rule="evenodd" xmlns:xlink="http://www.w3.org/1999/xlink" viewBox="0 0 264 264">
    <g transform="translate(4 4)">
        <g id="SP" transform="matrix(4.0125 0 0 4.0125 -550.52 -417.7)">
                <rect height="63.8" width="63.8" y="104.1" x="137.2" fill="#205b5d"/>
                    <rect height="63.8" width="1" y="104.1" x="143.7" fill="#409393"/>
                    <rect height="63.8" width="1" y="104.1" x="150.8" fill="#409393"/>
                    <rect height="63.8" width="1" y="104.1" x="165.1" fill="#409393"/>
                    <rect height="63.8" width="1" y="104.1" x="172.1" fill="#409393"/>
                    <rect height="63.8" width="1" y="104.1" x="179.2" fill="#409393"/>
                    <rect height="63.8" width="1" y="104.1" x="186.2" fill="#409393"/>
                    <rect height="63.8" width="1" y="104.1" x="193.3" fill="#409393"/>
                    <g transform="matrix(1.0016 0 0 1 -.21538 0)">
                        <rect height="1.001" width="63.7" y="110.7" x="137.2" fill="#409393"/>
                    </g>
                    <g transform="matrix(1.0016 0 0 1 -.21538 0)">
                        <rect height="1.001" width="63.7" y="117.8" x="137.2" fill="#409393"/>
                    </g>
                    <g transform="matrix(1.0016 0 0 1 -.21538 0)">
                        <rect height="1.001" width="63.7" y="132.1" x="137.2" fill="#409393"/>
                    </g>
                    <g transform="matrix(1.0016 0 0 1 -.21538 0)">
                        <rect height="1.001" width="63.7" y="139.1" x="137.2" fill="#409393"/>
                    </g>
                    <g transform="matrix(1.0016 0 0 1 -.21538 0)">
                        <rect height="1.001" width="63.7" y="146.1" x="137.2" fill="#409393"/>
                    </g>
                    <g transform="matrix(1.0016 0 0 1 -.21538 0)">
                        <rect height="1.001" width="63.7" y="153.2" x="137.2" fill="#409393"/>
                    </g>
                    <g transform="matrix(1.0016 0 0 1 -.21538 0)">
                        <rect height="1.001" width="63.7" y="160.3" x="137.2" fill="#409393"/>
                    </g>
                <g transform="matrix(1.0016 0 0 1 -.21538 0)">
                    <rect height="1.001" width="63.7" y="124.9" x="137.2" fill="#409393"/>
                </g>
                <rect height="63.8" width="1" y="104.1" x="157.9" fill="#409393"/>
            <path stroke-width="3.48px" d="m141 137.1h7.2l2.6-6.8 6.1 15.6 3.1-6.9h4.6l4-25.4 5.1 41 3.9-18.6 1.1 2.4h4.9l2-9 3.1 7.6h9.5" stroke="#fff" fill="none"/>
        </g>
    </g>
</svg>
